<svg width="32" height="32" viewBox="0 0 32 32" fill="none" xmlns="http://www.w3.org/2000/svg">
<path d="M15 26C15 26.2652 14.8946 26.5196 14.7071 26.7071C14.5196 26.8946 14.2652 27 14 27C11.8244 27 9.69767 26.3549 7.88873 25.1462C6.07979 23.9375 4.66989 22.2195 3.83733 20.2095C3.00477 18.1995 2.78693 15.9878 3.21137 13.854C3.6358 11.7202 4.68345 9.76021 6.22183 8.22183C7.76021 6.68345 9.72022 5.6358 11.854 5.21137C13.9878 4.78693 16.1995 5.00477 18.2095 5.83733C20.2195 6.66989 21.9375 8.07979 23.1462 9.88873C24.3549 11.6977 25 13.8244 25 16C25 16.2652 24.8946 16.5196 24.7071 16.7071C24.5196 16.8946 24.2652 17 24 17C23.7348 17 23.4804 16.8946 23.2929 16.7071C23.1054 16.5196 23 16.2652 23 16C23 14.22 22.4722 12.4799 21.4832 10.9999C20.4943 9.51983 19.0887 8.36628 17.4442 7.68509C15.7996 7.0039 13.99 6.82567 12.2442 7.17294C10.4984 7.5202 8.89472 8.37737 7.63604 9.63604C6.37737 10.8947 5.5202 12.4984 5.17294 14.2442C4.82567 15.99 5.0039 17.7996 5.68509 19.4442C6.36628 21.0887 7.51983 22.4943 8.99987 23.4832C10.4799 24.4722 12.22 25 14 25C14.2652 25 14.5196 25.1054 14.7071 25.2929C14.8946 25.4804 15 25.7348 15 26ZM13 10V15H10C9.73479 15 9.48043 15.1054 9.2929 15.2929C9.10536 15.4804 9 15.7348 9 16C9 16.2652 9.10536 16.5196 9.2929 16.7071C9.48043 16.8946 9.73479 17 10 17H14C14.2652 17 14.5196 16.8946 14.7071 16.7071C14.8946 16.5196 15 16.2652 15 16V10C15 9.73479 14.8946 9.48043 14.7071 9.2929C14.5196 9.10536 14.2652 9 14 9C13.7348 9 13.4804 9.10536 13.2929 9.2929C13.1054 9.48043 13 9.73479 13 10ZM21 18H17C16.7348 18 16.4804 18.1054 16.2929 18.2929C16.1054 18.4804 16 18.7348 16 19C16 19.2652 16.1054 19.5196 16.2929 19.7071C16.4804 19.8946 16.7348 20 17 20H20V21H17C16.7348 21 16.4804 21.1054 16.2929 21.2929C16.1054 21.4804 16 21.7348 16 22V25C16 25.2652 16.1054 25.5196 16.2929 25.7071C16.4804 25.8946 16.7348 26 17 26H21C21.2652 26 21.5196 25.8946 21.7071 25.7071C21.8946 25.5196 22 25.2652 22 25C22 24.7348 21.8946 24.4804 21.7071 24.2929C21.5196 24.1054 21.2652 24 21 24H18V23H21C21.2652 23 21.5196 22.8946 21.7071 22.7071C21.8946 22.5196 22 22.2652 22 22V19C22 18.7348 21.8946 18.4804 21.7071 18.2929C21.5196 18.1054 21.2652 18 21 18ZM28 18C27.7348 18 27.4804 18.1054 27.2929 18.2929C27.1054 18.4804 27 18.7348 27 19V21H25V19C25 18.7348 24.8946 18.4804 24.7071 18.2929C24.5196 18.1054 24.2652 18 24 18C23.7348 18 23.4804 18.1054 23.2929 18.2929C23.1054 18.4804 23 18.7348 23 19V22C23 22.2652 23.1054 22.5196 23.2929 22.7071C23.4804 22.8946 23.7348 23 24 23H27V25C27 25.2652 27.1054 25.5196 27.2929 25.7071C27.4804 25.8946 27.7348 26 28 26C28.2652 26 28.5196 25.8946 28.7071 25.7071C28.8946 25.5196 29 25.2652 29 25V19C29 18.7348 28.8946 18.4804 28.7071 18.2929C28.5196 18.1054 28.2652 18 28 18Z" fill="white"/>
</svg>
