<svg width="48" height="48" viewBox="0 0 48 48" fill="none" xmlns="http://www.w3.org/2000/svg">
<g clip-path="url(#clip0_834_4153)">
<path d="M10.68 3.06897L5.787 14.583L18.195 16.077L16.695 13.476L15.405 11.244C18.8478 9.36585 22.8101 8.66454 26.6884 9.24686C30.5667 9.82918 34.1484 11.6632 36.8878 14.4696C39.6272 17.2759 41.3743 20.9008 41.8628 24.792C42.3514 28.6832 41.5547 32.6275 39.594 36.024C37.6141 39.4576 34.5558 42.1414 30.8941 43.6587C27.2325 45.176 23.1723 45.4419 19.344 44.415C15.5146 43.3911 12.1306 41.1312 9.71755 37.9864C7.30454 34.8416 5.99768 30.9879 6 27.024H3C3.003 31.647 4.53012 36.14 7.34488 39.8073C10.1596 43.4747 14.105 46.1117 18.57 47.31C27.741 49.767 37.44 45.75 42.186 37.524C44.4954 33.5197 45.4198 28.8656 44.8162 24.2826C44.2125 19.6997 42.1145 15.4437 38.847 12.174C35.5799 8.90578 31.3242 6.80905 26.742 6.20997C22.3115 5.63482 17.813 6.48931 13.902 8.64897L10.683 3.06897H10.68ZM24 18.024V27.036H15V30.036H27V18.024H24Z" fill="white"/>
</g>
<defs>
<clipPath id="clip0_834_4153">
<rect width="48" height="48" fill="white"/>
</clipPath>
</defs>
</svg>
