<svg width="48" height="48" viewBox="0 0 48 48" fill="none" xmlns="http://www.w3.org/2000/svg">
<path d="M23.8471 27.7701C25.8794 27.7701 27.5269 26.1226 27.5269 24.0903C27.5269 22.058 25.8794 20.4105 23.8471 20.4105C21.8148 20.4105 20.1672 22.058 20.1672 24.0903C20.1672 26.1226 21.8148 27.7701 23.8471 27.7701Z" fill="white"/>
<path d="M23.8471 25.4781C24.6135 25.4781 25.2349 24.8568 25.2349 24.0903C25.2349 23.3238 24.6135 22.7025 23.8471 22.7025C23.0806 22.7025 22.4592 23.3238 22.4592 24.0903C22.4592 24.8568 23.0806 25.4781 23.8471 25.4781Z" fill="#0C0C68"/>
<path d="M4.80839 35.0974C5.58668 35.0974 6.2176 34.4664 6.2176 33.6881C6.2176 32.9099 5.58668 32.2789 4.80839 32.2789C4.0301 32.2789 3.39917 32.9099 3.39917 33.6881C3.39917 34.4664 4.0301 35.0974 4.80839 35.0974Z" fill="white"/>
<path d="M44.4917 24.0902C45.0553 24.0902 45.5122 23.6333 45.5122 23.0697C45.5122 22.5061 45.0553 22.0492 44.4917 22.0492C43.9281 22.0492 43.4712 22.5061 43.4712 23.0697C43.4712 23.6333 43.9281 24.0902 44.4917 24.0902Z" fill="white"/>
<path d="M15.2483 4.92727C15.8119 4.92727 16.2688 4.47037 16.2688 3.90675C16.2688 3.34313 15.8119 2.88623 15.2483 2.88623C14.6847 2.88623 14.2278 3.34313 14.2278 3.90675C14.2278 4.47037 14.6847 4.92727 15.2483 4.92727Z" fill="white"/>
<path d="M20.1475 45.1137C20.7111 45.1137 21.168 44.6568 21.168 44.0932C21.168 43.5296 20.7111 43.0727 20.1475 43.0727C19.5839 43.0727 19.127 43.5296 19.127 44.0932C19.127 44.6568 19.5839 45.1137 20.1475 45.1137Z" fill="white"/>
<path d="M29.8843 29.6988C34.8918 27.9455 38.3758 24.6555 38.5725 24.4669C38.6751 24.3686 38.7331 24.2325 38.7331 24.0904C38.7331 23.9482 38.6751 23.8122 38.5725 23.7139C38.3768 23.5262 34.927 20.268 29.9601 18.5083L33.2346 15.2338C33.3669 15.1013 33.3669 14.8868 33.2346 14.7544C33.1021 14.6219 32.8873 14.6219 32.7549 14.7544L29.2614 18.2479C29.292 18.2609 29.3157 18.2849 29.3448 18.3007C27.651 17.7581 25.7981 17.4008 23.8473 17.4008C21.9362 17.4008 20.1195 17.7443 18.4538 18.2683L14.9398 14.7544C14.8073 14.6219 14.5926 14.6219 14.4601 14.7544C14.3278 14.8868 14.3278 15.1013 14.4601 15.2338L17.7346 18.5083C12.7676 20.2681 9.31801 23.5262 9.12236 23.7139C9.01969 23.8122 8.96173 23.9482 8.96173 24.0904C8.96173 24.2325 9.01969 24.3686 9.12236 24.4669C9.31903 24.6555 12.8029 27.9455 17.8104 29.6988L14.4601 33.0491C14.3278 33.1816 14.3278 33.3961 14.4601 33.5286C14.5926 33.661 14.8074 33.6611 14.9398 33.5286L18.5317 29.9367C20.1762 30.4468 21.9659 30.78 23.8473 30.78C25.7288 30.78 27.5185 30.4469 29.1629 29.9367L32.7549 33.5286C32.8873 33.661 33.1021 33.6611 33.2346 33.5286C33.3669 33.3961 33.3669 33.1816 33.2346 33.0491L29.8843 29.6988ZM28.0036 29.1602C29.4695 27.9562 30.4067 26.131 30.4067 24.0904C30.4067 22.045 29.4647 20.2164 27.9929 19.0126C32.6011 20.2252 36.229 23.064 37.4268 24.0904C36.2301 25.1158 32.6061 27.9462 28.0036 29.1602ZM23.8473 18.3138C27.0327 18.3138 29.6241 20.9052 29.6241 24.0904C29.6241 27.2756 27.0327 29.867 23.8473 29.867C20.6621 29.867 18.0708 27.2756 18.0708 24.0904C18.0708 20.9052 20.6621 18.3138 23.8473 18.3138ZM19.711 19.0058C18.2341 20.2095 17.2882 22.041 17.2882 24.0904C17.2882 26.138 18.2323 27.9682 19.7069 29.172C15.0948 27.9612 11.4664 25.1173 10.268 24.0904C11.4666 23.0632 15.0975 20.2173 19.711 19.0058ZM7.41256 13.5155H13.3217C13.509 13.5155 13.6608 13.3637 13.6608 13.1764V7.26736C13.6608 7.08012 13.509 6.92828 13.3217 6.92828H7.41256C7.22532 6.92828 7.07349 7.08012 7.07349 7.26736V13.1764C7.07349 13.3637 7.22532 13.5155 7.41256 13.5155ZM7.75164 7.60644H12.9827V12.8373H7.75164V7.60644ZM40.6957 6.92828H34.7865C34.5993 6.92828 34.4475 7.08012 34.4475 7.26736V13.1764C34.4475 13.3637 34.5993 13.5155 34.7865 13.5155H40.6957C40.883 13.5155 41.0348 13.3637 41.0348 13.1764V7.26736C41.0348 7.08012 40.883 6.92828 40.6957 6.92828ZM40.3566 12.8373H35.1256V7.60644H40.3566V12.8373ZM13.3217 34.4103H7.41256C7.22532 34.4103 7.07349 34.5621 7.07349 34.7494V40.6587C7.07349 40.8459 7.22532 40.9977 7.41256 40.9977H13.3217C13.509 40.9977 13.6608 40.8459 13.6608 40.6587V34.7494C13.6608 34.5621 13.509 34.4103 13.3217 34.4103ZM12.9827 40.3196H7.75164V35.0884H12.9827L12.9827 40.3196ZM40.6957 34.4103H34.7865C34.5993 34.4103 34.4475 34.5621 34.4475 34.7494V40.6587C34.4475 40.8459 34.5993 40.9977 34.7865 40.9977H40.6957C40.883 40.9977 41.0348 40.8459 41.0348 40.6587V34.7494C41.0348 34.5621 40.883 34.4103 40.6957 34.4103ZM40.3566 40.3196H35.1256V35.0884H40.3566V40.3196Z" fill="white"/>
<path d="M23.6102 15.5312C23.6764 15.5974 23.763 15.6302 23.8498 15.6302C23.9365 15.6302 24.0234 15.5971 24.0896 15.5309L26.3906 13.2299C26.5229 13.0975 26.5229 12.883 26.3906 12.7505C26.2581 12.618 26.0433 12.618 25.9109 12.7505L23.8495 14.8117L21.7833 12.7502C21.6506 12.6175 21.4358 12.618 21.3036 12.7507C21.1714 12.8832 21.1716 13.098 21.3041 13.2302L23.6102 15.5312ZM24.0843 32.6497C23.9518 32.5172 23.7373 32.5175 23.6048 32.65L21.3038 34.9509C21.1715 35.0834 21.1715 35.2979 21.3038 35.4304C21.4363 35.5628 21.6511 35.5628 21.7836 35.4304L23.8449 33.3691L25.9111 35.4306C26.0434 35.5629 26.2587 35.5627 26.3908 35.4301C26.523 35.2976 26.5228 35.0829 26.3903 34.9506L24.0843 32.6497Z" fill="white"/>
</svg>
