<svg width="48" height="48" viewBox="0 0 48 48" fill="none" xmlns="http://www.w3.org/2000/svg">
<path d="M39.5203 12.5914L24.4615 4.12085C24.1749 3.95972 23.8251 3.95972 23.5385 4.12085L8.47972 12.5914C8.18344 12.7581 8 13.0717 8 13.4118V27.5294C8 36.3518 15.1776 43.5294 24 43.5294C32.8224 43.5294 40 36.3518 40 27.5294V13.4118C40.0001 13.0717 39.8168 12.7582 39.5203 12.5914ZM38.1177 27.5294C38.1177 35.3139 31.7846 41.6471 24.0001 41.6471C16.2156 41.6471 9.88245 35.3139 9.88245 27.5294V13.9623L24.0001 6.02108L38.1177 13.9623V27.5294Z" fill="white"/>
<path d="M18.8235 20.4704V22.8234H16.9412C16.4214 22.8234 16 23.2448 16 23.7645V27.9998C16 32.411 19.5888 35.9998 24 35.9998C28.4112 35.9998 32 32.411 32 27.9998V23.7645C32 23.2448 31.5785 22.8234 31.0588 22.8234H29.1765V20.4704C29.1765 19.0876 28.638 17.7878 27.6603 16.8101C26.6826 15.8324 25.3828 15.2939 24 15.2939C21.1457 15.2939 18.8235 17.6161 18.8235 20.4704ZM30.1176 27.9998C30.1176 31.3731 27.3733 34.1175 24 34.1175C20.6267 34.1175 17.8824 31.3731 17.8824 27.9998V24.7057H30.1176V27.9998ZM27.2941 20.4704V22.8234H20.7059V20.4704C20.7059 18.654 22.1836 17.1763 24 17.1763C24.8799 17.1763 25.7072 17.519 26.3293 18.1411C26.9514 18.7632 27.2941 19.5905 27.2941 20.4704Z" fill="white"/>
<path d="M23.9998 26.5879C23.48 26.5879 23.0586 27.0093 23.0586 27.5291V30.3526C23.0586 30.8723 23.48 31.2938 23.9998 31.2938C24.5196 31.2938 24.9409 30.8723 24.9409 30.3526V27.5291C24.9409 27.0093 24.5196 26.5879 23.9998 26.5879Z" fill="white"/>
</svg>
