<svg width="24" height="25" viewBox="0 0 24 25" fill="none" xmlns="http://www.w3.org/2000/svg">
<path d="M12 16.9287C13.0609 16.9287 14.0783 16.5073 14.8284 15.7571C15.5786 15.007 16 13.9896 16 12.9287C16 11.8678 15.5786 10.8504 14.8284 10.1003C14.0783 9.35014 13.0609 8.92871 12 8.92871C10.9391 8.92871 9.92172 9.35014 9.17157 10.1003C8.42143 10.8504 8 11.8678 8 12.9287C8 13.9896 8.42143 15.007 9.17157 15.7571C9.92172 16.5073 10.9391 16.9287 12 16.9287V16.9287Z" stroke="white" stroke-width="1.5" stroke-linecap="round" stroke-linejoin="round"/>
<path d="M3 16.9287V8.92871C3 7.60263 3.52678 6.33086 4.46447 5.39318C5.40215 4.4555 6.67392 3.92871 8 3.92871H16C17.3261 3.92871 18.5979 4.4555 19.5355 5.39318C20.4732 6.33086 21 7.60263 21 8.92871V16.9287C21 18.2548 20.4732 19.5266 19.5355 20.4642C18.5979 21.4019 17.3261 21.9287 16 21.9287H8C6.67392 21.9287 5.40215 21.4019 4.46447 20.4642C3.52678 19.5266 3 18.2548 3 16.9287Z" stroke="white" stroke-width="1.5"/>
<path d="M17.5 7.43873L17.51 7.42773" stroke="white" stroke-width="1.5" stroke-linecap="round" stroke-linejoin="round"/>
</svg>
