<svg width="144" height="38" viewBox="0 0 144 38" fill="none" xmlns="http://www.w3.org/2000/svg">
<g clip-path="url(#clip0_827_10035)">
<path d="M13.2545 17.3198H16.8942V20.6785H13.2545V17.3198ZM30.1191 16.4664C30.1191 16.7792 30.1108 17.0969 30.0926 17.418L30.1042 17.4213C30.0496 18.7555 29.884 20.0563 29.606 21.3206H29.5977C29.4818 21.8546 29.3478 22.3803 29.1938 22.901C28.6195 24.859 27.7886 26.7088 26.7359 28.4123C24.7547 31.6262 21.9889 34.3161 18.6785 36.2092C17.5331 36.8597 16.3364 37.417 15.0934 37.8528C14.4942 37.6449 13.8984 37.402 13.3224 37.1375C13.3174 37.1375 13.3141 37.1375 13.3141 37.1342C9.17783 35.2644 5.66389 32.097 3.31686 28.206C2.74583 27.2661 2.24762 26.2813 1.82389 25.2649C1.46803 24.5445 1.18169 23.751 0.949962 22.9043C-0.453624 17.774 0.195204 10.669 0.0627899 5.90965C4.26362 5.91464 8.45121 4.71856 11.9999 2.47446C11.9999 2.47446 12.0016 2.47446 12.0049 2.47446C13.094 1.79407 14.1284 1.01387 15.0868 0.152165C15.0868 0.152165 15.0901 0.152161 15.0901 0.148834H15.0934C15.0934 0.148834 15.0984 0.152165 15.1033 0.152165C19.18 3.84687 24.6289 5.92961 30.1174 5.90965V16.4681L30.1191 16.4664ZM27.2639 19C27.2639 15.984 24.8324 13.5403 21.8316 13.5403H12.9069V12.3575C12.9069 11.2379 13.8123 10.3297 14.9246 10.3297C16.0369 10.3297 16.9422 11.2379 16.9422 12.3575V12.3741H20.3569V12.3575C20.3569 9.34152 17.9238 6.89779 14.9246 6.89779C11.9254 6.89779 9.49231 9.34152 9.49231 12.3575V21.0295H8.31548C7.20155 21.0295 6.29783 20.1196 6.29783 19.0017C6.29783 17.8838 7.20155 16.9738 8.31548 16.9738H8.33203V13.5419H8.31548C5.31465 13.5419 2.8832 15.9873 2.8832 19.0017C2.8832 22.016 5.31465 24.4614 8.31548 24.4614H16.9439V25.6441C16.9439 26.7637 16.0385 27.672 14.9262 27.672C13.814 27.672 12.9086 26.7637 12.9086 25.6441V25.6275H9.49396V25.6441C9.49396 28.6601 11.9271 31.1039 14.9262 31.1039C17.9254 31.1039 20.3585 28.6601 20.3585 25.6441V16.9721H21.8316C22.9455 16.9721 23.8493 17.8821 23.8493 19C23.8493 20.1179 22.9455 21.0278 21.8316 21.0278H21.8151V24.4597H21.8316C24.8324 24.4597 27.2639 22.0143 27.2639 19Z" fill="white"/>
<path d="M42.0413 10.2049C45.3004 10.2049 47.3693 12.0198 47.4587 14.941H44.64C44.5737 13.5469 43.5823 12.7285 41.9966 12.7285C40.2571 12.7285 39.1348 13.5686 39.1348 14.9193C39.1348 16.0705 39.7522 16.7126 41.0946 17.0221L43.627 17.576C46.3795 18.1732 47.7219 19.5906 47.7219 22.0027C47.7219 25.012 45.3881 26.96 41.8427 26.96C38.2973 26.96 36.1622 25.1235 36.0959 22.2239H38.9147C38.9362 23.5963 40.0369 24.4148 41.8427 24.4148C43.6485 24.4148 44.9031 23.5963 44.9031 22.2456C44.9031 21.1609 44.352 20.5205 43.0311 20.2327L40.4772 19.6571C37.7462 19.0599 36.3161 17.4878 36.3161 15.0108C36.3161 12.1778 38.6499 10.2082 42.0413 10.2082" fill="white"/>
<path d="M49.2414 21.2025C49.2414 17.7723 51.466 15.4051 54.6588 15.4051C57.8516 15.4051 59.9868 17.596 59.9868 21.0045V21.823L51.7953 21.8446C51.994 23.7693 53.0069 24.7442 54.7895 24.7442C56.2643 24.7442 57.2326 24.1686 57.5421 23.1289H60.0298C59.568 25.5194 57.5851 26.9567 54.7449 26.9567C51.509 26.9567 49.2397 24.5878 49.2397 21.2025M51.8599 20.1179H57.3203C57.3203 18.6124 56.2858 17.6176 54.677 17.6176C53.0682 17.6176 52.1231 18.481 51.8582 20.1179" fill="white"/>
<path d="M62.1897 26.6689V10.2049H64.8529V20.3175L69.0818 15.7361H72.4501L68.3105 20.0746L72.3624 26.6689H69.2788L66.4385 22.0659L64.8529 23.7261V26.6689H62.1897Z" fill="white"/>
<path d="M84.0546 15.7361V26.6689H81.5668L81.3682 25.2083C80.7078 26.248 79.2993 26.9567 77.846 26.9567C75.3351 26.9567 73.8604 25.2532 73.8604 22.5749V15.7361H76.5467V21.6234C76.5467 23.7028 77.361 24.5446 78.859 24.5446C80.5539 24.5446 81.3682 23.5481 81.3682 21.4687V15.7378H84.0546V15.7361Z" fill="white"/>
<path d="M93.6563 18.1932H92.6648C90.7266 18.1932 89.5167 19.2329 89.5167 21.3572V26.6689H86.8303V15.7594H89.3627L89.5167 17.3531C89.9785 16.2685 91.0146 15.5382 92.4678 15.5382C92.8419 15.5382 93.216 15.5831 93.6563 15.6929V18.1932Z" fill="white"/>
<path d="M94.8447 21.2474C94.8447 17.8389 96.826 15.4051 100.107 15.4051C101.626 15.4051 102.968 16.0472 103.652 17.1319V10.2049H106.317V26.6689H103.851L103.675 24.9654C103.015 26.2264 101.606 26.9567 99.9542 26.9567C96.8061 26.9567 94.8464 24.6327 94.8464 21.2474M103.632 21.1593C103.632 19.1896 102.42 17.8172 100.55 17.8172C98.6798 17.8172 97.5327 19.2113 97.5327 21.1593C97.5327 23.1073 98.6781 24.478 100.55 24.478C102.422 24.478 103.632 23.1289 103.632 21.1593Z" fill="white"/>
<path d="M109.511 26.6689V10.491H119.507V13.1028H112.328V17.2633H118.759V19.7636H112.328V24.0571H119.507V26.6689H109.511Z" fill="white"/>
<path d="M121.225 29.4786H122.832C123.89 29.4786 124.55 29.2357 125.012 27.9515L125.32 27.133L120.938 15.7361H123.779L126.576 23.7028L129.527 15.7361H132.301L126.973 29.1026C126.159 31.1388 125.014 31.9789 123.231 31.9789C122.483 31.9789 121.822 31.8907 121.228 31.736V29.4786H121.225Z" fill="white"/>
<path d="M133.182 21.2025C133.182 17.7723 135.406 15.4051 138.599 15.4051C141.792 15.4051 143.927 17.596 143.927 21.0045V21.823L135.736 21.8446C135.934 23.7693 136.947 24.7442 138.73 24.7442C140.205 24.7442 141.173 24.1686 141.483 23.1289H143.97C143.508 25.5194 141.526 26.9567 138.685 26.9567C135.449 26.9567 133.18 24.5878 133.18 21.2025M135.8 20.1179H141.261C141.261 18.6124 140.226 17.6176 138.617 17.6176C137.009 17.6176 136.063 18.481 135.799 20.1179" fill="white"/>
</g>
<defs>
<clipPath id="clip0_827_10035">
<rect width="144" height="37.9286" fill="white" transform="translate(0 0.0357056)"/>
</clipPath>
</defs>
</svg>
