<svg width="65" height="64" viewBox="0 0 65 64" fill="none" xmlns="http://www.w3.org/2000/svg">
<path fill-rule="evenodd" clip-rule="evenodd" d="M27.5075 35.2788C27.5497 36.0474 27.7655 36.7696 28.1163 37.4072L25.4999 38.2792V44C25.4999 44.5524 25.9477 45 26.4999 45C27.0521 45 27.4999 44.5524 27.4999 44V39.7208L29.5499 39.0374C30.3769 39.6426 31.3967 40 32.4999 40C33.6031 40 34.6229 39.6426 35.4499 39.0374L37.4999 39.7208V44C37.4999 44.5524 37.9477 45 38.4999 45C39.0523 45 39.4999 44.5524 39.4999 44V38.2792L36.8835 37.407C37.2343 36.7696 37.4501 36.0474 37.4923 35.2788L39.6435 35.8166L40.5193 40.1962C40.6277 40.7376 41.1545 41.0888 41.6961 40.9806C42.2375 40.8722 42.5887 40.3454 42.4805 39.8038L41.3563 34.1834L37.4999 33.2192V33C37.4999 32.6576 37.4655 32.3232 37.3999 32H40.4999V26C40.4999 25.4478 40.0521 25 39.4999 25C38.9477 25 38.4999 25.4478 38.4999 26V30H36.5003C36.0949 29.4602 35.5827 29.0052 34.9951 28.6662C35.3139 28.1896 35.4999 27.6164 35.4999 27C35.4999 25.3432 34.1567 24 32.4999 24C30.8431 24 29.4999 25.3432 29.4999 27C29.4999 27.6164 29.6859 28.1896 30.0047 28.6662C29.4171 29.0052 28.9049 29.4602 28.4995 30H26.4999V26C26.4999 25.4478 26.0521 25 25.4999 25C24.9477 25 24.4999 25.4478 24.4999 26V32H27.5999C27.5343 32.3232 27.4999 32.6576 27.4999 33V33.2192L23.6435 34.1834L22.5193 39.8038C22.4111 40.3454 22.7623 40.8722 23.3037 40.9806C23.8453 41.0888 24.3721 40.7376 24.4805 40.1962L25.3563 35.8166L27.5075 35.2788ZM35.4999 35V34.0228C35.4995 34.0082 35.4995 33.9934 35.4999 33.9788V33C35.4999 31.3432 34.1567 30 32.4999 30C30.8431 30 29.4999 31.3432 29.4999 33V33.9786C29.5003 33.9934 29.5003 34.0082 29.4999 34.0228V35C29.4999 36.6568 30.8431 38 32.4999 38C34.1567 38 35.4999 36.6568 35.4999 35ZM32.4999 28C33.0521 28 33.4999 27.5522 33.4999 27C33.4999 26.4478 33.0521 26 32.4999 26C31.9477 26 31.4999 26.4478 31.4999 27C31.4999 27.5522 31.9477 28 32.4999 28Z" fill="white"/>
<path fill-rule="evenodd" clip-rule="evenodd" d="M46.5 46H48.5C50.7092 46 52.5 47.7908 52.5 50V56C52.5 58.2092 50.7092 60 48.5 60H16.5C14.2909 60 12.5 58.2092 12.5 56V50C12.5 47.7908 14.2909 46 16.5 46H18.5V34H10.5V35C10.5 35.5522 10.0523 36 9.5 36H5.5C4.94772 36 4.5 35.5522 4.5 35V31C4.5 30.4478 4.94772 30 5.5 30H9.5C10.0523 30 10.5 30.4478 10.5 31V32H18.5V26C18.5 24.939 18.7065 23.9264 19.0815 23H12.5V10H11.5C10.9477 10 10.5 9.55228 10.5 9V5C10.5 4.44772 10.9477 4 11.5 4H15.5C16.0523 4 16.5 4.44772 16.5 5V9C16.5 9.55228 16.0523 10 15.5 10H14.5V21H20.2546C21.7208 19.1711 23.9736 18 26.5 18H31.5V10H30.5C29.9478 10 29.5 9.55228 29.5 9V5C29.5 4.44772 29.9478 4 30.5 4H34.5C35.0522 4 35.5 4.44772 35.5 5V9C35.5 9.55228 35.0522 10 34.5 10H33.5V18H38.5C41.0264 18 43.2792 19.1711 44.7454 21H50.5V10H49.5C48.9478 10 48.5 9.55228 48.5 9V5C48.5 4.44772 48.9478 4 49.5 4H53.5C54.0522 4 54.5 4.44772 54.5 5V9C54.5 9.55228 54.0522 10 53.5 10H52.5V23H45.9184C46.2934 23.9264 46.5 24.939 46.5 26V32H54.5V31C54.5 30.4478 54.9478 30 55.5 30H59.5C60.0522 30 60.5 30.4478 60.5 31V35C60.5 35.5522 60.0522 36 59.5 36H55.5C54.9478 36 54.5 35.5522 54.5 35V34H46.5V46ZM48.5 48C49.6046 48 50.5 48.8954 50.5 50V56C50.5 57.1046 49.6046 58 48.5 58H16.5C15.3954 58 14.5 57.1046 14.5 56V50C14.5 48.8954 15.3954 48 16.5 48H48.5ZM8.5 34V32H6.5V34H8.5ZM44.5 46H20.5V26C20.5 22.6862 23.1862 20 26.5 20H38.5C41.8138 20 44.5 22.6862 44.5 26V46ZM56.5 32V34H58.5V32H56.5ZM31.5 6V8H33.5V6H31.5ZM50.5 8V6H52.5V8H50.5ZM12.5 6V8H14.5V6H12.5Z" fill="white"/>
</svg>
