<svg width="24" height="25" viewBox="0 0 24 25" fill="none" xmlns="http://www.w3.org/2000/svg">
<path d="M23 3.93877C23 3.93877 20.982 5.13077 19.86 5.46877C19.2577 4.77628 18.4573 4.28546 17.567 4.06269C16.6767 3.83993 15.7395 3.89596 14.8821 4.22322C14.0247 4.55048 13.2884 5.13317 12.773 5.89248C12.2575 6.6518 11.9877 7.5511 12 8.46877V9.46877C10.2426 9.51433 8.50127 9.12458 6.93101 8.33421C5.36074 7.54385 4.01032 6.3774 3 4.93877C3 4.93877 -1 13.9388 8 17.9388C5.94053 19.3367 3.48716 20.0377 1 19.9388C10 24.9388 21 19.9388 21 8.43877C21 8.16077 20.972 7.88277 20.92 7.60877C21.94 6.60277 23 3.93877 23 3.93877Z" stroke="white" stroke-width="1.5" stroke-linecap="round" stroke-linejoin="round"/>
</svg>
