<svg width="267" height="726" viewBox="0 0 267 726" fill="none" xmlns="http://www.w3.org/2000/svg">
<path d="M-30.5661 83.2619L-29.2669 84.9333C-29.3671 84.7462 -29.4584 84.5607 -29.5573 84.3731C-29.9946 83.7535 -30.4345 83.1331 -30.8824 82.5108C-30.7746 82.7613 -30.6731 83.0112 -30.5661 83.2619ZM-23.7037 93.8237C-23.35 94.2552 -22.9882 94.6902 -22.6384 95.1201L-22.7407 94.9442L-23.9507 93.3179L-23.7037 93.8237ZM-28.644 87.8101C-27.856 88.7596 -27.1002 89.6975 -26.3148 90.6455C-26.5623 90.1551 -26.8281 89.6605 -27.0777 89.1688C-27.7859 88.2413 -28.5272 87.3026 -29.2537 86.3688C-29.0529 86.8487 -28.8423 87.3309 -28.644 87.8101ZM-16.2668 104.577C-15.9624 104.937 -15.6808 105.289 -15.3781 105.648L-15.384 105.639C-15.7054 105.226 -16.0413 104.808 -16.3665 104.394L-16.2668 104.577ZM-21.3719 98.6304C-20.6403 99.4793 -19.8978 100.333 -19.1751 101.179C-19.3904 100.793 -19.5972 100.409 -19.8141 100.023C-20.5796 99.0616 -21.306 98.1149 -22.0843 97.1495C-21.8495 97.6425 -21.6028 98.1379 -21.3719 98.6304ZM-26.8519 92.3077C-25.7989 93.5023 -24.7867 94.6818 -23.7529 95.8701C-24.0484 95.2571 -24.3473 94.644 -24.6479 94.0297C-25.6155 92.8431 -26.6027 91.65 -27.5805 90.4604C-27.3346 91.0768 -27.0943 91.6921 -26.8519 92.3077ZM-112.973 569.516L-112.7 569.101C-112.669 568.784 -112.635 568.469 -112.602 568.153L-112.814 568.538C-112.869 568.864 -112.919 569.19 -112.973 569.516ZM-8.12337 115.824L-7.8011 116.197C-7.93781 116.028 -8.06564 115.861 -8.20235 115.692L-8.12337 115.824ZM-13.6297 109.511C-12.9258 110.299 -12.2443 111.078 -11.5578 111.86C-11.7425 111.553 -11.9195 111.248 -12.1055 110.941C-12.7899 110.11 -13.4922 109.274 -14.1774 108.443C-13.9893 108.8 -13.8152 109.154 -13.6297 109.511ZM-19.2626 103.245C-18.2372 104.386 -17.2038 105.529 -16.1869 106.667C-16.5219 106.04 -16.873 105.409 -17.2123 104.781C-18.1582 103.661 -19.1318 102.531 -20.1062 101.399C-19.8239 102.015 -19.5411 102.631 -19.2626 103.245ZM-25.1204 96.8202C-23.8548 98.1848 -22.6078 99.542 -21.3791 100.892C-21.6966 100.205 -21.9969 99.5209 -22.3191 98.8321C-23.5287 97.4355 -24.7159 96.0462 -25.928 94.6478C-25.6499 95.3733 -25.3917 96.096 -25.1204 96.8202ZM-113.553 573.128C-113.37 572.887 -113.179 572.647 -112.993 572.406L-112.872 571.011C-113.024 571.246 -113.18 571.479 -113.33 571.714C-113.405 572.186 -113.481 572.657 -113.553 573.128ZM-115.155 575.258L-114.802 574.784L-114.664 573.835L-114.925 574.249C-115.002 574.586 -115.082 574.921 -115.155 575.258ZM-116.617 577.23L-116.57 577.164L-116.506 576.865L-116.617 577.23ZM-5.28676 120.768C-4.62738 121.506 -3.9549 122.248 -3.28831 122.988L-3.99519 121.89C-4.60616 121.172 -5.2524 120.439 -5.87993 119.714C-5.67952 120.066 -5.4863 120.416 -5.28676 120.768ZM-11.1285 114.385C-10.1197 115.463 -9.10371 116.544 -8.13228 117.606C-8.43245 117.086 -8.76106 116.557 -9.06633 116.035C-10.0649 114.886 -11.0474 113.744 -12.0473 112.594C-11.7446 113.19 -11.4283 113.79 -11.1285 114.385ZM-17.231 107.844L-13.4671 111.878C-13.8382 111.158 -14.1987 110.44 -14.5753 109.718C-15.7267 108.418 -16.9236 107.102 -18.109 105.789C-17.8063 106.477 -17.5278 107.158 -17.231 107.844ZM-23.4794 101.288C-22.0168 102.796 -20.5478 104.308 -19.1445 105.793C-19.4863 105.016 -19.857 104.233 -20.2081 103.454C-21.6041 101.914 -22.9623 100.389 -24.3783 98.8414C-24.0803 99.6564 -23.7686 100.474 -23.4794 101.288ZM-114.061 576.64C-113.794 576.337 -113.531 576.034 -113.261 575.732C-113.219 575.165 -113.18 574.597 -113.135 574.031C-113.365 574.334 -113.587 574.639 -113.817 574.943C-113.897 575.508 -113.983 576.073 -114.061 576.64ZM-115.879 578.708C-115.675 578.47 -115.465 578.235 -115.259 577.998C-115.197 577.537 -115.132 577.077 -115.067 576.616L-115.591 577.331C-115.687 577.79 -115.785 578.248 -115.879 578.708ZM-117.61 580.744L-117.211 580.275C-117.148 579.956 -117.087 579.637 -117.021 579.319C-117.123 579.461 -117.226 579.602 -117.328 579.745C-117.42 580.078 -117.517 580.41 -117.61 580.744ZM-119.203 582.657L-119.118 582.553L-119.019 582.175L-119.038 582.202L-119.203 582.657ZM3.53467 132.21C4.14903 132.871 4.77698 133.537 5.37903 134.192C5.23468 133.978 5.08223 133.761 4.93533 133.547C4.27002 132.783 3.62296 132.026 2.95425 131.26L3.53467 132.21ZM-2.48709 125.744C-1.50548 126.792 -0.545517 127.832 0.432281 128.879C0.113861 128.364 -0.184189 127.855 -0.5056 127.339C-1.44731 126.28 -2.42509 125.205 -3.3876 124.137C-3.09296 124.671 -2.77792 125.211 -2.48709 125.744ZM-8.80309 119.132C-7.56332 120.412 -6.3138 121.696 -5.11691 122.958C-5.48332 122.299 -5.85783 121.638 -6.23232 120.977C-7.43599 119.65 -8.60228 118.338 -9.82887 117.002C-9.47902 117.714 -9.14572 118.422 -8.80309 119.132ZM-15.2779 112.414C-13.8004 113.936 -12.3602 115.443 -10.8971 116.96C-11.2847 116.173 -11.6767 115.385 -12.0741 114.595C-13.4506 113.106 -14.8602 111.603 -16.2646 110.103C-15.9407 110.872 -15.5946 111.646 -15.2779 112.414ZM-21.9922 105.642C-20.3521 107.28 -18.6949 108.925 -17.1181 110.537C-17.4662 109.71 -17.8215 108.881 -18.179 108.052C-19.7156 106.421 -21.2661 104.785 -22.8426 103.137C-22.5535 103.973 -22.2733 104.807 -21.9922 105.642ZM-114.513 580.082C-114.177 579.753 -113.836 579.425 -113.497 579.097C-113.455 578.443 -113.407 577.79 -113.361 577.137C-113.665 577.482 -113.97 577.826 -114.271 578.172C-114.354 578.808 -114.433 579.446 -114.513 580.082ZM-116.546 582.109C-116.253 581.814 -115.961 581.52 -115.667 581.226C-115.597 580.663 -115.524 580.102 -115.452 579.539C-115.715 579.844 -115.972 580.15 -116.232 580.455C-116.339 581.006 -116.441 581.558 -116.546 582.109ZM-118.499 584.095C-118.264 583.852 -118.034 583.608 -117.797 583.365C-117.713 582.909 -117.623 582.454 -117.537 581.998C-117.743 582.245 -117.942 582.494 -118.147 582.742L-118.499 584.095ZM-120.351 586.022C-120.202 585.864 -120.047 585.708 -119.898 585.551C-119.816 585.224 -119.728 584.899 -119.644 584.573L-120.015 585.03C-120.126 585.36 -120.241 585.69 -120.351 586.022ZM-122.077 587.879L-121.94 587.731C-121.896 587.592 -121.854 587.452 -121.808 587.313L-121.868 587.389C-121.936 587.553 -122.009 587.715 -122.077 587.879ZM12.7365 143.727C13.3585 144.383 13.9237 145.016 14.5355 145.668C14.4382 145.53 14.3499 145.396 14.2523 145.258C13.632 144.56 12.9892 143.854 12.3638 143.154C12.4856 143.344 12.6164 143.537 12.7365 143.727ZM6.57124 137.297C7.50064 138.266 8.44237 139.239 9.3569 140.201C9.04102 139.718 8.73277 139.236 8.41264 138.752C7.49428 137.739 6.60056 136.738 5.66139 135.717C5.97559 136.247 6.26045 136.768 6.57124 137.297ZM0.0323334 130.493C1.32219 131.816 2.54286 133.109 3.8132 134.424C3.41664 133.759 2.99292 133.086 2.59041 132.419C1.41348 131.147 0.211945 129.864 -0.979004 128.586C-0.637207 129.223 -0.301392 129.858 0.0323334 130.493ZM-6.54141 123.868C-5.09869 125.317 -3.64792 126.768 -2.24257 128.201C-2.64719 127.447 -3.02548 126.701 -3.43903 125.945C-4.82399 124.475 -6.23102 122.996 -7.6593 121.508C-7.28737 122.294 -6.90358 123.084 -6.54141 123.868ZM-13.4964 116.879C-11.8147 118.549 -10.1966 120.192 -8.54411 121.849C-8.93811 121.014 -9.34825 120.174 -9.75372 119.336C-11.3123 117.712 -12.8846 116.083 -14.4619 114.451C-14.1345 115.262 -13.8153 116.07 -13.4964 116.879ZM-20.5711 109.969C-18.7624 111.728 -16.944 113.491 -15.1866 115.228C-15.5365 114.358 -15.8681 113.492 -16.2273 112.62C-17.9065 110.899 -19.6485 109.151 -21.3922 107.403C-21.1103 108.26 -20.8441 109.114 -20.5711 109.969ZM-114.925 583.512C-114.51 583.157 -114.102 582.799 -113.683 582.445C-113.646 581.735 -113.612 581.026 -113.571 580.315C-113.944 580.682 -114.313 581.049 -114.683 581.417C-114.768 582.115 -114.847 582.814 -114.925 583.512ZM-117.154 585.441C-116.785 585.115 -116.409 584.792 -116.036 584.468C-115.967 583.835 -115.904 583.202 -115.832 582.57C-116.16 582.902 -116.496 583.231 -116.821 583.563C-116.938 584.188 -117.046 584.815 -117.154 585.441ZM-119.315 587.363C-118.995 587.075 -118.67 586.789 -118.347 586.502C-118.254 585.955 -118.164 585.406 -118.068 584.86C-118.356 585.159 -118.647 585.458 -118.932 585.758C-119.065 586.292 -119.186 586.828 -119.315 587.363ZM-121.397 589.268C-121.137 589.028 -120.879 588.787 -120.616 588.548L-120.297 587.205C-120.525 587.451 -120.752 587.698 -120.98 587.943C-121.121 588.384 -121.26 588.826 -121.397 589.268ZM-123.378 591.117C-123.199 590.948 -123.026 590.776 -122.846 590.607C-122.748 590.285 -122.643 589.965 -122.542 589.643C-122.693 589.81 -122.84 589.979 -122.989 590.146C-123.118 590.47 -123.251 590.793 -123.378 591.117ZM-125.205 592.87L-125.024 592.695C-124.967 592.546 -124.913 592.396 -124.856 592.246L-124.964 592.369L-125.205 592.87ZM22.5039 155.683C22.9956 156.201 23.4953 156.723 23.9899 157.242C23.8456 157.045 23.7067 156.85 23.5615 156.653C23.0826 156.125 22.5855 155.59 22.0938 155.057C22.236 155.268 22.3642 155.473 22.5039 155.683ZM15.9752 148.901C16.8953 149.835 17.8022 150.764 18.6938 151.686C18.4254 151.295 18.1507 150.901 17.8816 150.509C16.9738 149.528 16.0546 148.542 15.1494 147.562C15.4296 148.01 15.6984 148.454 15.9752 148.901ZM9.42738 142.263C10.6531 143.506 11.8895 144.753 13.1051 145.991C12.6758 145.312 12.2359 144.628 11.7986 143.946C10.6625 142.74 9.47069 141.509 8.28867 140.283C8.66655 140.943 9.05589 141.606 9.42738 142.263ZM2.56917 135.375C4.02547 136.817 5.44781 138.244 6.86972 139.67C6.45491 138.951 6.05113 138.234 5.6291 137.512L1.44278 133.152C1.82703 133.896 2.19299 134.634 2.56917 135.375ZM-4.47839 128.457C-2.8183 130.08 -1.15988 131.704 0.470062 133.315C0.022995 132.449 -0.457184 131.572 -0.914886 130.703C-2.4234 129.155 -4.01134 127.573 -5.58228 125.999C-5.21034 126.819 -4.83971 127.639 -4.47839 128.457ZM-11.7594 121.375C-9.92865 123.136 -8.13524 124.879 -6.34819 126.621C-6.73201 125.772 -7.09801 124.927 -7.49329 124.075C-9.24127 122.313 -10.9697 120.56 -12.7364 118.79C-12.4023 119.654 -12.083 120.513 -11.7594 121.375ZM-19.2256 114.262C-17.2505 116.136 -15.2809 118.008 -13.3478 119.862C-13.6998 118.941 -14.0836 118.011 -14.4487 117.086C-16.2608 115.285 -18.1705 113.442 -20.0582 111.608C-19.7805 112.493 -19.491 113.38 -19.2256 114.262ZM-110.276 583.243C-85.4847 565.489 -55.0986 549.513 -24.1274 533.236C89.5043 473.517 210.885 409.677 90.7322 238.419M-115.293 586.911C-114.816 586.553 -114.328 586.198 -113.846 585.842C-113.814 585.077 -113.781 584.313 -113.742 583.549C-114.18 583.924 -114.617 584.299 -115.051 584.675C-115.134 585.42 -115.219 586.164 -115.293 586.911ZM-117.719 588.762C-117.274 588.42 -116.827 588.078 -116.377 587.738C-116.311 587.037 -116.238 586.339 -116.163 585.64C-116.569 585.997 -116.968 586.356 -117.37 586.715C-117.489 587.396 -117.61 588.078 -117.719 588.762ZM-120.075 590.598C-119.67 590.279 -119.271 589.957 -118.862 589.639C-118.765 589.017 -118.666 588.395 -118.563 587.775C-118.929 588.104 -119.288 588.436 -119.65 588.767C-119.794 589.377 -119.937 589.987 -120.075 590.598ZM-122.356 592.415C-122.006 592.133 -121.654 591.851 -121.302 591.569C-121.186 591.037 -121.078 590.503 -120.956 589.972C-121.268 590.261 -121.584 590.547 -121.891 590.836C-122.051 591.361 -122.201 591.889 -122.356 592.415ZM-124.56 594.224C-124.277 593.989 -123.987 593.755 -123.702 593.52L-123.319 592.205C-123.571 592.447 -123.826 592.688 -124.075 592.931L-124.56 594.224ZM-126.668 596.006L-126.072 595.497C-125.956 595.177 -125.833 594.859 -125.713 594.54L-126.221 595.046C-126.368 595.366 -126.523 595.685 -126.668 596.006ZM-128.58 597.653L-128.356 597.455L-128.164 597.015L-128.329 597.187C-128.415 597.342 -128.495 597.498 -128.58 597.653ZM32.4412 167.534C32.8746 167.978 33.3192 168.427 33.7467 168.868L33.6593 168.754C33.1519 168.205 32.6581 167.662 32.1499 167.112L32.4412 167.534ZM25.8564 160.803C26.7913 161.76 27.7245 162.717 28.6675 163.676C28.3461 163.225 27.9979 162.762 27.674 162.31C26.8091 161.391 25.9073 160.456 25.0221 159.529C25.3006 159.954 25.5813 160.38 25.8564 160.803ZM19.1986 154.128C20.347 155.26 21.5091 156.397 22.6186 157.512C22.2619 156.973 21.9278 156.443 21.566 155.904C20.3564 154.64 19.1837 153.393 17.9622 152.124C18.366 152.789 18.8007 153.465 19.1986 154.128ZM12.1213 147.13L16.4414 151.402C15.9769 150.642 15.5035 149.879 15.0314 149.116C13.7063 147.757 12.3315 146.375 10.9686 144.998C11.3643 145.713 11.7324 146.417 12.1213 147.13ZM4.94472 140.152C6.59419 141.734 8.24321 143.315 9.84004 144.873C9.4006 144.081 8.93867 143.281 8.48904 142.485C6.87523 140.855 5.31792 139.251 3.6799 137.611C4.10236 138.459 4.53203 139.308 4.94472 140.152ZM-2.49223 133.023C-0.676315 134.76 1.13026 136.491 2.93004 138.221C2.49443 137.343 2.06691 136.468 1.61983 135.587C-0.0682831 133.91 -1.81755 132.205 -3.55704 130.506C-3.18977 131.348 -2.84888 132.183 -2.49223 133.023ZM-10.1244 125.817C-8.13568 127.674 -6.16013 129.525 -4.22914 131.357C-4.61465 130.465 -5.02905 129.565 -5.4256 128.67C-7.32686 126.811 -9.19203 124.969 -11.1264 123.096C-10.7918 124.003 -10.4467 124.912 -10.1244 125.817ZM-18.013 118.469C-15.8906 120.438 -13.7872 122.398 -11.6937 124.355C-12.0282 123.433 -12.3666 122.509 -12.7139 121.584C-14.689 119.679 -16.7376 117.742 -18.7765 115.81C-18.5132 116.698 -18.2652 117.583 -18.013 118.469ZM-115.599 590.308C-115.055 589.95 -114.513 589.591 -113.964 589.235C-113.941 588.43 -113.911 587.627 -113.88 586.823C-114.385 587.202 -114.89 587.581 -115.39 587.961C-115.461 588.743 -115.532 589.526 -115.599 590.308ZM-118.209 592.046C-117.697 591.701 -117.186 591.355 -116.669 591.011C-116.607 590.269 -116.539 589.528 -116.471 588.786C-116.942 589.147 -117.419 589.506 -117.885 589.868C-117.994 590.594 -118.104 591.32 -118.209 592.046ZM-120.764 593.785C-120.292 593.458 -119.811 593.135 -119.335 592.811C-119.239 592.131 -119.134 591.453 -119.031 590.775C-119.466 591.119 -119.905 591.462 -120.335 591.807C-120.48 592.466 -120.628 593.124 -120.764 593.785ZM-123.253 595.536C-122.823 595.23 -122.389 594.927 -121.955 594.622C-121.832 594.013 -121.7 593.405 -121.568 592.798C-121.965 593.119 -122.356 593.443 -122.749 593.766C-122.92 594.355 -123.09 594.945 -123.253 595.536ZM-125.659 597.273C-125.278 596.994 -124.902 596.715 -124.517 596.437C-124.376 595.916 -124.241 595.391 -124.095 594.87C-124.444 595.163 -124.784 595.458 -125.13 595.752C-125.312 596.258 -125.481 596.766 -125.659 597.273ZM-127.98 598.988C-127.667 598.753 -127.357 598.518 -127.043 598.285C-126.897 597.857 -126.745 597.431 -126.598 597.004C-126.873 597.242 -127.151 597.479 -127.425 597.717C-127.61 598.141 -127.798 598.563 -127.98 598.988ZM-130.187 600.666C-129.97 600.499 -129.75 600.334 -129.532 600.167C-129.401 599.857 -129.27 599.547 -129.135 599.237C-129.324 599.406 -129.515 599.572 -129.7 599.74C-129.864 600.048 -130.026 600.357 -130.187 600.666ZM-132.214 602.258L-131.947 602.048L-131.72 601.595L-131.92 601.783L-132.214 602.258ZM42.6297 179.391L42.718 179.48L42.6165 179.373L42.6297 179.391ZM36.1791 172.95C37.0104 173.781 37.8562 174.618 38.6786 175.445C38.4226 175.098 38.1865 174.758 37.9288 174.41C37.0079 173.445 36.1388 172.505 35.2009 171.532C35.5206 172.003 35.8615 172.481 36.1791 172.95ZM29.1549 165.938C30.348 167.117 31.482 168.27 32.6691 169.447C32.279 168.88 31.8926 168.316 31.4969 167.747C30.4036 166.622 29.2819 165.484 28.1763 164.354C28.5163 164.887 28.8199 165.407 29.1549 165.938ZM22.0645 159.06C23.4987 160.442 24.9431 161.828 26.3396 163.193C25.8789 162.476 25.3889 161.748 24.9223 161.029C23.5408 159.632 22.1825 158.244 20.7717 156.833C21.2103 157.578 21.6344 158.318 22.0645 159.06ZM14.7439 151.981C16.3837 153.559 17.9869 155.121 19.6236 156.697C19.1591 155.911 18.7299 155.136 18.2552 154.345C16.6766 152.774 15.0645 151.186 13.4575 149.601C13.8824 150.393 14.3295 151.192 14.7439 151.981ZM7.17203 144.834C8.97775 146.522 10.7992 148.218 12.5463 149.878C12.0954 149.036 11.6373 148.192 11.1775 147.346C9.45581 145.659 7.74307 143.975 5.9832 142.27C6.39377 143.129 6.77081 143.978 7.17203 144.834ZM-0.604538 137.538C1.38078 139.394 3.33553 141.237 5.31322 143.09C4.88142 142.184 4.43901 141.275 3.9949 140.365C2.11998 138.555 0.206406 136.727 -1.70801 134.898C-1.34203 135.778 -0.960327 136.661 -0.604538 137.538ZM-8.62563 130.166C-6.5036 132.096 -4.36584 134.032 -2.31726 135.93C-2.68961 135.032 -3.06239 134.133 -3.44493 133.232C-5.46083 131.314 -7.48184 129.394 -9.54445 127.454C-9.22687 128.36 -8.93091 129.261 -8.62563 130.166ZM-16.8582 122.654C-14.5927 124.713 -12.3662 126.754 -10.1134 128.808C-10.4335 127.881 -10.7464 126.956 -11.0772 126.026C-13.2162 124.021 -15.3964 121.996 -17.5834 119.969C-17.3341 120.865 -17.0968 121.759 -16.8582 122.654ZM-115.868 593.7C-115.262 593.349 -114.649 593.002 -114.037 592.653C-114.022 591.818 -114.014 590.982 -113.994 590.147C-114.559 590.517 -115.125 590.886 -115.684 591.256C-115.751 592.07 -115.809 592.885 -115.868 593.7ZM-118.659 595.329C-118.084 594.988 -117.498 594.651 -116.918 594.313C-116.862 593.531 -116.814 592.75 -116.754 591.97C-117.294 592.332 -117.826 592.697 -118.362 593.062C-118.467 593.816 -118.562 594.573 -118.659 595.329ZM-121.395 596.978C-120.85 596.646 -120.305 596.314 -119.754 595.984C-119.662 595.261 -119.571 594.539 -119.474 593.817C-119.984 594.168 -120.484 594.523 -120.989 594.876C-121.127 595.575 -121.263 596.276 -121.395 596.978ZM-124.078 598.632C-123.568 598.313 -123.062 597.991 -122.547 597.673C-122.423 597.016 -122.293 596.36 -122.165 595.704C-122.632 596.036 -123.101 596.366 -123.562 596.699C-123.737 597.343 -123.913 597.986 -124.078 598.632ZM-126.681 600.275C-126.224 599.981 -125.759 599.688 -125.296 599.396C-125.147 598.805 -124.991 598.216 -124.834 597.627C-125.257 597.937 -125.686 598.244 -126.106 598.556C-126.301 599.128 -126.493 599.701 -126.681 600.275ZM-129.203 601.919C-128.8 601.652 -128.389 601.389 -127.984 601.124C-127.821 600.618 -127.664 600.109 -127.497 599.603C-127.867 599.882 -128.234 600.162 -128.601 600.442C-128.805 600.933 -129.003 601.427 -129.203 601.919ZM-131.652 603.567C-131.314 603.336 -130.978 603.106 -130.636 602.877C-130.467 602.454 -130.291 602.033 -130.12 601.611C-130.425 601.85 -130.725 602.092 -131.028 602.332C-131.236 602.743 -131.449 603.153 -131.652 603.567ZM-133.947 605.147C-133.703 604.977 -133.465 604.803 -133.22 604.633C-133.077 604.333 -132.941 604.031 -132.794 603.731C-133.011 603.906 -133.218 604.083 -133.433 604.258C-133.608 604.553 -133.774 604.851 -133.947 605.147ZM-136.074 606.655L-135.774 606.443C-135.685 606.286 -135.593 606.13 -135.503 605.974C-135.578 606.037 -135.655 606.099 -135.731 606.163L-136.074 606.655ZM53.5027 191.855L54.6724 193.036L54.6007 192.945C54.1965 192.521 53.7638 192.083 53.3524 191.655L53.5027 191.855ZM46.6556 185.012C47.402 185.739 48.1615 186.473 48.8829 187.189L48.3721 186.513C47.5862 185.701 46.7935 184.886 46.0166 184.079C46.2374 184.393 46.4365 184.698 46.6556 185.012ZM39.5923 178.11C40.7408 179.235 41.9033 180.365 43.0492 181.488C42.6064 180.867 42.1419 180.238 41.6944 179.614C40.652 178.558 39.5575 177.477 38.4769 176.402C38.8561 176.975 39.217 177.54 39.5923 178.11ZM32.3048 171.034C33.7611 172.428 35.1639 173.798 36.5931 175.18C36.1472 174.513 35.6964 173.844 35.2438 173.175C33.841 171.774 32.4305 170.369 31.0277 168.968C31.454 169.657 31.8862 170.348 32.3048 171.034ZM24.9325 164.051C26.5314 165.562 28.1381 167.076 29.7081 168.574C29.2093 167.769 28.7265 166.971 28.2171 166.162C26.7 164.67 25.1329 163.155 23.5632 161.639C24.0209 162.443 24.4837 163.249 24.9325 164.051ZM17.1483 156.694C19.0088 158.433 20.7865 160.135 22.6236 161.863C22.1358 161.007 21.62 160.14 21.1211 159.279C19.3888 157.601 17.651 155.921 15.906 154.237C16.331 155.059 16.7348 155.874 17.1483 156.694ZM9.33737 149.506C11.2976 151.302 13.2643 153.102 15.1723 154.875C14.7142 153.984 14.2735 153.099 13.8026 152.204C11.9315 150.417 10.0095 148.606 8.07892 146.792C8.49373 147.695 8.93486 148.606 9.33737 149.506ZM1.1286 141.951C3.2897 143.924 5.36458 145.856 7.50529 147.82C7.08539 146.899 6.65233 145.973 6.22011 145.048C4.19318 143.141 2.16072 141.232 0.108307 139.314C0.460281 140.196 0.787659 141.072 1.1286 141.951ZM-7.18164 134.5C-4.92332 136.514 -2.6523 138.535 -0.464447 140.516C-0.826187 139.595 -1.18025 138.676 -1.556 137.752C-3.698 135.763 -5.88882 133.751 -8.09409 131.733C-7.78627 132.656 -7.47716 133.579 -7.18164 134.5ZM-15.7755 126.804C-13.3677 128.951 -11.0207 131.069 -8.61967 133.211C-8.92792 132.269 -9.26248 131.321 -9.58134 130.376C-11.8702 128.282 -14.1651 126.185 -16.4875 124.076C-16.2498 124.985 -16.0022 125.896 -15.7755 126.804ZM-116.101 597.102C-115.43 596.763 -114.756 596.426 -114.08 596.09C-114.075 595.22 -114.065 594.352 -114.051 593.484C-114.681 593.845 -115.304 594.21 -115.929 594.574C-115.99 595.417 -116.05 596.259 -116.101 597.102ZM-119.067 598.629C-118.423 598.294 -117.783 597.957 -117.132 597.624C-117.087 596.811 -117.034 595.999 -116.979 595.187C-117.58 595.541 -118.183 595.895 -118.777 596.25C-118.878 597.042 -118.976 597.835 -119.067 598.629ZM-121.978 600.162C-121.366 599.835 -120.754 599.509 -120.136 599.184C-120.052 598.426 -119.966 597.669 -119.873 596.912C-120.444 597.258 -121.02 597.6 -121.584 597.948C-121.721 598.684 -121.849 599.422 -121.978 600.162ZM-124.834 601.701C-124.26 601.386 -123.675 601.075 -123.096 600.763C-122.977 600.064 -122.862 599.363 -122.737 598.666C-123.275 599 -123.81 599.335 -124.343 599.672C-124.51 600.347 -124.672 601.024 -124.834 601.701ZM-127.643 603.271C-127.104 602.966 -126.558 602.663 -126.014 602.36C-125.864 601.717 -125.704 601.075 -125.548 600.432C-126.053 600.756 -126.546 601.083 -127.045 601.409C-127.247 602.029 -127.451 602.648 -127.643 603.271ZM-130.351 604.827C-129.861 604.541 -129.374 604.254 -128.878 603.97C-128.706 603.398 -128.527 602.826 -128.346 602.256C-128.805 602.56 -129.26 602.865 -129.714 603.17C-129.932 603.721 -130.14 604.275 -130.351 604.827ZM-132.988 606.382C-132.554 606.122 -132.122 605.861 -131.684 605.602C-131.499 605.11 -131.314 604.619 -131.126 604.129C-131.518 604.396 -131.915 604.66 -132.302 604.929C-132.531 605.413 -132.764 605.897 -132.988 606.382ZM-135.528 607.922C-135.177 607.705 -134.816 607.492 -134.464 607.276C-134.278 606.867 -134.084 606.461 -133.892 606.054C-134.218 606.285 -134.548 606.516 -134.872 606.748C-135.093 607.138 -135.311 607.53 -135.528 607.922ZM-137.938 609.443L-137.158 608.949C-136.999 608.655 -136.84 608.359 -136.679 608.065L-137.367 608.574L-137.938 609.443ZM-140.184 610.896L-139.825 610.657L-139.543 610.214L-139.835 610.441L-140.184 610.896ZM57.3833 197.175C58.1412 197.911 58.8919 198.643 59.6315 199.37L59.0417 198.616C58.3021 197.862 57.5323 197.094 56.78 196.334C56.9855 196.616 57.1791 196.894 57.3833 197.175ZM50.267 190.282C51.4355 191.416 52.6175 192.557 53.7859 193.691C53.3987 193.165 52.9745 192.623 52.5831 192.095C51.4095 190.918 50.2793 189.76 49.1011 188.579C49.4913 189.147 49.8815 189.716 50.267 190.282ZM42.9902 183.315C44.345 184.594 45.7015 185.874 47.0182 187.134C46.5745 186.494 46.1571 185.865 45.7075 185.223C44.3824 183.913 43.0059 182.581 41.6443 181.255C42.0858 181.938 42.5571 182.634 42.9902 183.315ZM35.3334 176.08C36.9472 177.602 38.5508 179.12 40.1574 180.638C39.6602 179.87 39.1554 179.1 38.6489 178.328C37.089 176.811 35.5686 175.311 34.0036 173.791C34.4655 174.561 34.8812 175.314 35.3334 176.08ZM27.5462 168.848C29.3668 170.522 31.2005 172.202 32.9659 173.85C32.4522 172.993 31.8922 172.117 31.3661 171.255C29.6797 169.638 27.9249 167.99 26.1837 166.348C26.6435 167.183 27.0966 168.017 27.5462 168.848ZM19.5446 161.463C21.5308 163.281 23.4439 165.065 25.4025 166.87C24.9253 166 24.4718 165.138 23.9832 164.264C22.0526 162.44 20.1539 160.63 18.2148 158.802C18.656 159.688 19.1145 160.581 19.5446 161.463ZM11.2845 154.006C13.4154 155.923 15.5515 157.842 17.6302 159.733C17.1674 158.796 16.677 157.85 16.2019 156.909C14.231 155.071 12.1714 153.192 10.13 151.323C10.5245 152.221 10.8998 153.112 11.2845 154.006ZM2.83665 146.423C5.11324 148.45 7.34056 150.455 9.57256 152.462C9.17389 151.547 8.79732 150.639 8.38589 149.719C6.18065 147.692 4.00298 145.677 1.78329 143.644C2.13441 144.57 2.49826 145.5 2.83665 146.423ZM-5.87054 138.729C-3.46362 140.848 -1.06645 142.962 1.29166 145.057C0.931183 144.096 0.545624 143.127 0.172424 142.162C-2.06807 140.128 -4.40364 138.049 -6.72354 135.978C-6.43483 136.896 -6.14737 137.814 -5.87054 138.729ZM-14.793 130.927C-12.2643 133.123 -9.75121 135.313 -7.28271 137.481C-7.56845 136.557 -7.84697 135.634 -8.14333 134.707C-10.5812 132.526 -12.986 130.361 -15.4409 128.172C-15.2151 129.092 -15.007 130.009 -14.793 130.927ZM-116.271 600.508C-115.54 600.184 -114.811 599.859 -114.074 599.537C-114.081 598.648 -114.08 597.76 -114.079 596.872C-114.768 597.216 -115.459 597.56 -116.14 597.907C-116.186 598.773 -116.231 599.64 -116.271 600.508ZM-119.421 601.922C-118.718 601.601 -118.009 601.283 -117.299 600.966C-117.263 600.124 -117.218 599.283 -117.173 598.443C-117.837 598.785 -118.499 599.128 -119.157 599.473C-119.249 600.288 -119.34 601.104 -119.421 601.922ZM-122.514 603.347C-121.842 603.032 -121.161 602.723 -120.482 602.411C-120.406 601.617 -120.316 600.825 -120.227 600.032C-120.868 600.371 -121.498 600.714 -122.132 601.056C-122.262 601.818 -122.393 602.581 -122.514 603.347ZM-125.541 604.792C-124.899 604.482 -124.254 604.172 -123.604 603.865C-123.49 603.128 -123.372 602.392 -123.249 601.657C-123.86 601.989 -124.463 602.325 -125.066 602.66C-125.231 603.369 -125.385 604.08 -125.541 604.792ZM-128.52 606.25C-127.906 605.945 -127.299 605.638 -126.679 605.336C-126.532 604.662 -126.391 603.988 -126.24 603.316C-126.807 603.635 -127.378 603.952 -127.939 604.273C-128.136 604.932 -128.33 605.59 -128.52 606.25ZM-131.428 607.713C-130.863 607.423 -130.292 607.136 -129.723 606.849C-129.546 606.228 -129.361 605.611 -129.177 604.993C-129.707 605.3 -130.24 605.605 -130.763 605.914C-130.988 606.512 -131.212 607.111 -131.428 607.713ZM-134.245 609.173C-133.733 608.903 -133.21 608.637 -132.693 608.369C-132.498 607.817 -132.306 607.265 -132.104 606.715C-132.589 607.006 -133.07 607.297 -133.549 607.59C-133.785 608.116 -134.013 608.645 -134.245 609.173ZM-137.014 610.665C-136.552 610.413 -136.089 610.162 -135.623 609.912C-135.415 609.429 -135.199 608.948 -134.987 608.466C-135.417 608.733 -135.835 609.005 -136.26 609.273C-136.513 609.736 -136.769 610.199 -137.014 610.665ZM-139.634 612.117C-139.25 611.901 -138.875 611.683 -138.488 611.468C-138.289 611.081 -138.097 610.692 -137.894 610.307C-138.244 610.533 -138.589 610.76 -138.936 610.986C-139.174 611.362 -139.401 611.741 -139.634 612.117ZM-142.152 613.55C-141.875 613.388 -141.59 613.229 -141.311 613.068C-141.137 612.781 -140.956 612.496 -140.782 612.209C-141.027 612.374 -141.279 612.535 -141.522 612.701C-141.731 612.984 -141.947 613.265 -142.152 613.55ZM-144.449 614.914L-144.061 614.684L-143.762 614.254L-144.088 614.48C-144.209 614.624 -144.328 614.77 -144.449 614.914ZM68.4695 209.543C69.2146 210.259 69.9763 210.983 70.7027 211.69C70.4662 211.394 70.2128 211.09 69.9763 210.793C69.2545 210.066 68.4975 209.322 67.7574 208.586L68.4695 209.543ZM61.2963 202.644L64.5863 205.807C64.2203 205.323 63.8806 204.85 63.5108 204.364C62.3721 203.232 61.2457 202.107 60.1006 200.973C60.4934 201.528 60.9086 202.092 61.2963 202.644ZM53.8525 195.59C55.1806 196.834 56.5227 198.083 57.8151 199.311C57.3456 198.654 56.8794 197.999 56.403 197.338C55.1374 196.102 53.8301 194.844 52.5356 193.594C52.9843 194.263 53.4131 194.924 53.8525 195.59ZM46.0688 188.28C47.7136 189.815 49.3079 191.325 50.9383 192.852C50.4037 192.058 49.8361 191.251 49.2931 190.453C47.7442 188.961 46.2302 187.484 44.6541 185.98C45.1364 186.751 45.5945 187.513 46.0688 188.28ZM38.2371 181.077C40.025 182.714 41.8196 184.354 43.5685 185.972C43.0492 185.145 42.552 184.325 42.023 183.494C40.2844 181.842 38.5143 180.176 36.746 178.511C37.2419 179.366 37.7531 180.226 38.2371 181.077ZM30.0936 173.633C32.0709 175.425 33.9977 177.193 35.9418 178.97C35.4213 178.07 34.9054 177.173 34.3717 176.269C32.5138 174.528 30.6299 172.776 28.7257 171.013C29.191 171.89 29.6402 172.761 30.0936 173.633ZM21.7397 166.127C23.8821 168.046 26.0169 169.961 28.1224 171.863C27.6299 170.928 27.0906 169.977 26.5837 169.038C24.5461 167.154 22.5031 165.267 20.4434 163.373C20.8837 164.294 21.3125 165.211 21.7397 166.127ZM13.2027 158.533C15.464 160.53 17.7062 162.517 19.9161 164.489C19.4678 163.544 19.0453 162.607 18.5838 161.658C16.449 159.709 14.2327 157.723 12.0313 155.743C12.4245 156.674 12.8219 157.607 13.2027 158.533ZM4.37958 150.766C6.79626 152.885 9.17856 154.987 11.5651 157.092C11.166 156.132 10.7342 155.164 10.3202 154.2C8.00714 152.116 5.73099 150.05 3.37883 147.948C3.71976 148.889 4.0518 149.828 4.37958 150.766ZM-4.63206 142.953C-2.10922 145.125 0.421234 147.301 2.87444 149.44C2.53816 148.499 2.21851 147.562 1.8712 146.617C-0.52002 144.489 -2.97113 142.332 -5.42307 140.174C-5.14667 141.103 -4.89658 142.026 -4.63206 142.953ZM-13.8734 134.985C-11.2066 137.269 -8.61755 139.517 -5.98347 141.786C-6.25903 140.835 -6.54648 139.881 -6.83435 138.927C-9.3644 136.703 -11.9085 134.473 -14.4891 132.225C-14.278 133.146 -14.073 134.066 -13.8734 134.985ZM-116.396 603.921C-115.61 603.616 -114.816 603.315 -114.022 603.014C-114.039 602.102 -114.063 601.19 -114.074 600.28C-114.823 600.609 -115.566 600.941 -116.309 601.273C-116.344 602.154 -116.369 603.038 -116.396 603.921ZM-119.716 605.225C-118.954 604.922 -118.185 604.621 -117.415 604.321C-117.389 603.457 -117.37 602.592 -117.336 601.729C-118.064 602.057 -118.781 602.389 -119.501 602.719C-119.579 603.553 -119.646 604.389 -119.716 605.225ZM-122.988 606.552C-122.248 606.248 -121.509 605.943 -120.762 605.642C-120.695 604.829 -120.624 604.016 -120.551 603.202C-121.249 603.526 -121.946 603.85 -122.636 604.176C-122.757 604.967 -122.877 605.758 -122.988 606.552ZM-126.197 607.887C-125.49 607.588 -124.783 607.288 -124.066 606.992C-123.962 606.225 -123.844 605.461 -123.727 604.698C-124.396 605.016 -125.068 605.333 -125.729 605.654C-125.889 606.397 -126.048 607.141 -126.197 607.887ZM-129.339 609.23C-128.668 608.937 -127.985 608.648 -127.306 608.358C-127.165 607.644 -127.021 606.931 -126.869 606.219C-127.514 606.535 -128.154 606.854 -128.79 607.174C-128.981 607.857 -129.158 608.544 -129.339 609.23ZM-132.432 610.599C-131.795 610.312 -131.146 610.028 -130.501 609.744C-130.329 609.084 -130.155 608.424 -129.975 607.766C-130.581 608.073 -131.171 608.386 -131.77 608.696C-131.993 609.33 -132.22 609.962 -132.432 610.599ZM-135.436 611.976C-134.842 611.7 -134.25 611.424 -133.652 611.151C-133.453 610.549 -133.243 609.95 -133.034 609.351C-133.599 609.648 -134.157 609.948 -134.716 610.247C-134.963 610.821 -135.198 611.399 -135.436 611.976ZM-138.379 613.365C-137.829 613.1 -137.284 612.835 -136.727 612.573C-136.513 612.043 -136.302 611.513 -136.082 610.986C-136.585 611.259 -137.092 611.531 -137.59 611.806C-137.853 612.326 -138.122 612.843 -138.379 613.365ZM-141.211 614.74C-140.74 614.505 -140.257 614.275 -139.78 614.042C-139.555 613.577 -139.32 613.115 -139.086 612.653C-139.537 612.907 -139.989 613.16 -140.434 613.416C-140.699 613.856 -140.954 614.298 -141.211 614.74ZM-143.957 616.13C-143.555 615.923 -143.147 615.72 -142.742 615.515C-142.525 615.137 -142.308 614.758 -142.089 614.381C-142.46 614.599 -142.828 614.818 -143.197 615.038C-143.449 615.402 -143.707 615.765 -143.957 616.13ZM-146.55 617.489C-146.256 617.332 -145.962 617.175 -145.666 617.019C-145.481 616.742 -145.297 616.465 -145.11 616.189C-145.387 616.359 -145.658 616.532 -145.934 616.703C-146.145 616.963 -146.343 617.228 -146.55 617.489ZM-148.942 618.774C-148.794 618.693 -148.652 618.61 -148.503 618.529C-148.393 618.386 -148.279 618.244 -148.169 618.101C-148.295 618.183 -148.417 618.266 -148.544 618.348C-148.676 618.49 -148.811 618.632 -148.942 618.774ZM79.8974 222.095C80.6005 222.769 81.3193 223.451 82.0135 224.12C81.8084 223.867 81.622 223.624 81.4169 223.371C80.6901 222.645 79.9271 221.903 79.1841 221.17C79.4189 221.477 79.6647 221.789 79.8974 222.095ZM72.579 215.091C73.623 216.083 74.6254 217.054 75.6622 218.042C75.2899 217.562 74.9294 217.086 74.5541 216.604C73.5101 215.579 72.4928 214.567 71.4428 213.537C71.8181 214.054 72.2062 214.576 72.579 215.091ZM64.943 207.93C66.2876 209.185 67.6432 210.446 68.9658 211.691C68.4759 211.024 67.9659 210.349 67.4684 209.679C66.2086 208.459 64.9124 207.222 63.6327 205.992C64.0815 206.643 64.501 207.281 64.943 207.93ZM57.1235 200.65C58.7662 202.164 60.3613 203.655 61.976 205.156C61.4368 204.378 60.8678 203.588 60.3184 202.806C58.7649 201.323 57.2195 199.843 55.6337 198.345C56.1351 199.115 56.6336 199.884 57.1235 200.65ZM49.2412 193.439C50.9884 195.035 52.7389 196.632 54.4665 198.218C53.9294 197.394 53.4186 196.58 52.8701 195.751C51.1412 194.123 49.3941 192.485 47.6482 190.85C48.1705 191.709 48.7313 192.584 49.2412 193.439ZM40.937 185.922C42.9027 187.685 44.8545 189.442 46.774 191.182C46.225 190.277 45.6574 189.364 45.0948 188.453C43.2751 186.762 41.4023 185.047 39.5307 183.332C40.0186 184.202 40.4619 185.056 40.937 185.922ZM32.4959 178.361C34.6333 180.268 36.7434 182.163 38.8595 184.061C38.3415 183.132 37.8061 182.195 37.2724 181.261C35.2056 179.366 33.1786 177.489 31.0834 175.581C31.5589 176.509 32.034 177.437 32.4959 178.361ZM23.8634 170.751C26.1094 172.716 28.3669 174.688 30.5526 176.625C30.0775 175.689 29.613 174.757 29.1248 173.815C26.9857 171.879 24.7907 169.917 22.6007 167.956C23.0283 168.89 23.4482 169.821 23.8634 170.751ZM14.9507 162.941C17.3899 165.062 19.7586 167.15 22.1583 169.254C21.7189 168.282 21.2328 167.295 20.778 166.318C18.479 164.263 16.1807 162.209 13.8366 160.132C14.2145 161.07 14.586 162.007 14.9507 162.941ZM5.85922 155.105C8.38206 157.272 10.8964 159.434 13.3658 161.576C12.9892 160.624 12.6257 159.677 12.2343 158.721C9.81671 156.585 7.37881 154.44 4.91838 152.283C5.24277 153.227 5.548 154.165 5.85922 155.105ZM-3.45343 147.142C-0.796432 149.399 1.82573 151.641 4.42882 153.872C4.10231 152.904 3.75291 151.93 3.41283 150.959C0.897629 148.761 -1.66982 146.539 -4.2504 144.311C-3.98674 145.254 -3.70479 146.202 -3.45343 147.142ZM-13.0242 139.041C-10.2522 141.376 -7.52388 143.691 -4.79681 146.004C-5.05666 145.053 -5.32965 144.099 -5.60223 143.145C-8.2724 140.839 -10.9048 138.552 -13.6127 136.229C-13.4131 137.167 -13.2123 138.105 -13.0242 139.041ZM-116.483 607.355C-115.637 607.07 -114.789 606.787 -113.936 606.506C-113.965 605.574 -113.987 604.644 -114.008 603.715C-114.814 604.024 -115.619 604.334 -116.418 604.646C-116.445 605.548 -116.468 606.451 -116.483 607.355ZM-119.969 608.549C-119.144 608.264 -118.325 607.974 -117.493 607.692C-117.479 606.809 -117.46 605.927 -117.436 605.046C-118.219 605.354 -119.006 605.66 -119.78 605.971C-119.848 606.829 -119.911 607.689 -119.969 608.549ZM-123.403 609.758C-122.606 609.473 -121.807 609.188 -121.001 608.907C-120.945 608.07 -120.89 607.233 -120.826 606.398C-121.587 606.706 -122.348 607.014 -123.1 607.325C-123.208 608.134 -123.303 608.947 -123.403 609.758ZM-126.79 610.982C-126.022 610.699 -125.24 610.42 -124.463 610.14C-124.368 609.348 -124.271 608.557 -124.169 607.767C-124.902 608.073 -125.626 608.383 -126.352 608.693C-126.502 609.455 -126.651 610.217 -126.79 610.982ZM-130.106 612.229C-129.371 611.949 -128.629 611.671 -127.886 611.394C-127.753 610.648 -127.605 609.905 -127.46 609.163C-128.167 609.468 -128.867 609.777 -129.566 610.085C-129.752 610.798 -129.93 611.513 -130.106 612.229ZM-133.362 613.492C-132.652 613.213 -131.949 612.933 -131.231 612.656C-131.066 611.969 -130.903 611.282 -130.728 610.598C-131.397 610.896 -132.066 611.194 -132.727 611.494C-132.943 612.159 -133.154 612.825 -133.362 613.492ZM-136.554 614.77C-135.885 614.498 -135.218 614.225 -134.542 613.956C-134.346 613.32 -134.142 612.687 -133.937 612.053C-134.566 612.342 -135.199 612.63 -135.821 612.922C-136.07 613.537 -136.317 614.152 -136.554 614.77ZM-139.66 616.048C-139.043 615.789 -138.413 615.534 -137.789 615.276C-137.569 614.698 -137.35 614.12 -137.122 613.543C-137.713 613.826 -138.299 614.109 -138.884 614.394C-139.147 614.944 -139.403 615.496 -139.66 616.048ZM-142.705 617.359C-142.137 617.112 -141.563 616.867 -140.989 616.621C-140.752 616.1 -140.503 615.582 -140.259 615.063C-140.801 615.332 -141.33 615.606 -141.866 615.876C-142.149 616.37 -142.43 616.863 -142.705 617.359ZM-145.637 618.667C-145.129 618.437 -144.627 618.206 -144.113 617.978C-143.874 617.536 -143.642 617.091 -143.397 616.651C-143.868 616.894 -144.334 617.14 -144.802 617.385C-145.083 617.811 -145.361 618.238 -145.637 618.667ZM-148.468 619.968C-148.046 619.77 -147.627 619.571 -147.202 619.375C-146.971 619.009 -146.727 618.647 -146.49 618.283C-146.879 618.491 -147.276 618.697 -147.66 618.906C-147.932 619.259 -148.202 619.613 -148.468 619.968ZM-151.134 621.238C-150.828 621.088 -150.512 620.942 -150.203 620.793C-150.009 620.531 -149.82 620.267 -149.624 620.006C-149.905 620.163 -150.19 620.319 -150.468 620.478C-150.692 620.731 -150.915 620.983 -151.134 621.238ZM-153.636 622.483L-153.175 622.253C-153.065 622.122 -152.961 621.99 -152.85 621.86L-153.265 622.105C-153.392 622.23 -153.509 622.358 -153.636 622.483ZM91.6255 234.791C92.2038 235.346 92.7956 235.906 93.3748 236.46C93.1816 236.225 92.9956 235.995 92.7999 235.76C92.2004 235.167 91.5771 234.562 90.9699 233.967C91.183 234.238 91.4141 234.519 91.6255 234.791ZM83.9665 227.52C84.9944 228.483 85.9982 229.432 87.0057 230.385C86.6384 229.923 86.2656 229.456 85.895 228.992C84.8819 228.004 83.9177 227.041 82.8898 226.046C83.26 226.543 83.601 227.026 83.9665 227.52ZM76.2999 220.373C77.6726 221.655 79.0584 222.942 80.4294 224.222C79.9293 223.558 79.3816 222.873 78.8742 222.206C77.5741 220.957 76.2494 219.697 74.9417 218.445C75.3998 219.09 75.8482 219.731 76.2999 220.373ZM68.4915 213.174C70.0404 214.586 71.5939 216 73.102 217.392C72.5823 216.665 72.1026 215.956 71.5749 215.225C70.0485 213.78 68.4873 212.318 66.9202 210.853C67.4386 211.624 67.9816 212.407 68.4915 213.174ZM60.3817 205.775C62.153 207.384 63.8896 208.976 65.6461 210.578C65.0873 209.749 64.5285 208.919 63.9579 208.085C62.2507 206.489 60.5634 204.904 58.8388 203.301C59.3623 204.129 59.8697 204.952 60.3817 205.775ZM52.0549 198.308C54.0198 200.06 55.9933 201.815 57.9115 203.544C57.3417 202.641 56.7261 201.719 56.144 200.811C54.312 199.122 52.4268 197.408 50.5502 195.698C51.0648 196.573 51.5539 197.438 52.0549 198.308ZM43.5507 190.732C45.6757 192.611 47.7476 194.464 49.8374 196.326C49.3049 195.417 48.8124 194.524 48.2673 193.61C46.2025 191.732 44.1476 189.857 42.0438 187.959C42.5431 188.883 43.0641 189.814 43.5507 190.732ZM34.7942 183.054C37.0495 185.026 39.2993 186.995 41.5152 188.947C41.0074 188.001 40.4907 187.052 39.9676 186.1C37.8231 184.171 35.6539 182.231 33.4742 180.286C33.931 181.215 34.3509 182.131 34.7942 183.054ZM25.8283 175.266C28.2412 177.347 30.6354 179.42 32.9931 181.475C32.5201 180.503 32.0166 179.52 31.5275 178.543C29.2513 176.521 26.9267 174.476 24.592 172.426C25.0098 173.374 25.4254 174.322 25.8283 175.266ZM16.6363 167.352C19.1646 169.52 21.6561 171.67 24.1526 173.823C23.7352 172.861 23.328 171.903 22.8958 170.936C20.4553 168.794 18.048 166.666 15.5727 164.507C15.9387 165.459 16.2843 166.404 16.6363 167.352ZM7.24464 159.385C9.89018 161.616 12.5497 163.854 15.1239 166.051C14.7588 165.081 14.3631 164.103 13.9827 163.13C11.473 160.95 8.8941 158.738 6.31905 156.527C6.62898 157.48 6.94872 158.435 7.24464 159.385ZM-2.41324 151.236C0.368164 153.569 3.08292 155.87 5.82356 158.182C5.51701 157.221 5.20709 156.259 4.8878 155.294C2.23207 153.015 -0.417282 150.738 -3.12141 148.435C-2.87643 149.371 -2.64676 150.303 -2.41324 151.236ZM-12.26 143.045C-9.38225 145.43 -6.51888 147.807 -3.70563 150.161C-3.94722 149.218 -4.17096 148.279 -4.4223 147.334C-7.17781 144.992 -9.96051 142.637 -12.7716 140.268C-12.5895 141.196 -12.4316 142.119 -12.26 143.045ZM-116.518 610.804C-115.613 610.54 -114.71 610.276 -113.798 610.015C-113.841 609.069 -113.877 608.125 -113.909 607.181C-114.774 607.467 -115.638 607.752 -116.491 608.041C-116.504 608.961 -116.516 609.881 -116.518 610.804ZM-120.178 611.885C-119.299 611.621 -118.413 611.359 -117.526 611.098C-117.525 610.193 -117.513 609.29 -117.499 608.388C-118.342 608.676 -119.178 608.967 -120.014 609.258C-120.073 610.133 -120.133 611.007 -120.178 611.885ZM-123.772 612.977C-122.923 612.713 -122.057 612.456 -121.199 612.195C-121.156 611.333 -121.102 610.475 -121.046 609.615C-121.871 609.905 -122.68 610.201 -123.495 610.494C-123.593 611.32 -123.685 612.149 -123.772 612.977ZM-127.318 614.101C-126.488 613.835 -125.654 613.57 -124.816 613.307C-124.734 612.496 -124.65 611.685 -124.555 610.876C-125.35 611.165 -126.141 611.456 -126.929 611.749C-127.064 612.531 -127.191 613.316 -127.318 614.101ZM-130.819 615.245C-130.01 614.977 -129.208 614.706 -128.39 614.441C-128.268 613.678 -128.14 612.917 -128.012 612.156C-128.773 612.442 -129.54 612.726 -130.293 613.016C-130.473 613.758 -130.654 614.499 -130.819 615.245ZM-134.232 616.394C-133.464 616.131 -132.693 615.869 -131.917 615.609C-131.759 614.89 -131.592 614.173 -131.422 613.458C-132.161 613.745 -132.896 614.033 -133.626 614.323C-133.835 615.011 -134.032 615.703 -134.232 616.394ZM-137.597 617.563C-136.865 617.302 -136.115 617.048 -135.375 616.791C-135.184 616.124 -134.998 615.455 -134.8 614.79C-135.501 615.073 -136.189 615.359 -136.881 615.644C-137.122 616.283 -137.367 616.921 -137.597 617.563ZM-140.878 618.758C-140.188 618.504 -139.494 618.251 -138.795 617.999C-138.576 617.381 -138.345 616.766 -138.114 616.151C-138.782 616.43 -139.443 616.714 -140.104 616.996C-140.37 617.581 -140.622 618.17 -140.878 618.758ZM-144.106 619.973C-143.449 619.722 -142.798 619.467 -142.133 619.218C-141.897 618.665 -141.662 618.111 -141.418 617.561C-142.026 617.825 -142.637 618.089 -143.239 618.356C-143.53 618.894 -143.825 619.431 -144.106 619.973ZM-147.215 621.183C-146.625 620.948 -146.034 620.715 -145.438 620.483C-145.184 619.986 -144.924 619.492 -144.66 618.998C-145.224 619.252 -145.794 619.505 -146.352 619.762C-146.647 620.233 -146.925 620.709 -147.215 621.183ZM-150.259 622.41C-149.733 622.193 -149.194 621.982 -148.663 621.767C-148.407 621.338 -148.145 620.91 -147.884 620.482C-148.378 620.715 -148.87 620.949 -149.359 621.184C-149.66 621.593 -149.967 621.998 -150.259 622.41ZM-153.155 623.638C-152.716 623.45 -152.276 623.262 -151.832 623.076C-151.59 622.727 -151.355 622.376 -151.107 622.029C-151.523 622.233 -151.93 622.441 -152.342 622.647C-152.617 622.976 -152.885 623.307 -153.155 623.638ZM-155.944 624.858C-155.61 624.709 -155.283 624.558 -154.946 624.41C-154.737 624.149 -154.52 623.892 -154.307 623.633C-154.623 623.795 -154.927 623.962 -155.238 624.125C-155.474 624.369 -155.712 624.612 -155.944 624.858ZM-158.434 625.978C-158.279 625.906 -158.118 625.837 -157.961 625.765L-157.61 625.38C-157.746 625.455 -157.889 625.527 -158.025 625.601L-158.434 625.978ZM103.25 247.257L105.017 248.938L104.508 248.335C103.931 247.769 103.339 247.196 102.761 246.63C102.929 246.841 103.083 247.046 103.25 247.257ZM95.6569 240.124C96.6818 241.076 97.7203 242.036 98.724 242.979C98.3359 242.498 97.9198 242.004 97.5284 241.522C96.5531 240.579 95.5596 239.628 94.5606 238.674C94.9321 239.16 95.29 239.641 95.6569 240.124ZM87.9113 232.915C89.2686 234.169 90.5725 235.396 91.9159 236.642C91.4616 236.052 91.0485 235.481 90.5883 234.888C89.23 233.595 87.8846 232.306 86.517 231.007C86.9798 231.642 87.4549 232.283 87.9113 232.915ZM80.0995 225.787C81.5974 227.151 83.1072 228.519 84.5826 229.871C84.037 229.128 83.5063 228.39 82.9522 227.642C81.493 226.272 79.9882 224.879 78.498 223.492C79.0249 224.254 79.5819 225.029 80.0995 225.787ZM71.7961 218.26C73.5814 219.864 75.3298 221.449 77.0808 223.036C76.5034 222.203 75.8962 221.357 75.306 220.519C73.626 218.96 71.9663 217.412 70.2566 215.839C70.7864 216.653 71.2743 217.45 71.7961 218.26ZM63.4187 210.779C65.3828 212.529 67.3444 214.278 69.2842 216.017C68.7043 215.129 68.1057 214.232 67.5125 213.338C65.6329 211.616 63.7261 209.882 61.8206 208.148C62.359 209.027 62.8926 209.905 63.4187 210.779ZM54.9004 203.257C56.9711 205.071 59.0409 206.884 61.0589 208.672C60.5027 207.76 59.9695 206.857 59.3993 205.939C57.3982 204.129 55.3496 202.296 53.2951 200.46C53.8216 201.389 54.3867 202.333 54.9004 203.257ZM45.9737 195.437C48.26 197.428 50.4874 199.39 52.7427 201.367C52.2035 200.411 51.6337 199.443 51.0796 198.481C48.9109 196.544 46.7753 194.623 44.5773 192.672C45.0613 193.6 45.5037 194.513 45.9737 195.437ZM36.9773 187.686C39.3643 189.734 41.7581 191.785 44.0873 193.804C43.5914 192.843 43.0972 191.883 42.5855 190.917C40.3051 188.902 37.9619 186.857 35.6238 184.816C36.076 185.773 36.5404 186.735 36.9773 187.686ZM27.6927 179.734C30.2266 181.891 32.7137 184.024 35.2009 186.157C34.7466 185.186 34.2927 184.214 33.824 183.238C31.4149 181.134 28.9987 179.027 26.5404 176.899C26.9395 177.849 27.3072 178.789 27.6927 179.734ZM18.2259 171.728C20.8778 173.962 23.511 176.189 26.1154 178.4C25.7112 177.423 25.2836 176.439 24.8646 175.457C22.3235 173.263 19.7625 171.059 17.178 168.843C17.5292 169.805 17.8887 170.769 18.2259 171.728ZM8.50775 163.589C11.2705 165.891 14.0251 168.188 16.725 170.459C16.3781 169.488 16.0278 168.517 15.6661 167.542C13.0473 165.305 10.3657 163.036 7.6815 160.766C7.97107 161.711 8.22923 162.648 8.50775 163.589ZM-1.41083 155.338C1.47672 157.728 4.30147 160.087 7.14742 162.457C6.85956 161.498 6.57635 160.54 6.27406 159.577C3.4884 157.221 0.739258 154.882 -2.09309 152.504C-1.86043 153.45 -1.63161 154.395 -1.41083 155.338ZM-11.5416 147.031C-8.55814 149.467 -5.56528 151.908 -2.66161 154.304C-2.8896 153.349 -3.14691 152.387 -3.38596 151.429C-6.22255 149.054 -9.13091 146.643 -12.0414 144.231C-11.8724 145.165 -11.7009 146.099 -11.5416 147.031ZM-116.493 614.263C-115.538 614.024 -114.574 613.788 -113.609 613.552C-113.665 612.591 -113.725 611.629 -113.773 610.669C-114.697 610.934 -115.609 611.203 -116.524 611.471C-116.521 612.4 -116.504 613.332 -116.493 614.263ZM-120.318 615.233C-119.385 614.992 -118.439 614.755 -117.497 614.517C-117.508 613.599 -117.522 612.68 -117.526 611.763C-118.426 612.029 -119.317 612.298 -120.207 612.568C-120.247 613.455 -120.286 614.343 -120.318 615.233ZM-124.093 616.229C-123.179 615.984 -122.261 615.74 -121.337 615.499C-121.307 614.623 -121.268 613.75 -121.227 612.878C-122.102 613.144 -122.977 613.412 -123.842 613.682C-123.931 614.53 -124.018 615.378 -124.093 616.229ZM-127.795 617.237C-126.906 616.991 -126.022 616.745 -125.125 616.502C-125.053 615.67 -124.971 614.841 -124.888 614.013C-125.74 614.281 -126.595 614.549 -127.437 614.821C-127.564 615.625 -127.679 616.431 -127.795 617.237ZM-131.453 618.266C-130.59 618.018 -129.722 617.774 -128.849 617.53C-128.738 616.744 -128.632 615.956 -128.511 615.173C-129.337 615.443 -130.158 615.715 -130.976 615.989C-131.139 616.747 -131.3 617.505 -131.453 618.266ZM-135.04 619.31C-134.214 619.064 -133.375 618.824 -132.538 618.582C-132.391 617.836 -132.232 617.095 -132.072 616.352C-132.875 616.623 -133.662 616.901 -134.455 617.175C-134.656 617.885 -134.852 618.596 -135.04 619.31ZM-138.564 620.385C-137.765 620.138 -136.962 619.891 -136.153 619.647C-135.972 618.954 -135.792 618.262 -135.6 617.572C-136.365 617.841 -137.128 618.111 -137.886 618.384C-138.117 619.049 -138.342 619.717 -138.564 620.385ZM-142.026 621.477C-141.26 621.231 -140.501 620.983 -139.725 620.739C-139.514 620.097 -139.293 619.457 -139.072 618.816C-139.797 619.08 -140.53 619.342 -141.246 619.609C-141.512 620.23 -141.773 620.853 -142.026 621.477ZM-145.406 622.581C-144.686 622.34 -143.959 622.102 -143.232 621.865C-142.995 621.273 -142.759 620.682 -142.511 620.093C-143.199 620.354 -143.883 620.613 -144.561 620.877C-144.846 621.444 -145.129 622.011 -145.406 622.581ZM-148.705 623.7C-148.042 623.469 -147.364 623.245 -146.693 623.017C-146.433 622.474 -146.16 621.934 -145.889 621.395C-146.536 621.65 -147.172 621.91 -147.813 622.169C-148.116 622.677 -148.411 623.188 -148.705 623.7ZM-151.928 624.85C-151.309 624.626 -150.689 624.403 -150.063 624.182C-149.795 623.705 -149.535 623.225 -149.258 622.751C-149.843 622.992 -150.414 623.238 -150.991 623.481C-151.305 623.937 -151.621 624.391 -151.928 624.85ZM-155.035 625.999C-154.489 625.793 -153.95 625.583 -153.397 625.379C-153.128 624.967 -152.846 624.558 -152.566 624.149C-153.09 624.374 -153.614 624.6 -154.132 624.827C-154.441 625.215 -154.734 625.609 -155.035 625.999ZM-158.042 627.15C-157.58 626.969 -157.113 626.789 -156.646 626.61C-156.393 626.276 -156.138 625.945 -155.883 625.613C-156.307 625.804 -156.738 625.992 -157.158 626.184C-157.451 626.507 -157.754 626.826 -158.042 627.15ZM-160.851 628.279C-160.518 628.142 -160.178 628.009 -159.843 627.874C-159.638 627.637 -159.443 627.397 -159.234 627.162C-159.545 627.309 -159.856 627.456 -160.163 627.603C-160.396 627.827 -160.621 628.054 -160.851 628.279ZM-163.52 629.397L-162.987 629.171C-162.867 629.048 -162.739 628.929 -162.617 628.807L-163.102 629.051C-163.239 629.167 -163.383 629.281 -163.52 629.397ZM115.083 259.792C115.746 260.412 116.369 261.013 117.023 261.629L116.684 261.234L114.662 259.265L115.083 259.792ZM107.591 252.824C108.613 253.777 109.652 254.737 110.673 255.689C110.313 255.251 109.97 254.821 109.606 254.381C108.59 253.406 107.537 252.414 106.504 251.43C106.865 251.894 107.234 252.362 107.591 252.824ZM99.8716 245.699C101.106 246.823 102.334 247.945 103.539 249.054C103.084 248.476 102.65 247.908 102.19 247.327C100.91 246.115 99.6623 244.92 98.3597 243.698C98.8522 244.36 99.3863 245.04 99.8716 245.699ZM91.7495 238.302C93.2775 239.691 94.7988 241.077 96.3192 242.463C95.763 241.722 95.1941 240.974 94.6277 240.229C93.1973 238.893 91.7427 237.546 90.3051 236.207C90.8061 236.915 91.2552 237.599 91.7495 238.302ZM83.4753 230.873C85.253 232.456 87.0447 234.045 88.7757 235.605C88.1749 234.761 87.5147 233.891 86.9029 233.043C85.2538 231.524 83.5564 229.982 81.8611 228.44C82.4092 229.256 82.9382 230.062 83.4753 230.873ZM75.0254 223.337C76.9801 225.067 78.8707 226.765 80.7979 228.482C80.2209 227.626 79.6898 226.789 79.1013 225.927C77.175 224.174 75.2844 222.439 73.3317 220.674C73.893 221.56 74.4768 222.456 75.0254 223.337ZM66.3789 215.761C68.4584 217.578 70.5393 219.396 72.579 221.193C71.9952 220.27 71.4093 219.346 70.8123 218.417C68.8372 216.642 66.8136 214.843 64.7956 213.047C65.334 213.956 65.8545 214.858 66.3789 215.761ZM57.4373 207.984C59.7215 209.956 61.9768 211.915 64.2126 213.863C63.645 212.9 63.0209 211.913 62.4388 210.943C60.2913 209.036 58.1319 207.123 55.9389 205.193C56.4523 206.129 56.9388 207.054 57.4373 207.984ZM48.3708 200.182C50.7463 202.22 53.1036 204.25 55.449 206.273C54.931 205.32 54.4517 204.383 53.9197 203.424C51.5972 201.385 49.2607 199.339 46.9065 197.284C47.3905 198.247 47.9021 199.223 48.3708 200.182ZM39.0051 192.222C41.519 194.346 44.0444 196.475 46.4942 198.567C46.0081 197.588 45.5045 196.602 45.0031 195.617C42.6395 193.564 40.2024 191.475 37.7747 189.39C38.2048 190.341 38.589 191.275 39.0051 192.222ZM29.4614 184.159C32.1257 186.396 34.7198 188.599 37.3403 190.814C36.9034 189.836 36.4597 188.854 36.0067 187.869C33.4448 185.668 30.9071 183.478 28.3006 181.254C28.6883 182.223 29.0887 183.195 29.4614 184.159ZM19.6873 176.023C22.4445 178.311 25.2021 180.598 27.8969 182.856C27.5114 181.88 27.1225 180.902 26.7225 179.92C24.1037 177.693 21.4285 175.437 18.7503 173.181C19.0806 174.133 19.371 175.074 19.6873 176.023ZM9.73053 167.788C12.6019 170.151 15.4462 172.5 18.2594 174.834C17.9308 173.863 17.5983 172.891 17.2549 171.916C14.4993 169.596 11.7095 167.259 8.89366 164.909C9.17049 165.868 9.46687 166.833 9.73053 167.788ZM-0.497559 159.405C2.48976 161.845 5.4478 164.269 8.38289 166.684C8.11159 165.718 7.81824 164.746 7.5325 163.778C4.66235 161.384 1.78284 158.986 -1.13443 156.57C-0.918747 157.516 -0.702209 158.462 -0.497559 159.405ZM-10.9149 150.961C-7.83548 153.445 -4.74756 155.935 -1.74538 158.381C-1.95639 157.431 -2.16443 156.481 -2.38692 155.528C-5.31946 153.105 -8.34499 150.636 -11.3591 148.172C-11.2066 149.102 -11.0576 150.032 -10.9149 150.961ZM-1.47536 159.591C-4.51279 157.112 -7.62619 154.597 -10.7349 152.083C2.13951 238.118 -29.2083 316.788 -60.5183 395.367C-79.5313 443.084 -98.5264 490.768 -107.59 540.045C-96.311 497.687 -76.9405 456.793 -57.4537 415.66C-19.4422 335.422 18.9867 254.273 -1.47536 159.591ZM8.75145 167.969C5.79384 165.535 2.79083 163.078 -0.225357 160.614C19.7366 254.921 -18.593 335.817 -56.4895 415.812C-77.036 459.183 -97.448 502.29 -108.374 547.122C-95.4491 508.181 -74.6253 470.824 -53.5951 433.11C-8.72414 352.647 37.0601 270.558 8.75145 167.969ZM90.7322 238.419C88.8912 236.755 87.0337 235.081 85.1498 233.394C190.834 395.192 78.8461 462.18 -26.384 525.077C-56.7251 543.213 -86.4922 561.011 -110.294 580.653M-116.427 617.744C-115.418 617.53 -114.402 617.319 -113.383 617.108C-113.453 616.133 -113.514 615.158 -113.573 614.184C-114.548 614.424 -115.521 614.665 -116.486 614.908C-116.472 615.852 -116.452 616.798 -116.427 617.744ZM-120.408 618.608C-119.416 618.39 -118.427 618.17 -117.426 617.956C-117.452 617.024 -117.474 616.092 -117.489 615.162C-118.443 615.404 -119.401 615.645 -120.345 615.891C-120.374 616.795 -120.39 617.702 -120.408 618.608ZM-124.342 619.49C-123.371 619.269 -122.4 619.047 -121.419 618.829C-121.403 617.939 -121.391 617.048 -121.365 616.161C-122.295 616.405 -123.224 616.649 -124.144 616.897C-124.214 617.76 -124.282 618.624 -124.342 619.49ZM-128.217 620.388C-127.275 620.165 -126.323 619.945 -125.37 619.726C-125.312 618.874 -125.244 618.023 -125.176 617.174C-126.088 617.422 -126.988 617.675 -127.891 617.927C-128.005 618.746 -128.116 619.566 -128.217 620.388ZM-132.026 621.307C-131.112 621.082 -130.185 620.861 -129.258 620.64C-129.161 619.831 -129.056 619.024 -128.945 618.219C-129.837 618.471 -130.72 618.726 -131.603 618.981C-131.752 619.754 -131.887 620.531 -132.026 621.307ZM-135.794 622.258C-134.896 622.029 -134 621.799 -133.092 621.572C-132.958 620.812 -132.825 620.052 -132.681 619.294C-133.533 619.544 -134.387 619.793 -135.229 620.046C-135.422 620.782 -135.615 621.518 -135.794 622.258ZM-139.466 623.219C-138.606 622.99 -137.75 622.76 -136.881 622.534C-136.71 621.816 -136.527 621.102 -136.343 620.387C-137.171 620.639 -138.004 620.889 -138.823 621.144C-139.045 621.833 -139.255 622.527 -139.466 623.219ZM-143.105 624.206C-142.274 623.976 -141.435 623.749 -140.595 623.521C-140.392 622.851 -140.194 622.18 -139.981 621.512C-140.773 621.763 -141.558 622.016 -142.34 622.27C-142.599 622.915 -142.861 623.558 -143.105 624.206ZM-146.634 625.205C-145.854 624.979 -145.058 624.759 -144.27 624.536C-144.037 623.907 -143.792 623.282 -143.544 622.657C-144.313 622.911 -145.066 623.171 -145.825 623.429C-146.104 624.017 -146.365 624.612 -146.634 625.205ZM-150.124 626.243C-149.373 626.016 -148.622 625.79 -147.862 625.566C-147.607 624.995 -147.349 624.424 -147.086 623.855C-147.798 624.1 -148.505 624.347 -149.21 624.596C-149.518 625.143 -149.827 625.691 -150.124 626.243ZM-153.5 627.288C-152.801 627.067 -152.109 626.843 -151.402 626.626C-151.129 626.11 -150.853 625.595 -150.569 625.082C-151.23 625.319 -151.9 625.554 -152.553 625.795C-152.875 626.29 -153.187 626.789 -153.5 627.288ZM-156.801 628.347C-156.168 628.139 -155.527 627.933 -154.886 627.727C-154.602 627.265 -154.304 626.806 -154.011 626.346C-154.618 626.574 -155.227 626.802 -155.828 627.033C-156.158 627.469 -156.481 627.908 -156.801 628.347ZM-159.992 629.421C-159.43 629.228 -158.855 629.039 -158.288 628.848C-158.007 628.454 -157.735 628.057 -157.447 627.665C-157.981 627.875 -158.506 628.088 -159.035 628.301C-159.354 628.674 -159.678 629.046 -159.992 629.421ZM-163.056 630.506C-162.589 630.338 -162.121 630.169 -161.648 630.003C-161.379 629.673 -161.1 629.347 -160.822 629.02C-161.29 629.214 -161.742 629.413 -162.204 629.608C-162.496 629.905 -162.77 630.208 -163.056 630.506ZM-165.986 631.582C-165.62 631.444 -165.263 631.302 -164.894 631.166C-164.677 630.934 -164.455 630.704 -164.238 630.474C-164.569 630.618 -164.897 630.764 -165.227 630.91C-165.477 631.135 -165.738 631.356 -165.986 631.582ZM-168.618 632.586C-168.45 632.519 -168.275 632.456 -168.106 632.391C-167.986 632.279 -167.871 632.165 -167.752 632.053C-167.904 632.124 -168.063 632.192 -168.216 632.263L-168.618 632.586ZM-21.8134 139.632C-21.7234 140.55 -21.6253 141.468 -21.5442 142.385C-18.3353 144.956 -15.2253 147.48 -12.08 150.02C-12.2265 149.087 -12.3678 148.153 -12.5271 147.217C-15.6129 144.693 -18.6694 142.184 -21.8134 139.632ZM-22.2061 135.826C-22.1047 136.74 -22.0104 137.653 -21.9179 138.565C-18.8091 141.087 -15.7755 143.572 -12.7186 146.068C-12.8824 145.125 -13.0671 144.178 -13.2404 143.234C-16.2116 140.773 -19.1823 138.313 -22.2061 135.826ZM-22.663 131.987C-22.5475 132.901 -22.4431 133.813 -22.3386 134.726C-19.3513 137.18 -16.3928 139.62 -13.4599 142.048C-13.6369 141.108 -13.8135 140.17 -14.002 139.228C-16.8505 136.833 -19.7572 134.409 -22.663 131.987ZM-23.184 128.111C-23.0545 129.031 -22.9169 129.952 -22.7968 130.871C-19.9419 133.25 -17.0582 135.642 -14.2598 137.994C-14.4517 137.054 -14.6461 136.115 -14.8499 135.173C-17.5753 132.844 -20.3988 130.468 -23.184 128.111ZM-23.7504 124.207C-23.609 125.124 -23.4769 126.04 -23.3453 126.956C-20.586 129.29 -17.8084 131.632 -15.1098 133.938C-15.3165 133 -15.5492 132.058 -15.767 131.118C-18.4003 128.827 -21.0551 126.527 -23.7504 124.207ZM-24.3796 120.309C-24.228 121.207 -24.0875 122.105 -23.9448 123.002C-21.2789 125.294 -18.6796 127.555 -16.0723 129.82C-16.2948 128.882 -16.5096 127.945 -16.7431 127.006C-19.2303 124.8 -21.8321 122.543 -24.3796 120.309ZM-25.0873 116.338C-24.9183 117.253 -24.7413 118.169 -24.5821 119.083C-22.1039 121.253 -19.5309 123.467 -17.1061 125.611C-17.3405 124.693 -17.5808 123.774 -17.8258 122.855C-20.2052 120.701 -22.6494 118.519 -25.0873 116.338ZM-25.8448 112.35C-25.6635 113.256 -25.4911 114.163 -25.32 115.069C-22.9433 117.191 -20.5172 119.336 -18.1969 121.432C-18.4465 120.513 -18.7174 119.591 -18.9785 118.67C-21.2424 116.574 -23.524 114.47 -25.8448 112.35ZM-26.6744 108.324C-26.4799 109.225 -26.2999 110.126 -26.1165 111.026C-23.8646 113.081 -21.6067 115.139 -19.4074 117.17C-19.6689 116.268 -19.9164 115.369 -20.1873 114.465C-22.3416 112.422 -24.4666 110.391 -26.6744 108.324ZM-27.5906 104.252C-27.3822 105.154 -27.169 106.055 -26.9712 106.955C-24.847 108.94 -22.7586 110.909 -20.6871 112.871C-20.9626 111.97 -21.247 111.069 -21.5336 110.166C-23.5584 108.192 -25.517 106.247 -27.5906 104.252ZM-28.5498 100.216C-28.3345 101.088 -28.1209 101.96 -27.9154 102.832C-25.9199 104.748 -23.9949 106.632 -22.0469 108.527C-22.3382 107.632 -22.652 106.733 -22.9521 105.836C-24.8177 103.963 -26.6434 102.106 -28.5498 100.216ZM-29.5705 96.1677C-29.351 96.9995 -29.1514 97.8304 -28.9412 98.6616C-27.0973 100.486 -25.3548 102.268 -23.5521 104.074C-23.8488 103.212 -24.1304 102.351 -24.4361 101.487C-26.1339 99.7193 -27.8344 97.951 -29.5705 96.1677ZM-30.6956 92.0601C-30.4676 92.877 -30.24 93.6938 -30.0214 94.5103C-28.3604 96.209 -26.7734 97.8772 -25.143 99.5643C-25.4495 98.7156 -25.7612 97.8668 -26.0788 97.0168C-27.5928 95.374 -29.1459 93.7169 -30.6956 92.0601ZM-31.8776 87.9539C-31.6432 88.7425 -31.4021 89.5319 -31.1758 90.32C-29.7046 91.8843 -28.2712 93.4343 -26.8268 94.9881C-27.1423 94.1611 -27.4845 93.3295 -27.8085 92.501C-29.1319 90.9971 -30.5206 89.4697 -31.8776 87.9539ZM-33.108 83.8671C-32.88 84.5973 -32.6686 85.3259 -32.4465 86.0551C-31.1872 87.4554 -29.9348 88.8526 -28.6992 90.2435C-28.9981 89.4977 -29.2924 88.7525 -29.5989 88.0054C-30.7436 86.6347 -31.9366 85.2466 -33.108 83.8671ZM-34.4493 79.7332C-34.2268 80.4058 -34.0115 81.0788 -33.7946 81.7513C-32.7692 82.9514 -31.7265 84.1575 -30.7189 85.351C-30.9873 84.7161 -31.2513 84.082 -31.5243 83.446C-32.4945 82.2098 -33.4583 80.9763 -34.4493 79.7332ZM-35.8049 75.7387C-35.6113 76.2957 -35.4109 76.8531 -35.2216 77.4099C-34.4616 78.3551 -33.6698 79.3107 -32.9225 80.2516C-33.1331 79.7739 -33.353 79.295 -33.5678 78.8169C-34.3151 77.79 -35.0432 76.7696 -35.8049 75.7387ZM-37.0816 72.0934C-36.9729 72.3893 -36.8736 72.6852 -36.7679 72.9809C-36.3123 73.5901 -35.836 74.2061 -35.3863 74.8127C-35.4912 74.5888 -35.6041 74.364 -35.709 74.1396L-37.0816 72.0934ZM-108.631 612.995C-108.527 614.023 -108.42 615.051 -108.304 616.081C-75.1339 609.506 -37.3665 604.669 1.1286 599.744C76.0291 590.162 153.664 580.229 205.192 556.407C280.732 521.483 300.225 456.608 173.122 319.077C288.774 451.002 263.81 513.788 187.177 548.948C137.828 571.589 67.0922 582.748 -1.31485 593.539C-39.1502 599.508 -76.2654 605.367 -108.631 612.995ZM-108.995 609.326C-108.901 610.341 -108.794 611.358 -108.692 612.375C-76.3482 604.782 -39.3217 598.936 -1.57726 592.983C66.7278 582.207 137.362 571.064 186.553 548.496C265.405 512.318 289.198 446.682 160.259 305.956C277.886 441.482 248.014 505.119 167.664 541.682C121.088 562.876 57.5812 574.95 -3.98929 586.655C-41.0795 593.706 -77.4632 600.624 -108.995 609.326ZM-109.294 605.677C-109.217 606.679 -109.137 607.681 -109.048 608.684C-77.5523 600.03 -41.2765 593.134 -4.30347 586.105C57.1863 574.415 120.608 562.358 167.045 541.227C249.731 503.602 278.636 437.111 147.189 292.48C267.528 432.455 231.686 497.042 146.97 535.25C103.709 554.761 47.7365 567.374 -6.68576 579.637C-43.0079 587.822 -78.6269 595.854 -109.294 605.677ZM-109.56 602.043C-109.494 603.034 -109.424 604.025 -109.348 605.018C-78.7263 595.254 -43.2342 587.252 -7.04959 579.099C47.3086 566.849 103.216 554.251 146.355 534.795C233.082 495.68 268.354 428.773 136.026 280.97L135.346 280.308C257.604 424.686 214.193 489.935 124.601 529.952C85.416 547.455 37.4167 560.12 -9.40518 572.473C-44.9359 581.848 -79.7805 591.045 -109.56 602.043ZM-109.791 598.434C-109.734 599.409 -109.667 600.386 -109.603 601.362C-79.8803 590.438 -45.1906 581.28 -9.82167 571.948C36.9476 559.608 84.8925 546.958 123.99 529.495C214.609 489.018 257.737 422.58 128.776 273.917C128.098 273.263 127.459 272.628 126.774 271.97C247.716 419.347 194.403 484.424 99.65 526.304C65.6537 541.33 26.3434 553.362 -12.1518 565.145C-46.8737 575.772 -80.9269 586.198 -109.791 598.434ZM-109.962 594.842C-109.92 595.8 -109.879 596.757 -109.827 597.716C-81.03 585.574 -47.153 575.203 -12.6184 564.633C25.8415 552.861 65.1144 540.84 99.0432 525.844C194.54 483.636 247.789 417.762 121.73 267.169C120.718 266.206 119.69 265.234 118.678 264.269C270.967 456.782 122.712 509.095 -14.9221 557.627C-48.8106 569.577 -82.0427 581.302 -109.962 594.842ZM-110.104 591.263C-110.072 592.204 -110.036 593.146 -109.997 594.089C-82.1543 580.662 -49.1218 569.009 -15.4435 557.133C122.91 508.347 271.991 455.718 113.996 259.829C112.881 258.781 111.719 257.71 110.573 256.648C250.845 441.376 111.716 497.583 -17.7294 549.896C-50.7624 563.245 -83.161 576.342 -110.104 591.263ZM-110.208 587.714C-110.184 588.631 -110.156 589.549 -110.128 590.467C-83.2697 575.684 -51.099 562.678 -18.3009 549.423C111.717 496.879 251.441 440.358 106.535 252.895C105.044 251.513 103.593 250.151 102.085 248.76C230.775 425.904 100.779 485.926 -20.5715 541.921C-52.7332 556.762 -84.2734 571.322 -110.208 587.714ZM-110.264 584.171C-110.255 585.064 -110.248 585.957 -110.23 586.852C-84.388 570.63 -53.0929 556.187 -21.1948 541.469C100.577 485.279 231.113 425.043 98.8445 245.802C97.1467 244.247 95.4089 242.673 93.6813 241.103C210.718 410.529 89.8019 474.143 -23.4523 533.663C-54.7131 550.092 -85.3764 566.213 -110.264 584.171ZM-110.28 577.147C-110.285 577.973 -110.289 578.798 -110.291 579.625C-86.5907 560.233 -57.1251 542.62 -27.1058 524.677C78.4504 461.584 190.793 394.358 82.475 231.009C80.4859 229.231 78.4912 227.449 76.4817 225.66C171.084 379.884 67.9077 450.008 -29.3688 516.109C-58.7635 536.082 -87.6114 555.691 -110.28 577.147ZM-110.23 573.657C-110.247 574.446 -110.267 575.234 -110.275 576.024C-87.7044 554.863 -59.1873 535.477 -30.1326 515.735C67.439 449.435 170.939 379.072 74.0408 223.49C71.9137 221.61 69.7139 219.695 67.5265 217.785C151.425 364.535 57.0008 437.577 -32.4151 506.687C-60.8393 528.655 -88.7442 550.23 -110.23 573.657ZM-110.157 570.19C-110.178 570.917 -110.188 571.646 -110.204 572.374C-88.8125 549.309 -61.2655 528.017 -33.2197 506.34C56.445 437.038 151.182 363.789 65.39 215.916C63.0842 213.901 60.7914 211.892 58.4423 209.856C131.983 349.192 46.1202 424.831 -35.5332 496.723C-62.9634 520.874 -89.9113 544.603 -110.157 570.19ZM-110.033 566.727C-110.056 567.396 -110.084 568.064 -110.106 568.734C-89.944 543.584 -63.3944 520.198 -36.3713 496.406C45.5045 424.317 131.613 348.452 56.4565 208.147C54.0661 206.082 51.6384 203.998 49.2035 201.91C112.698 333.838 35.2514 411.715 -38.7354 486.105C-65.1402 512.655 -91.0959 538.762 -110.033 566.727ZM-109.885 563.283C-109.914 563.869 -109.947 564.455 -109.972 565.042C-91.1031 537.605 -65.5674 511.925 -39.6007 485.817C34.5878 411.224 112.27 333.123 47.3982 200.357C44.866 198.19 42.2854 196 39.6912 193.803C93.5806 318.377 24.42 398.116 -42.0297 474.686C-67.3858 503.904 -92.3365 532.664 -109.885 563.283ZM-109.71 559.858C-109.737 560.327 -109.757 560.798 -109.783 561.267C-92.2758 531.305 -67.7947 503.087 -42.9243 474.428C23.7072 397.65 93.0665 317.683 38.0277 192.397C35.3792 190.154 32.743 187.917 30.0546 185.654C74.7401 302.845 13.6158 383.928 -45.4318 462.271C-69.715 494.49 -93.6451 526.244 -109.71 559.858ZM-109.491 556.418L-109.555 557.389C-93.4935 524.603 -70.0916 493.543 -46.3489 462.041C12.8643 383.478 74.1423 302.15 28.4913 184.341C25.76 182.051 22.9404 179.718 20.1382 177.392C56.068 287.131 2.83961 368.984 -48.9639 448.596C-72.142 484.216 -95.0284 519.39 -109.491 556.418ZM-109.255 553.028L-109.277 553.292C-94.7532 517.333 -72.4672 483.073 -49.9013 448.392C2.04735 368.555 55.4294 286.465 18.7095 176.203C15.8474 173.826 12.9747 171.444 10.0579 169.04C37.7293 271.192 -7.89963 353.051 -52.6437 433.287C-74.7026 472.847 -96.5436 512.014 -109.255 553.028ZM-64.7292 370.678C-82.4031 423.965 -100.203 477.641 -107.199 532.808C-97.6726 486.045 -79.5916 440.656 -61.4931 395.238C-30.0859 316.411 1.34682 237.491 -11.9 151.143C-15.0728 148.577 -18.216 146.026 -21.4585 143.426C-14.9196 220.492 -39.6919 295.195 -64.7292 370.678ZM-110.885 563.175L-110.838 562.26L-110.993 562.589C-111.031 562.916 -111.074 563.243 -111.11 563.571L-110.885 563.175ZM-111.034 566.605C-111.015 566.142 -111.003 565.678 -110.983 565.215C-111.108 565.436 -111.237 565.656 -111.36 565.877L-111.507 567.305L-111.034 566.605ZM-111.157 570.045C-111.14 569.461 -111.115 568.877 -111.094 568.293C-111.303 568.605 -111.503 568.918 -111.707 569.231C-111.763 569.8 -111.807 570.372 -111.859 570.942C-111.625 570.643 -111.394 570.343 -111.157 570.045ZM-111.231 573.496L-111.192 571.514L-112 572.555C-112.057 573.212 -112.119 573.869 -112.17 574.527C-111.857 574.184 -111.546 573.839 -111.231 573.496ZM-111.284 576.971C-111.278 576.241 -111.269 575.512 -111.257 574.784C-111.593 575.155 -111.934 575.524 -112.266 575.896C-112.317 576.614 -112.37 577.331 -112.417 578.049C-112.042 577.689 -111.662 577.33 -111.284 576.971ZM-111.298 580.459C-111.298 579.672 -111.292 578.887 -111.289 578.102C-111.698 578.494 -112.099 578.888 -112.504 579.281C-112.551 580.043 -112.589 580.806 -112.63 581.568C-112.186 581.199 -111.744 580.828 -111.298 580.459ZM-111.271 583.956C-111.28 583.134 -111.298 582.312 -111.303 581.491C-111.763 581.876 -112.232 582.259 -112.689 582.645C-112.733 583.455 -112.778 584.266 -112.812 585.078C-112.302 584.703 -111.788 584.329 -111.271 583.956ZM-111.221 587.482C-111.24 586.616 -111.25 585.752 -111.259 584.887C-111.794 585.277 -112.318 585.669 -112.847 586.06C-112.878 586.897 -112.909 587.734 -112.935 588.572C-112.366 588.208 -111.794 587.845 -111.221 587.482ZM-111.116 591.008C-111.144 590.119 -111.172 589.23 -111.195 588.341C-111.788 588.718 -112.381 589.094 -112.967 589.473C-112.99 590.341 -113.003 591.21 -113.021 592.079C-112.388 591.721 -111.756 591.363 -111.116 591.008ZM-110.98 594.566C-111.02 593.648 -111.059 592.73 -111.093 591.813C-111.745 592.177 -112.389 592.544 -113.035 592.91C-113.052 593.802 -113.068 594.693 -113.074 595.585C-112.381 595.244 -111.679 594.905 -110.98 594.566ZM-110.812 598.135C-110.864 597.195 -110.903 596.258 -110.944 595.319C-111.656 595.667 -112.367 596.017 -113.073 596.368C-113.074 597.28 -113.075 598.192 -113.069 599.105C-112.318 598.781 -111.568 598.457 -110.812 598.135ZM-110.586 601.722C-110.649 600.766 -110.712 599.809 -110.769 598.854C-111.538 599.183 -112.306 599.511 -113.069 599.841C-113.059 600.771 -113.04 601.704 -113.024 602.635C-112.214 602.329 -111.403 602.024 -110.586 601.722ZM-110.328 605.333C-110.404 604.356 -110.476 603.379 -110.541 602.403C-111.372 602.712 -112.19 603.024 -113.009 603.336C-112.991 604.282 -112.972 605.227 -112.943 606.174C-112.077 605.892 -111.2 605.613 -110.328 605.333ZM-110.031 608.958C-110.118 607.968 -110.197 606.98 -110.274 605.991C-111.158 606.276 -112.041 606.562 -112.917 606.85C-112.883 607.811 -112.847 608.773 -112.803 609.736C-111.882 609.475 -110.96 609.215 -110.031 608.958ZM-109.676 612.604C-109.777 611.603 -109.884 610.601 -109.978 609.602C-110.915 609.862 -111.849 610.123 -112.779 610.386C-112.732 611.36 -112.672 612.336 -112.616 613.311C-111.641 613.074 -110.662 612.838 -109.676 612.604ZM-109.288 616.277C-109.402 615.259 -109.51 614.241 -109.613 613.224C-110.611 613.461 -111.594 613.702 -112.58 613.943C-112.523 614.929 -112.462 615.914 -112.392 616.902C-111.363 616.691 -110.326 616.484 -109.288 616.277ZM-75.6561 725.471C-94.8411 688.311 -105.152 652.205 -109.215 616.886C-110.262 617.095 -111.306 617.307 -112.344 617.521C-109.801 652.176 -100.416 687.937 -81.1226 725.306L-82.0825 725.471C-101.37 688.114 -110.77 652.367 -113.334 617.727C-114.362 617.94 -115.39 618.152 -116.407 618.368C-115.396 652.334 -106.951 687.731 -87.552 725.306L-88.5128 725.471C-107.903 687.914 -116.364 652.535 -117.405 618.587C-118.415 618.804 -119.42 619.024 -120.419 619.245C-120.967 652.506 -113.485 687.526 -93.9788 725.306L-94.9392 725.471C-114.434 687.711 -121.942 652.709 -121.432 619.465C-122.426 619.688 -123.408 619.916 -124.393 620.142C-126.531 652.684 -120.019 687.319 -100.405 725.306L-101.366 725.471C-120.964 687.511 -127.509 652.897 -125.421 620.378C-126.383 620.602 -127.339 620.827 -128.292 621.055C-132.056 652.864 -126.557 687.103 -106.834 725.306L-107.793 725.471C-127.5 687.303 -133.034 653.09 -129.335 621.306C-130.276 621.533 -131.218 621.759 -132.15 621.99C-137.569 653.051 -133.099 686.886 -113.263 725.306L-114.223 725.471C-134.036 687.096 -138.557 653.293 -133.217 622.26C-134.132 622.49 -135.047 622.72 -135.951 622.954C-143.057 653.25 -139.639 686.667 -119.69 725.306L-120.65 725.471C-140.572 686.886 -144.05 653.502 -137.039 623.235C-137.93 623.469 -138.807 623.706 -139.688 623.944C-148.518 653.458 -146.18 686.445 -126.116 725.306L-127.076 725.471C-147.106 686.677 -149.523 653.728 -140.816 624.245C-141.677 624.48 -142.525 624.719 -143.375 624.958C-153.962 653.674 -152.726 686.22 -132.546 725.306L-133.506 725.471C-153.643 686.469 -154.974 653.968 -144.539 625.287C-145.36 625.521 -146.182 625.755 -146.993 625.993C-159.374 653.895 -159.272 685.989 -138.972 725.306L-139.933 725.471C-160.175 686.264 -160.411 654.222 -148.224 626.361C-148.998 626.592 -149.778 626.82 -150.544 627.055C-164.76 654.124 -165.821 685.754 -145.4 725.306L-146.36 725.471C-166.712 686.053 -165.807 654.485 -151.833 627.458C-152.578 627.69 -153.319 627.926 -154.055 628.162C-170.13 654.377 -172.366 685.526 -151.828 725.306L-152.787 725.471C-173.243 685.85 -171.2 654.769 -155.418 628.596C-156.11 628.822 -156.785 629.056 -157.468 629.285C-175.455 654.63 -178.92 685.285 -158.256 725.306L-159.216 725.471C-179.773 685.656 -176.562 655.083 -158.954 629.784C-159.587 630.002 -160.214 630.222 -160.839 630.443C-180.767 654.898 -185.47 685.045 -164.683 725.306L-165.644 725.471C-186.295 685.472 -181.901 655.425 -162.456 631.02C-163.006 631.219 -163.565 631.414 -164.111 631.615C-186.039 655.163 -192.027 684.791 -171.11 725.306L-172.07 725.471C-192.804 685.313 -187.246 655.809 -165.965 632.321C-166.419 632.493 -166.877 632.664 -167.325 632.839C-191.281 655.456 -198.585 684.544 -177.539 725.306L-178.5 725.471C-199.301 685.181 -192.573 656.246 -169.476 633.693C-169.822 633.832 -170.167 633.973 -170.51 634.113C-196.51 655.776 -205.133 684.31 -183.967 725.306L-184.927 725.471C-205.772 685.096 -197.894 656.762 -173.033 635.164C-173.208 635.239 -173.381 635.316 -173.554 635.391C-201.684 656.083 -211.696 684.047 -190.393 725.306L-191.354 725.471C-212.041 685.402 -203.39 657.813 -177.346 637.242C-207.03 656.901 -218.065 684.158 -196.822 725.306L-197.781 725.471C-218.032 686.247 -209.168 659.577 -182.83 640.076C-212.822 658.657 -224.059 685.001 -203.25 725.306L-204.21 725.471C-224.009 687.121 -215.003 661.347 -188.513 642.858C-218.666 660.423 -230.036 685.874 -209.677 725.306L-210.637 725.471C-233.099 681.967 -217.271 655.373 -180.252 637.62C-178.477 636.602 -176.63 635.615 -174.742 634.643C-173.02 633.585 -171.256 632.543 -169.423 631.529C-167.773 630.441 -166.058 629.377 -164.306 628.329C-162.676 627.172 -161.003 626.03 -159.272 624.912C-157.733 623.733 -156.145 622.573 -154.514 621.429C-152.996 620.166 -151.427 618.922 -149.815 617.694C-148.394 616.411 -146.938 615.141 -145.433 613.888C-144.048 612.519 -142.608 611.169 -141.138 609.829C-139.815 608.396 -138.456 606.975 -137.054 605.57C-135.843 604.125 -134.599 602.691 -133.317 601.27C-132.155 599.728 -130.947 598.201 -129.715 596.683C-128.617 595.055 -127.485 593.44 -126.319 591.834C-125.313 590.153 -124.281 588.48 -123.212 586.818C-122.305 585.096 -121.377 583.38 -120.413 581.674C-119.593 579.875 -118.751 578.083 -117.875 576.299C-117.149 574.428 -116.399 572.562 -115.622 570.705C-114.991 568.755 -114.34 566.81 -113.66 564.871C-113.146 562.91 -112.605 560.954 -112.05 559.002C-111.621 556.89 -111.166 554.783 -110.694 552.68C-110.378 550.531 -110.04 548.386 -109.683 546.244C-104.092 486.296 -84.8296 428.205 -65.7138 370.569C-40.5929 294.836 -15.7352 219.89 -22.5352 142.567C-76.1716 99.5964 -138.51 52.352 -210.548 0.360107L-209.769 0C-138.123 51.7084 -76.0845 98.7199 -22.6388 141.515C-22.722 140.594 -22.815 139.672 -22.9088 138.75C-74.5382 96.8904 -134.597 50.9227 -204.123 0.360107L-203.34 0C-134.212 50.2726 -74.452 96.0037 -23.0128 137.683C-23.1105 136.76 -23.2192 135.836 -23.3245 134.912C-72.9355 94.1678 -130.703 49.4821 -197.696 0.358948L-196.909 0.00140381C-130.331 48.8195 -72.8675 93.2582 -23.4548 133.812C-23.5648 132.894 -23.6633 131.975 -23.7826 131.057C-71.3603 91.4312 -126.83 48.0305 -191.269 0.357483L-190.483 0.00213623C-126.476 47.3554 -71.3149 90.499 -23.9402 129.921C-24.0633 128.995 -24.1966 128.068 -24.3295 127.141C-69.8501 88.6517 -123.005 46.5496 -184.843 0.356323L-184.052 0.00317383C-122.655 45.8673 -69.8064 87.7078 -24.4908 125.985C-24.6292 125.054 -24.7787 124.122 -24.9256 123.19C-68.3704 85.8508 -119.219 45.0466 -178.419 0.355103L-177.624 0.00445557C-118.889 44.3448 -68.3483 84.8735 -25.1204 121.985C-25.2669 121.084 -25.4045 120.182 -25.5599 119.28C-66.9426 83.0612 -115.391 43.5797 -171.992 0.354004L-171.192 0.00549316C-115.066 42.8683 -66.9562 82.0522 -25.7892 118.032C-25.9531 117.11 -26.1229 116.188 -26.2965 115.265C-65.5733 80.206 -111.653 42.0516 -165.568 0.353271L-164.764 0.00646973C-111.327 41.3356 -65.5903 79.183 -26.5288 113.996C-26.7075 113.072 -26.902 112.147 -27.0905 111.222C-64.2473 77.3286 -107.942 40.5089 -159.143 0.350647L-158.335 0.00866699C-107.632 39.7764 -64.2979 76.2686 -27.3626 109.899C-27.555 108.984 -27.7414 108.069 -27.9418 107.153C-62.9626 74.4301 -104.257 38.9528 -152.716 0.349182L-151.904 0.00982666C-103.964 38.2001 -63.0509 73.3252 -28.259 105.765C-28.464 104.852 -28.6703 103.939 -28.8856 103.025C-61.7491 71.4873 -100.614 37.3712 -146.291 0.347168L-145.475 0.0124512C-100.326 36.6091 -61.8502 70.3585 -29.218 101.598C-29.4388 100.684 -29.68 99.7666 -29.9101 98.8514C-60.5968 68.509 -97.0081 35.7682 -139.864 0.344543L-139.045 0.0146484C-96.7394 34.9833 -60.7374 67.3292 -30.2893 97.3493C-30.5173 96.4676 -30.7491 95.5858 -30.9864 94.7032C-59.4963 65.5395 -93.3967 34.1821 -133.442 0.343079L-132.615 0.0166016C-93.1903 33.3318 -59.6882 64.2551 -31.4441 93.041C-31.6768 92.1975 -31.901 91.3544 -32.1425 90.51C-58.4536 62.5345 -89.8256 32.572 -127.016 0.33905L-126.182 0.0198975C-89.6485 31.6809 -58.702 61.165 -32.6682 88.7198C-32.9106 87.8942 -33.1607 87.0678 -33.4116 86.2415C-57.4979 59.4736 -86.3075 30.9279 -120.592 0.336853L-119.753 0.0223999C-86.1496 30.0054 -57.7849 58.0331 -33.9801 84.3435C-34.2289 83.5428 -34.4985 82.7411 -34.7558 81.9402C-56.5978 56.3865 -82.8285 29.2642 -114.17 0.33252L-113.32 0.0272217C-82.7207 28.2736 -56.9807 54.7992 -35.4415 79.825C-35.6865 79.0814 -35.9302 78.3378 -36.1828 77.5933C-55.7571 53.2639 -79.3899 27.5781 -107.745 0.32782L-106.887 0.0311279C-79.3521 26.4929 -56.2713 51.4797 -37.0226 75.1856C-37.2591 74.5118 -37.4879 73.838 -37.7295 73.1633C-55.0085 50.0784 -76.0132 25.8538 -101.324 0.32312L-100.454 0.0358276C-76.0599 24.642 -55.6828 48.0298 -38.7587 70.3613C-38.9719 69.7855 -39.1871 69.2094 -39.4049 68.6326C-54.3615 46.817 -72.6947 24.0868 -94.9023 0.317017L-94.0204 0.0427856C-72.8782 22.6727 -55.2756 44.3522 -40.7186 65.2071C-40.8506 64.8702 -40.9894 64.5323 -41.1236 64.1956C-53.7539 43.6099 -69.3703 22.3507 -88.4814 0.308411L-87.5876 0.0509033C-70.0526 20.276 -55.4629 39.8405 -43.4091 58.8328C-53.607 39.7656 -66.3426 20.2792 -82.0618 0.298584L-81.1481 0.0609131C-67.6729 17.191 -56.3893 33.9578 -47.0061 50.4089C-54.5632 33.8665 -64.0096 17.1691 -75.6417 0.286255L-74.714 0.0734863C-60.8834 20.1441 -50.1263 39.9526 -41.9749 59.5476C-40.274 62.7468 -38.6335 65.9367 -37.0732 69.1132C-35.0654 72.5037 -33.1666 75.869 -31.3133 79.2242C-29.0801 82.7002 -26.9169 86.1572 -24.8534 89.5867C-22.3438 93.2292 -19.9088 96.8488 -17.5952 100.431C-14.931 104.108 -12.3925 107.742 -9.91719 111.355C-7.13834 115.031 -4.44693 118.677 -1.85065 122.288C1.19231 126.156 4.14561 129.99 6.97882 133.778C10.24 137.793 13.3577 141.752 16.3904 145.677C19.5654 149.49 22.6419 153.263 25.6144 156.993C28.8645 160.8 32.0272 164.571 35.0774 168.294C39.0467 172.824 42.8238 177.271 46.4964 181.672C49.994 185.614 53.3881 189.508 56.6663 193.352C60.1852 197.247 63.5983 201.095 66.9104 204.897C71.0645 209.417 75.0955 213.883 78.974 218.277C82.8903 222.485 86.6864 226.637 90.3505 230.728C94.3564 234.98 98.2484 239.178 101.996 243.308C106.13 247.646 110.153 251.932 114.019 256.142C118.079 260.366 122.039 264.542 125.853 268.647C129.882 272.798 133.805 276.897 137.597 280.933C141.681 285.097 145.631 289.195 149.475 293.24C303.562 448.827 286.224 519.683 205.814 556.857C154.102 580.764 76.3552 590.711 1.34555 600.308C-37.2209 605.242 -75.0529 610.087 -108.232 616.69C-104.186 652.021 -93.8854 688.138 -74.6958 725.306L-75.6561 725.471Z" fill="url(#paint0_linear_837_9501)"/>
<defs>
<linearGradient id="paint0_linear_837_9501" x1="675.094" y1="244.94" x2="100.941" y2="953.916" gradientUnits="userSpaceOnUse">
<stop stop-color="#0A767B"/>
<stop offset="1" stop-color="#00A7D6"/>
</linearGradient>
</defs>
</svg>
