<svg width="208" height="737" viewBox="0 0 208 737" fill="none" xmlns="http://www.w3.org/2000/svg">
<path d="M20.5785 609.447L21.4009 607.496C21.3525 607.702 21.3123 607.905 21.2653 608.112C21.0033 608.824 20.739 609.537 20.4674 610.254C20.5067 609.984 20.5401 609.716 20.5785 609.447ZM24.4735 597.468C24.7035 596.96 24.9403 596.446 25.167 595.941L25.1137 596.137L24.3658 598.021L24.4735 597.468ZM21.2579 604.556C21.7733 603.435 22.2606 602.333 22.774 601.214C22.6618 601.752 22.5331 602.298 22.4192 602.838C21.9752 603.917 21.5021 605.016 21.0421 606.106C21.1118 605.59 21.1904 605.07 21.2579 604.556ZM28.8738 585.157C29.0746 584.73 29.2555 584.317 29.455 583.892L29.4516 583.902C29.248 584.384 29.0318 584.875 28.8249 585.36L28.8738 585.157ZM25.4818 592.222C25.9687 591.213 26.4651 590.196 26.9442 589.192C26.8361 589.62 26.7358 590.045 26.6261 590.474C26.1355 591.601 25.6788 592.703 25.1769 593.837C25.2761 593.3 25.3862 592.758 25.4818 592.222ZM21.825 599.748C22.5328 598.321 23.2052 596.92 23.8963 595.505C23.7695 596.173 23.6395 596.843 23.5081 597.514C22.8806 598.91 22.2359 600.318 21.5993 601.721C21.6772 601.062 21.7501 600.405 21.825 599.748ZM-184.872 161.089L-184.502 161.42C-184.39 161.718 -184.275 162.014 -184.161 162.311L-184.466 161.993C-184.603 161.693 -184.736 161.39 -184.872 161.089ZM33.8289 572.185L34.0435 571.741C33.9553 571.94 33.875 572.135 33.7868 572.333L33.8289 572.185ZM30.1441 579.709C30.6201 578.765 31.0767 577.836 31.5375 576.904C31.4385 577.248 31.3463 577.588 31.2463 577.933C30.8001 578.912 30.3383 579.902 29.8914 580.882C29.9806 580.488 30.0573 580.102 30.1441 579.709ZM26.3248 587.218C27.02 585.851 27.7223 584.479 28.4102 583.118C28.2487 583.809 28.0728 584.51 27.9077 585.204C27.2838 586.531 26.636 587.875 25.9877 589.22C26.101 588.552 26.2147 587.884 26.3248 587.218ZM22.3295 594.941C23.1988 593.295 24.0521 591.661 24.8896 590.04C24.7607 590.786 24.6476 591.524 24.5146 592.272C23.7077 593.934 22.9206 595.584 22.1117 597.248C22.1925 596.475 22.2549 595.711 22.3295 594.941ZM-186.368 157.751C-186.128 157.937 -185.881 158.119 -185.64 158.304L-185.162 159.619C-185.369 159.432 -185.581 159.247 -185.786 159.059C-185.98 158.623 -186.176 158.188 -186.368 157.751ZM-188.466 156.108L-188.003 156.474L-187.624 157.356L-187.983 157.023C-188.144 156.718 -188.308 156.414 -188.466 156.108ZM-190.389 154.581L-190.326 154.633L-190.187 154.905L-190.389 154.581ZM35.2892 566.676C35.7352 565.793 36.1926 564.901 36.6449 564.014L36.2463 565.257C35.8422 566.11 35.4074 566.984 34.9891 567.848C35.0915 567.455 35.1875 567.067 35.2892 566.676ZM31.2984 574.353C31.9939 573.05 32.6956 571.744 33.3589 570.466C33.2038 571.047 33.0232 571.642 32.8633 572.225C32.1962 573.594 31.5429 574.952 30.8747 576.321C31.0128 575.667 31.1629 575.005 31.2984 574.353ZM27.0968 582.25L29.6885 577.38C29.5164 578.172 29.354 578.958 29.1771 579.753C28.4013 581.306 27.586 582.888 26.7808 584.463C26.8951 583.72 26.9877 582.99 27.0968 582.25ZM22.7583 590.201C23.7807 588.365 24.8084 586.525 25.7794 584.727C25.6503 585.566 25.495 586.418 25.3574 587.261C24.4076 589.11 23.4903 590.935 22.5232 592.796C22.6002 591.932 22.6896 591.062 22.7583 590.201ZM-187.767 154.49C-187.431 154.713 -187.099 154.939 -186.76 155.16C-186.572 155.697 -186.388 156.235 -186.197 156.77C-186.498 156.537 -186.792 156.3 -187.092 156.066C-187.316 155.541 -187.545 155.017 -187.767 154.49ZM-190.058 152.963C-189.799 153.14 -189.536 153.313 -189.275 153.488C-189.096 153.918 -188.915 154.345 -188.733 154.773L-189.423 154.218C-189.635 153.8 -189.849 153.383 -190.058 152.963ZM-192.257 151.444L-191.75 151.795C-191.607 152.086 -191.465 152.379 -191.32 152.669C-191.455 152.558 -191.591 152.448 -191.726 152.337C-191.902 152.038 -192.081 151.743 -192.257 151.444ZM-194.291 150.009L-194.182 150.087L-193.989 150.427L-194.014 150.406L-194.291 150.009ZM40.8485 553.34C41.271 552.543 41.7053 551.738 42.1171 550.948C42.0331 551.192 41.9419 551.441 41.8554 551.686C41.4106 552.597 40.9816 553.496 40.5339 554.409L40.8485 553.34ZM36.7056 561.145C37.3825 559.878 38.0406 558.625 38.7141 557.361C38.5398 557.941 38.3836 558.509 38.2067 559.091C37.5713 560.358 36.9049 561.649 36.2516 562.93C36.3981 562.338 36.5626 561.735 36.7056 561.145ZM32.3161 569.166C33.1823 567.609 34.0569 566.045 34.8865 564.516C34.7031 565.248 34.5124 565.983 34.3219 566.719C33.5027 568.312 32.7156 569.881 31.8766 571.489C32.0301 570.71 32.1689 569.941 32.3161 569.166ZM27.8006 577.331C28.8338 575.478 29.835 573.65 30.8557 571.806C30.685 572.667 30.5103 573.529 30.3308 574.395C29.3867 576.19 28.414 578.006 27.4458 579.819C27.5594 578.992 27.6934 578.154 27.8006 577.331ZM23.068 585.61C24.2283 583.604 25.4031 581.585 26.5091 579.62C26.3868 580.509 26.2581 581.402 26.1274 582.295C25.0654 584.269 23.991 586.25 22.8947 588.249C22.9577 587.367 23.0125 586.489 23.068 585.61ZM-189.095 151.282C-188.685 151.513 -188.271 151.742 -187.858 151.971C-187.649 152.592 -187.433 153.21 -187.219 153.829C-187.602 153.575 -187.987 153.321 -188.367 153.065C-188.611 152.472 -188.852 151.876 -189.095 151.282ZM-191.583 149.851C-191.223 150.059 -190.865 150.268 -190.505 150.476C-190.292 151.001 -190.076 151.525 -189.861 152.05C-190.194 151.823 -190.522 151.594 -190.851 151.366C-191.098 150.862 -191.339 150.356 -191.583 149.851ZM-193.983 148.438C-193.693 148.611 -193.408 148.788 -193.117 148.961C-192.918 149.38 -192.712 149.796 -192.512 150.214C-192.774 150.029 -193.031 149.84 -193.293 149.653L-193.983 148.438ZM-196.271 147.055C-196.086 147.169 -195.896 147.28 -195.712 147.393C-195.548 147.688 -195.378 147.979 -195.213 148.273L-195.689 147.927C-195.883 147.637 -196.079 147.347 -196.271 147.055ZM-198.419 145.709L-198.248 145.816C-198.169 145.939 -198.092 146.063 -198.012 146.186L-198.09 146.128C-198.199 145.987 -198.311 145.849 -198.419 145.709ZM46.7562 539.834C47.187 539.039 47.5692 538.282 47.9915 537.494C47.9332 537.652 47.8826 537.805 47.8239 537.963C47.4054 538.798 46.9674 539.647 46.5443 540.484C46.6128 540.269 46.6892 540.049 46.7562 539.834ZM42.4651 547.641C43.1121 546.465 43.7698 545.28 44.4042 544.115C44.2243 544.664 44.0511 545.208 43.8672 545.759C43.2422 546.975 42.638 548.173 41.9952 549.402C42.1614 548.809 42.3018 548.232 42.4651 547.641ZM37.91 555.905C38.8135 554.294 39.6579 552.728 40.5447 551.13C40.3337 551.875 40.0986 552.635 39.8824 553.383C39.0749 554.917 38.2464 556.467 37.4267 558.009C37.5921 557.306 37.7521 556.605 37.91 555.905ZM33.2749 564.006C34.2936 562.233 35.3191 560.455 36.3059 558.708C36.1102 559.541 35.9378 560.359 35.7342 561.197C34.7766 562.975 33.8006 564.768 32.8059 566.575C32.9617 565.719 33.1281 564.857 33.2749 564.006ZM28.3659 572.557C29.5581 570.509 30.6957 568.502 31.8629 566.474C31.6985 567.383 31.5199 568.301 31.3452 569.215C30.2599 571.187 29.1629 573.168 28.0617 575.152C28.168 574.284 28.2673 573.421 28.3659 572.557ZM23.3205 581.062C24.6123 578.895 25.9126 576.722 27.1606 574.589C27.0479 575.52 26.9517 576.443 26.8304 577.378C25.6538 579.475 24.4236 581.614 23.1916 583.753C23.2421 582.853 23.2782 581.959 23.3205 581.062ZM-190.381 148.075C-189.888 148.311 -189.401 148.551 -188.904 148.785C-188.685 149.461 -188.468 150.138 -188.245 150.813C-188.7 150.555 -189.152 150.296 -189.604 150.037C-189.867 149.385 -190.124 148.73 -190.381 148.075ZM-193.033 146.79C-192.592 147.008 -192.145 147.224 -191.701 147.44C-191.471 148.033 -191.246 148.629 -191.012 149.22C-191.415 148.985 -191.825 148.754 -192.225 148.517C-192.499 147.943 -192.767 147.366 -193.033 146.79ZM-195.617 145.492C-195.234 145.688 -194.845 145.879 -194.46 146.074C-194.228 146.578 -193.999 147.084 -193.764 147.587C-194.12 147.373 -194.479 147.16 -194.832 146.944C-195.098 146.462 -195.354 145.975 -195.617 145.492ZM-198.121 144.191C-197.808 144.356 -197.496 144.521 -197.181 144.685L-196.525 145.898C-196.809 145.72 -197.092 145.541 -197.376 145.363C-197.626 144.973 -197.874 144.582 -198.121 144.191ZM-200.514 142.918C-200.297 143.035 -200.085 143.156 -199.868 143.273C-199.689 143.558 -199.505 143.841 -199.324 144.125C-199.514 144.003 -199.699 143.878 -199.886 143.755C-200.095 143.476 -200.307 143.198 -200.514 142.918ZM-202.732 141.698L-202.512 141.82C-202.418 141.949 -202.328 142.08 -202.233 142.209L-202.369 142.119L-202.732 141.698ZM53.0961 525.757C53.437 525.13 53.7848 524.497 54.1281 523.867C54.0397 524.095 53.956 524.319 53.8668 524.547C53.5407 525.18 53.1992 525.827 52.8622 526.469C52.945 526.228 53.0157 525.997 53.0961 525.757ZM48.5452 533.998C49.1922 532.858 49.8279 531.726 50.4505 530.605C50.2925 531.052 50.1291 531.503 49.9704 531.951C49.3475 533.134 48.715 534.325 48.0942 535.505C48.2489 535 48.3936 534.502 48.5452 533.998ZM43.9385 542.104C44.8009 540.587 45.6723 539.062 46.5261 537.552C46.2873 538.319 46.0394 539.094 45.7935 539.866C45.0083 541.325 44.1756 542.822 43.3512 544.312C43.5455 543.577 43.7499 542.836 43.9385 542.104ZM39.0967 550.533C40.1302 548.763 41.1349 547.017 42.1392 545.271C41.9248 546.074 41.7201 546.87 41.4994 547.677L38.5843 552.972C38.7628 552.154 38.9253 551.346 39.0967 550.533ZM34.0799 559.039C35.2633 557.042 36.4449 555.044 37.6025 553.066C37.3948 554.019 37.1578 554.989 36.9408 555.948C35.8843 557.833 34.7599 559.773 33.6498 561.699C33.7968 560.811 33.9425 559.923 34.0799 559.039ZM28.8799 567.765C30.1927 565.59 31.4737 563.442 32.749 561.297C32.5981 562.217 32.4632 563.127 32.302 564.053C31.0695 566.207 29.8537 568.347 28.6053 570.514C28.7045 569.594 28.7904 568.681 28.8799 567.765ZM23.509 576.567C24.932 574.247 26.35 571.929 27.7372 569.637C27.6358 570.618 27.5057 571.616 27.3924 572.603C26.1082 574.812 24.7405 577.087 23.3918 579.346C23.431 578.42 23.4812 577.489 23.509 576.567ZM-185.82 147.132C-157.278 157.865 -123.793 165.432 -89.6639 173.139C35.5522 201.413 169.32 231.662 97.586 428.182M-191.615 144.888C-191.062 145.11 -190.499 145.327 -189.941 145.546C-189.712 146.276 -189.482 147.006 -189.248 147.734C-189.767 147.485 -190.286 147.236 -190.803 146.985C-191.076 146.287 -191.35 145.59 -191.615 144.888ZM-194.438 143.728C-193.919 143.943 -193.399 144.157 -192.876 144.37C-192.631 145.029 -192.38 145.685 -192.126 146.34C-192.611 146.101 -193.09 145.857 -193.571 145.615C-193.862 144.987 -194.155 144.36 -194.438 143.728ZM-197.189 142.564C-196.715 142.768 -196.246 142.975 -195.769 143.177C-195.514 143.752 -195.258 144.327 -194.997 144.9C-195.436 144.676 -195.869 144.449 -196.304 144.223C-196.601 143.671 -196.897 143.118 -197.189 142.564ZM-199.862 141.399C-199.451 141.582 -199.039 141.763 -198.626 141.944C-198.375 142.427 -198.133 142.915 -197.878 143.397C-198.253 143.198 -198.633 143.004 -199.004 142.804C-199.294 142.338 -199.576 141.867 -199.862 141.399ZM-202.459 140.222C-202.125 140.376 -201.785 140.527 -201.448 140.68L-200.738 141.851C-201.044 141.683 -201.353 141.516 -201.657 141.346L-202.459 140.222ZM-204.957 139.046L-204.249 139.384C-204.055 139.663 -203.853 139.938 -203.655 140.216L-204.276 139.859C-204.502 139.587 -204.733 139.319 -204.957 139.046ZM-207.23 137.951L-206.962 138.085L-206.663 138.459L-206.867 138.336C-206.99 138.209 -207.108 138.078 -207.23 137.951ZM59.6275 511.738C59.9313 511.197 60.2445 510.648 60.5433 510.112L60.4885 510.245C60.1405 510.906 59.8042 511.559 59.4554 512.221L59.6275 511.738ZM55.0092 519.944C55.6647 518.778 56.3184 517.612 56.981 516.441C56.7874 516.961 56.5709 517.498 56.3751 518.019C55.7775 519.13 55.1484 520.267 54.5333 521.391C54.6923 520.909 54.8532 520.425 55.0092 519.944ZM50.3059 528.115C51.1223 526.724 51.9505 525.325 52.7337 523.962C52.5285 524.574 52.343 525.172 52.1332 525.787C51.2919 527.321 50.482 528.829 49.6304 530.371C49.8483 529.624 50.0932 528.858 50.3059 528.115ZM45.2812 536.707L48.3483 531.462C48.0963 532.316 47.8366 533.176 47.578 534.035C46.6499 535.691 45.6796 537.381 44.7194 539.064C44.9167 538.271 45.0899 537.495 45.2812 536.707ZM40.155 545.304C41.3388 543.349 42.5225 541.395 43.6616 539.477C43.4424 540.356 43.2032 541.248 42.9749 542.134C41.8378 544.125 40.7489 546.078 39.591 548.086C39.7797 547.158 39.9748 546.226 40.155 545.304ZM34.8168 554.115C36.1211 551.967 37.4181 549.827 38.7089 547.691C38.5152 548.651 38.3289 549.608 38.1251 550.574C36.9285 552.631 35.68 554.73 34.4397 556.822C34.5765 555.914 34.6896 555.019 34.8168 554.115ZM29.3096 563.051C30.7499 560.742 32.179 558.443 33.5701 556.174C33.4287 557.135 33.2612 558.112 33.11 559.079C31.7545 561.366 30.4296 563.628 29.0461 565.939C29.1344 564.976 29.2326 564.008 29.3096 563.051ZM23.5915 572.19C25.132 569.739 26.6564 567.301 28.1722 564.869C28.0878 565.847 27.9999 566.826 27.9039 567.81C26.4891 570.161 25.0116 572.562 23.5425 574.957C23.5669 574.031 23.5772 573.111 23.5915 572.19ZM-192.791 141.686C-192.172 141.89 -191.556 142.097 -190.934 142.299C-190.703 143.071 -190.465 143.839 -190.227 144.607C-190.814 144.372 -191.4 144.136 -191.981 143.898C-192.252 143.161 -192.523 142.424 -192.791 141.686ZM-195.761 140.682C-195.178 140.883 -194.594 141.085 -194.006 141.284C-193.754 141.985 -193.496 142.683 -193.239 143.381C-193.787 143.155 -194.341 142.932 -194.884 142.702C-195.177 142.029 -195.472 141.357 -195.761 140.682ZM-198.679 139.664C-198.139 139.857 -197.591 140.045 -197.046 140.235C-196.777 140.867 -196.501 141.494 -196.226 142.123C-196.735 141.903 -197.248 141.686 -197.753 141.464C-198.063 140.865 -198.376 140.267 -198.679 139.664ZM-201.536 138.617C-201.042 138.801 -200.545 138.982 -200.046 139.163C-199.77 139.72 -199.485 140.273 -199.2 140.826C-199.667 140.618 -200.129 140.406 -200.592 140.196C-200.909 139.671 -201.226 139.146 -201.536 138.617ZM-204.31 137.562C-203.87 137.732 -203.434 137.905 -202.991 138.073C-202.719 138.541 -202.454 139.012 -202.177 139.478C-202.591 139.286 -202.995 139.088 -203.406 138.894C-203.712 138.453 -204.007 138.005 -204.31 137.562ZM-206.996 136.506C-206.633 136.652 -206.273 136.799 -205.909 136.943C-205.657 137.318 -205.4 137.69 -205.147 138.065C-205.475 137.906 -205.805 137.749 -206.131 137.59C-206.419 137.228 -206.71 136.869 -206.996 136.506ZM-209.562 135.456C-209.309 135.562 -209.054 135.664 -208.8 135.769C-208.593 136.035 -208.386 136.3 -208.176 136.564C-208.402 136.45 -208.629 136.339 -208.852 136.225C-209.09 135.969 -209.327 135.713 -209.562 135.456ZM-211.932 134.443L-211.62 134.577L-211.283 134.956L-211.525 134.826L-211.932 134.443ZM66.4003 497.649L66.4624 497.539L66.392 497.669L66.4003 497.649ZM61.8364 505.539C62.4244 504.522 63.0247 503.494 63.605 502.483C63.4476 502.884 63.3075 503.274 63.1485 503.676C62.5088 504.847 61.9128 505.98 61.2585 507.162C61.4455 506.625 61.651 506.074 61.8364 505.539ZM56.8665 514.131C57.7137 512.683 58.5107 511.276 59.3528 509.832C59.1226 510.48 58.8955 511.125 58.6603 511.777C57.8955 513.147 57.1064 514.536 56.331 515.914C56.5217 515.311 56.6803 514.73 56.8665 514.131ZM51.7978 522.61C52.8255 520.904 53.8618 519.19 54.8576 517.511C54.598 518.322 54.3133 519.153 54.0486 519.968C53.0758 521.675 52.123 523.367 51.1254 525.095C51.3563 524.262 51.5744 523.438 51.7978 522.61ZM46.5589 531.342C47.7344 529.394 48.8787 527.47 50.0515 525.523C49.8066 526.404 49.5923 527.263 49.3385 528.149C48.2205 530.076 47.0742 532.027 45.9321 533.973C46.1378 533.099 46.3628 532.211 46.5589 531.342ZM41.0947 540.205C42.402 538.107 43.7225 535.998 44.9804 533.942C44.7628 534.872 44.5387 535.806 44.3134 536.742C43.087 538.817 41.8687 540.887 40.6101 542.99C40.7843 542.053 40.9286 541.136 41.0947 540.205ZM35.4715 549.265C36.9088 546.959 38.3199 544.673 39.7506 542.371C39.5679 543.357 39.376 544.35 39.1824 545.344C37.8401 547.578 36.4647 549.839 35.0889 552.101C35.2148 551.157 35.3547 550.204 35.4715 549.265ZM29.6318 558.462C31.1819 556.049 32.7456 553.625 34.2333 551.262C34.1061 552.226 33.9785 553.19 33.8423 554.16C32.3916 556.534 30.9364 558.912 29.4462 561.32C29.5184 560.362 29.571 559.415 29.6318 558.462ZM23.624 567.849C25.2793 565.273 26.9017 562.726 28.5462 560.159C28.4769 561.137 28.4141 562.112 28.3352 563.095C26.7881 565.586 25.2062 568.106 23.6184 570.63C23.6273 569.7 23.625 568.775 23.624 567.849ZM-193.928 138.479C-193.252 138.661 -192.57 138.838 -191.888 139.016C-191.658 139.819 -191.433 140.625 -191.198 141.426C-191.84 141.215 -192.482 141.005 -193.117 140.792C-193.393 140.023 -193.66 139.251 -193.928 138.479ZM-197.045 137.628C-196.402 137.808 -195.748 137.982 -195.1 138.159C-194.845 138.899 -194.596 139.642 -194.336 140.379C-194.951 140.169 -195.56 139.954 -196.172 139.741C-196.468 139.039 -196.756 138.333 -197.045 137.628ZM-200.115 136.744C-199.503 136.923 -198.89 137.102 -198.272 137.278C-197.997 137.953 -197.722 138.627 -197.441 139.299C-198.025 139.092 -198.599 138.879 -199.178 138.669C-199.494 138.029 -199.805 137.387 -200.115 136.744ZM-203.135 135.84C-202.559 136.016 -201.988 136.196 -201.408 136.37C-201.118 136.973 -200.822 137.572 -200.529 138.173C-201.066 137.974 -201.604 137.776 -202.136 137.573C-202.471 136.997 -202.808 136.421 -203.135 135.84ZM-206.075 134.927C-205.556 135.093 -205.032 135.255 -204.509 135.418C-204.212 135.95 -203.909 136.478 -203.604 137.006C-204.094 136.817 -204.587 136.63 -205.074 136.438C-205.41 135.936 -205.744 135.432 -206.075 134.927ZM-208.936 133.992C-208.478 134.145 -208.012 134.293 -207.553 134.444C-207.264 134.891 -206.981 135.342 -206.688 135.786C-207.118 135.613 -207.545 135.437 -207.972 135.262C-208.296 134.84 -208.616 134.415 -208.936 133.992ZM-211.728 133.033C-211.342 133.169 -210.957 133.304 -210.568 133.437C-210.296 133.802 -210.016 134.163 -209.742 134.526C-210.099 134.374 -210.45 134.218 -210.805 134.065C-211.113 133.721 -211.424 133.38 -211.728 133.033ZM-214.354 132.101C-214.073 132.202 -213.799 132.309 -213.519 132.41C-213.302 132.663 -213.093 132.919 -212.873 133.17C-213.128 133.058 -213.374 132.94 -213.627 132.826C-213.873 132.587 -214.109 132.342 -214.354 132.101ZM-216.799 131.195L-216.453 131.323C-216.327 131.451 -216.198 131.577 -216.071 131.706C-216.159 131.664 -216.25 131.624 -216.339 131.582L-216.799 131.195ZM73.6769 482.796L74.501 481.352L74.4553 481.458C74.1746 481.973 73.87 482.507 73.5834 483.027L73.6769 482.796ZM68.834 491.177C69.3668 490.281 69.9106 489.376 70.4221 488.498L70.1037 489.283C69.5546 490.27 69 491.263 68.4583 492.244C68.5903 491.883 68.7036 491.537 68.834 491.177ZM63.7979 499.672C64.6161 498.289 65.4463 496.895 66.2626 495.514C65.9956 496.229 65.7097 496.956 65.4389 497.675C64.7054 498.965 63.928 500.293 63.1626 501.611C63.3805 500.959 63.5829 500.32 63.7979 499.672ZM58.5901 508.393C59.6359 506.669 60.6364 504.983 61.6592 503.279C61.4011 504.038 61.1387 504.801 60.8746 505.564C59.8823 507.28 58.8837 509.003 57.8912 510.719C58.1247 509.943 58.3633 509.164 58.5901 508.393ZM53.2764 517.047C54.4298 515.173 55.5897 513.295 56.7186 511.441C56.445 512.348 56.1853 513.244 55.9025 514.157C54.8235 515.991 53.7017 517.86 52.578 519.731C52.812 518.835 53.0503 517.937 53.2764 517.047ZM47.6615 526.167C49.0085 524.006 50.2852 521.902 51.6123 519.757C51.3628 520.711 51.0889 521.682 50.8299 522.642C49.5909 524.712 48.3472 526.784 47.0975 528.862C47.2951 527.958 47.4742 527.066 47.6615 526.167ZM41.9771 535.132C43.4057 532.89 44.8395 530.642 46.2236 528.436C46.0117 529.415 45.815 530.384 45.5919 531.37C44.2472 533.581 42.8592 535.827 41.464 538.079C41.6309 537.099 41.8212 536.105 41.9771 535.132ZM36.0033 544.554C37.5802 542.089 39.0843 539.686 40.6439 537.235C40.4767 538.233 40.2979 539.239 40.1199 540.245C38.6555 542.611 37.1865 544.982 35.7005 547.366C35.812 546.422 35.9015 545.491 36.0033 544.554ZM29.9048 553.902C31.5649 551.372 33.2355 548.832 34.8359 546.352C34.725 547.336 34.6207 548.315 34.497 549.305C32.9429 551.781 31.3473 554.29 29.7394 556.81C29.7979 555.839 29.8576 554.868 29.9048 553.902ZM23.5956 563.56C25.3658 560.863 27.0846 558.21 28.8492 555.519C28.7954 556.509 28.7177 557.512 28.6543 558.507C26.9853 561.122 25.3115 563.741 23.6139 566.379C23.6082 565.439 23.6116 564.496 23.5956 563.56ZM-195.033 135.253C-194.297 135.406 -193.559 135.558 -192.819 135.708C-192.59 136.547 -192.355 137.383 -192.116 138.218C-192.819 138.031 -193.515 137.84 -194.214 137.651C-194.49 136.852 -194.766 136.054 -195.033 135.253ZM-198.294 134.546C-197.584 134.703 -196.88 134.863 -196.165 135.015C-195.91 135.789 -195.649 136.56 -195.385 137.33C-196.058 137.144 -196.732 136.958 -197.398 136.768C-197.7 136.03 -198 135.289 -198.294 134.546ZM-201.502 133.819C-200.827 133.976 -200.151 134.133 -199.469 134.287C-199.192 134.997 -198.913 135.706 -198.628 136.413C-199.269 136.227 -199.914 136.045 -200.549 135.856C-200.871 135.18 -201.186 134.499 -201.502 133.819ZM-204.659 133.071C-204.023 133.227 -203.377 133.375 -202.738 133.528C-202.442 134.172 -202.15 134.819 -201.848 135.46C-202.454 135.277 -203.058 135.091 -203.66 134.904C-203.996 134.295 -204.327 133.683 -204.659 133.071ZM-207.779 132.282C-207.179 132.437 -206.574 132.588 -205.97 132.74C-205.658 133.323 -205.337 133.901 -205.02 134.482C-205.592 134.3 -206.153 134.111 -206.719 133.926C-207.075 133.379 -207.432 132.834 -207.779 132.282ZM-210.797 131.48C-210.25 131.629 -209.706 131.78 -209.153 131.926C-208.838 132.434 -208.518 132.94 -208.195 133.444C-208.717 133.269 -209.236 133.092 -209.753 132.915C-210.106 132.44 -210.451 131.958 -210.797 131.48ZM-213.747 130.66C-213.261 130.799 -212.775 130.939 -212.285 131.076C-211.98 131.503 -211.674 131.93 -211.365 132.355C-211.813 132.198 -212.265 132.046 -212.708 131.886C-213.055 131.478 -213.405 131.071 -213.747 130.66ZM-216.599 129.83C-216.203 129.949 -215.8 130.061 -215.404 130.178C-215.119 130.525 -214.826 130.867 -214.535 131.211C-214.91 131.072 -215.288 130.935 -215.661 130.794C-215.976 130.474 -216.288 130.153 -216.599 129.83ZM-219.32 128.984L-218.439 129.259C-218.21 129.503 -217.98 129.747 -217.748 129.99L-218.544 129.676L-219.32 128.984ZM-221.866 128.163L-221.457 128.3L-221.07 128.655L-221.411 128.511L-221.866 128.163ZM76.0482 476.652C76.5898 475.745 77.1254 474.843 77.6518 473.95L77.2771 474.83C76.758 475.751 76.2133 476.692 75.6832 477.621C75.8087 477.295 75.9238 476.976 76.0482 476.652ZM70.9585 485.152C71.7936 483.754 72.64 482.346 73.4752 480.948C73.2372 481.556 72.9678 482.19 72.7262 482.801C71.8975 484.242 71.1055 485.653 70.273 487.098C70.5029 486.449 70.7326 485.799 70.9585 485.152ZM65.7329 493.765C66.7104 492.179 67.6895 490.592 68.635 489.033C68.3721 489.766 68.1317 490.482 67.8637 491.219C66.9226 492.827 65.938 494.47 64.966 496.103C65.2155 495.329 65.4907 494.535 65.7329 493.765ZM60.2093 502.735C61.3743 500.847 62.5304 498.966 63.6893 497.084C63.4078 497.954 63.1196 498.829 62.83 499.705C61.7161 501.575 60.6356 503.417 59.5174 505.291C59.7642 504.427 59.9709 503.592 60.2093 502.735ZM54.5595 511.737C55.8847 509.648 57.2211 507.551 58.4997 505.501C58.2254 506.463 57.9112 507.454 57.6261 508.422C56.4156 510.421 55.1471 512.466 53.8903 514.503C54.1184 513.578 54.3402 512.656 54.5595 511.737ZM48.7417 520.94C50.1899 518.671 51.5761 516.452 53.0007 514.202C52.765 515.166 52.5499 516.115 52.3042 517.086C50.9116 519.348 49.5459 521.588 48.1461 523.855C48.3428 522.885 48.5547 521.904 48.7417 520.94ZM42.6931 530.281C44.2554 527.878 45.822 525.472 47.3404 523.107C47.1359 524.132 46.9071 525.173 46.6918 526.205C45.2637 528.49 43.7604 530.838 42.2725 533.172C42.4211 532.203 42.5529 531.244 42.6931 530.281ZM36.4957 539.792C38.1702 537.245 39.8027 534.732 41.4392 532.216C41.291 533.203 41.1623 534.178 41.0029 535.172C39.3973 537.701 37.8153 540.211 36.1976 542.749C36.2971 541.764 36.4078 540.771 36.4957 539.792ZM30.0765 549.477C31.8531 546.808 33.6216 544.146 35.3569 541.511C35.2576 542.534 35.1358 543.569 35.0252 544.598C33.3876 547.143 31.6696 549.755 29.9647 552.356C30.006 551.394 30.0461 550.433 30.0765 549.477ZM23.4776 559.324C25.3516 556.547 27.2124 553.782 29.0355 551.048C28.9988 552.015 28.9687 552.979 28.9224 553.951C27.1319 556.689 25.3694 559.402 23.5646 562.152C23.5447 561.205 23.5084 560.265 23.4776 559.324ZM-196.079 132.007C-195.289 132.131 -194.501 132.256 -193.706 132.377C-193.483 133.237 -193.252 134.095 -193.021 134.952C-193.775 134.798 -194.532 134.645 -195.279 134.486C-195.548 133.661 -195.816 132.835 -196.079 132.007ZM-199.488 131.457C-198.726 131.585 -197.958 131.708 -197.191 131.831C-196.938 132.635 -196.677 133.435 -196.416 134.236C-197.146 134.077 -197.875 133.917 -198.599 133.754C-198.899 132.99 -199.198 132.226 -199.488 131.457ZM-202.844 130.881C-202.114 131.011 -201.375 131.133 -200.639 131.259C-200.36 132.007 -200.068 132.748 -199.777 133.491C-200.484 133.329 -201.181 133.161 -201.882 132.995C-202.206 132.292 -202.529 131.589 -202.844 130.881ZM-206.142 130.269C-205.442 130.402 -204.738 130.534 -204.031 130.663C-203.731 131.345 -203.426 132.026 -203.117 132.704C-203.793 132.54 -204.462 132.373 -205.132 132.205C-205.474 131.563 -205.807 130.915 -206.142 130.269ZM-209.397 129.631C-208.725 129.767 -208.059 129.906 -207.382 130.038C-207.066 130.65 -206.755 131.265 -206.436 131.875C-207.066 131.714 -207.699 131.555 -208.324 131.39C-208.684 130.805 -209.043 130.22 -209.397 129.631ZM-212.584 128.971C-211.963 129.104 -211.338 129.234 -210.714 129.364C-210.383 129.918 -210.044 130.466 -209.706 131.015C-210.298 130.856 -210.892 130.7 -211.476 130.536C-211.849 130.017 -212.221 129.496 -212.584 128.971ZM-215.683 128.289C-215.119 128.418 -214.545 128.539 -213.976 128.665C-213.645 129.147 -213.317 129.631 -212.979 130.109C-213.523 129.954 -214.063 129.797 -214.601 129.638C-214.966 129.191 -215.323 128.739 -215.683 128.289ZM-218.744 127.565C-218.233 127.689 -217.721 127.811 -217.205 127.932C-216.879 128.345 -216.546 128.754 -216.218 129.164C-216.701 129.018 -217.176 128.864 -217.656 128.715C-218.02 128.332 -218.387 127.952 -218.744 127.565ZM-221.651 126.84C-221.224 126.95 -220.805 127.064 -220.375 127.171C-220.084 127.493 -219.798 127.819 -219.502 128.138C-219.898 128.011 -220.29 127.881 -220.684 127.753C-221.011 127.451 -221.328 127.144 -221.651 126.84ZM-224.454 126.108C-224.144 126.193 -223.828 126.273 -223.516 126.356C-223.275 126.588 -223.026 126.817 -222.783 127.049C-223.062 126.953 -223.348 126.862 -223.626 126.766C-223.9 126.545 -224.182 126.33 -224.454 126.108ZM-227.026 125.385L-226.591 125.507L-226.191 125.845L-226.564 125.711C-226.718 125.603 -226.871 125.493 -227.026 125.385ZM83.5556 461.836C84.0899 460.951 84.6384 460.056 85.157 459.184C85.0052 459.531 84.8391 459.891 84.6876 460.239C84.1786 461.128 83.6399 462.043 83.1156 462.945L83.5556 461.836ZM78.4124 470.357L80.7716 466.45C80.5435 467.013 80.3377 467.557 80.1064 468.122C79.2993 469.51 78.5025 470.888 77.6899 472.28C77.9258 471.643 78.1809 470.991 78.4124 470.357ZM73.0481 479.097C74.0089 477.552 74.9819 475.997 75.9124 474.477C75.629 475.233 75.3483 475.987 75.0591 476.748C74.1566 478.27 73.2194 479.823 72.2925 481.366C72.5529 480.604 72.796 479.854 73.0481 479.097ZM67.4214 488.172C68.613 486.264 69.7621 484.393 70.9417 482.496C70.6308 483.401 70.2915 484.328 69.9735 485.239C68.8635 487.081 67.7832 488.899 66.6503 490.76C66.9165 489.89 67.1619 489.036 67.4214 488.172ZM61.7209 497.157C63.0243 495.113 64.3333 493.065 65.6038 491.049C65.3162 491.982 65.0481 492.902 64.7522 493.842C63.5003 495.888 62.2219 497.955 60.9447 500.021C61.2024 499.067 61.4736 498.104 61.7209 497.157ZM55.7815 506.455C57.2276 504.212 58.6311 502.005 60.0492 499.786C59.7792 500.79 59.5132 501.79 59.2317 502.802C57.8875 504.964 56.5214 507.144 55.1382 509.339C55.3607 508.372 55.5693 507.415 55.7815 506.455ZM49.6549 515.867C51.2277 513.459 52.794 511.057 54.3356 508.675C54.1018 509.705 53.8271 510.764 53.5805 511.802C52.1001 514.149 50.6148 516.5 49.1156 518.863C49.3027 517.86 49.4795 516.863 49.6549 515.867ZM43.3743 525.412C45.0418 522.898 46.6933 520.399 48.3174 517.921C48.1289 518.95 47.9633 519.964 47.7632 521.001C46.2056 523.436 44.5789 525.928 42.9649 528.41C43.1037 527.409 43.2463 526.405 43.3743 525.412ZM36.8621 535.198C38.6481 532.526 40.405 529.878 42.1656 527.228C42.0284 528.258 41.862 529.306 41.7115 530.343C40.0166 532.955 38.3528 535.54 36.6247 538.179C36.7105 537.182 36.7882 536.189 36.8621 535.198ZM30.1797 545.077C32.0543 542.326 33.9354 539.569 35.7513 536.868C35.6701 537.864 35.6039 538.852 35.513 539.855C33.7541 542.529 31.9448 545.248 30.1349 547.966C30.1614 546.997 30.1641 546.041 30.1797 545.077ZM23.3155 555.165C25.3001 552.269 27.2192 549.427 29.1765 546.555C29.1564 547.544 29.1257 548.54 29.0945 549.536C27.2262 552.339 25.346 555.152 23.4351 557.991C23.4007 557.047 23.3606 556.105 23.3155 555.165ZM-197.083 128.743C-196.245 128.834 -195.401 128.919 -194.555 129.005C-194.336 129.89 -194.122 130.777 -193.898 131.659C-194.707 131.535 -195.51 131.407 -196.313 131.278C-196.576 130.436 -196.828 129.589 -197.083 128.743ZM-200.628 128.342C-199.813 128.438 -198.993 128.529 -198.171 128.62C-197.922 129.448 -197.68 130.279 -197.424 131.103C-198.212 130.975 -198.99 130.84 -199.771 130.708C-200.062 129.922 -200.343 129.132 -200.628 128.342ZM-204.132 127.908C-203.338 128.01 -202.546 128.113 -201.746 128.21C-201.471 128.979 -201.191 129.746 -200.911 130.513C-201.669 130.381 -202.425 130.248 -203.177 130.112C-203.498 129.379 -203.819 128.646 -204.132 127.908ZM-207.577 127.449C-206.817 127.555 -206.056 127.661 -205.287 127.762C-204.988 128.475 -204.676 129.183 -204.365 129.89C-205.094 129.755 -205.825 129.623 -206.547 129.484C-206.893 128.808 -207.239 128.131 -207.577 127.449ZM-210.96 126.965C-210.235 127.074 -209.501 127.177 -208.77 127.281C-208.448 127.934 -208.125 128.586 -207.795 129.234C-208.499 129.095 -209.2 128.953 -209.897 128.809C-210.258 128.198 -210.607 127.58 -210.96 126.965ZM-214.302 126.443C-213.611 126.555 -212.911 126.661 -212.215 126.769C-211.877 127.362 -211.539 127.954 -211.194 128.544C-211.859 128.404 -212.511 128.254 -213.169 128.11C-213.549 127.555 -213.932 127.003 -214.302 126.443ZM-217.559 125.89C-216.914 126.003 -216.271 126.116 -215.622 126.225C-215.274 126.755 -214.917 127.28 -214.56 127.804C-215.183 127.664 -215.799 127.519 -216.416 127.375C-216.803 126.883 -217.18 126.386 -217.559 125.89ZM-220.762 125.31C-220.162 125.424 -219.567 125.539 -218.961 125.648C-218.617 126.104 -218.276 126.561 -217.927 127.014C-218.483 126.88 -219.044 126.749 -219.596 126.612C-219.985 126.178 -220.378 125.748 -220.762 125.31ZM-223.853 124.716C-223.337 124.82 -222.811 124.918 -222.291 125.019C-221.953 125.41 -221.606 125.795 -221.26 126.181C-221.761 126.052 -222.263 125.925 -222.76 125.793C-223.129 125.437 -223.49 125.075 -223.853 124.716ZM-226.865 124.083C-226.424 124.179 -225.976 124.27 -225.532 124.363C-225.225 124.672 -224.918 124.982 -224.608 125.289C-225.022 125.175 -225.435 125.058 -225.848 124.942C-226.186 124.655 -226.529 124.371 -226.865 124.083ZM-229.721 123.441C-229.397 123.517 -229.073 123.593 -228.746 123.666C-228.495 123.886 -228.247 124.107 -227.994 124.325C-228.306 124.232 -228.613 124.135 -228.923 124.041C-229.194 123.845 -229.454 123.64 -229.721 123.441ZM-232.365 122.819C-232.201 122.86 -232.042 122.903 -231.877 122.943C-231.734 123.052 -231.587 123.16 -231.444 123.269C-231.587 123.223 -231.726 123.174 -231.869 123.128C-232.034 123.025 -232.201 122.923 -232.365 122.819ZM91.3454 446.754C91.8502 445.921 92.368 445.077 92.8653 444.251C92.7326 444.548 92.6156 444.831 92.483 445.129C91.9686 446.017 91.4238 446.932 90.8957 447.832C91.0431 447.474 91.1998 447.11 91.3454 446.754ZM86.0891 455.413C86.8408 454.185 87.5577 452.987 88.3036 451.765C88.0682 452.325 87.8431 452.878 87.6052 453.44C86.8622 454.701 86.1416 455.942 85.3938 457.208C85.6226 456.612 85.8622 456.007 86.0891 455.413ZM80.5668 464.307C81.5408 462.747 82.5239 461.178 83.4792 459.633C83.1784 460.404 82.8606 461.188 82.5533 461.964C81.6523 463.468 80.7204 464.999 79.8027 466.518C80.0677 465.773 80.3077 465.048 80.5668 464.307ZM74.898 473.363C76.0929 471.476 77.2476 469.622 78.4189 467.755C78.0993 468.645 77.7542 469.556 77.4259 470.453C76.3093 472.288 75.1993 474.117 74.0554 475.975C74.3405 475.101 74.623 474.23 74.898 473.363ZM69.1505 482.368C70.4251 480.374 71.7025 478.378 72.9608 476.399C72.6554 477.335 72.3726 478.253 72.0573 479.196C70.8088 481.216 69.545 483.249 68.282 485.281C68.5639 484.316 68.8793 483.326 69.1505 482.368ZM63.0749 491.779C64.5174 489.567 65.9479 487.365 67.3514 485.186C67.0555 486.203 66.7436 487.232 66.4359 488.257C65.1157 490.361 63.7507 492.503 62.3867 494.644C62.6327 493.677 62.84 492.738 63.0749 491.779ZM56.8784 501.267C58.4492 498.871 59.997 496.495 61.5498 494.114C61.29 495.145 61.0151 496.188 60.7414 497.229C59.2356 499.594 57.7633 501.931 56.2333 504.317C56.4525 503.298 56.6712 502.278 56.8784 501.267ZM50.5096 510.852C52.1704 508.371 53.8405 505.882 55.4505 503.446C55.2339 504.473 55.0265 505.494 54.7985 506.529C53.2335 508.953 51.6211 511.417 50.0134 513.878C50.1846 512.865 50.3492 511.857 50.5096 510.852ZM43.9217 520.701C45.7289 518.021 47.4765 515.392 49.2501 512.739C49.0771 513.791 48.8629 514.87 48.6765 515.931C46.9877 518.511 45.2995 521.091 43.5729 523.704C43.695 522.7 43.8114 521.699 43.9217 520.701ZM37.1682 530.623C39.0443 527.878 40.9133 525.138 42.7443 522.431C42.6268 523.447 42.5209 524.456 42.3901 525.481C40.6078 528.17 38.8084 530.873 36.9899 533.593C37.059 532.598 37.111 531.612 37.1682 530.623ZM30.2341 540.726C32.2162 537.858 34.1689 535.014 36.1057 532.185C36.0408 533.204 35.9554 534.236 35.8784 535.262C34.0177 538.036 32.1129 540.847 30.1969 543.667C30.2074 542.687 30.2346 541.699 30.2341 540.726ZM23.0861 551.028C25.1593 548.055 27.1955 545.113 29.2308 542.172C29.226 543.158 29.2093 544.151 29.1929 545.143C27.2106 548.061 25.2597 550.951 23.2452 553.896C23.1953 552.939 23.1466 551.981 23.0861 551.028ZM-198.056 125.449C-197.166 125.505 -196.273 125.559 -195.376 125.609C-195.163 126.517 -194.944 127.421 -194.723 128.324C-195.582 128.234 -196.44 128.143 -197.292 128.048C-197.552 127.184 -197.808 126.318 -198.056 125.449ZM-201.732 125.197C-200.861 125.26 -199.996 125.327 -199.119 125.385C-198.877 126.234 -198.63 127.081 -198.379 127.925C-199.215 127.831 -200.054 127.739 -200.883 127.638C-201.17 126.827 -201.454 126.013 -201.732 125.197ZM-205.362 124.918C-204.518 124.988 -203.673 125.055 -202.821 125.119C-202.551 125.913 -202.281 126.707 -202.003 127.497C-202.818 127.396 -203.633 127.296 -204.44 127.19C-204.754 126.437 -205.055 125.676 -205.362 124.918ZM-208.951 124.612C-208.136 124.687 -207.308 124.754 -206.485 124.824C-206.189 125.564 -205.889 126.303 -205.587 127.04C-206.375 126.934 -207.154 126.821 -207.935 126.71C-208.277 126.013 -208.618 125.315 -208.951 124.612ZM-212.477 124.267C-211.694 124.346 -210.906 124.423 -210.116 124.498C-209.794 125.185 -209.459 125.864 -209.127 126.543C-209.889 126.432 -210.645 126.314 -211.4 126.198C-211.764 125.557 -212.121 124.913 -212.477 124.267ZM-215.949 123.889C-215.191 123.975 -214.438 124.064 -213.673 124.145C-213.337 124.766 -213.001 125.387 -212.655 126.002C-213.379 125.888 -214.102 125.774 -214.818 125.655C-215.199 125.069 -215.575 124.479 -215.949 123.889ZM-219.362 123.481C-218.646 123.571 -217.93 123.661 -217.208 123.746C-216.854 124.31 -216.493 124.869 -216.131 125.428C-216.814 125.312 -217.499 125.197 -218.176 125.076C-218.575 124.547 -218.973 124.016 -219.362 123.481ZM-222.693 123.05C-222.03 123.141 -221.356 123.224 -220.686 123.311C-220.324 123.813 -219.963 124.315 -219.594 124.813C-220.238 124.693 -220.877 124.571 -221.516 124.447C-221.912 123.984 -222.302 123.517 -222.693 123.05ZM-225.974 122.572C-225.361 122.664 -224.743 122.752 -224.126 122.84C-223.761 123.282 -223.387 123.718 -223.017 124.157C-223.61 124.038 -224.192 123.91 -224.779 123.787C-225.181 123.384 -225.58 122.98 -225.974 122.572ZM-229.145 122.068C-228.594 122.158 -228.049 122.251 -227.494 122.339C-227.149 122.704 -226.809 123.074 -226.459 123.435C-226.977 123.322 -227.491 123.205 -228.006 123.089C-228.388 122.751 -228.767 122.41 -229.145 122.068ZM-232.216 121.543C-231.757 121.625 -231.3 121.709 -230.839 121.789C-230.522 122.083 -230.192 122.369 -229.869 122.659C-230.299 122.559 -230.735 122.463 -231.161 122.36C-231.515 122.089 -231.867 121.818 -232.216 121.543ZM-235.12 121.007C-234.786 121.073 -234.442 121.132 -234.105 121.195C-233.85 121.399 -233.599 121.604 -233.342 121.806C-233.654 121.727 -233.97 121.65 -234.28 121.569C-234.561 121.382 -234.842 121.196 -235.12 121.007ZM-237.858 120.452L-237.354 120.555C-237.214 120.653 -237.079 120.753 -236.938 120.85L-237.402 120.721C-237.557 120.633 -237.704 120.54 -237.858 120.452ZM99.388 431.455C99.8029 430.77 100.23 430.076 100.646 429.39C100.52 429.667 100.4 429.938 100.272 430.215C99.8458 430.943 99.4003 431.689 98.968 432.421C99.1036 432.104 99.254 431.772 99.388 431.455ZM93.8717 440.46C94.6154 439.265 95.3392 438.088 96.0658 436.907C95.8308 437.449 95.5913 437.995 95.3534 438.539C94.6306 439.756 93.9485 440.936 93.2131 442.163C93.4423 441.588 93.6465 441.033 93.8717 440.46ZM88.3163 449.349C89.3104 447.755 90.3158 446.153 91.3087 444.562C90.9974 445.332 90.6459 446.137 90.3284 446.912C89.3959 448.455 88.4423 450.014 87.5033 451.562C87.7789 450.821 88.0461 450.086 88.3163 449.349ZM82.6371 458.323C83.7677 456.558 84.9024 454.791 85.9989 453.056C85.6849 453.892 85.4052 454.702 85.0844 455.543C83.9842 457.335 82.8546 459.151 81.7201 460.972C82.0212 460.093 82.3432 459.196 82.6371 458.323ZM76.7186 467.569C78.0132 465.556 79.2784 463.569 80.5604 461.567C80.2354 462.513 79.9104 463.459 79.5752 464.412C78.339 466.395 77.1195 468.363 75.8685 470.358C76.1599 469.422 76.4371 468.497 76.7186 467.569ZM70.6081 476.937C72.0527 474.736 73.5045 472.529 74.91 470.363C74.5932 471.383 74.2374 472.433 73.9101 473.461C72.5776 475.566 71.2003 477.709 69.8302 479.847C70.1007 478.868 70.3494 477.907 70.6081 476.937ZM64.3546 486.456C65.9208 484.091 67.4425 481.765 68.9791 479.425C68.7 480.44 68.4555 481.431 68.1654 482.454C66.6573 484.804 65.1576 487.146 63.6167 489.524C63.8599 488.503 64.1222 487.469 64.3546 486.456ZM57.8835 496.138C59.5517 493.65 61.2153 491.166 62.8503 488.706C62.6047 489.752 62.3513 490.802 62.0923 491.857C60.5201 494.275 58.927 496.71 57.3249 499.154C57.5258 498.138 57.6944 497.145 57.8835 496.138ZM51.2388 505.981C53.0309 503.346 54.8071 500.725 56.5524 498.129C56.3472 499.191 56.1152 500.271 55.8957 501.341C54.2205 503.883 52.5044 506.46 50.7798 509.045C50.9379 508.021 51.094 506.997 51.2388 505.981ZM44.4083 516.005C46.2895 513.256 48.1395 510.534 49.9937 507.809C49.8396 508.846 49.6942 509.877 49.5269 510.922C47.7241 513.624 45.9495 516.302 44.1174 519.028C44.2246 518.014 44.3137 517.011 44.4083 516.005ZM37.3988 526.131C39.3768 523.292 41.3664 520.441 43.2843 517.653C43.1826 518.684 43.0535 519.731 42.9381 520.77C41.078 523.525 39.1596 526.33 37.2444 529.131C37.2972 528.131 37.3587 527.125 37.3988 526.131ZM30.179 536.502C32.2619 533.529 34.2887 530.604 36.3374 527.661C36.2901 528.668 36.2397 529.678 36.181 530.692C34.2057 533.581 32.236 536.467 30.2199 539.391C30.2144 538.424 30.195 537.464 30.179 536.502ZM22.7878 546.963C24.9503 543.914 27.1008 540.877 29.2091 537.875C29.2196 538.848 29.2466 539.813 29.2484 540.791C27.193 543.767 25.1146 546.761 23.0123 549.777C22.9482 548.834 22.8618 547.901 22.7878 546.963ZM-198.982 122.126C-198.04 122.147 -197.1 122.168 -196.152 122.184C-195.948 123.109 -195.738 124.03 -195.525 124.951C-196.434 124.898 -197.342 124.846 -198.241 124.787C-198.492 123.902 -198.742 123.017 -198.982 122.126ZM-202.798 122.029C-201.88 122.057 -200.956 122.081 -200.033 122.103C-199.797 122.977 -199.552 123.846 -199.305 124.714C-200.194 124.654 -201.077 124.589 -201.96 124.524C-202.243 123.695 -202.527 122.865 -202.798 122.029ZM-206.552 121.904C-205.663 121.939 -204.761 121.964 -203.864 121.994C-203.6 122.815 -203.325 123.631 -203.049 124.446C-203.92 124.379 -204.779 124.304 -205.642 124.231C-205.951 123.459 -206.253 122.682 -206.552 121.904ZM-210.268 121.737C-209.397 121.779 -208.524 121.819 -207.646 121.856C-207.356 122.618 -207.066 123.38 -206.765 124.136C-207.607 124.063 -208.446 123.987 -209.283 123.908C-209.616 123.187 -209.942 122.462 -210.268 121.737ZM-213.946 121.538C-213.095 121.587 -212.25 121.641 -211.391 121.685C-211.076 122.391 -210.756 123.093 -210.435 123.795C-211.244 123.716 -212.059 123.64 -212.861 123.555C-213.227 122.885 -213.593 122.215 -213.946 121.538ZM-217.539 121.311C-216.73 121.367 -215.917 121.42 -215.1 121.47C-214.762 122.124 -214.415 122.773 -214.066 123.42C-214.854 123.334 -215.638 123.246 -216.418 123.155C-216.798 122.544 -217.167 121.927 -217.539 121.311ZM-221.093 121.053C-220.318 121.115 -219.528 121.167 -218.747 121.224C-218.389 121.819 -218.037 122.416 -217.673 123.007C-218.423 122.916 -219.162 122.817 -219.904 122.721C-220.303 122.166 -220.704 121.614 -221.093 121.053ZM-224.571 120.748C-223.839 120.815 -223.103 120.879 -222.363 120.942C-221.992 121.482 -221.608 122.017 -221.227 122.551C-221.944 122.454 -222.656 122.351 -223.368 122.249C-223.776 121.753 -224.172 121.25 -224.571 120.748ZM-228.003 120.409C-227.304 120.482 -226.61 120.56 -225.903 120.628C-225.531 121.101 -225.161 121.575 -224.783 122.043C-225.438 121.946 -226.097 121.849 -226.748 121.747C-227.168 121.303 -227.592 120.86 -228.003 120.409ZM-231.32 120.046C-230.689 120.12 -230.058 120.192 -229.422 120.261C-229.049 120.676 -228.669 121.086 -228.286 121.495C-228.897 121.395 -229.513 121.299 -230.118 121.195C-230.525 120.816 -230.917 120.428 -231.32 120.046ZM-234.578 119.649C-234.014 119.722 -233.438 119.786 -232.87 119.857C-232.512 120.205 -232.148 120.55 -231.785 120.895C-232.322 120.798 -232.858 120.7 -233.391 120.6C-233.787 120.283 -234.19 119.97 -234.578 119.649ZM-237.693 119.212C-237.221 119.28 -236.746 119.347 -236.27 119.412C-235.945 119.687 -235.627 119.965 -235.298 120.236C-235.753 120.146 -236.2 120.051 -236.651 119.958C-237.002 119.712 -237.347 119.461 -237.693 119.212ZM-240.702 118.755C-240.341 118.812 -239.986 118.873 -239.623 118.93C-239.354 119.128 -239.077 119.319 -238.805 119.515C-239.151 119.44 -239.489 119.358 -239.831 119.281C-240.122 119.105 -240.415 118.932 -240.702 118.755ZM-243.398 118.317C-243.23 118.347 -243.056 118.372 -242.886 118.401L-242.447 118.682C-242.598 118.645 -242.754 118.612 -242.905 118.576L-243.398 118.317ZM107.39 416.406L108.661 414.324L108.326 415.038C107.915 415.735 107.491 416.441 107.08 417.138C107.188 416.89 107.283 416.652 107.39 416.406ZM101.902 425.26C102.645 424.076 103.4 422.879 104.125 421.709C103.875 422.274 103.601 422.859 103.348 423.426C102.65 424.589 101.936 425.765 101.218 426.944C101.451 426.379 101.672 425.822 101.902 425.26ZM96.2857 434.228C97.2725 432.666 98.2143 431.144 99.1894 429.592C98.9033 430.28 98.6519 430.938 98.3608 431.629C97.3837 433.231 96.4177 434.824 95.4328 436.432C95.7154 435.699 96.0084 434.957 96.2857 434.228ZM90.585 443.135C91.679 441.431 92.7831 439.718 93.8585 438.031C93.5238 438.89 93.2022 439.74 92.8604 440.605C91.8056 442.307 90.7127 444.042 89.632 445.767C89.9437 444.894 90.2812 444.001 90.585 443.135ZM84.5126 452.555C85.8221 450.544 87.1006 448.56 88.3811 446.574C88.039 447.528 87.6715 448.502 87.3185 449.465C86.099 451.405 84.8967 453.331 83.6523 455.292C83.9533 454.368 84.2184 453.473 84.5126 452.555ZM78.3569 461.949C79.8012 459.751 81.2433 457.554 82.667 455.372C82.3367 456.38 81.9904 457.401 81.6489 458.418C80.2792 460.568 78.8862 462.737 77.4944 464.905C77.7869 463.916 78.075 462.93 78.3569 461.949ZM72.0758 471.42C73.6064 469.132 75.1365 466.845 76.6228 464.595C76.3219 465.621 76.0404 466.631 75.7272 467.665C74.2628 469.931 72.7584 472.232 71.249 474.537C71.5171 473.503 71.8186 472.445 72.0758 471.42ZM65.4773 481.284C67.1704 478.769 68.8139 476.297 70.4808 473.804C70.2074 474.867 69.9075 475.949 69.6212 477.022C68.0277 479.454 66.4623 481.863 64.8441 484.316C65.0713 483.294 65.2624 482.298 65.4773 481.284ZM58.7934 491.099C60.5691 488.503 62.3505 485.903 64.0777 483.349C63.8474 484.406 63.6185 485.461 63.3744 486.527C61.6932 489.063 59.959 491.645 58.229 494.222C58.418 493.18 58.6177 492.131 58.7934 491.099ZM51.8833 501.183C53.7727 498.444 55.623 495.74 57.4733 493.036C57.2858 494.091 57.0989 495.147 56.8988 496.212C55.1165 498.868 53.3278 501.528 51.504 504.22C51.6437 503.199 51.7556 502.196 51.8833 501.183ZM44.8113 511.367C46.7945 508.522 48.7618 505.69 50.7051 502.88C50.5675 503.928 50.4092 504.989 50.2586 506.046C48.372 508.824 46.4687 511.615 44.5458 514.424C44.636 513.404 44.7337 512.38 44.8113 511.367ZM37.5307 521.743C39.6036 518.805 41.6698 515.873 43.6901 512.981C43.6063 514.009 43.5192 515.037 43.4222 516.073C41.4716 518.912 39.4685 521.797 37.4633 524.684C37.4984 523.696 37.5053 522.725 37.5307 521.743ZM30.0858 532.281C32.2564 529.225 34.3741 526.214 36.5097 523.189C36.4799 524.19 36.4543 525.188 36.4115 526.197C34.3306 529.194 32.2805 532.164 30.16 535.194C30.1401 534.221 30.1165 533.248 30.0858 532.281ZM22.45 542.926C24.7014 539.801 26.9605 536.669 29.1451 533.603C29.1721 534.585 29.1724 535.58 29.1895 536.567C27.0644 539.596 24.8791 542.677 22.6921 545.761C22.6136 544.815 22.5374 543.867 22.45 542.926ZM-199.854 118.779C-198.869 118.762 -197.877 118.741 -196.885 118.719C-196.689 119.661 -196.498 120.607 -196.297 121.546C-197.257 121.53 -198.208 121.506 -199.161 121.484C-199.399 120.586 -199.623 119.681 -199.854 118.779ZM-203.8 118.832C-202.836 118.823 -201.861 118.807 -200.889 118.793C-200.662 119.682 -200.438 120.574 -200.205 121.461C-201.143 121.437 -202.073 121.407 -203.002 121.377C-203.271 120.531 -203.539 119.683 -203.8 118.832ZM-207.704 118.846C-206.757 118.846 -205.808 118.845 -204.852 118.838C-204.597 119.676 -204.333 120.509 -204.068 121.342C-204.982 121.311 -205.896 121.279 -206.802 121.242C-207.107 120.446 -207.411 119.649 -207.704 118.846ZM-211.54 118.831C-210.618 118.838 -209.7 118.847 -208.771 118.85C-208.486 119.635 -208.193 120.414 -207.897 121.193C-208.79 121.154 -209.686 121.117 -210.569 121.072C-210.9 120.329 -211.22 119.58 -211.54 118.831ZM-215.34 118.784C-214.443 118.8 -213.54 118.811 -212.635 118.82C-212.324 119.551 -212.017 120.284 -211.698 121.01C-212.566 120.963 -213.429 120.912 -214.29 120.86C-214.643 120.17 -214.995 119.479 -215.34 118.784ZM-219.075 118.704C-218.213 118.727 -217.341 118.742 -216.47 118.76C-216.135 119.441 -215.789 120.117 -215.442 120.792C-216.288 120.738 -217.121 120.674 -217.957 120.614C-218.335 119.981 -218.709 119.344 -219.075 118.704ZM-222.757 118.578C-221.921 118.61 -221.082 118.64 -220.238 118.666C-219.884 119.289 -219.53 119.911 -219.166 120.527C-219.975 120.466 -220.781 120.402 -221.584 120.335C-221.98 119.752 -222.37 119.166 -222.757 118.578ZM-226.384 118.418C-225.58 118.458 -224.782 118.501 -223.97 118.536C-223.6 119.102 -223.221 119.663 -222.842 120.224C-223.611 120.157 -224.386 120.094 -225.147 120.021C-225.564 119.49 -225.977 118.956 -226.384 118.418ZM-229.934 118.228C-229.176 118.273 -228.413 118.315 -227.649 118.356C-227.267 118.866 -226.886 119.377 -226.494 119.881C-227.226 119.807 -227.954 119.733 -228.677 119.655C-229.099 119.18 -229.519 118.706 -229.934 118.228ZM-233.41 118C-232.71 118.051 -231.997 118.093 -231.29 118.139C-230.898 118.597 -230.495 119.047 -230.094 119.498C-230.785 119.419 -231.467 119.332 -232.153 119.248C-232.577 118.836 -232.994 118.418 -233.41 118ZM-236.821 117.723C-236.166 117.78 -235.509 117.834 -234.847 117.886C-234.465 118.277 -234.09 118.673 -233.699 119.059C-234.327 118.979 -234.942 118.889 -235.562 118.804C-235.983 118.444 -236.406 118.087 -236.821 117.723ZM-240.12 117.418C-239.539 117.475 -238.964 117.539 -238.377 117.593C-238.011 117.921 -237.633 118.243 -237.256 118.565C-237.82 118.483 -238.385 118.402 -238.945 118.316C-239.344 118.021 -239.728 117.716 -240.12 117.418ZM-243.322 117.084C-242.829 117.139 -242.331 117.192 -241.834 117.245C-241.504 117.501 -241.171 117.756 -240.839 118.011C-241.298 117.936 -241.763 117.866 -242.218 117.788C-242.585 117.552 -242.96 117.322 -243.322 117.084ZM-246.327 116.721C-245.97 116.766 -245.608 116.808 -245.249 116.851C-244.99 117.027 -244.74 117.208 -244.477 117.381C-244.815 117.32 -245.154 117.259 -245.488 117.196C-245.772 117.04 -246.047 116.879 -246.327 116.721ZM-249.195 116.331L-248.622 116.412C-248.475 116.5 -248.32 116.582 -248.17 116.668L-248.702 116.558C-248.865 116.481 -249.033 116.408 -249.195 116.331ZM115.576 401.235C116.055 400.464 116.501 399.722 116.974 398.958L116.749 399.427L115.305 401.852L115.576 401.235ZM110.142 409.905C110.883 408.72 111.638 407.523 112.378 406.339C112.143 406.855 111.923 407.36 111.686 407.878C110.957 409.083 110.196 410.315 109.452 411.532C109.682 410.991 109.917 410.443 110.142 409.905ZM104.53 418.785C105.431 417.379 106.327 415.978 107.204 414.595C106.914 415.271 106.642 415.932 106.348 416.612C105.425 418.114 104.529 419.591 103.587 421.108C103.892 420.342 104.232 419.546 104.53 418.785ZM98.5989 428.031C99.7154 426.295 100.826 424.562 101.936 422.829C101.591 423.69 101.235 424.559 100.88 425.426C99.8444 427.086 98.7879 428.763 97.7459 430.429C98.0468 429.616 98.3036 428.839 98.5989 428.031ZM92.5296 437.35C93.837 435.36 95.1563 433.362 96.4246 431.407C96.0626 432.377 95.6501 433.388 95.2786 434.366C94.0788 436.26 92.8384 438.189 91.5998 440.117C91.9182 439.187 92.2206 438.271 92.5296 437.35ZM86.3179 446.815C87.7582 444.638 89.1449 442.508 90.5621 440.352C90.2263 441.328 89.93 442.274 89.5846 443.258C88.1776 445.45 86.8005 447.616 85.3713 449.826C85.6841 448.825 86.016 447.808 86.3179 446.815ZM79.9268 456.371C81.4653 454.078 83.0047 451.783 84.5097 449.519C84.1848 450.562 83.858 451.606 83.5218 452.658C82.0733 454.883 80.5843 457.145 79.0999 459.402C79.3847 458.385 79.654 457.379 79.9268 456.371ZM73.3029 466.198C74.9987 463.701 76.6703 461.226 78.3256 458.765C78.0266 459.842 77.6791 460.957 77.3679 462.044C75.7872 464.442 74.1966 466.849 72.5779 469.281C72.8315 468.244 73.062 467.225 73.3029 466.198ZM66.5646 476.08C68.3316 473.496 70.0833 470.926 71.825 468.364C71.5713 469.419 71.3509 470.448 71.0852 471.512C69.3696 474.083 67.6424 476.664 65.9003 479.259C66.1184 478.202 66.3601 477.128 66.5646 476.08ZM59.5782 486.193C61.4568 483.491 63.345 480.78 65.17 478.126C64.9538 479.198 64.7225 480.28 64.4931 481.361C62.7415 483.956 60.9282 486.605 59.1228 489.247C59.2919 488.217 59.4213 487.215 59.5782 486.193ZM52.4466 496.451C54.4411 493.601 56.3768 490.802 58.3345 487.983C58.1658 489.042 57.9913 490.105 57.8085 491.173C55.9038 493.963 54.0193 496.735 52.0772 499.557C52.2009 498.522 52.336 497.479 52.4466 496.451ZM45.1111 506.839C47.1824 503.916 49.254 500.993 51.2726 498.115C51.1529 499.158 51.0304 500.203 50.898 501.254C48.945 504.084 46.9447 506.955 44.9417 509.828C45.0142 508.822 45.0512 507.838 45.1111 506.839ZM37.6252 517.371C39.7871 514.346 41.9265 511.341 44.0397 508.358C43.9735 509.38 43.9041 510.406 43.8246 511.436C41.7636 514.391 39.6736 517.37 37.5619 520.368C37.5812 519.371 37.6177 518.362 37.6252 517.371ZM29.9151 528.115C32.1693 524.986 34.399 521.878 36.6092 518.787C36.5971 519.79 36.5652 520.804 36.54 521.814C34.387 524.868 32.2263 527.93 30.0339 531.019C29.9974 530.05 29.9617 529.08 29.9151 528.115ZM22.0383 538.968C24.3699 535.772 26.7082 532.568 28.9748 529.427C29.017 530.4 29.0619 531.372 29.0938 532.35C26.8883 535.449 24.6049 538.617 22.3311 541.777C22.2375 540.839 22.1409 539.902 22.0383 538.968ZM28.9226 528.189C26.6302 531.37 24.2738 534.604 21.9217 537.838C12.09 451.402 -38.551 383.526 -89.1319 315.728C-119.847 274.558 -150.536 233.415 -172.045 188.164C-150.187 226.159 -120.893 260.646 -91.424 295.333C-33.9405 362.999 24.1819 431.437 28.9226 528.189ZM36.6325 517.45C34.4057 520.566 32.1409 523.717 29.8651 526.877C24.7386 430.618 -33.2225 362.398 -90.5319 294.937C-121.604 258.362 -152.477 222.007 -174.634 181.53C-152.071 215.799 -122.288 246.494 -92.2133 277.479C-28.0459 343.587 37.4246 411.029 36.6325 517.45ZM97.586 428.182C96.2386 430.266 94.8775 432.364 93.4943 434.48C153.701 250.843 28.1915 215.122 -89.7321 181.603C-123.733 171.939 -157.092 162.451 -185.167 149.639M-200.69 115.399C-199.661 115.345 -198.625 115.286 -197.586 115.225C-197.401 116.186 -197.207 117.143 -197.012 118.099C-198.017 118.12 -199.018 118.139 -200.014 118.153C-200.245 117.238 -200.471 116.32 -200.69 115.399ZM-204.76 115.595C-203.745 115.549 -202.733 115.505 -201.71 115.453C-201.495 116.36 -201.275 117.265 -201.048 118.168C-202.033 118.181 -203.02 118.196 -203.996 118.203C-204.258 117.337 -204.508 116.465 -204.76 115.595ZM-208.788 115.761C-207.792 115.723 -206.798 115.686 -205.793 115.643C-205.548 116.498 -205.305 117.356 -205.051 118.206C-206.012 118.211 -206.973 118.216 -207.925 118.215C-208.217 117.399 -208.506 116.582 -208.788 115.761ZM-212.763 115.896C-211.796 115.868 -210.82 115.834 -209.842 115.799C-209.566 116.607 -209.28 117.411 -208.994 118.214C-209.939 118.211 -210.874 118.199 -211.811 118.19C-212.134 117.428 -212.453 116.665 -212.763 115.896ZM-216.681 115.994C-215.739 115.976 -214.787 115.948 -213.834 115.923C-213.531 116.679 -213.221 117.431 -212.905 118.18C-213.832 118.168 -214.751 118.15 -215.67 118.132C-216.014 117.424 -216.345 116.708 -216.681 115.994ZM-220.566 116.051C-219.64 116.041 -218.714 116.031 -217.779 116.014C-217.452 116.714 -217.128 117.414 -216.792 118.108C-217.68 118.088 -218.569 118.068 -219.448 118.041C-219.825 117.381 -220.202 116.72 -220.566 116.051ZM-224.362 116.073C-223.472 116.072 -222.586 116.073 -221.688 116.066C-221.337 116.715 -220.975 117.358 -220.612 118C-221.478 117.972 -222.346 117.946 -223.203 117.911C-223.597 117.303 -223.979 116.688 -224.362 116.073ZM-228.132 116.062C-227.271 116.069 -226.401 116.072 -225.531 116.074C-225.161 116.669 -224.796 117.266 -224.417 117.855C-225.247 117.818 -226.071 117.777 -226.892 117.734C-227.309 117.178 -227.729 116.625 -228.132 116.062ZM-231.799 116.01C-230.988 116.027 -230.162 116.034 -229.343 116.045C-228.956 116.592 -228.557 117.133 -228.156 117.672C-228.964 117.626 -229.758 117.569 -230.559 117.517C-230.98 117.02 -231.386 116.513 -231.799 116.01ZM-235.439 115.911C-234.655 115.935 -233.871 115.96 -233.08 115.979C-232.685 116.465 -232.288 116.95 -231.887 117.431C-232.638 117.379 -233.385 117.323 -234.13 117.266C-234.569 116.816 -235.009 116.367 -235.439 115.911ZM-238.971 115.776C-238.238 115.808 -237.512 115.845 -236.773 115.872C-236.376 116.3 -235.975 116.726 -235.569 117.148C-236.269 117.089 -236.976 117.037 -237.67 116.973C-238.109 116.578 -238.54 116.177 -238.971 115.776ZM-242.433 115.607C-241.768 115.644 -241.095 115.677 -240.424 115.71C-240.03 116.083 -239.623 116.449 -239.221 116.818C-239.866 116.754 -240.514 116.692 -241.154 116.624C-241.585 116.288 -242.01 115.948 -242.433 115.607ZM-245.794 115.395C-245.201 115.436 -244.597 115.471 -243.999 115.508C-243.626 115.816 -243.26 116.129 -242.881 116.433C-243.451 116.368 -244.014 116.298 -244.579 116.229C-244.985 115.951 -245.394 115.676 -245.794 115.395ZM-249.034 115.14C-248.539 115.181 -248.044 115.224 -247.544 115.262C-247.198 115.511 -246.845 115.754 -246.491 115.997C-246.994 115.931 -247.482 115.856 -247.979 115.787C-248.338 115.576 -248.681 115.354 -249.034 115.14ZM-252.143 114.859C-251.753 114.897 -251.372 114.942 -250.98 114.978C-250.711 115.146 -250.437 115.311 -250.167 115.477C-250.524 115.423 -250.879 115.367 -251.236 115.312C-251.536 115.159 -251.845 115.013 -252.143 114.859ZM-254.945 114.571C-254.765 114.591 -254.58 114.607 -254.4 114.627C-254.255 114.704 -254.115 114.784 -253.97 114.861C-254.136 114.832 -254.307 114.807 -254.473 114.778L-254.945 114.571ZM14.4433 552.732C14.2926 551.822 14.1497 550.91 13.9908 550.003C16.4248 546.689 18.7758 543.446 21.1564 540.178C21.2565 541.118 21.3617 542.057 21.4501 543.002C19.1228 546.239 16.8195 549.453 14.4433 552.732ZM15.0489 556.509C14.9105 555.601 14.7653 554.695 14.6184 553.789C16.9687 550.549 19.2558 547.364 21.5626 544.162C21.6484 545.115 21.7148 546.077 21.7921 547.034C19.5589 550.18 17.3262 553.325 15.0489 556.509ZM15.6013 560.336C15.4764 559.424 15.3411 558.515 15.2058 557.607C17.4562 554.463 19.6823 551.341 21.887 548.237C21.9591 549.19 22.0315 550.142 22.093 551.1C19.9615 554.151 17.7811 557.244 15.6013 560.336ZM16.1014 564.215C15.9883 563.293 15.8827 562.367 15.7609 561.449C17.9028 558.412 20.0692 555.355 22.1635 552.359C22.2213 553.316 22.2766 554.274 22.3235 555.237C20.2939 558.192 18.1817 561.218 16.1014 564.215ZM16.5645 568.132C16.4639 567.21 16.3543 566.291 16.2445 565.373C18.3056 562.404 20.3825 559.423 22.3923 556.497C22.4353 557.457 22.4544 558.427 22.4871 559.39C20.5366 562.285 18.5675 565.194 16.5645 568.132ZM16.9658 572.061C16.8798 571.154 16.7831 570.251 16.6886 569.347C18.6705 566.443 20.5962 563.587 22.5284 560.724C22.5562 561.687 22.5913 562.648 22.6088 563.616C20.7771 566.39 18.8483 569.244 16.9658 572.061ZM17.3098 576.079C17.2363 575.152 17.1702 574.221 17.0874 573.297C18.9195 570.559 20.832 567.756 22.619 565.056C22.6302 566.004 22.6359 566.954 22.6373 567.905C20.8965 570.602 19.1003 573.342 17.3098 576.079ZM17.6105 580.128C17.5509 579.205 17.4828 578.285 17.4135 577.365C19.1601 574.7 20.9484 572.001 22.6471 569.375C22.6438 570.328 22.6208 571.289 22.6071 572.246C20.9628 574.857 19.3033 577.479 17.6105 580.128ZM17.851 584.231C17.8056 583.31 17.7464 582.394 17.6905 581.477C19.3339 578.909 20.9823 576.337 22.581 573.806C22.5618 574.745 22.5555 575.678 22.5277 576.62C20.9756 579.151 19.4487 581.663 17.851 584.231ZM18.0199 588.401C17.9879 587.477 17.9606 586.551 17.9186 585.63C19.4568 583.164 20.9645 580.721 22.4575 578.29C22.4246 579.231 22.3831 580.175 22.3399 581.121C20.895 583.552 19.5065 585.938 18.0199 588.401ZM18.1381 592.548C18.1203 591.65 18.1008 590.752 18.0737 589.857C19.5055 587.49 20.8772 585.172 22.2683 582.837C22.2186 583.777 22.1483 584.727 22.0904 585.671C20.7731 587.963 19.4903 590.229 18.1381 592.548ZM18.2 596.723C18.1967 595.863 18.1744 595.008 18.1623 594.151C19.4711 591.911 20.6932 589.74 21.9669 587.528C21.9035 588.438 21.8543 589.342 21.7827 590.256C20.6002 592.403 19.4153 594.551 18.2 596.723ZM18.1763 600.982C18.1851 600.134 18.1935 599.286 18.1934 598.44C19.3581 596.37 20.4593 594.348 21.5975 592.296C21.521 593.195 21.4397 594.096 21.3529 594.999C20.3157 596.978 19.2444 598.98 18.1763 600.982ZM18.0973 605.254C18.1196 604.432 18.1482 603.607 18.1628 602.787C19.179 600.895 20.1624 599.027 21.1554 597.152C21.0647 598.033 20.9494 598.924 20.8509 599.809C19.9619 601.604 19.0157 603.439 18.0973 605.254ZM17.9666 609.52C17.9978 608.756 18.0135 607.997 18.0392 607.235C18.8932 605.557 19.7414 603.883 20.5748 602.22C20.4791 603.017 20.3878 603.813 20.285 604.614C19.5341 606.235 18.741 607.884 17.9666 609.52ZM17.741 613.86C17.7818 613.153 17.8155 612.447 17.851 611.741C18.5308 610.317 19.2259 608.882 19.8902 607.468C19.7953 608.151 19.7044 608.832 19.6053 609.517C18.9881 610.962 18.3764 612.403 17.741 613.86ZM17.4653 618.069C17.5082 617.481 17.5575 616.891 17.5963 616.304C18.0858 615.194 18.6033 614.066 19.0815 612.964C19.0017 613.48 18.9133 614 18.8295 614.517C18.3735 615.702 17.9343 616.876 17.4653 618.069ZM17.1756 621.921C17.204 621.607 17.2234 621.295 17.2489 620.982C17.5313 620.276 17.8321 619.558 18.1094 618.855C18.066 619.099 18.0151 619.345 17.9719 619.589L17.1756 621.921ZM-191.931 117.968C-192.097 116.948 -192.26 115.928 -192.415 114.903C-158.673 112.669 -120.94 107.566 -82.4822 102.36C-7.65378 92.2301 69.9064 81.7312 125.844 91.4052C207.849 105.588 243.469 163.207 156.293 328.948C233.859 171.586 193.495 117.4 110.373 103.273C56.8463 94.1753 -14.3674 101.704 -83.2365 108.985C-121.327 113.013 -158.694 116.96 -191.931 117.968ZM-191.334 121.607C-191.506 120.602 -191.666 119.592 -191.83 118.583C-158.623 117.546 -121.345 113.609 -83.3459 109.591C-14.5794 102.321 56.5318 94.8027 109.888 103.871C195.417 118.408 235.387 175.649 147.264 344.951C225.806 183.6 180.481 129.862 93.406 115.341C42.9316 106.924 -21.5359 111.698 -84.0379 116.328C-121.689 119.117 -158.624 121.851 -191.334 121.607ZM-190.678 125.209C-190.863 124.221 -191.044 123.232 -191.219 122.24C-158.556 122.447 -121.731 119.72 -84.1991 116.94C-21.7789 112.317 42.6018 107.548 92.9259 115.941C182.533 130.883 227.662 187.627 138.128 361.351C218.138 194.999 166.8 141.89 75.0826 126.91C28.2453 119.261 -29.0844 121.564 -84.8263 123.804C-122.029 125.299 -158.513 126.76 -190.678 125.209ZM-189.994 128.788C-190.187 127.813 -190.376 126.838 -190.559 125.86C-158.454 127.365 -122.1 125.908 -85.0383 124.419C-29.3619 122.182 27.9006 119.88 74.6059 127.509C168.502 142.844 219.889 198.342 130.324 375.358L129.838 376.174C210.562 205.072 151.743 153.282 54.8461 137.817C12.4667 131.052 -37.1749 131.242 -85.5988 131.428C-122.345 131.569 -158.383 131.703 -189.994 128.788ZM-189.284 132.333C-189.481 131.377 -189.669 130.416 -189.86 129.457C-158.322 132.315 -122.444 132.183 -85.8653 132.043C-37.4958 131.857 12.0895 131.667 54.3742 138.416C152.382 154.06 211.236 207.072 125.146 384.048C124.661 384.854 124.207 385.633 123.716 386.446C202.393 212.789 134.054 163.727 31.6899 147.798C-5.03706 142.083 -46.1222 140.635 -86.3552 139.217C-122.645 137.939 -158.236 136.682 -189.284 132.333ZM-188.518 135.847C-188.726 134.911 -188.934 133.976 -189.133 133.036C-158.174 137.312 -122.767 138.561 -86.6733 139.833C-46.4772 141.249 -5.43119 142.696 31.2227 148.399C134.39 164.453 202.873 214.3 120.086 392.388C119.358 393.581 118.617 394.786 117.889 395.98C215.163 170.611 58.4203 158.453 -87.0854 147.196C-122.912 144.424 -158.046 141.7 -188.518 135.847ZM-187.73 139.341C-187.943 138.424 -188.152 137.504 -188.358 136.584C-157.989 142.347 -123.066 145.053 -87.4611 147.808C58.8053 159.123 216.428 171.374 114.516 401.48C113.71 402.781 112.864 404.117 112.033 405.439C199.714 190.7 50.7784 172.418 -87.7959 155.391C-123.158 151.045 -157.843 146.78 -187.73 139.341ZM-186.911 142.796C-187.126 141.904 -187.337 141.01 -187.546 140.117C-157.778 147.444 -123.337 151.681 -88.2256 155.995C50.9615 173.098 200.553 191.529 109.103 410.109C108.021 411.83 106.973 413.521 105.876 415.255C184.332 210.84 43.2304 186.508 -88.4773 163.829C-123.384 157.818 -157.618 151.917 -186.911 142.796ZM-186.049 146.233C-186.271 145.368 -186.495 144.503 -186.709 143.635C-157.55 152.615 -123.583 158.466 -88.9622 164.427C43.2033 187.186 184.882 211.584 103.511 418.951C102.274 420.893 101.003 422.863 99.7401 424.827C168.938 230.881 35.6776 200.731 -89.1225 172.551C-123.57 164.773 -157.361 157.138 -186.049 146.233ZM-184.247 153.022C-184.465 152.225 -184.682 151.429 -184.898 150.631C-156.986 163.228 -123.966 172.614 -90.3256 182.177C27.9634 215.8 153.878 251.659 91.528 437.476C90.067 439.709 88.6013 441.946 87.1233 444.194C138.586 270.741 20.776 229.71 -90.2939 191.039C-123.857 179.354 -156.797 167.88 -184.247 153.022ZM-183.294 156.38C-183.515 155.623 -183.738 154.866 -183.951 154.106C-156.672 168.703 -124.109 180.048 -90.9351 191.597C20.4717 230.385 138.657 271.563 85.3273 446.922C83.7591 449.289 82.1302 451.708 80.5114 454.119C123.569 290.655 13.4582 244.541 -90.7979 200.928C-123.939 187.065 -156.477 173.448 -183.294 156.38ZM-182.327 159.71C-182.535 159.013 -182.733 158.311 -182.937 157.612C-156.305 174.355 -124.186 187.792 -91.4854 201.471C13.0607 245.205 123.528 291.439 78.9317 456.478C77.2259 459.021 75.5311 461.554 73.7889 464.129C108.761 310.507 6.24705 259.668 -91.231 211.359C-123.977 195.131 -156.148 179.185 -182.327 159.71ZM-181.31 163.023C-181.506 162.382 -181.706 161.744 -181.9 161.103C-155.916 180.178 -124.218 195.896 -91.9584 211.883C5.78544 260.324 108.595 311.317 72.3131 466.293C70.5387 468.907 68.7332 471.548 66.9215 474.195C94.1069 330.329 -0.85666 275.15 -91.5759 222.444C-123.953 203.633 -155.781 185.133 -181.31 163.023ZM-180.276 166.311C-180.456 165.752 -180.639 165.195 -180.816 164.635C-155.488 186.253 -124.176 204.448 -92.3372 222.946C-1.37058 275.796 93.879 331.131 65.5798 476.163C63.6947 478.911 61.7689 481.695 59.8317 484.488C79.6428 350.211 -7.79929 291.089 -91.8025 234.327C-123.857 212.667 -155.401 191.344 -180.276 166.311ZM-179.221 169.574C-179.369 169.128 -179.509 168.679 -179.656 168.232C-154.99 192.642 -124.04 213.562 -92.5998 234.808C-8.36722 291.724 79.3257 351.015 58.5889 486.277C56.6112 489.129 54.6438 491.972 52.6327 494.854C65.4641 370.09 -14.563 307.591 -91.8755 247.199C-123.67 222.363 -155.003 197.884 -179.221 169.574ZM-178.119 172.84L-178.432 171.919C-154.432 199.431 -123.789 223.376 -92.7016 247.659C-15.1726 308.219 65.0667 370.917 51.4625 496.527C49.417 499.446 47.2972 502.429 45.1925 505.401C51.4953 390.101 -21.1043 324.815 -91.7478 261.323C-123.355 232.915 -154.565 204.863 -178.119 172.84ZM-177.013 176.054L-177.103 175.804C-153.767 206.779 -123.374 234.103 -92.6005 261.762C-21.7587 325.433 51.051 390.91 44.12 506.919C41.9709 509.956 39.8126 513 37.6173 516.077C37.9068 410.244 -27.354 342.984 -91.34 277.062C-122.886 244.559 -154.12 212.38 -177.013 176.054ZM-86.8094 340.666C-117.673 293.769 -148.759 246.529 -169.794 195.052C-148.489 237.757 -119.277 276.919 -90.0401 316.105C-39.3012 384.117 11.4867 452.213 21.0397 539.047C18.639 542.347 16.2633 545.625 13.8043 548.976C0.174162 472.843 -43.0887 407.097 -86.8094 340.666ZM-181.214 166.674L-180.932 167.546L-181.167 167.269C-181.288 166.962 -181.414 166.657 -181.534 166.35L-181.214 166.674ZM-182.246 163.399C-182.108 163.842 -181.976 164.287 -181.837 164.729C-182.014 164.548 -182.196 164.369 -182.372 164.187L-182.884 162.846L-182.246 163.399ZM-183.255 160.109C-183.087 160.669 -182.912 161.226 -182.741 161.785C-183.023 161.537 -183.298 161.287 -183.576 161.038C-183.777 160.502 -183.968 159.961 -184.165 159.424C-183.862 159.652 -183.561 159.882 -183.255 160.109ZM-184.219 156.794L-183.669 158.699L-184.719 157.902C-184.944 157.282 -185.174 156.664 -185.394 156.041C-185.003 156.292 -184.613 156.544 -184.219 156.794ZM-185.17 153.452C-184.975 154.155 -184.778 154.857 -184.578 155.557C-184.999 155.286 -185.424 155.018 -185.84 154.744C-186.075 154.064 -186.312 153.385 -186.544 152.704C-186.089 152.954 -185.629 153.203 -185.17 153.452ZM-186.086 150.086C-185.883 150.846 -185.674 151.603 -185.468 152.36C-185.964 152.088 -186.453 151.811 -186.946 151.536C-187.189 150.812 -187.423 150.085 -187.661 149.359C-187.136 149.601 -186.613 149.845 -186.086 150.086ZM-186.966 146.701C-186.762 147.497 -186.566 148.296 -186.358 149.09C-186.902 148.838 -187.455 148.589 -187.996 148.335C-188.248 147.563 -188.501 146.792 -188.744 146.016C-188.155 146.246 -187.561 146.474 -186.966 146.701ZM-187.83 143.282C-187.624 144.123 -187.41 144.961 -187.195 145.799C-187.812 145.561 -188.42 145.318 -189.032 145.077C-189.279 144.276 -189.526 143.476 -189.768 142.673C-189.124 142.878 -188.477 143.08 -187.83 143.282ZM-188.641 139.85C-188.438 140.716 -188.235 141.581 -188.027 142.446C-188.697 142.235 -189.368 142.026 -190.031 141.811C-190.279 140.979 -190.516 140.142 -190.758 139.308C-190.055 139.49 -189.351 139.672 -188.641 139.85ZM-189.43 136.377C-189.232 137.275 -189.032 138.171 -188.827 139.065C-189.551 138.883 -190.269 138.695 -190.987 138.509C-191.234 137.652 -191.48 136.795 -191.717 135.935C-190.959 136.085 -190.194 136.231 -189.43 136.377ZM-190.192 132.886C-189.999 133.807 -189.794 134.724 -189.591 135.641C-190.369 135.489 -191.146 135.335 -191.919 135.178C-192.156 134.298 -192.393 133.417 -192.623 132.534C-191.814 132.652 -191.006 132.771 -190.192 132.886ZM-190.902 129.364C-190.715 130.303 -190.529 131.244 -190.337 132.181C-191.164 132.062 -191.991 131.944 -192.814 131.823C-193.045 130.922 -193.268 130.016 -193.493 129.112C-192.632 129.198 -191.77 129.283 -190.902 129.364ZM-191.588 125.809C-191.408 126.772 -191.224 127.734 -191.035 128.694C-191.917 128.611 -192.789 128.521 -193.66 128.431C-193.888 127.513 -194.114 126.595 -194.331 125.673C-193.421 125.722 -192.502 125.764 -191.588 125.809ZM-192.239 122.23C-192.067 123.209 -191.887 124.184 -191.706 125.159C-192.634 125.112 -193.56 125.065 -194.481 125.013C-194.697 124.076 -194.911 123.138 -195.118 122.196C-194.161 122.21 -193.203 122.222 -192.239 122.23ZM-192.84 118.616C-192.678 119.609 -192.522 120.605 -192.354 121.595C-193.326 121.586 -194.296 121.575 -195.263 121.562C-195.47 120.609 -195.665 119.651 -195.862 118.695C-194.859 118.672 -193.853 118.646 -192.84 118.616ZM-193.415 114.968C-193.262 115.982 -193.103 116.992 -192.94 118.001C-193.964 118.031 -194.976 118.052 -195.992 118.075C-196.191 117.108 -196.388 116.14 -196.576 115.168C-195.527 115.105 -194.472 115.037 -193.415 114.968ZM-189.191 0.790197C-198.105 41.6499 -198.72 79.1944 -193.503 114.361C-194.568 114.43 -195.631 114.495 -196.689 114.557C-203.203 80.4249 -203.393 43.4535 -194.429 2.36464L-195.399 2.45347C-204.36 43.5293 -204.188 80.4912 -197.699 114.615C-198.747 114.675 -199.794 114.737 -200.833 114.791C-208.647 81.7202 -209.652 45.3437 -200.639 4.02884L-201.61 4.11774C-210.619 45.4137 -209.635 81.7775 -201.854 114.838C-202.886 114.89 -203.913 114.938 -204.936 114.983C-214.073 82.9961 -215.91 47.233 -206.847 5.69208L-207.817 5.78101C-216.875 47.3004 -215.068 83.0529 -205.97 115.031C-206.989 115.074 -207.996 115.108 -209.006 115.144C-219.493 84.2644 -222.168 49.1244 -213.054 7.35549L-214.025 7.44451C-223.131 49.184 -220.494 84.3116 -210.06 115.183C-211.048 115.216 -212.029 115.245 -213.008 115.271C-224.877 85.5205 -228.427 51.0247 -219.264 9.01917L-220.233 9.10789C-229.39 51.0756 -225.881 85.5553 -214.081 115.299C-215.048 115.324 -216.017 115.349 -216.977 115.367C-230.251 86.7671 -234.69 52.9283 -225.474 10.6834L-226.444 10.772C-235.65 52.9672 -231.267 86.7892 -218.078 115.382C-219.021 115.397 -219.964 115.412 -220.898 115.42C-235.603 87.9951 -240.951 54.8324 -231.682 12.3469L-232.652 12.4355C-241.909 54.8624 -236.628 88.0086 -222.021 115.43C-222.943 115.435 -223.851 115.432 -224.764 115.431C-240.932 89.2077 -247.211 56.7394 -237.889 14.0098L-238.859 14.0987C-248.166 56.7548 -241.973 89.2071 -225.931 115.431C-226.824 115.428 -227.705 115.416 -228.587 115.405C-246.246 90.4077 -253.476 58.6507 -244.1 15.674L-245.07 15.7629C-254.426 58.6476 -247.3 90.3855 -229.797 115.389C-230.651 115.375 -231.505 115.362 -232.35 115.342C-251.531 91.595 -259.739 60.5681 -250.307 17.3374L-251.278 17.4263C-260.683 60.5368 -252.617 91.5479 -233.635 115.305C-234.442 115.282 -235.255 115.264 -236.055 115.236C-256.793 92.7679 -266.004 62.4905 -256.515 19.0009L-257.486 19.0897C-266.942 62.4326 -257.898 92.6901 -237.405 115.18C-238.184 115.148 -238.961 115.113 -239.733 115.075C-262.045 93.9135 -272.267 64.4049 -262.725 20.6648L-263.693 20.753C-273.198 64.3192 -263.18 93.8123 -241.162 115.008C-241.889 114.969 -242.601 114.918 -243.321 114.873C-267.255 95.047 -278.535 66.334 -268.934 22.3283L-269.904 22.4172C-279.455 66.1963 -268.44 94.8967 -244.885 114.776C-245.553 114.73 -246.215 114.679 -246.876 114.628C-272.455 96.1639 -284.8 68.2612 -275.141 23.9916L-276.112 24.0807C-285.707 68.0621 -273.687 95.9481 -248.587 114.489C-249.17 114.439 -249.761 114.395 -250.34 114.342C-277.615 97.2722 -291.068 70.2029 -281.35 25.6552L-282.32 25.744C-291.954 69.9003 -278.948 96.96 -252.314 114.14C-252.797 114.091 -253.284 114.044 -253.762 113.992C-282.755 98.3457 -297.338 72.1389 -287.56 27.3193L-288.53 27.4081C-298.195 71.7095 -284.207 97.9167 -256.06 113.723C-256.431 113.678 -256.8 113.632 -257.168 113.585C-287.889 99.3895 -303.603 74.0605 -293.768 28.9828L-294.739 29.0716C-304.423 73.4657 -289.481 98.7962 -259.877 113.223C-260.066 113.196 -260.252 113.166 -260.439 113.139C-292.966 100.432 -309.874 76.0131 -299.976 30.6462L-300.947 30.735C-310.558 74.7928 -295.061 99.2026 -264.58 112.332C-298.341 101.026 -316.055 77.5535 -306.185 32.3099L-307.154 32.3983C-316.564 75.5278 -301.099 98.9945 -270.612 111.015C-304.39 100.828 -322.063 78.2911 -312.395 33.9737L-313.365 34.0624C-322.563 76.2304 -307.193 98.7946 -276.821 109.798C-310.492 100.636 -328.062 78.9945 -318.602 35.6371L-319.573 35.7259C-330.009 83.5607 -307.838 105.152 -267.485 112.719C-265.508 113.243 -263.467 113.719 -261.393 114.169C-259.455 114.745 -257.482 115.295 -255.449 115.8C-253.573 116.424 -251.642 117.008 -249.678 117.567C-247.804 118.263 -245.893 118.932 -243.932 119.564C-242.14 120.305 -240.306 121.015 -238.433 121.697C-236.64 122.525 -234.803 123.32 -232.928 124.089C-231.223 124.96 -229.488 125.81 -227.71 126.631C-226.018 127.595 -224.278 128.526 -222.511 129.44C-220.863 130.481 -219.182 131.502 -217.464 132.496C-215.921 133.579 -214.348 134.642 -212.741 135.683C-211.22 136.872 -209.658 138.034 -208.075 139.182C-206.594 140.47 -205.082 141.737 -203.54 142.986C-202.133 144.349 -200.704 145.698 -199.24 147.027C-197.919 148.456 -196.578 149.873 -195.205 151.271C-193.948 152.797 -192.67 154.31 -191.363 155.807C-190.177 157.426 -188.97 159.034 -187.739 160.627C-186.625 162.347 -185.493 164.057 -184.333 165.754C-183.329 167.515 -182.301 169.265 -181.259 171.007C-180.298 172.936 -179.314 174.853 -178.313 176.763C-177.452 178.756 -176.57 180.741 -175.672 182.718C-154.755 239.176 -121.114 290.302 -87.7322 341.026C-43.8661 407.676 -0.457853 473.635 12.9865 550.084C-27.7007 605.472 -75.6869 667.241 -131.814 736.106L-130.969 736.253C-75.1471 667.763 -27.3898 606.296 13.1587 551.127C13.3167 552.038 13.4655 552.953 13.6135 553.867C-25.4226 607.663 -71.5378 667.609 -125.608 734.443L-124.759 734.589C-70.9976 668.137 -25.1099 608.497 13.7892 554.925C13.9336 555.841 14.0678 556.762 14.2052 557.682C-23.1698 609.878 -67.4034 667.993 -119.399 732.781L-118.547 732.923C-66.8727 668.536 -22.8688 610.739 14.3642 558.778C14.4956 559.694 14.6381 560.606 14.7607 561.525C-20.94 612.114 -63.2863 668.392 -113.192 731.119L-112.34 731.259C-62.7696 668.953 -20.6549 613.003 14.9024 562.662C15.0233 563.589 15.1343 564.519 15.246 565.449C-18.7619 614.408 -59.2091 668.833 -106.984 729.457L-106.129 729.593C-58.6938 669.401 -18.4754 615.308 15.3892 566.607C15.4965 567.542 15.5933 568.481 15.6926 569.419C-16.6077 616.73 -55.1624 669.305 -100.779 727.796L-99.9202 727.929C-54.6621 669.897 -16.3334 617.669 15.8163 570.633C15.9082 571.542 16.0085 572.448 16.092 573.36C-14.5065 619.055 -51.0856 669.731 -94.5705 726.133L-93.7077 726.263C-50.5877 670.334 -14.2585 620.034 16.1935 574.625C16.2738 575.558 16.3485 576.492 16.4195 577.428C-12.4449 621.459 -47.0795 670.239 -88.365 724.471L-87.4988 724.598C-46.5788 670.847 -12.1966 622.451 16.5238 578.715C16.5903 579.654 16.6418 580.598 16.6991 581.54C-10.4194 623.895 -43.0954 670.769 -82.1581 722.811L-81.2895 722.932C-42.6064 671.396 -10.1939 624.932 16.7787 582.888C16.8297 583.822 16.8865 584.754 16.93 585.691C-8.42824 626.362 -39.1333 671.318 -75.9495 721.149L-75.0779 721.267C-38.6559 671.97 -8.2276 627.452 16.9829 587.114C17.0212 588.048 17.0582 588.984 17.0866 589.922C-6.4945 628.891 -35.2056 671.903 -69.7431 719.488L-68.8683 719.6C-34.7295 672.565 -6.29994 630.007 17.1348 591.386C17.1583 592.327 17.1627 593.275 17.1773 594.218C-4.61061 631.469 -31.3073 672.518 -63.5346 717.827L-62.6582 717.934C-30.8446 673.207 -4.44102 632.645 17.1998 595.768C17.2078 596.678 17.2121 597.59 17.2113 598.504C-2.77905 634.053 -27.4084 673.116 -57.3313 716.166L-56.4476 716.268C-26.989 673.884 -2.632 635.343 17.1994 600.228C17.193 601.103 17.1946 601.975 17.1798 602.853C-0.994091 636.685 -23.5422 673.747 -51.1233 714.507L-50.2344 714.599C-23.1406 674.562 -0.879555 638.073 17.1354 604.719C17.115 605.579 17.0873 606.442 17.0588 607.305C0.721285 639.395 -19.7185 674.424 -44.9173 712.846L-44.0256 712.933C-19.3272 675.274 0.816874 640.86 17.0009 609.285C16.9678 610.123 16.9149 610.967 16.8736 611.808C2.38973 642.144 -15.9275 675.131 -38.7133 711.189L-37.8128 711.263C-15.5669 676.06 2.43063 643.776 16.7588 614.028C16.7146 614.81 16.6717 615.591 16.6203 616.376C4.00995 644.942 -12.1697 675.869 -32.5059 709.53L-31.5999 709.595C-11.8522 676.908 3.97507 646.799 16.4323 618.919C16.3782 619.631 16.3316 620.341 16.2729 621.055C5.55746 647.826 -8.46173 676.661 -26.3026 707.873L-25.3871 707.925C-8.19322 677.844 5.43639 649.979 16.004 624.028C15.9471 624.639 15.8883 625.252 15.8272 625.865C7.02657 650.808 -4.79899 677.509 -20.0977 706.217L-19.1749 706.253C-4.61015 678.922 6.78151 653.426 15.4449 629.514C15.4046 629.873 15.3579 630.236 15.3155 630.596C8.44349 653.749 -1.13849 678.326 -13.8934 704.563L-12.9635 704.58C-1.26056 680.506 7.76836 657.832 14.4958 636.367C9.58034 657.424 2.32215 679.543 -7.68998 702.911L-6.74592 702.904C1.83654 682.87 8.39609 663.754 13.2017 645.435C10.1836 663.37 5.38065 681.943 -1.48553 701.261L-0.534339 701.227C7.63033 678.26 12.894 656.343 15.6962 635.306C16.5111 631.775 17.2701 628.269 17.9551 624.797C19.017 621.003 19.98 617.261 20.9018 613.54C22.1593 609.605 23.354 605.705 24.4596 601.859C25.941 597.691 27.3562 593.564 28.6637 589.505C30.2855 585.264 31.797 581.097 33.2528 576.966C34.9854 572.696 36.6415 568.478 38.2147 564.318C40.153 559.794 42.0134 555.327 43.7697 550.935C45.8805 546.212 47.8672 541.581 49.7807 537.004C51.8607 532.5 53.8559 528.06 55.7618 523.688C57.9157 519.169 59.9947 514.708 61.9772 510.322C64.639 504.919 67.1363 499.646 69.5446 494.444C71.903 489.732 74.1736 485.092 76.3451 480.53C78.736 475.857 81.037 471.257 83.2521 466.727C86.0946 461.286 88.8326 455.929 91.4415 450.681C94.1352 445.602 96.7275 440.61 99.208 435.71C101.977 430.566 104.65 425.504 107.2 420.544C110.071 415.284 112.848 410.103 115.493 405.035C118.321 399.904 121.065 394.846 123.687 389.894C126.504 384.841 129.232 379.867 131.851 374.987C134.718 369.908 137.472 364.927 140.138 360.025C248.706 169.859 213.62 105.905 126.329 90.8089C70.1911 81.1006 -7.4811 91.6147 -82.4185 101.759C-120.948 106.975 -158.745 112.087 -192.502 114.296C-197.739 79.1215 -197.137 41.5691 -188.221 0.701265L-189.191 0.790197Z" fill="url(#paint0_linear_834_9365)"/>
<defs>
<linearGradient id="paint0_linear_834_9365" x1="660.349" y1="270.639" x2="-77.7371" y2="-265.578" gradientUnits="userSpaceOnUse">
<stop stop-color="#0A767B"/>
<stop offset="1" stop-color="#00A7D6"/>
</linearGradient>
</defs>
</svg>
