<svg width="268" height="726" viewBox="0 0 268 726" fill="none" xmlns="http://www.w3.org/2000/svg">
<path d="M296.755 83.3088L295.455 84.9802C295.556 84.7931 295.647 84.6076 295.746 84.42C296.183 83.8004 296.623 83.18 297.071 82.5577C296.963 82.8082 296.862 83.058 296.755 83.3088ZM289.892 93.8706C289.538 94.3021 289.177 94.7371 288.827 95.167L288.929 94.9911L290.139 93.3647L289.892 93.8706ZM294.833 87.857C294.044 88.8065 293.289 89.7444 292.503 90.6924C292.751 90.202 293.017 89.7074 293.266 89.2157C293.974 88.2882 294.716 87.3494 295.442 86.4157C295.241 86.8956 295.031 87.3777 294.833 87.857ZM282.455 104.624C282.151 104.984 281.869 105.336 281.567 105.695L281.573 105.686C281.894 105.273 282.23 104.855 282.555 104.441L282.455 104.624ZM287.56 98.6772C286.829 99.5262 286.086 100.38 285.364 101.225C285.579 100.84 285.786 100.456 286.003 100.07C286.768 99.1085 287.495 98.1617 288.273 97.1964C288.038 97.6893 287.791 98.1848 287.56 98.6772ZM293.04 92.3546C291.987 93.5492 290.975 94.7287 289.941 95.917C290.237 95.304 290.536 94.6909 290.836 94.0766C291.804 92.89 292.791 91.6969 293.769 90.5073C293.523 91.1237 293.283 91.739 293.04 92.3546ZM379.162 569.563L378.889 569.148C378.858 568.831 378.824 568.516 378.79 568.2L379.003 568.585C379.057 568.911 379.108 569.237 379.162 569.563ZM274.312 115.871L273.99 116.244C274.126 116.075 274.254 115.908 274.391 115.739L274.312 115.871ZM279.818 109.558C279.114 110.346 278.433 111.125 277.746 111.906C277.931 111.6 278.108 111.295 278.294 110.988C278.978 110.157 279.681 109.32 280.366 108.49C280.178 108.847 280.004 109.201 279.818 109.558ZM285.451 103.292C284.426 104.433 283.392 105.576 282.375 106.713C282.71 106.087 283.062 105.456 283.401 104.828C284.347 103.708 285.32 102.578 286.295 101.446C286.012 102.062 285.73 102.678 285.451 103.292ZM291.309 96.8671C290.043 98.2317 288.796 99.5889 287.568 100.939C287.885 100.251 288.185 99.5677 288.508 98.879C289.717 97.4824 290.904 96.0931 292.117 94.6947C291.838 95.4202 291.58 96.1429 291.309 96.8671ZM379.742 573.175C379.558 572.934 379.367 572.694 379.182 572.452L379.061 571.058C379.212 571.293 379.369 571.526 379.519 571.761C379.593 572.232 379.67 572.704 379.742 573.175ZM381.344 575.305L380.991 574.831L380.853 573.882L381.113 574.296C381.19 574.633 381.27 574.968 381.344 575.305ZM382.806 577.277L382.758 577.211L382.695 576.912L382.806 577.277ZM271.475 120.815C270.816 121.552 270.143 122.295 269.477 123.035L270.184 121.937C270.795 121.218 271.441 120.486 272.068 119.761C271.868 120.113 271.675 120.463 271.475 120.815ZM277.317 114.432C276.308 115.51 275.292 116.591 274.321 117.653C274.621 117.132 274.95 116.604 275.255 116.082C276.253 114.933 277.236 113.791 278.236 112.64C277.933 113.237 277.617 113.837 277.317 114.432ZM283.419 107.891L279.656 111.925C280.027 111.205 280.387 110.487 280.764 109.765C281.915 108.465 283.112 107.148 284.297 105.836C283.995 106.523 283.716 107.205 283.419 107.891ZM289.668 101.335C288.205 102.843 286.736 104.355 285.333 105.84C285.675 105.063 286.045 104.28 286.397 103.501C287.793 101.961 289.151 100.436 290.567 98.8882C290.269 99.7032 289.957 100.521 289.668 101.335ZM380.25 576.687C379.983 576.384 379.72 576.081 379.45 575.779C379.408 575.212 379.369 574.644 379.323 574.078C379.553 574.381 379.776 574.686 380.005 574.99C380.086 575.555 380.171 576.12 380.25 576.687ZM382.067 578.754C381.863 578.517 381.654 578.282 381.447 578.045C381.385 577.584 381.321 577.124 381.256 576.663L381.779 577.378C381.875 577.837 381.974 578.295 382.067 578.754ZM383.798 580.791L383.399 580.321C383.337 580.003 383.275 579.683 383.21 579.365C383.312 579.508 383.415 579.649 383.516 579.791C383.609 580.125 383.706 580.457 383.798 580.791ZM385.392 582.704L385.306 582.6L385.208 582.222L385.227 582.249L385.392 582.704ZM262.654 132.257C262.039 132.918 261.411 133.583 260.809 134.239C260.954 134.025 261.106 133.808 261.253 133.594C261.918 132.83 262.566 132.073 263.234 131.307L262.654 132.257ZM268.676 125.791C267.694 126.839 266.734 127.879 265.756 128.926C266.075 128.411 266.373 127.902 266.694 127.386C267.636 126.327 268.614 125.252 269.576 124.184C269.281 124.718 268.966 125.258 268.676 125.791ZM274.992 119.179C273.752 120.459 272.502 121.743 271.305 123.005C271.672 122.346 272.046 121.685 272.421 121.023C273.624 119.696 274.791 118.385 276.017 117.049C275.667 117.761 275.334 118.469 274.992 119.179ZM281.466 112.461C279.989 113.983 278.549 115.49 277.086 117.006C277.473 116.219 277.865 115.432 278.263 114.642C279.639 113.153 281.049 111.65 282.453 110.15C282.129 110.919 281.783 111.693 281.466 112.461ZM288.181 105.688C286.541 107.326 284.883 108.972 283.307 110.584C283.655 109.757 284.01 108.928 284.368 108.099C285.904 106.468 287.455 104.832 289.031 103.184C288.742 104.02 288.462 104.854 288.181 105.688ZM380.702 580.129C380.366 579.8 380.025 579.472 379.686 579.143C379.644 578.49 379.596 577.837 379.549 577.184C379.854 577.529 380.159 577.873 380.46 578.218C380.543 578.855 380.621 579.493 380.702 580.129ZM382.735 582.155C382.441 581.861 382.149 581.567 381.856 581.273C381.786 580.71 381.712 580.149 381.641 579.586C381.903 579.891 382.161 580.197 382.42 580.502C382.528 581.053 382.63 581.604 382.735 582.155ZM384.687 584.142C384.452 583.899 384.223 583.655 383.986 583.412C383.902 582.956 383.812 582.5 383.726 582.045C383.931 582.292 384.131 582.541 384.335 582.789L384.687 584.142ZM386.539 586.069C386.39 585.911 386.236 585.755 386.087 585.598C386.005 585.271 385.916 584.946 385.832 584.619L386.203 585.077C386.315 585.407 386.429 585.737 386.539 586.069ZM388.265 587.926L388.129 587.778C388.084 587.639 388.042 587.499 387.997 587.36L388.057 587.436C388.125 587.6 388.197 587.762 388.265 587.926ZM253.452 143.774C252.83 144.43 252.265 145.063 251.653 145.715C251.75 145.577 251.839 145.443 251.936 145.305C252.556 144.607 253.199 143.901 253.825 143.201C253.703 143.391 253.572 143.584 253.452 143.774ZM259.617 137.344C258.688 138.312 257.746 139.286 256.832 140.248C257.147 139.764 257.456 139.283 257.776 138.799C258.694 137.786 259.588 136.785 260.527 135.764C260.213 136.294 259.928 136.815 259.617 137.344ZM266.156 130.54C264.866 131.863 263.646 133.156 262.375 134.471C262.772 133.806 263.196 133.133 263.598 132.466C264.775 131.193 265.977 129.911 267.167 128.633C266.826 129.27 266.49 129.905 266.156 130.54ZM272.73 123.915C271.287 125.363 269.836 126.815 268.431 128.248C268.836 127.494 269.214 126.748 269.628 125.991C271.012 124.522 272.419 123.042 273.848 121.555C273.476 122.341 273.092 123.131 272.73 123.915ZM279.685 116.925C278.003 118.596 276.385 120.239 274.733 121.896C275.127 121.061 275.537 120.221 275.942 119.383C277.501 117.759 279.073 116.13 280.65 114.498C280.323 115.309 280.004 116.117 279.685 116.925ZM286.76 110.016C284.951 111.775 283.132 113.538 281.375 115.275C281.725 114.404 282.057 113.538 282.416 112.667C284.095 110.946 285.837 109.198 287.581 107.45C287.299 108.307 287.033 109.161 286.76 110.016ZM381.114 583.559C380.699 583.204 380.291 582.846 379.871 582.492C379.835 581.782 379.801 581.072 379.759 580.362C380.133 580.729 380.502 581.096 380.871 581.464C380.957 582.162 381.036 582.861 381.114 583.559ZM383.343 585.487C382.973 585.162 382.598 584.838 382.224 584.514C382.156 583.882 382.093 583.249 382.02 582.617C382.348 582.949 382.685 583.278 383.01 583.61C383.126 584.235 383.235 584.862 383.343 585.487ZM385.503 587.41C385.183 587.122 384.858 586.836 384.536 586.549C384.443 586.002 384.352 585.453 384.256 584.907C384.544 585.206 384.835 585.505 385.121 585.805C385.253 586.338 385.374 586.875 385.503 587.41ZM387.586 589.315C387.326 589.075 387.067 588.834 386.805 588.595L386.485 587.252C386.713 587.498 386.941 587.745 387.168 587.99C387.31 588.431 387.448 588.873 387.586 589.315ZM389.567 591.164C389.388 590.995 389.215 590.823 389.035 590.654C388.936 590.332 388.832 590.011 388.73 589.689C388.882 589.857 389.028 590.026 389.177 590.193C389.307 590.517 389.44 590.84 389.567 591.164ZM391.394 592.916L391.213 592.742C391.156 592.593 391.102 592.442 391.044 592.293L391.152 592.416L391.394 592.916ZM243.685 155.73C243.193 156.248 242.693 156.77 242.199 157.289C242.343 157.092 242.482 156.897 242.627 156.7C243.106 156.172 243.603 155.636 244.095 155.104C243.952 155.315 243.824 155.52 243.685 155.73ZM250.213 148.948C249.293 149.882 248.386 150.811 247.495 151.732C247.763 151.341 248.038 150.948 248.307 150.556C249.215 149.575 250.134 148.588 251.039 147.609C250.759 148.057 250.49 148.501 250.213 148.948ZM256.761 142.31C255.535 143.553 254.299 144.8 253.083 146.038C253.513 145.359 253.953 144.675 254.39 143.993C255.526 142.786 256.718 141.556 257.9 140.33C257.522 140.99 257.133 141.653 256.761 142.31ZM263.619 135.422C262.163 136.864 260.741 138.291 259.319 139.717C259.734 138.997 260.137 138.281 260.559 137.559L264.746 133.199C264.361 133.943 263.995 134.681 263.619 135.422ZM270.667 128.504C269.007 130.127 267.348 131.751 265.718 133.362C266.165 132.496 266.646 131.619 267.103 130.75C268.612 129.202 270.2 127.62 271.771 126.046C271.399 126.866 271.028 127.686 270.667 128.504ZM277.948 121.422C276.117 123.182 274.324 124.926 272.537 126.668C272.92 125.819 273.286 124.974 273.682 124.122C275.43 122.36 277.158 120.607 278.925 118.837C278.591 119.701 278.271 120.56 277.948 121.422ZM285.414 114.309C283.439 116.183 281.469 118.055 279.536 119.909C279.888 118.987 280.272 118.058 280.637 117.133C282.449 115.332 284.359 113.489 286.247 111.655C285.969 112.54 285.679 113.427 285.414 114.309ZM376.464 583.29C351.673 565.536 321.287 549.56 290.316 533.282C176.684 473.564 55.304 409.724 175.456 238.466M381.481 586.958C381.005 586.6 380.517 586.245 380.034 585.888C380.003 585.124 379.969 584.36 379.931 583.596C380.369 583.971 380.805 584.346 381.239 584.722C381.322 585.466 381.407 586.211 381.481 586.958ZM383.907 588.809C383.462 588.467 383.015 588.125 382.565 587.784C382.499 587.084 382.427 586.386 382.351 585.687C382.758 586.043 383.156 586.403 383.559 586.762C383.677 587.443 383.798 588.125 383.907 588.809ZM386.263 590.645C385.858 590.325 385.46 590.004 385.051 589.686C384.953 589.064 384.855 588.442 384.751 587.821C385.117 588.151 385.476 588.483 385.838 588.814C385.982 589.424 386.125 590.034 386.263 590.645ZM388.544 592.462C388.195 592.179 387.843 591.898 387.491 591.616C387.374 591.084 387.267 590.55 387.144 590.019C387.456 590.308 387.773 590.594 388.079 590.883C388.239 591.408 388.389 591.936 388.544 592.462ZM390.748 594.271C390.465 594.036 390.175 593.802 389.89 593.567L389.507 592.252C389.759 592.494 390.014 592.735 390.264 592.978L390.748 594.271ZM392.856 596.053L392.26 595.544C392.145 595.224 392.021 594.906 391.902 594.587L392.409 595.092C392.557 595.413 392.711 595.732 392.856 596.053ZM394.769 597.7L394.545 597.501L394.352 597.062L394.517 597.234C394.603 597.389 394.684 597.545 394.769 597.7ZM233.747 167.581C233.314 168.025 232.869 168.474 232.442 168.915L232.529 168.801C233.037 168.252 233.53 167.708 234.039 167.159L233.747 167.581ZM240.332 160.85C239.397 161.807 238.464 162.764 237.521 163.723C237.842 163.272 238.191 162.809 238.514 162.356C239.379 161.438 240.281 160.503 241.166 159.575C240.888 160.001 240.607 160.426 240.332 160.85ZM246.99 154.175C245.841 155.307 244.679 156.444 243.57 157.559C243.927 157.02 244.261 156.49 244.622 155.951C245.832 154.687 247.005 153.44 248.226 152.171C247.822 152.836 247.388 153.512 246.99 154.175ZM254.067 147.176L249.747 151.449C250.212 150.689 250.685 149.926 251.157 149.163C252.482 147.803 253.857 146.422 255.22 145.045C254.824 145.76 254.456 146.464 254.067 147.176ZM261.244 140.199C259.594 141.781 257.945 143.362 256.348 144.92C256.788 144.127 257.25 143.328 257.699 142.532C259.313 140.902 260.871 139.297 262.509 137.658C262.086 138.505 261.656 139.355 261.244 140.199ZM268.681 133.069C266.865 134.807 265.058 136.538 263.258 138.268C263.694 137.39 264.122 136.515 264.569 135.633C266.257 133.957 268.006 132.252 269.746 130.552C269.378 131.395 269.037 132.23 268.681 133.069ZM276.313 125.864C274.324 127.721 272.349 129.572 270.418 131.404C270.803 130.512 271.218 129.612 271.614 128.716C273.515 126.858 275.381 125.016 277.315 123.143C276.98 124.05 276.635 124.959 276.313 125.864ZM284.202 118.516C282.079 120.485 279.976 122.445 277.882 124.402C278.217 123.479 278.555 122.556 278.902 121.631C280.878 119.726 282.926 117.789 284.965 115.856C284.702 116.744 284.454 117.63 284.202 118.516ZM381.788 590.355C381.243 589.997 380.702 589.638 380.153 589.282C380.13 588.477 380.099 587.673 380.068 586.87C380.574 587.249 381.079 587.628 381.579 588.008C381.65 588.79 381.72 589.573 381.788 590.355ZM384.397 592.093C383.886 591.748 383.375 591.402 382.858 591.058C382.796 590.316 382.728 589.575 382.66 588.833C383.131 589.194 383.608 589.553 384.073 589.915C384.182 590.641 384.293 591.367 384.397 592.093ZM386.953 593.832C386.481 593.505 386 593.182 385.523 592.858C385.427 592.178 385.323 591.5 385.219 590.822C385.654 591.166 386.093 591.508 386.524 591.854C386.668 592.513 386.816 593.171 386.953 593.832ZM389.441 595.582C389.012 595.277 388.578 594.973 388.143 594.669C388.021 594.06 387.889 593.452 387.757 592.845C388.153 593.166 388.545 593.49 388.938 593.813C389.109 594.402 389.279 594.992 389.441 595.582ZM391.847 597.32C391.466 597.041 391.09 596.762 390.705 596.484C390.564 595.962 390.43 595.438 390.283 594.917C390.633 595.21 390.972 595.505 391.319 595.799C391.501 596.304 391.669 596.813 391.847 597.32ZM394.169 599.035C393.856 598.8 393.546 598.565 393.232 598.332C393.085 597.904 392.934 597.478 392.786 597.05C393.062 597.289 393.34 597.526 393.613 597.764C393.798 598.188 393.987 598.61 394.169 599.035ZM396.376 600.713C396.159 600.546 395.938 600.38 395.72 600.214C395.59 599.903 395.458 599.594 395.323 599.284C395.512 599.453 395.703 599.619 395.889 599.787C396.053 600.095 396.215 600.404 396.376 600.713ZM398.402 602.305L398.136 602.095L397.908 601.642L398.109 601.829L398.402 602.305ZM223.559 179.438L223.47 179.527L223.572 179.42L223.559 179.438ZM230.009 172.997C229.178 173.828 228.332 174.665 227.51 175.492C227.766 175.145 228.002 174.805 228.26 174.457C229.181 173.492 230.05 172.551 230.988 171.579C230.668 172.05 230.327 172.528 230.009 172.997ZM237.034 165.985C235.84 167.164 234.706 168.317 233.519 169.494C233.91 168.927 234.296 168.362 234.692 167.794C235.785 166.669 236.907 165.531 238.012 164.401C237.672 164.934 237.369 165.454 237.034 165.985ZM244.124 159.107C242.69 160.489 241.245 161.875 239.849 163.239C240.31 162.523 240.8 161.795 241.266 161.076C242.648 159.678 244.006 158.291 245.417 156.88C244.978 157.625 244.554 158.365 244.124 159.107ZM251.445 152.028C249.805 153.606 248.202 155.167 246.565 156.744C247.029 155.957 247.459 155.183 247.933 154.392C249.512 152.82 251.124 151.233 252.731 149.648C252.306 150.439 251.859 151.239 251.445 152.028ZM259.016 144.881C257.211 146.569 255.389 148.265 253.642 149.925C254.093 149.083 254.551 148.239 255.011 147.393C256.733 145.706 258.445 144.022 260.205 142.317C259.795 143.176 259.418 144.025 259.016 144.881ZM266.793 137.585C264.808 139.441 262.853 141.284 260.875 143.137C261.307 142.231 261.749 141.322 262.194 140.412C264.068 138.601 265.982 136.774 267.896 134.945C267.531 135.824 267.149 136.708 266.793 137.585ZM274.814 130.213C272.692 132.143 270.554 134.079 268.506 135.977C268.878 135.079 269.251 134.18 269.633 133.279C271.649 131.361 273.67 129.44 275.733 127.501C275.415 128.407 275.119 129.308 274.814 130.213ZM283.047 122.701C280.781 124.76 278.555 126.801 276.302 128.854C276.622 127.928 276.935 127.003 277.266 126.073C279.405 124.068 281.585 122.043 283.772 120.016C283.523 120.911 283.285 121.806 283.047 122.701ZM382.056 593.747C381.45 593.396 380.837 593.048 380.226 592.7C380.211 591.865 380.202 591.029 380.182 590.194C380.748 590.563 381.313 590.933 381.872 591.303C381.939 592.117 381.997 592.932 382.056 593.747ZM384.847 595.376C384.272 595.035 383.686 594.698 383.106 594.359C383.051 593.578 383.003 592.796 382.942 592.017C383.482 592.379 384.015 592.744 384.551 593.109C384.655 593.863 384.75 594.62 384.847 595.376ZM387.584 597.025C387.039 596.693 386.493 596.361 385.942 596.031C385.851 595.308 385.759 594.586 385.662 593.864C386.172 594.215 386.672 594.57 387.177 594.922C387.316 595.622 387.451 596.323 387.584 597.025ZM390.267 598.679C389.756 598.36 389.251 598.038 388.735 597.72C388.612 597.063 388.481 596.407 388.354 595.751C388.82 596.082 389.289 596.413 389.751 596.746C389.925 597.39 390.101 598.033 390.267 598.679ZM392.87 600.322C392.412 600.028 391.948 599.735 391.485 599.443C391.336 598.852 391.18 598.263 391.022 597.674C391.446 597.984 391.874 598.291 392.294 598.603C392.489 599.175 392.681 599.748 392.87 600.322ZM395.391 601.965C394.989 601.699 394.578 601.436 394.173 601.171C394.009 600.664 393.853 600.156 393.685 599.65C394.055 599.929 394.423 600.209 394.789 600.489C394.994 600.98 395.192 601.473 395.391 601.965ZM397.84 603.614C397.503 603.383 397.166 603.153 396.824 602.923C396.656 602.501 396.48 602.08 396.309 601.658C396.614 601.897 396.913 602.139 397.216 602.378C397.424 602.79 397.637 603.2 397.84 603.614ZM400.136 605.194C399.891 605.024 399.654 604.85 399.409 604.68C399.265 604.38 399.129 604.078 398.983 603.778C399.199 603.953 399.407 604.13 399.621 604.305C399.797 604.6 399.962 604.898 400.136 605.194ZM402.263 606.702L401.962 606.489C401.874 606.333 401.781 606.177 401.692 606.021C401.766 606.084 401.844 606.146 401.919 606.209L402.263 606.702ZM212.686 191.901L211.516 193.083L211.588 192.992C211.992 192.568 212.425 192.13 212.836 191.702L212.686 191.901ZM219.533 185.059C218.786 185.786 218.027 186.52 217.306 187.235L217.816 186.56C218.602 185.748 219.395 184.933 220.172 184.126C219.951 184.44 219.752 184.745 219.533 185.059ZM226.596 178.157C225.448 179.281 224.285 180.412 223.139 181.535C223.582 180.914 224.047 180.285 224.494 179.661C225.536 178.605 226.631 177.524 227.712 176.449C227.332 177.022 226.971 177.586 226.596 178.157ZM233.884 171.081C232.427 172.475 231.025 173.845 229.595 175.227C230.041 174.56 230.492 173.891 230.945 173.222C232.348 171.821 233.758 170.416 235.161 169.015C234.734 169.704 234.302 170.395 233.884 171.081ZM241.256 164.097C239.657 165.608 238.05 167.123 236.48 168.621C236.979 167.816 237.462 167.018 237.971 166.209C239.488 164.717 241.056 163.202 242.625 161.686C242.168 162.49 241.705 163.296 241.256 164.097ZM249.04 156.741C247.18 158.48 245.402 160.182 243.565 161.91C244.053 161.053 244.569 160.187 245.067 159.326C246.8 157.648 248.537 155.967 250.283 154.284C249.857 155.106 249.454 155.921 249.04 156.741ZM256.851 149.553C254.891 151.349 252.924 153.149 251.016 154.922C251.474 154.031 251.915 153.146 252.386 152.251C254.257 150.463 256.179 148.653 258.11 146.839C257.695 147.742 257.254 148.653 256.851 149.553ZM265.06 141.998C262.899 143.971 260.824 145.903 258.683 147.867C259.103 146.945 259.536 146.02 259.968 145.095C261.995 143.188 264.028 141.279 266.08 139.36C265.728 140.243 265.401 141.119 265.06 141.998ZM273.37 134.547C271.112 136.561 268.841 138.582 266.653 140.563C267.015 139.642 267.369 138.723 267.744 137.799C269.886 135.81 272.077 133.798 274.283 131.78C273.975 132.703 273.666 133.626 273.37 134.547ZM281.964 126.851C279.556 128.997 277.209 131.116 274.808 133.258C275.116 132.316 275.451 131.368 275.77 130.423C278.059 128.329 280.354 126.232 282.676 124.123C282.438 125.032 282.191 125.943 281.964 126.851ZM382.289 597.149C381.618 596.81 380.944 596.473 380.268 596.137C380.264 595.267 380.254 594.399 380.239 593.531C380.869 593.892 381.492 594.257 382.118 594.621C382.178 595.463 382.238 596.306 382.289 597.149ZM385.256 598.676C384.611 598.341 383.972 598.004 383.321 597.671C383.275 596.858 383.222 596.046 383.167 595.234C383.769 595.587 384.371 595.941 384.966 596.297C385.066 597.089 385.165 597.882 385.256 598.676ZM388.167 600.209C387.555 599.882 386.943 599.555 386.324 599.231C386.24 598.473 386.154 597.716 386.061 596.959C386.632 597.304 387.209 597.647 387.773 597.994C387.91 598.731 388.037 599.469 388.167 600.209ZM391.022 601.747C390.449 601.433 389.863 601.122 389.285 600.809C389.165 600.111 389.051 599.41 388.925 598.713C389.464 599.047 389.999 599.382 390.531 599.718C390.698 600.394 390.86 601.071 391.022 601.747ZM393.832 603.318C393.292 603.013 392.747 602.71 392.203 602.407C392.052 601.763 391.892 601.121 391.736 600.479C392.241 600.802 392.734 601.13 393.234 601.455C393.435 602.076 393.64 602.695 393.832 603.318ZM396.539 604.874C396.049 604.588 395.563 604.301 395.067 604.017C394.894 603.445 394.716 602.873 394.535 602.303C394.994 602.607 395.448 602.912 395.903 603.217C396.12 603.768 396.328 604.322 396.539 604.874ZM399.177 606.429C398.743 606.169 398.31 605.908 397.872 605.649C397.688 605.157 397.503 604.666 397.315 604.176C397.706 604.443 398.104 604.707 398.49 604.975C398.72 605.46 398.952 605.943 399.177 606.429ZM401.716 607.968C401.365 607.752 401.005 607.539 400.652 607.323C400.467 606.914 400.272 606.508 400.08 606.101C400.406 606.332 400.736 606.563 401.06 606.795C401.282 607.185 401.499 607.577 401.716 607.968ZM404.126 609.49L403.346 608.996C403.188 608.701 403.029 608.406 402.867 608.112L403.556 608.621L404.126 609.49ZM406.373 610.943L406.013 610.704L405.731 610.261L406.023 610.488L406.373 610.943ZM208.805 197.222C208.047 197.958 207.297 198.69 206.557 199.417L207.147 198.663C207.886 197.909 208.656 197.14 209.408 196.38C209.203 196.663 209.009 196.941 208.805 197.222ZM215.921 190.329C214.753 191.463 213.571 192.604 212.403 193.738C212.79 193.212 213.214 192.67 213.605 192.142C214.779 190.965 215.909 189.807 217.087 188.626C216.697 189.194 216.307 189.763 215.921 190.329ZM223.198 183.362C221.843 184.641 220.487 185.921 219.17 187.181C219.614 186.541 220.031 185.912 220.481 185.27C221.806 183.96 223.183 182.628 224.544 181.302C224.103 181.985 223.631 182.681 223.198 183.362ZM230.855 176.127C229.241 177.649 227.638 179.167 226.031 180.685C226.528 179.917 227.033 179.147 227.54 178.375C229.099 176.858 230.62 175.358 232.185 173.838C231.723 174.608 231.307 175.361 230.855 176.127ZM238.642 168.894C236.822 170.569 234.988 172.249 233.223 173.897C233.736 173.04 234.296 172.164 234.822 171.302C236.509 169.685 238.264 168.037 240.005 166.395C239.545 167.23 239.092 168.063 238.642 168.894ZM246.644 161.51C244.658 163.328 242.745 165.112 240.786 166.917C241.263 166.047 241.717 165.185 242.205 164.311C244.136 162.486 246.035 160.677 247.974 158.849C247.533 159.735 247.074 160.628 246.644 161.51ZM254.904 154.053C252.773 155.97 250.637 157.888 248.558 159.78C249.021 158.843 249.511 157.897 249.987 156.955C251.957 155.118 254.017 153.239 256.058 151.37C255.664 152.268 255.289 153.159 254.904 154.053ZM263.352 146.47C261.075 148.497 258.848 150.502 256.616 152.509C257.015 151.593 257.391 150.685 257.803 149.766C260.008 147.739 262.186 145.724 264.405 143.691C264.054 144.617 263.69 145.547 263.352 146.47ZM272.059 138.776C269.652 140.895 267.255 143.008 264.897 145.104C265.257 144.143 265.643 143.174 266.016 142.209C268.257 140.174 270.592 138.096 272.912 136.025C272.623 136.943 272.336 137.861 272.059 138.776ZM280.982 130.973C278.453 133.17 275.94 135.36 273.471 137.528C273.757 136.604 274.035 135.68 274.332 134.753C276.77 132.573 279.175 130.408 281.629 128.219C281.404 129.139 281.195 130.056 280.982 130.973ZM382.459 600.555C381.729 600.231 381 599.906 380.262 599.584C380.27 598.695 380.268 597.807 380.267 596.919C380.956 597.263 381.647 597.607 382.328 597.954C382.375 598.82 382.419 599.687 382.459 600.555ZM385.61 601.969C384.907 601.648 384.197 601.33 383.488 601.013C383.452 600.171 383.406 599.33 383.362 598.49C384.026 598.832 384.688 599.175 385.346 599.52C385.437 600.335 385.528 601.151 385.61 601.969ZM388.702 603.393C388.031 603.079 387.349 602.77 386.671 602.458C386.594 601.663 386.505 600.871 386.415 600.079C387.056 600.418 387.686 600.761 388.321 601.103C388.451 601.865 388.581 602.628 388.702 603.393ZM391.73 604.839C391.087 604.528 390.442 604.219 389.792 603.912C389.679 603.175 389.56 602.438 389.438 601.704C390.049 602.036 390.651 602.372 391.255 602.707C391.42 603.416 391.573 604.127 391.73 604.839ZM394.708 606.297C394.095 605.992 393.488 605.685 392.867 605.382C392.72 604.709 392.58 604.035 392.429 603.363C392.996 603.682 393.567 603.999 394.127 604.32C394.324 604.979 394.519 605.637 394.708 606.297ZM397.616 607.76C397.051 607.47 396.481 607.183 395.911 606.895C395.735 606.275 395.549 605.658 395.366 605.04C395.895 605.347 396.429 605.652 396.951 605.961C397.177 606.559 397.401 607.158 397.616 607.76ZM400.433 609.22C399.921 608.95 399.398 608.684 398.881 608.415C398.687 607.864 398.495 607.312 398.293 606.762C398.778 607.053 399.258 607.344 399.737 607.637C399.974 608.163 400.202 608.692 400.433 609.22ZM403.202 610.712C402.74 610.46 402.278 610.209 401.811 609.959C401.603 609.476 401.387 608.994 401.176 608.513C401.605 608.78 402.024 609.051 402.449 609.32C402.701 609.783 402.957 610.246 403.202 610.712ZM405.822 612.164C405.439 611.948 405.063 611.73 404.676 611.514C404.478 611.128 404.286 610.739 404.083 610.354C404.433 610.58 404.777 610.806 405.125 611.033C405.362 611.409 405.589 611.788 405.822 612.164ZM408.34 613.597C408.063 613.435 407.779 613.276 407.499 613.114C407.326 612.828 407.145 612.543 406.97 612.256C407.215 612.421 407.467 612.582 407.711 612.748C407.919 613.031 408.136 613.312 408.34 613.597ZM410.638 614.961L410.25 614.731L409.951 614.301L410.276 614.527C410.397 614.671 410.516 614.816 410.638 614.961ZM197.719 209.59C196.974 210.306 196.212 211.029 195.486 211.737C195.722 211.441 195.976 211.137 196.212 210.84C196.934 210.113 197.691 209.369 198.431 208.633L197.719 209.59ZM204.892 202.691L201.602 205.854C201.968 205.369 202.308 204.897 202.678 204.41C203.816 203.279 204.943 202.154 206.088 201.02C205.695 201.575 205.28 202.138 204.892 202.691ZM212.336 195.637C211.008 196.881 209.666 198.13 208.373 199.358C208.843 198.701 209.309 198.045 209.785 197.385C211.051 196.148 212.358 194.891 213.653 193.641C213.204 194.31 212.775 194.971 212.336 195.637ZM220.12 188.327C218.475 189.862 216.881 191.372 215.25 192.899C215.785 192.105 216.352 191.298 216.895 190.5C218.444 189.008 219.958 187.531 221.534 186.027C221.052 186.798 220.594 187.56 220.12 188.327ZM227.951 181.124C226.164 182.76 224.369 184.401 222.62 186.018C223.139 185.192 223.636 184.372 224.165 183.541C225.904 181.889 227.674 180.223 229.443 178.558C228.947 179.413 228.435 180.273 227.951 181.124ZM236.095 173.68C234.118 175.472 232.191 177.24 230.247 179.017C230.767 178.117 231.283 177.22 231.817 176.315C233.675 174.575 235.559 172.823 237.463 171.06C236.997 171.937 236.548 172.808 236.095 173.68ZM244.449 166.174C242.306 168.093 240.172 170.008 238.066 171.91C238.559 170.975 239.098 170.024 239.605 169.085C241.642 167.2 243.685 165.314 245.745 163.42C245.305 164.341 244.876 165.258 244.449 166.174ZM252.986 158.58C250.724 160.577 248.482 162.564 246.272 164.536C246.721 163.591 247.143 162.654 247.605 161.705C249.739 159.756 251.956 157.77 254.157 155.79C253.764 156.721 253.367 157.653 252.986 158.58ZM261.809 150.813C259.392 152.931 257.01 155.034 254.623 157.139C255.022 156.179 255.454 155.21 255.868 154.247C258.181 152.163 260.457 150.097 262.81 147.995C262.469 148.936 262.137 149.875 261.809 150.813ZM270.821 143C268.298 145.172 265.767 147.348 263.314 149.487C263.65 148.546 263.97 147.609 264.317 146.664C266.708 144.536 269.16 142.378 271.612 140.221C271.335 141.15 271.085 142.073 270.821 143ZM280.062 135.032C277.395 137.316 274.806 139.564 272.172 141.832C272.448 140.882 272.735 139.928 273.023 138.974C275.553 136.75 278.097 134.52 280.678 132.272C280.467 133.193 280.261 134.113 280.062 135.032ZM382.584 603.968C381.798 603.663 381.005 603.362 380.21 603.061C380.227 602.149 380.251 601.237 380.262 600.327C381.012 600.656 381.754 600.988 382.497 601.32C382.533 602.201 382.557 603.085 382.584 603.968ZM385.905 605.272C385.142 604.969 384.374 604.668 383.603 604.368C383.578 603.504 383.558 602.639 383.525 601.776C384.253 602.104 384.969 602.436 385.689 602.766C385.767 603.6 385.834 604.436 385.905 605.272ZM389.177 606.598C388.436 606.295 387.698 605.99 386.95 605.689C386.884 604.875 386.812 604.062 386.74 603.249C387.437 603.573 388.134 603.897 388.825 604.223C388.945 605.014 389.066 605.805 389.177 606.598ZM392.386 607.934C391.679 607.635 390.971 607.335 390.255 607.039C390.15 606.272 390.032 605.508 389.915 604.745C390.584 605.063 391.256 605.38 391.917 605.701C392.077 606.444 392.236 607.188 392.386 607.934ZM395.528 609.277C394.856 608.984 394.174 608.695 393.494 608.405C393.353 607.691 393.21 606.977 393.058 606.266C393.702 606.582 394.343 606.901 394.979 607.22C395.17 607.904 395.346 608.591 395.528 609.277ZM398.621 610.646C397.983 610.359 397.334 610.075 396.689 609.791C396.517 609.131 396.343 608.471 396.163 607.812C396.769 608.12 397.36 608.433 397.958 608.743C398.181 609.377 398.408 610.009 398.621 610.646ZM401.624 612.023C401.03 611.747 400.439 611.471 399.84 611.198C399.641 610.596 399.431 609.997 399.223 609.398C399.788 609.695 400.346 609.994 400.905 610.293C401.151 610.868 401.386 611.446 401.624 612.023ZM404.568 613.412C404.018 613.147 403.472 612.882 402.915 612.619C402.702 612.09 402.491 611.56 402.27 611.033C402.773 611.306 403.281 611.578 403.779 611.853C404.042 612.373 404.311 612.89 404.568 613.412ZM407.4 614.787C406.928 614.552 406.445 614.321 405.969 614.089C405.744 613.624 405.509 613.162 405.275 612.7C405.725 612.954 406.177 613.207 406.622 613.463C406.887 613.903 407.142 614.345 407.4 614.787ZM410.145 616.177C409.744 615.97 409.335 615.767 408.93 615.561C408.713 615.183 408.497 614.805 408.277 614.428C408.648 614.646 409.017 614.865 409.385 615.085C409.638 615.449 409.895 615.811 410.145 616.177ZM412.738 617.536C412.444 617.379 412.151 617.222 411.854 617.066C411.669 616.789 411.486 616.512 411.299 616.236C411.575 616.406 411.847 616.579 412.123 616.75C412.333 617.01 412.532 617.275 412.738 617.536ZM415.13 618.821C414.983 618.74 414.841 618.657 414.692 618.576C414.582 618.433 414.468 618.291 414.357 618.148C414.484 618.23 414.605 618.313 414.732 618.394C414.864 618.537 415 618.678 415.13 618.821ZM186.291 222.142C185.588 222.816 184.869 223.497 184.175 224.167C184.38 223.914 184.566 223.67 184.772 223.418C185.498 222.692 186.261 221.95 187.004 221.217C186.77 221.524 186.524 221.836 186.291 222.142ZM193.609 215.138C192.565 216.13 191.563 217.101 190.526 218.089C190.899 217.609 191.259 217.133 191.634 216.651C192.678 215.626 193.696 214.613 194.746 213.584C194.37 214.101 193.982 214.623 193.609 215.138ZM201.246 207.976C199.901 209.232 198.545 210.492 197.223 211.737C197.713 211.071 198.223 210.396 198.72 209.726C199.98 208.506 201.276 207.269 202.556 206.039C202.107 206.69 201.688 207.328 201.246 207.976ZM209.065 200.696C207.422 202.21 205.827 203.702 204.212 205.203C204.752 204.425 205.321 203.635 205.87 202.853C207.424 201.369 208.969 199.89 210.555 198.392C210.053 199.162 209.555 199.931 209.065 200.696ZM216.947 193.486C215.2 195.082 213.45 196.679 211.722 198.265C212.259 197.441 212.77 196.627 213.318 195.798C215.047 194.17 216.794 192.532 218.54 190.897C218.018 191.756 217.457 192.631 216.947 193.486ZM225.252 185.968C223.286 187.732 221.334 189.489 219.414 191.229C219.963 190.324 220.531 189.411 221.094 188.5C222.913 186.809 224.786 185.094 226.658 183.379C226.17 184.249 225.727 185.103 225.252 185.968ZM233.693 178.407C231.555 180.315 229.445 182.21 227.329 184.108C227.847 183.178 228.382 182.242 228.916 181.308C230.983 179.413 233.01 177.536 235.105 175.628C234.63 176.556 234.154 177.484 233.693 178.407ZM242.325 170.797C240.079 172.763 237.822 174.735 235.636 176.672C236.111 175.736 236.575 174.804 237.064 173.862C239.203 171.926 241.398 169.964 243.588 168.002C243.16 168.937 242.74 169.868 242.325 170.797ZM251.238 162.988C248.799 165.109 246.43 167.197 244.03 169.3C244.47 168.329 244.956 167.342 245.41 166.365C247.71 164.31 250.008 162.256 252.352 160.179C251.974 161.117 251.603 162.054 251.238 162.988ZM260.329 155.152C257.806 157.319 255.292 159.481 252.823 161.623C253.199 160.671 253.563 159.724 253.954 158.768C256.372 156.632 258.81 154.486 261.27 152.33C260.946 153.273 260.64 154.212 260.329 155.152ZM269.642 147.188C266.985 149.446 264.363 151.687 261.76 153.919C262.086 152.951 262.436 151.977 262.776 151.006C265.291 148.808 267.858 146.586 270.439 144.358C270.175 145.301 269.893 146.248 269.642 147.188ZM279.213 139.087C276.441 141.422 273.712 143.737 270.985 146.051C271.245 145.1 271.518 144.146 271.791 143.192C274.461 140.886 277.093 138.599 279.801 136.276C279.602 137.214 279.401 138.152 279.213 139.087ZM382.672 607.402C381.826 607.117 380.977 606.834 380.124 606.553C380.154 605.621 380.176 604.691 380.196 603.762C381.002 604.071 381.808 604.381 382.607 604.693C382.634 605.595 382.657 606.497 382.672 607.402ZM386.157 608.596C385.332 608.31 384.514 608.021 383.681 607.738C383.668 606.856 383.648 605.974 383.624 605.093C384.407 605.401 385.194 605.707 385.968 606.018C386.036 606.876 386.1 607.736 386.157 608.596ZM389.591 609.805C388.794 609.52 387.995 609.235 387.189 608.953C387.134 608.116 387.078 607.279 387.014 606.444C387.775 606.753 388.536 607.061 389.288 607.372C389.397 608.181 389.491 608.994 389.591 609.805ZM392.979 611.029C392.211 610.746 391.428 610.467 390.651 610.187C390.557 609.395 390.459 608.603 390.357 607.814C391.091 608.12 391.815 608.43 392.54 608.74C392.691 609.502 392.839 610.264 392.979 611.029ZM396.295 612.276C395.559 611.996 394.818 611.718 394.074 611.441C393.941 610.695 393.793 609.952 393.648 609.21C394.356 609.515 395.055 609.824 395.754 610.132C395.941 610.845 396.119 611.56 396.295 612.276ZM399.551 613.539C398.841 613.26 398.137 612.98 397.419 612.703C397.255 612.016 397.091 611.329 396.916 610.645C397.586 610.943 398.254 611.24 398.915 611.541C399.132 612.206 399.343 612.872 399.551 613.539ZM402.743 614.816C402.074 614.545 401.406 614.272 400.73 614.003C400.534 613.367 400.33 612.733 400.125 612.1C400.755 612.389 401.387 612.677 402.009 612.969C402.258 613.584 402.505 614.199 402.743 614.816ZM405.848 616.095C405.231 615.835 404.601 615.58 403.977 615.323C403.758 614.745 403.539 614.166 403.311 613.59C403.902 613.872 404.488 614.156 405.073 614.441C405.336 614.991 405.591 615.543 405.848 616.095ZM408.893 617.406C408.325 617.159 407.751 616.913 407.178 616.668C406.94 616.147 406.692 615.629 406.447 615.11C406.989 615.379 407.519 615.652 408.054 615.923C408.338 616.417 408.619 616.91 408.893 617.406ZM411.826 618.714C411.317 618.484 410.815 618.253 410.302 618.025C410.063 617.583 409.83 617.137 409.585 616.698C410.057 616.941 410.523 617.187 410.99 617.432C411.272 617.858 411.549 618.285 411.826 618.714ZM414.657 620.015C414.234 619.817 413.815 619.618 413.391 619.422C413.16 619.055 412.915 618.693 412.678 618.33C413.067 618.538 413.464 618.743 413.849 618.953C414.12 619.306 414.39 619.66 414.657 620.015ZM417.323 621.284C417.017 621.135 416.7 620.989 416.391 620.84C416.198 620.578 416.008 620.314 415.812 620.053C416.093 620.21 416.379 620.366 416.657 620.524C416.88 620.778 417.103 621.03 417.323 621.284ZM419.824 622.53L419.364 622.299C419.254 622.169 419.149 622.037 419.038 621.907L419.453 622.152C419.58 622.277 419.698 622.404 419.824 622.53ZM174.563 234.838C173.985 235.392 173.393 235.952 172.814 236.507C173.007 236.272 173.193 236.042 173.389 235.807C173.988 235.214 174.611 234.609 175.219 234.013C175.005 234.285 174.774 234.566 174.563 234.838ZM182.222 227.567C181.194 228.53 180.19 229.479 179.183 230.432C179.55 229.969 179.923 229.503 180.294 229.039C181.307 228.051 182.271 227.088 183.299 226.093C182.928 226.59 182.588 227.073 182.222 227.567ZM189.889 220.419C188.516 221.701 187.13 222.989 185.759 224.269C186.259 223.605 186.807 222.919 187.314 222.252C188.614 221.004 189.939 219.744 191.247 218.492C190.789 219.137 190.34 219.778 189.889 220.419ZM197.697 213.221C196.148 214.633 194.595 216.047 193.086 217.439C193.606 216.712 194.086 216.003 194.614 215.272C196.14 213.827 197.701 212.365 199.268 210.899C198.75 211.671 198.207 212.453 197.697 213.221ZM205.807 205.822C204.035 207.431 202.299 209.023 200.542 210.625C201.101 209.795 201.66 208.966 202.231 208.132C203.938 206.536 205.625 204.951 207.35 203.348C206.826 204.176 206.319 204.999 205.807 205.822ZM214.134 198.355C212.169 200.107 210.195 201.862 208.277 203.591C208.847 202.688 209.462 201.766 210.044 200.858C211.876 199.169 213.762 197.455 215.638 195.745C215.124 196.62 214.635 197.485 214.134 198.355ZM222.638 190.778C220.513 192.658 218.441 194.511 216.351 196.373C216.884 195.464 217.376 194.571 217.921 193.657C219.986 191.779 222.041 189.904 224.145 188.006C223.645 188.93 223.124 189.86 222.638 190.778ZM231.394 183.101C229.139 185.073 226.889 187.041 224.673 188.994C225.181 188.048 225.698 187.099 226.221 186.147C228.365 184.218 230.535 182.278 232.714 180.333C232.257 181.262 231.838 182.178 231.394 183.101ZM240.36 175.313C237.947 177.394 235.553 179.467 233.195 181.522C233.668 180.55 234.172 179.567 234.661 178.59C236.937 176.568 239.262 174.523 241.596 172.473C241.179 173.421 240.763 174.369 240.36 175.313ZM249.552 167.399C247.024 169.567 244.532 171.717 242.036 173.87C242.453 172.908 242.86 171.95 243.293 170.983C245.733 168.841 248.14 166.713 250.616 164.554C250.25 165.506 249.904 166.451 249.552 167.399ZM258.944 159.432C256.298 161.662 253.639 163.901 251.065 166.098C251.43 165.128 251.825 164.15 252.206 163.176C254.715 160.997 257.294 158.784 259.869 156.574C259.559 157.527 259.24 158.482 258.944 159.432ZM268.602 151.283C265.82 153.616 263.106 155.917 260.365 158.229C260.671 157.268 260.981 156.306 261.301 155.341C263.956 153.062 266.606 150.785 269.31 148.482C269.065 149.418 268.835 150.35 268.602 151.283ZM278.449 143.092C275.571 145.477 272.707 147.854 269.894 150.208C270.136 149.265 270.359 148.326 270.611 147.381C273.366 145.039 276.149 142.684 278.96 140.315C278.778 141.243 278.62 142.166 278.449 143.092ZM382.706 610.85C381.801 610.587 380.899 610.323 379.987 610.062C380.03 609.116 380.065 608.172 380.098 607.228C380.962 607.514 381.826 607.799 382.679 608.088C382.692 609.008 382.704 609.928 382.706 610.85ZM386.367 611.932C385.487 611.668 384.601 611.405 383.715 611.145C383.713 610.24 383.701 609.337 383.688 608.434C384.531 608.723 385.367 609.014 386.203 609.305C386.262 610.179 386.321 611.054 386.367 611.932ZM389.961 613.024C389.111 612.76 388.246 612.503 387.388 612.242C387.345 611.38 387.291 610.521 387.235 609.662C388.059 609.952 388.869 610.248 389.683 610.541C389.782 611.367 389.873 612.195 389.961 613.024ZM393.507 614.148C392.676 613.882 391.843 613.617 391.005 613.354C390.922 612.543 390.839 611.732 390.744 610.923C391.539 611.212 392.329 611.503 393.117 611.796C393.252 612.578 393.38 613.363 393.507 614.148ZM397.008 615.292C396.199 615.024 395.396 614.753 394.578 614.488C394.457 613.725 394.329 612.964 394.201 612.203C394.962 612.489 395.729 612.773 396.482 613.063C396.662 613.805 396.842 614.546 397.008 615.292ZM400.42 616.441C399.653 616.177 398.881 615.916 398.105 615.656C397.948 614.937 397.78 614.22 397.611 613.505C398.349 613.792 399.084 614.08 399.814 614.37C400.023 615.058 400.22 615.75 400.42 616.441ZM403.786 617.61C403.053 617.349 402.304 617.095 401.564 616.838C401.372 616.171 401.186 615.502 400.988 614.837C401.689 615.12 402.377 615.406 403.069 615.691C403.311 616.33 403.556 616.968 403.786 617.61ZM407.066 618.805C406.377 618.551 405.682 618.298 404.984 618.046C404.765 617.428 404.533 616.812 404.303 616.198C404.971 616.477 405.632 616.761 406.293 617.043C406.559 617.628 406.811 618.217 407.066 618.805ZM410.294 620.02C409.637 619.768 408.987 619.514 408.322 619.265C408.085 618.712 407.85 618.158 407.606 617.608C408.214 617.872 408.825 618.136 409.428 618.403C409.718 618.941 410.013 619.478 410.294 620.02ZM413.403 621.23C412.813 620.995 412.222 620.762 411.626 620.53C411.373 620.033 411.112 619.539 410.848 619.045C411.412 619.299 411.982 619.552 412.54 619.809C412.835 620.28 413.114 620.756 413.403 621.23ZM416.447 622.457C415.922 622.24 415.383 622.029 414.852 621.814C414.596 621.385 414.334 620.957 414.072 620.529C414.566 620.762 415.059 620.996 415.547 621.231C415.848 621.64 416.156 622.045 416.447 622.457ZM419.344 623.685C418.905 623.497 418.464 623.309 418.021 623.123C417.778 622.773 417.543 622.423 417.296 622.075C417.712 622.28 418.119 622.488 418.53 622.694C418.806 623.023 419.074 623.354 419.344 623.685ZM422.132 624.905C421.798 624.756 421.471 624.605 421.135 624.457C420.926 624.196 420.708 623.939 420.496 623.68C420.811 623.842 421.116 624.009 421.427 624.172C421.662 624.416 421.901 624.659 422.132 624.905ZM424.623 626.025C424.468 625.953 424.306 625.884 424.15 625.812L423.798 625.427C423.934 625.501 424.077 625.574 424.213 625.648L424.623 626.025ZM162.938 247.303L161.172 248.985L161.68 248.382C162.258 247.816 162.85 247.243 163.428 246.676C163.259 246.888 163.106 247.093 162.938 247.303ZM170.532 240.171C169.507 241.123 168.468 242.083 167.464 243.026C167.853 242.545 168.269 242.051 168.66 241.568C169.635 240.626 170.629 239.675 171.628 238.721C171.256 239.207 170.898 239.687 170.532 240.171ZM178.277 232.962C176.92 234.215 175.616 235.442 174.273 236.689C174.727 236.098 175.14 235.528 175.6 234.935C176.958 233.642 178.304 232.352 179.671 231.054C179.209 231.689 178.734 232.33 178.277 232.962ZM186.089 225.834C184.591 227.198 183.081 228.566 181.606 229.918C182.151 229.174 182.682 228.437 183.236 227.689C184.695 226.319 186.2 224.925 187.691 223.539C187.164 224.301 186.607 225.076 186.089 225.834ZM194.392 218.307C192.607 219.911 190.859 221.496 189.108 223.083C189.685 222.25 190.292 221.404 190.882 220.565C192.563 219.007 194.222 217.458 195.932 215.886C195.402 216.7 194.914 217.496 194.392 218.307ZM202.77 210.826C200.806 212.576 198.844 214.325 196.904 216.064C197.484 215.176 198.083 214.279 198.676 213.385C200.556 211.663 202.462 209.929 204.368 208.195C203.829 209.074 203.296 209.952 202.77 210.826ZM211.288 203.304C209.217 205.118 207.148 206.931 205.13 208.719C205.686 207.806 206.219 206.904 206.789 205.986C208.79 204.176 210.839 202.343 212.893 200.507C212.367 201.436 211.802 202.38 211.288 203.304ZM220.215 195.483C217.928 197.474 215.701 199.437 213.446 201.414C213.985 200.458 214.555 199.49 215.109 198.528C217.278 196.591 219.413 194.67 221.611 192.718C221.127 193.647 220.685 194.56 220.215 195.483ZM229.211 187.733C226.824 189.781 224.43 191.832 222.101 193.851C222.597 192.89 223.091 191.93 223.603 190.964C225.883 188.949 228.227 186.904 230.565 184.863C230.113 185.82 229.648 186.781 229.211 187.733ZM238.496 179.781C235.962 181.938 233.475 184.071 230.988 186.204C231.442 185.233 231.896 184.261 232.364 183.285C234.774 181.181 237.19 179.074 239.648 176.946C239.249 177.896 238.881 178.836 238.496 179.781ZM247.963 171.774C245.311 174.009 242.677 176.235 240.073 178.447C240.477 177.47 240.905 176.486 241.324 175.504C243.865 173.31 246.426 171.106 249.01 168.89C248.659 169.852 248.3 170.816 247.963 171.774ZM257.681 163.636C254.918 165.938 252.163 168.235 249.463 170.505C249.81 169.535 250.161 168.564 250.522 167.588C253.141 165.351 255.823 163.083 258.507 160.813C258.217 161.758 257.959 162.695 257.681 163.636ZM267.599 155.384C264.712 157.774 261.887 160.134 259.041 162.504C259.329 161.545 259.612 160.587 259.914 159.624C262.7 157.268 265.449 154.929 268.282 152.551C268.049 153.497 267.82 154.442 267.599 155.384ZM277.73 147.078C274.747 149.514 271.754 151.955 268.85 154.351C269.078 153.396 269.335 152.434 269.574 151.476C272.411 149.1 275.319 146.69 278.23 144.278C278.061 145.212 277.889 146.146 277.73 147.078ZM382.682 614.309C381.726 614.07 380.762 613.835 379.798 613.599C379.854 612.638 379.914 611.676 379.962 610.716C380.885 610.98 381.797 611.25 382.713 611.517C382.71 612.447 382.692 613.379 382.682 614.309ZM386.507 615.279C385.574 615.039 384.628 614.802 383.685 614.564C383.696 613.646 383.711 612.727 383.715 611.81C384.614 612.076 385.505 612.345 386.395 612.614C386.436 613.502 386.475 614.39 386.507 615.279ZM390.282 616.276C389.367 616.031 388.45 615.787 387.525 615.546C387.496 614.67 387.457 613.797 387.415 612.925C388.291 613.191 389.165 613.459 390.031 613.729C390.119 614.577 390.206 615.425 390.282 616.276ZM393.983 617.284C393.095 617.038 392.21 616.792 391.313 616.549C391.242 615.717 391.16 614.888 391.076 614.059C391.928 614.328 392.784 614.596 393.626 614.868C393.753 615.671 393.868 616.478 393.983 617.284ZM397.641 618.313C396.779 618.065 395.91 617.821 395.038 617.577C394.927 616.791 394.82 616.003 394.699 615.22C395.526 615.49 396.347 615.762 397.164 616.036C397.327 616.794 397.488 617.552 397.641 618.313ZM401.229 619.357C400.402 619.111 399.563 618.871 398.727 618.629C398.579 617.883 398.42 617.141 398.26 616.399C399.063 616.67 399.851 616.948 400.643 617.222C400.844 617.932 401.04 618.643 401.229 619.357ZM404.753 620.432C403.953 620.184 403.151 619.938 402.342 619.694C402.161 619.001 401.98 618.309 401.788 617.619C402.554 617.888 403.316 618.158 404.074 618.431C404.306 619.096 404.53 619.763 404.753 620.432ZM408.215 621.524C407.448 621.278 406.689 621.029 405.913 620.786C405.703 620.144 405.481 619.503 405.261 618.863C405.986 619.127 406.719 619.389 407.435 619.656C407.7 620.277 407.961 620.9 408.215 621.524ZM411.595 622.627C410.874 622.387 410.148 622.149 409.42 621.912C409.184 621.32 408.947 620.728 408.7 620.14C409.387 620.401 410.072 620.66 410.75 620.924C411.034 621.491 411.317 622.058 411.595 622.627ZM414.893 623.747C414.23 623.516 413.552 623.292 412.881 623.064C412.621 622.52 412.348 621.981 412.077 621.442C412.725 621.697 413.361 621.957 414.002 622.216C414.305 622.724 414.6 623.235 414.893 623.747ZM418.116 624.897C417.498 624.673 416.878 624.45 416.252 624.229C415.983 623.752 415.724 623.272 415.446 622.798C416.032 623.038 416.603 623.285 417.18 623.528C417.493 623.984 417.81 624.438 418.116 624.897ZM421.224 626.046C420.677 625.84 420.139 625.63 419.586 625.426C419.316 625.013 419.035 624.605 418.755 624.196C419.278 624.421 419.802 624.646 420.321 624.874C420.63 625.262 420.922 625.656 421.224 626.046ZM424.23 627.197C423.768 627.016 423.301 626.836 422.834 626.656C422.582 626.323 422.327 625.991 422.072 625.659C422.496 625.851 422.927 626.038 423.346 626.231C423.639 626.554 423.942 626.873 424.23 627.197ZM427.039 628.325C426.706 628.189 426.367 628.056 426.031 627.92C425.827 627.684 425.632 627.444 425.423 627.209C425.733 627.356 426.045 627.502 426.352 627.65C426.585 627.874 426.809 628.101 427.039 628.325ZM429.708 629.444L429.176 629.217C429.056 629.095 428.928 628.976 428.805 628.854L429.291 629.098C429.428 629.214 429.571 629.328 429.708 629.444ZM151.105 259.838C150.443 260.459 149.819 261.06 149.166 261.676L149.504 261.281L151.526 259.312L151.105 259.838ZM158.598 252.871C157.575 253.823 156.536 254.784 155.515 255.736C155.875 255.298 156.219 254.867 156.582 254.428C157.598 253.453 158.652 252.46 159.685 251.477C159.323 251.941 158.954 252.408 158.598 252.871ZM166.317 245.746C165.082 246.87 163.855 247.992 162.65 249.101C163.104 248.523 163.538 247.955 163.998 247.374C165.279 246.162 166.526 244.967 167.829 243.745C167.336 244.407 166.802 245.087 166.317 245.746ZM174.439 238.349C172.911 239.738 171.39 241.124 169.869 242.51C170.426 241.769 170.994 241.021 171.561 240.276C172.991 238.94 174.446 237.593 175.883 236.254C175.382 236.961 174.933 237.645 174.439 238.349ZM182.713 230.919C180.935 232.503 179.144 234.092 177.413 235.652C178.014 234.808 178.674 233.938 179.286 233.09C180.935 231.571 182.632 230.029 184.327 228.487C183.779 229.303 183.25 230.109 182.713 230.919ZM191.163 223.384C189.208 225.114 187.318 226.812 185.391 228.529C185.968 227.673 186.499 226.835 187.087 225.974C189.013 224.221 190.904 222.486 192.857 220.721C192.295 221.607 191.712 222.503 191.163 223.384ZM199.81 215.808C197.73 217.625 195.649 219.443 193.609 221.24C194.193 220.317 194.779 219.393 195.376 218.464C197.351 216.689 199.375 214.89 201.393 213.094C200.854 214.003 200.334 214.905 199.81 215.808ZM208.751 208.031C206.467 210.003 204.212 211.962 201.976 213.91C202.543 212.947 203.168 211.96 203.75 210.99C205.897 209.083 208.057 207.17 210.25 205.24C209.736 206.176 209.25 207.101 208.751 208.031ZM217.818 200.229C215.442 202.267 213.085 204.297 210.74 206.32C211.258 205.367 211.737 204.43 212.269 203.471C214.591 201.432 216.928 199.386 219.282 197.33C218.798 198.294 218.286 199.27 217.818 200.229ZM227.183 192.269C224.669 194.392 222.144 196.522 219.694 198.613C220.18 197.635 220.684 196.649 221.185 195.664C223.549 193.611 225.986 191.521 228.414 189.436C227.984 190.388 227.599 191.322 227.183 192.269ZM236.727 184.206C234.063 186.443 231.469 188.645 228.848 190.861C229.285 189.883 229.729 188.901 230.182 187.916C232.744 185.714 235.281 183.525 237.888 181.301C237.5 182.27 237.1 183.242 236.727 184.206ZM246.501 176.07C243.744 178.357 240.986 180.645 238.292 182.903C238.677 181.926 239.066 180.948 239.466 179.967C242.085 177.74 244.76 175.484 247.438 173.228C247.108 174.18 246.818 175.121 246.501 176.07ZM256.458 167.835C253.587 170.198 250.742 172.547 247.929 174.881C248.258 173.91 248.59 172.938 248.934 171.963C251.689 169.642 254.479 167.306 257.295 164.956C257.018 165.914 256.722 166.879 256.458 167.835ZM266.686 159.452C263.699 161.891 260.741 164.316 257.806 166.73C258.077 165.765 258.37 164.793 258.656 163.824C261.526 161.431 264.406 159.033 267.323 156.617C267.107 157.562 266.891 158.508 266.686 159.452ZM277.103 151.008C274.024 153.492 270.936 155.982 267.934 158.428C268.145 157.478 268.353 156.528 268.575 155.574C271.508 153.152 274.533 150.682 277.548 148.219C277.395 149.149 277.246 150.079 277.103 151.008ZM267.664 159.638C270.701 157.159 273.815 154.644 276.923 152.13C264.049 238.165 295.397 316.835 326.707 395.414C345.72 443.131 364.715 490.815 373.779 540.092C362.499 497.734 343.129 456.839 323.642 415.707C285.631 335.469 247.202 254.32 267.664 159.638ZM257.437 168.016C260.395 165.582 263.398 163.125 266.414 160.661C246.452 254.968 284.781 335.864 322.678 415.859C343.225 459.23 363.636 502.336 374.563 547.169C361.638 508.228 340.814 470.871 319.784 433.157C274.913 352.694 229.128 270.605 257.437 168.016ZM175.456 238.466C177.297 236.801 179.155 235.128 181.039 233.441C75.3542 395.239 187.342 462.226 292.572 525.124C322.914 543.259 352.681 561.058 376.482 580.7M382.615 617.791C381.607 617.577 380.59 617.366 379.572 617.155C379.642 616.18 379.702 615.205 379.761 614.231C380.737 614.471 381.709 614.712 382.674 614.955C382.66 615.899 382.641 616.845 382.615 617.791ZM386.597 618.655C385.604 618.437 384.616 618.217 383.614 618.003C383.641 617.071 383.663 616.139 383.677 615.209C384.632 615.451 385.589 615.691 386.533 615.938C386.562 616.842 386.578 617.749 386.597 618.655ZM390.531 619.537C389.559 619.315 388.589 619.094 387.607 618.876C387.592 617.986 387.579 617.095 387.553 616.208C388.483 616.452 389.413 616.696 390.332 616.944C390.403 617.807 390.471 618.671 390.531 619.537ZM394.405 620.435C393.463 620.212 392.512 619.992 391.559 619.773C391.501 618.921 391.433 618.07 391.364 617.221C392.276 617.469 393.176 617.722 394.079 617.974C394.194 618.793 394.305 619.612 394.405 620.435ZM398.215 621.354C397.3 621.129 396.373 620.908 395.447 620.687C395.349 619.878 395.245 619.071 395.134 618.266C396.025 618.517 396.908 618.773 397.791 619.028C397.94 619.801 398.075 620.578 398.215 621.354ZM401.983 622.305C401.085 622.075 400.188 621.845 399.281 621.619C399.146 620.859 399.014 620.099 398.87 619.341C399.722 619.59 400.575 619.84 401.417 620.093C401.611 620.829 401.804 621.565 401.983 622.305ZM405.655 623.266C404.794 623.037 403.939 622.807 403.069 622.581C402.898 621.863 402.715 621.149 402.531 620.434C403.36 620.686 404.192 620.935 405.011 621.191C405.234 621.88 405.443 622.573 405.655 623.266ZM409.293 624.253C408.463 624.023 407.624 623.796 406.784 623.568C406.581 622.898 406.382 622.227 406.169 621.559C406.961 621.81 407.746 622.063 408.528 622.317C408.787 622.961 409.05 623.604 409.293 624.253ZM412.822 625.252C412.042 625.026 411.247 624.805 410.459 624.583C410.226 623.954 409.981 623.329 409.733 622.704C410.502 622.958 411.254 623.218 412.014 623.476C412.293 624.064 412.553 624.659 412.822 625.252ZM416.312 626.29C415.561 626.063 414.81 625.837 414.051 625.613C413.796 625.042 413.537 624.471 413.274 623.902C413.987 624.147 414.694 624.394 415.398 624.642C415.706 625.19 416.015 625.738 416.312 626.29ZM419.688 627.334C418.989 627.114 418.297 626.89 417.59 626.673C417.317 626.156 417.041 625.641 416.758 625.129C417.419 625.366 418.088 625.6 418.742 625.841C419.063 626.337 419.376 626.836 419.688 627.334ZM422.989 628.394C422.356 628.185 421.715 627.98 421.075 627.774C420.791 627.311 420.493 626.853 420.2 626.393C420.807 626.621 421.416 626.849 422.017 627.08C422.347 627.516 422.669 627.955 422.989 628.394ZM426.18 629.468C425.619 629.275 425.044 629.085 424.476 628.894C424.195 628.501 423.923 628.104 423.635 627.712C424.17 627.922 424.695 628.135 425.223 628.348C425.543 628.721 425.867 629.093 426.18 629.468ZM429.245 630.553C428.777 630.385 428.309 630.216 427.836 630.049C427.567 629.72 427.289 629.394 427.01 629.067C427.478 629.261 427.93 629.46 428.393 629.655C428.685 629.952 428.959 630.255 429.245 630.553ZM432.174 631.629C431.808 631.491 431.452 631.349 431.083 631.213C430.866 630.981 430.644 630.751 430.426 630.521C430.757 630.665 431.086 630.811 431.416 630.957C431.666 631.182 431.927 631.403 432.174 631.629ZM434.807 632.633C434.638 632.566 434.463 632.503 434.295 632.438C434.175 632.326 434.06 632.212 433.94 632.1C434.093 632.171 434.252 632.239 434.404 632.31L434.807 632.633ZM288.002 139.679C287.912 140.597 287.814 141.515 287.733 142.432C284.524 145.003 281.414 147.527 278.268 150.067C278.415 149.133 278.556 148.2 278.716 147.264C281.801 144.74 284.858 142.231 288.002 139.679ZM288.395 135.873C288.293 136.787 288.199 137.7 288.106 138.612C284.998 141.134 281.964 143.618 278.907 146.114C279.071 145.171 279.256 144.225 279.429 143.281C282.4 140.82 285.371 138.359 288.395 135.873ZM288.851 132.034C288.736 132.948 288.632 133.86 288.527 134.773C285.54 137.227 282.581 139.667 279.648 142.094C279.825 141.155 280.002 140.216 280.191 139.275C283.039 136.88 285.946 134.456 288.851 132.034ZM289.372 128.157C289.243 129.078 289.105 129.999 288.985 130.918C286.13 133.297 283.247 135.689 280.448 138.041C280.64 137.101 280.835 136.162 281.038 135.22C283.764 132.891 286.587 130.515 289.372 128.157ZM289.939 124.254C289.797 125.171 289.665 126.087 289.534 127.003C286.774 129.337 283.997 131.678 281.298 133.985C281.505 133.047 281.738 132.104 281.956 131.165C284.589 128.874 287.244 126.574 289.939 124.254ZM290.568 120.356C290.416 121.254 290.276 122.151 290.133 123.049C287.467 125.341 284.868 127.601 282.261 129.866C282.483 128.929 282.698 127.992 282.932 127.052C285.419 124.847 288.021 122.589 290.568 120.356ZM291.276 116.385C291.107 117.3 290.93 118.216 290.771 119.13C288.292 121.3 285.719 123.513 283.295 125.658C283.529 124.74 283.769 123.821 284.014 122.902C286.394 120.748 288.838 118.566 291.276 116.385ZM292.033 112.396C291.852 113.303 291.68 114.21 291.509 115.116C289.132 117.238 286.706 119.383 284.385 121.479C284.635 120.56 284.906 119.638 285.167 118.716C287.431 116.621 289.713 114.517 292.033 112.396ZM292.863 108.371C292.668 109.272 292.488 110.173 292.305 111.073C290.053 113.128 287.795 115.186 285.596 117.217C285.857 116.315 286.105 115.415 286.376 114.512C288.53 112.469 290.655 110.438 292.863 108.371ZM293.779 104.299C293.571 105.201 293.357 106.102 293.16 107.002C291.035 108.987 288.947 110.955 286.876 112.918C287.151 112.017 287.436 111.116 287.722 110.213C289.747 108.239 291.705 106.294 293.779 104.299ZM294.738 100.263C294.523 101.135 294.309 102.007 294.104 102.879C292.108 104.794 290.183 106.679 288.235 108.574C288.527 107.679 288.84 106.779 289.141 105.883C291.006 104.01 292.832 102.153 294.738 100.263ZM295.759 96.2145C295.539 97.0464 295.34 97.8773 295.13 98.7084C293.286 100.533 291.543 102.315 289.741 104.121C290.037 103.259 290.319 102.398 290.625 101.534C292.322 99.7662 294.023 97.9979 295.759 96.2145ZM296.884 92.1069C296.656 92.9238 296.428 93.7407 296.21 94.5572C294.549 96.2559 292.962 97.9241 291.331 99.6112C291.638 98.7625 291.95 97.9136 292.267 97.0637C293.781 95.4209 295.334 93.7637 296.884 92.1069ZM298.066 88.0008C297.832 88.7894 297.591 89.5787 297.364 90.3669C295.893 91.9312 294.46 93.4811 293.015 95.035C293.331 94.2079 293.673 93.3763 293.997 92.5479C295.32 91.044 296.709 89.5166 298.066 88.0008ZM299.296 83.9139C299.068 84.6442 298.857 85.3727 298.635 86.1019C297.376 87.5023 296.123 88.8995 294.888 90.2903C295.187 89.5446 295.481 88.7994 295.787 88.0523C296.932 86.6816 298.125 85.2935 299.296 83.9139ZM300.638 79.78C300.415 80.4527 300.2 81.1257 299.983 81.7982C298.958 82.9982 297.915 84.2044 296.907 85.3978C297.176 84.763 297.44 84.1288 297.713 83.4929C298.683 82.2567 299.647 81.0232 300.638 79.78ZM301.993 75.7856C301.8 76.3426 301.599 76.9 301.41 77.4568C300.65 78.402 299.858 79.3575 299.111 80.2985C299.322 79.8208 299.541 79.3419 299.756 78.8638C300.504 77.8369 301.232 76.8165 301.993 75.7856ZM303.27 72.1403C303.161 72.4362 303.062 72.7321 302.956 73.0278C302.501 73.637 302.024 74.2529 301.575 74.8596C301.68 74.6357 301.793 74.4108 301.897 74.1865L303.27 72.1403ZM374.819 613.042C374.716 614.07 374.608 615.098 374.493 616.128C341.322 609.552 303.555 604.716 265.06 599.791C190.159 590.209 112.525 580.276 60.9967 556.454C-14.5432 521.53 -34.0368 456.655 93.0663 319.124C-22.5855 451.048 2.37878 513.835 79.012 548.995C128.361 571.636 199.096 582.795 267.503 593.586C305.339 599.555 342.454 605.414 374.819 613.042ZM375.184 609.373C375.09 610.388 374.983 611.405 374.881 612.422C342.537 604.829 305.51 598.983 267.766 593.029C199.461 582.254 128.827 571.111 79.6357 548.542C0.78363 512.365 -23.0097 446.728 105.93 306.003C-11.6977 441.529 18.1747 505.166 98.5246 541.729C145.101 562.923 208.607 574.997 270.178 586.701C307.268 593.752 343.652 600.671 375.184 609.373ZM375.483 605.724C375.405 606.726 375.325 607.728 375.237 608.731C343.741 600.077 307.465 593.181 270.492 586.152C209.002 574.462 145.581 562.405 99.1436 541.274C16.4577 503.648 -12.4479 437.158 118.999 292.527C-1.33972 432.502 34.5027 497.089 119.218 535.297C162.48 554.808 218.452 567.421 272.874 579.684C309.196 587.869 344.815 595.901 375.483 605.724ZM375.749 602.09C375.682 603.081 375.613 604.072 375.537 605.064C344.915 595.301 309.423 587.299 273.238 579.145C218.88 566.896 162.973 554.298 119.833 534.842C33.1063 495.727 -2.16595 428.82 130.162 281.017L130.843 280.355C8.58478 424.733 51.9952 489.982 141.588 529.999C180.772 547.502 228.772 560.166 275.594 572.52C311.124 581.895 345.969 591.092 375.749 602.09ZM375.98 598.481C375.923 599.456 375.855 600.433 375.792 601.409C346.069 590.485 311.379 581.327 276.01 571.995C229.241 559.655 181.296 547.005 142.199 529.542C51.5792 489.065 8.45187 422.627 137.413 273.963C138.09 273.31 138.73 272.675 139.414 272.017C18.4727 419.394 71.7852 484.471 166.538 526.351C200.535 541.377 239.845 553.409 278.34 565.192C313.062 575.819 347.115 586.245 375.98 598.481ZM376.15 594.889C376.108 595.847 376.067 596.804 376.016 597.763C347.219 585.62 313.342 575.25 278.807 564.68C240.347 552.908 201.074 540.887 167.145 525.891C71.6481 483.683 18.3997 417.809 144.459 267.216C145.471 266.252 146.499 265.281 147.511 264.316C-4.77832 456.829 143.476 509.141 281.111 557.674C314.999 569.624 348.231 581.349 376.15 594.889ZM376.293 591.31C376.261 592.251 376.225 593.193 376.186 594.136C348.343 580.709 315.31 569.056 281.632 557.18C143.278 508.394 -5.80283 455.765 152.192 259.876C153.307 258.828 154.47 257.757 155.615 256.695C15.3437 441.423 154.472 497.63 283.918 549.943C316.951 563.292 349.349 576.389 376.293 591.31ZM376.396 587.761C376.373 588.678 376.345 589.596 376.316 590.513C349.458 575.731 317.288 562.725 284.489 549.47C154.472 496.925 14.748 440.405 159.654 252.942C161.144 251.56 162.595 250.198 164.104 248.807C35.4138 425.951 165.41 485.973 286.76 541.968C318.922 556.809 350.462 571.369 376.396 587.761ZM376.453 584.218C376.444 585.111 376.436 586.004 376.418 586.899C350.576 570.677 319.281 556.234 287.383 541.516C165.612 485.325 35.075 425.09 167.344 245.849C169.042 244.294 170.78 242.719 172.507 241.149C55.4704 410.576 176.387 474.19 289.641 533.71C320.902 550.139 351.565 566.26 376.453 584.218ZM376.469 577.194C376.474 578.02 376.477 578.845 376.479 579.671C352.779 560.28 323.314 542.667 293.294 524.723C187.738 461.631 75.3954 394.405 183.713 231.056C185.703 229.277 187.697 227.496 189.707 225.707C95.1046 379.931 198.281 450.055 295.557 516.155C324.952 536.129 353.8 555.737 376.469 577.194ZM376.418 573.703C376.436 574.492 376.455 575.281 376.464 576.07C353.893 554.91 325.376 535.524 296.321 515.782C198.749 449.481 95.249 379.118 192.148 223.537C194.275 221.657 196.475 219.742 198.662 217.832C114.764 364.582 209.188 437.624 298.604 506.734C327.028 528.702 354.933 550.277 376.418 573.703ZM376.346 570.237C376.367 570.964 376.376 571.693 376.392 572.421C355.001 549.356 327.454 528.064 299.408 506.387C209.743 437.085 115.007 363.835 200.798 215.963C203.104 213.947 205.397 211.939 207.746 209.903C134.205 349.239 220.068 424.878 301.722 496.77C329.152 520.921 356.1 544.65 376.346 570.237ZM376.221 566.774C376.245 567.443 376.272 568.111 376.294 568.78C356.133 543.631 329.583 520.245 302.56 496.453C220.684 424.364 134.576 348.499 209.732 208.194C212.122 206.129 214.55 204.045 216.985 201.957C153.491 333.885 230.937 411.762 304.924 486.152C331.329 512.702 357.284 538.809 376.221 566.774ZM376.073 563.33C376.103 563.916 376.135 564.502 376.161 565.089C357.292 537.652 331.756 511.972 305.789 485.864C231.601 411.271 153.918 333.17 218.79 200.404C221.322 198.237 223.903 196.047 226.497 193.85C172.608 318.424 241.768 398.163 308.218 474.733C333.574 503.951 358.525 532.711 376.073 563.33ZM375.899 559.905C375.926 560.374 375.945 560.844 375.971 561.314C358.464 531.351 333.983 503.134 309.113 474.475C242.481 397.697 173.122 317.73 228.161 192.443C230.809 190.2 233.445 187.964 236.134 185.701C191.448 302.892 252.573 383.974 311.62 462.318C335.904 494.537 359.834 526.291 375.899 559.905ZM375.679 556.465L375.744 557.436C359.682 524.65 336.28 493.589 312.537 462.087C253.324 383.525 192.046 302.197 237.697 184.388C240.428 182.097 243.248 179.764 246.05 177.439C210.12 287.178 263.349 369.03 315.152 448.643C338.33 484.263 361.217 519.437 375.679 556.465ZM375.444 553.074L375.466 553.339C360.942 517.38 338.656 483.12 316.09 448.439C264.141 368.602 210.759 286.512 247.479 176.25C250.341 173.873 253.214 171.491 256.131 169.087C228.459 271.239 274.088 353.098 318.832 433.334C340.891 472.894 362.732 512.061 375.444 553.074ZM330.918 370.725C348.592 424.012 366.392 477.688 373.387 532.855C363.861 486.091 345.78 440.703 327.682 395.285C296.274 316.458 264.842 237.538 278.088 151.19C281.261 148.624 284.404 146.073 287.647 143.472C281.108 220.539 305.88 295.242 330.918 370.725ZM377.073 563.221L377.026 562.307L377.181 562.635C377.22 562.963 377.262 563.29 377.299 563.618L377.073 563.221ZM377.222 566.652C377.203 566.189 377.192 565.725 377.172 565.262C377.296 565.482 377.425 565.702 377.548 565.924L377.696 567.352L377.222 566.652ZM377.345 570.092C377.328 569.507 377.303 568.924 377.283 568.34C377.491 568.652 377.692 568.965 377.896 569.278C377.952 569.847 377.996 570.419 378.047 570.989C377.814 570.69 377.582 570.39 377.345 570.092ZM377.419 573.543L377.38 571.561L378.188 572.602C378.246 573.259 378.307 573.916 378.359 574.574C378.046 574.231 377.735 573.886 377.419 573.543ZM377.472 577.018C377.466 576.288 377.457 575.559 377.445 574.83C377.782 575.201 378.123 575.571 378.454 575.943C378.505 576.66 378.558 577.378 378.606 578.096C378.231 577.736 377.851 577.377 377.472 577.018ZM377.486 580.505C377.487 579.719 377.481 578.934 377.477 578.149C377.886 578.54 378.287 578.934 378.692 579.327C378.739 580.089 378.777 580.853 378.819 581.615C378.375 581.246 377.933 580.875 377.486 580.505ZM377.46 584.003C377.469 583.181 377.487 582.359 377.491 581.538C377.952 581.923 378.421 582.306 378.877 582.692C378.922 583.502 378.966 584.313 379 585.125C378.49 584.75 377.976 584.376 377.46 584.003ZM377.409 587.529C377.428 586.663 377.438 585.799 377.448 584.934C377.982 585.324 378.506 585.715 379.035 586.107C379.067 586.944 379.097 587.781 379.123 588.619C378.554 588.255 377.982 587.892 377.409 587.529ZM377.305 591.055C377.333 590.166 377.36 589.277 377.383 588.388C377.976 588.765 378.57 589.141 379.155 589.52C379.179 590.388 379.192 591.257 379.209 592.126C378.577 591.768 377.945 591.41 377.305 591.055ZM377.168 594.613C377.209 593.695 377.248 592.777 377.282 591.86C377.934 592.224 378.578 592.591 379.223 592.957C379.24 593.848 379.257 594.74 379.262 595.632C378.57 595.291 377.867 594.952 377.168 594.613ZM377 598.182C377.052 597.242 377.092 596.304 377.133 595.366C377.845 595.714 378.556 596.064 379.261 596.415C379.263 597.327 379.264 598.239 379.258 599.152C378.506 598.828 377.757 598.504 377 598.182ZM376.774 601.769C376.837 600.812 376.901 599.856 376.958 598.901C377.726 599.23 378.494 599.557 379.258 599.888C379.247 600.818 379.229 601.751 379.212 602.682C378.403 602.376 377.592 602.071 376.774 601.769ZM376.517 605.379C376.593 604.402 376.664 603.426 376.73 602.45C377.56 602.759 378.379 603.071 379.197 603.383C379.18 604.328 379.161 605.274 379.131 606.221C378.265 605.938 377.389 605.66 376.517 605.379ZM376.219 609.005C376.307 608.015 376.385 607.026 376.463 606.038C377.347 606.323 378.23 606.608 379.105 606.897C379.072 607.858 379.035 608.82 378.992 609.783C378.07 609.522 377.149 609.262 376.219 609.005ZM375.864 612.651C375.966 611.65 376.072 610.648 376.166 609.648C377.103 609.909 378.037 610.17 378.967 610.433C378.92 611.407 378.861 612.383 378.804 613.358C377.829 613.12 376.851 612.884 375.864 612.651ZM375.476 616.324C375.591 615.306 375.698 614.288 375.802 613.271C376.799 613.508 377.783 613.749 378.769 613.99C378.711 614.975 378.651 615.961 378.581 616.949C377.551 616.738 376.514 616.531 375.476 616.324ZM341.845 725.518C361.03 688.358 371.341 652.252 375.404 616.933C376.451 617.142 377.494 617.354 378.532 617.568C375.99 652.223 366.604 687.984 347.311 725.353L348.271 725.518C367.558 688.161 376.958 652.414 379.522 617.774C380.55 617.987 381.578 618.198 382.595 618.415C381.584 652.381 373.139 687.778 353.74 725.353L354.701 725.518C374.092 687.961 382.553 652.582 383.594 618.633C384.604 618.851 385.608 619.07 386.608 619.292C387.156 652.553 379.674 687.573 360.167 725.353L361.128 725.518C380.623 687.758 388.131 652.756 387.62 619.512C388.615 619.735 389.596 619.963 390.581 620.189C392.719 652.731 386.207 687.366 366.594 725.353L367.555 725.518C387.153 687.557 393.697 652.944 391.609 620.425C392.572 620.648 393.527 620.874 394.48 621.102C398.244 652.911 392.745 687.15 373.022 725.353L373.982 725.518C393.688 687.35 399.223 653.137 395.523 621.352C396.464 621.58 397.407 621.805 398.338 622.037C403.758 653.098 399.288 686.933 379.452 725.353L380.412 725.518C400.224 687.143 404.745 653.34 399.405 622.307C400.32 622.537 401.235 622.767 402.139 623C409.246 653.297 405.828 686.714 385.878 725.353L386.839 725.518C406.761 686.933 410.239 653.549 403.227 623.282C404.119 623.515 404.995 623.753 405.877 623.991C414.707 653.505 412.369 686.492 392.304 725.353L393.265 725.518C413.295 686.724 415.712 653.775 407.004 624.292C407.865 624.527 408.713 624.766 409.563 625.005C420.15 653.721 418.914 686.267 398.735 725.353L399.695 725.518C419.831 686.516 421.162 654.015 410.728 625.334C411.549 625.568 412.37 625.802 413.181 626.04C425.562 653.942 425.46 686.036 405.161 725.353L406.122 725.518C426.364 686.311 426.6 654.269 414.413 626.408C415.187 626.639 415.967 626.867 416.732 627.101C430.949 654.171 432.009 685.801 411.588 725.353L412.549 725.518C432.901 686.1 431.996 654.532 418.021 627.505C418.767 627.737 419.507 627.973 420.244 628.209C436.319 654.424 438.554 685.573 418.017 725.353L418.975 725.518C439.432 685.896 437.388 654.815 421.607 628.643C422.299 628.869 422.973 629.102 423.657 629.332C441.644 654.677 445.108 685.331 424.445 725.353L425.405 725.518C445.961 685.703 442.75 655.129 425.142 629.831C425.775 630.048 426.402 630.269 427.027 630.489C446.956 654.944 451.659 685.092 430.871 725.353L431.832 725.518C452.483 685.518 448.09 655.472 428.644 631.067C429.194 631.265 429.754 631.461 430.299 631.662C452.227 655.209 458.215 684.838 437.298 725.353L438.259 725.518C458.993 685.36 453.434 655.856 432.153 632.368C432.608 632.54 433.065 632.711 433.514 632.886C457.47 655.503 464.773 684.591 443.728 725.353L444.688 725.518C465.49 685.228 458.761 656.293 435.665 633.74C436.011 633.879 436.355 634.02 436.699 634.16C462.698 655.823 471.322 684.356 450.155 725.353L451.115 725.518C471.96 685.143 464.083 656.808 439.222 635.211C439.397 635.286 439.569 635.363 439.742 635.438C467.873 656.13 477.885 684.093 456.582 725.353L457.542 725.518C478.229 685.449 469.578 657.86 443.534 637.289C473.218 656.948 484.254 684.205 463.01 725.353L463.969 725.518C484.221 686.294 475.356 659.624 449.019 640.123C479.01 658.704 490.247 685.048 469.439 725.353L470.398 725.518C490.197 687.168 481.191 661.394 454.701 642.905C484.854 660.47 496.225 685.921 475.865 725.353L476.826 725.518C499.287 682.014 483.459 655.42 446.44 637.667C444.666 636.649 442.818 635.662 440.931 634.69C439.208 633.632 437.444 632.59 435.612 631.576C433.961 630.487 432.247 629.424 430.494 628.376C428.865 627.218 427.191 626.077 425.461 624.959C423.922 623.78 422.334 622.62 420.702 621.476C419.184 620.212 417.616 618.969 416.003 617.741C414.582 616.458 413.126 615.188 411.621 613.935C410.236 612.566 408.796 611.216 407.326 609.876C406.004 608.443 404.645 607.022 403.242 605.617C402.032 604.172 400.787 602.738 399.505 601.317C398.344 599.775 397.135 598.248 395.903 596.729C394.806 595.102 393.674 593.486 392.507 591.881C391.501 590.2 390.47 588.527 389.4 586.865C388.494 585.143 387.565 583.427 386.601 581.721C385.782 579.922 384.939 578.13 384.064 576.346C383.337 574.475 382.587 572.609 381.811 570.751C381.18 568.802 380.529 566.857 379.848 564.918C379.334 562.957 378.794 561.001 378.238 559.049C377.809 556.937 377.355 554.83 376.882 552.726C376.566 550.578 376.229 548.433 375.872 546.291C370.28 486.343 351.018 428.252 331.902 370.616C306.781 294.883 281.924 219.937 288.724 142.614C342.36 99.6433 404.698 52.3989 476.737 0.406982L475.958 0.046875C404.312 51.7552 342.273 98.7668 288.827 141.562C288.91 140.641 289.003 139.719 289.097 138.797C340.727 96.9373 400.786 50.9695 470.311 0.406982L469.529 0.046875C400.401 50.3195 340.641 96.0506 289.201 137.73C289.299 136.807 289.408 135.883 289.513 134.959C339.124 94.2147 396.891 49.5289 463.884 0.405823L463.098 0.0482788C396.52 48.8664 339.056 93.3051 289.643 133.859C289.753 132.94 289.852 132.022 289.971 131.104C337.549 91.4781 393.018 48.0774 457.458 0.404358L456.671 0.0490112C392.664 47.4023 337.503 90.5458 290.129 129.968C290.252 129.042 290.385 128.115 290.518 127.187C336.039 88.6985 389.194 46.5964 451.032 0.403198L450.241 0.0500488C388.843 45.9142 335.995 87.7547 290.679 126.032C290.818 125.101 290.967 124.169 291.114 123.237C334.559 85.8976 385.407 45.0935 444.608 0.401978L443.813 0.0513306C385.077 44.3917 334.537 84.9204 291.309 122.032C291.455 121.13 291.593 120.229 291.748 119.327C333.131 83.108 381.58 43.6266 438.181 0.400879L437.381 0.0523682C381.255 42.9152 333.145 82.0991 291.978 118.079C292.142 117.157 292.311 116.235 292.485 115.312C331.762 80.2529 377.842 42.0985 431.756 0.400146L430.953 0.0533447C377.515 41.3824 331.779 79.2299 292.717 114.043C292.896 113.118 293.09 112.194 293.279 111.269C330.436 77.3755 374.13 40.5557 425.331 0.397522L424.524 0.055542C373.82 39.8232 330.486 76.3155 293.551 109.945C293.743 109.031 293.93 108.116 294.13 107.2C329.151 74.477 370.445 38.9997 418.904 0.396057L418.093 0.0567017C370.153 38.2469 329.239 73.3721 294.447 105.811C294.652 104.898 294.859 103.985 295.074 103.072C327.938 71.5342 366.803 37.418 412.479 0.394043L411.663 0.0593262C366.514 36.656 328.039 70.4054 295.407 101.645C295.627 100.73 295.868 99.8135 296.099 98.8983C326.785 68.5558 363.197 35.8151 406.053 0.391418L405.234 0.0615234C362.928 35.0302 326.926 67.3761 296.478 97.3962C296.706 96.5145 296.938 95.6326 297.175 94.7501C325.685 65.5864 359.585 34.229 399.631 0.389954L398.803 0.0634766C359.379 33.3787 325.877 64.302 297.633 93.0878C297.865 92.2444 298.089 91.4013 298.331 90.5569C324.642 62.5814 356.014 32.6189 393.205 0.385925L392.37 0.0667725C355.837 31.7278 324.89 61.2119 298.857 88.7667C299.099 87.9411 299.349 87.1147 299.6 86.2883C323.686 59.5205 352.496 30.9748 386.781 0.383728L385.942 0.0692749C352.338 30.0523 323.973 58.08 300.169 84.3904C300.417 83.5897 300.687 82.788 300.944 81.9871C322.786 56.4333 349.017 29.311 380.359 0.379395L379.508 0.0740967C348.909 28.3205 323.169 54.8461 301.63 79.8719C301.875 79.1283 302.119 78.3846 302.371 77.6401C321.946 53.3107 345.578 27.625 373.934 0.374695L373.075 0.0780029C345.541 26.5397 322.46 51.5266 303.211 75.2325C303.448 74.5587 303.676 73.8849 303.918 73.2102C321.197 50.1252 342.202 25.9006 367.513 0.369995L366.642 0.0827026C342.248 24.6889 321.871 48.0767 304.947 70.4081C305.16 69.8324 305.376 69.2562 305.593 68.6794C320.55 46.8638 338.883 24.1337 361.091 0.363892L360.209 0.0896606C339.067 22.7195 321.464 44.3991 306.907 65.254C307.039 64.9171 307.178 64.5792 307.312 64.2425C319.942 43.6568 335.559 22.3976 354.67 0.355286L353.776 0.0977783C336.241 20.3229 321.651 39.8874 309.598 58.8796C319.796 39.8125 332.531 20.3261 348.25 0.345459L347.337 0.107788C333.861 17.2379 322.578 34.0047 313.195 50.4557C320.752 33.9134 330.198 17.216 341.83 0.33313L340.902 0.120361C327.072 20.191 316.315 39.9995 308.163 59.5945C306.463 62.7937 304.822 65.9836 303.262 69.16C301.254 72.5506 299.355 75.9159 297.502 79.2711C295.269 82.7471 293.105 86.2041 291.042 89.6335C288.532 93.2761 286.097 96.8956 283.784 100.478C281.119 104.155 278.581 107.789 276.106 111.402C273.327 115.078 270.635 118.724 268.039 122.335C264.996 126.203 262.043 130.036 259.21 133.824C255.948 137.84 252.831 141.799 249.798 145.724C246.623 149.537 243.547 153.31 240.574 157.039C237.324 160.847 234.161 164.618 231.111 168.341C227.142 172.871 223.365 177.318 219.692 181.719C216.194 185.661 212.8 189.554 209.522 193.399C206.003 197.294 202.59 201.142 199.278 204.944C195.124 209.464 191.093 213.93 187.215 218.324C183.298 222.532 179.502 226.684 175.838 230.775C171.832 235.026 167.94 239.225 164.193 243.355C160.058 247.693 156.035 251.978 152.169 256.189C148.109 260.413 144.149 264.589 140.335 268.694C136.306 272.845 132.383 276.944 128.591 280.98C124.507 285.144 120.558 289.242 116.714 293.287C-37.3735 448.874 -20.0355 519.729 60.3743 556.904C112.086 580.811 189.833 590.758 264.843 600.354C303.409 605.289 341.241 610.134 374.42 616.736C370.375 652.068 360.074 688.185 340.884 725.353L341.845 725.518Z" fill="url(#paint0_linear_834_4269)"/>
<defs>
<linearGradient id="paint0_linear_834_4269" x1="-408.906" y1="244.987" x2="165.247" y2="953.963" gradientUnits="userSpaceOnUse">
<stop stop-color="#0A767B"/>
<stop offset="1" stop-color="#00A7D6"/>
</linearGradient>
</defs>
</svg>
