<svg width="24" height="25" viewBox="0 0 24 25" fill="none" xmlns="http://www.w3.org/2000/svg">
<path d="M14 12.9287L10.5 14.9287V10.9287L14 12.9287Z" fill="white" stroke="white" stroke-width="1.5" stroke-linecap="round" stroke-linejoin="round"/>
<path d="M2 13.6361V12.2211C2 9.3261 2 7.8781 2.905 6.9471C3.811 6.0151 5.237 5.9751 8.088 5.8941C9.438 5.8561 10.818 5.8291 12 5.8291C13.181 5.8291 14.561 5.8561 15.912 5.8941C18.763 5.9751 20.189 6.0151 21.094 6.9471C22 7.8781 22 9.3271 22 12.2211V13.6361C22 16.5321 22 17.9791 21.095 18.9111C20.189 19.8421 18.764 19.8831 15.912 19.9631C14.562 20.0021 13.182 20.0291 12 20.0291C10.6958 20.0252 9.39163 20.0032 8.088 19.9631C5.237 19.8831 3.811 19.8431 2.905 18.9111C2 17.9791 2 16.5311 2 13.6371V13.6361Z" stroke="white" stroke-width="1.5"/>
</svg>
