<svg xmlns="http://www.w3.org/2000/svg" width="131.379" height="100.534" viewBox="0 0 131.379 100.534">
  <g id="security-secure-protection-28-svgrepo-com" transform="translate(-8 -13)">
    <path id="Path_259" data-name="Path 259" d="M135.379,78.689a30.545,30.545,0,0,1-30.845,30.845H42.845a30.845,30.845,0,1,1,0-61.689,30.845,30.845,0,1,1,61.69,0A30.935,30.935,0,0,1,135.379,78.689Z" transform="translate(0)" fill="none" stroke="#0ec9ac" stroke-linecap="round" stroke-linejoin="round" stroke-miterlimit="10" stroke-width="8"/>
    <g id="Group_53" data-name="Group 53" transform="translate(58.576 47.845)">
      <path id="Path_260" data-name="Path 260" d="M56.711,56.467H28.025a.818.818,0,0,1-.925-.925V33.025a.818.818,0,0,1,.925-.925H56.711a.818.818,0,0,1,.925.925V55.542A.818.818,0,0,1,56.711,56.467Z" transform="translate(-27.1 -16.369)" fill="none" stroke="#fff" stroke-linejoin="round" stroke-miterlimit="10" stroke-width="8"/>
      <path id="Path_261" data-name="Path 261" d="M48.132,42.422H29.625A.818.818,0,0,1,28.7,41.5V37.179A10.269,10.269,0,0,1,38.879,27h0A10.269,10.269,0,0,1,49.058,37.179V41.5A.818.818,0,0,1,48.132,42.422Z" transform="translate(-23.765 -27)" fill="none" stroke="#fff" stroke-linejoin="round" stroke-miterlimit="10" stroke-width="8"/>
      <line id="Line_16" data-name="Line 16" transform="translate(15.067 28.271)" fill="none" stroke="#fff" stroke-linecap="round" stroke-linejoin="round" stroke-miterlimit="10" stroke-width="8"/>
    </g>
  </g>
</svg>
