<svg xmlns="http://www.w3.org/2000/svg" width="99.142" height="115.501" viewBox="0 0 99.142 115.501">
  <g id="quality-certification-svgrepo-com" transform="translate(-74.24)">
    <path id="Path_59" data-name="Path 59" d="M348.11,178.176a20.942,20.942,0,1,0,20.942,20.942A20.97,20.97,0,0,0,348.11,178.176Zm0,34.633A13.691,13.691,0,1,1,361.8,199.118,13.716,13.716,0,0,1,348.11,212.809Z" transform="translate(-224.27 -157.988)" fill="#fff"/>
    <path id="Path_60" data-name="Path 60" d="M380.932,609.28l-4.757,2.727A29.694,29.694,0,0,0,380.932,609.28Zm-33.647,2.785-4.757-2.726A42.237,42.237,0,0,0,347.285,612.065Zm37.591,3.365-5.4,3.133A50.2,50.2,0,0,0,384.876,615.429Zm-8.7-3.365a33.738,33.738,0,0,1-28.89,0l10.5,6.091-2.088,4a39.456,39.456,0,0,0,12.066,0l-2.088-4Z" transform="translate(-237.89 -540.246)" fill="#0ec9ac"/>
    <path id="Path_61" data-name="Path 61" d="M566.472,565.945a42.715,42.715,0,0,0,9.166-8.528l-2.03-3.945-11.022,6.381a29.692,29.692,0,0,1-4.757,2.727l-10.5,6.091,2.088,4a42.308,42.308,0,0,0,11.718-3.6Z" transform="translate(-419.485 -490.762)" fill="#0ec9ac"/>
    <path id="Path_62" data-name="Path 62" d="M291.837,557.417a41.3,41.3,0,0,1-9.166,8.528l4.177-2.378,9.514,18.274-10.326-1.218-3.655,8.644L273.1,571.514l4.177-2.437a42.315,42.315,0,0,1-11.718,3.6l17.519,33.589,7.542-17.81,18.506,2.146Zm-46.7,5.163a34.87,34.87,0,0,1-4.757-2.727l-11.022-6.381-2.03,3.945a41.3,41.3,0,0,0,9.166,8.528l5.337,3.075a40.28,40.28,0,0,0,11.776,3.6l2.088-4Zm-8.7,3.365a37.462,37.462,0,0,0,5.337,3.075Z" transform="translate(-135.743 -490.762)" fill="#0ec9ac"/>
    <path id="Path_63" data-name="Path 63" d="M110.265,80.694l-9.282,17.752L97.329,89.8,87,91.02l9.514-18.274,4.177,2.436a42.712,42.712,0,0,1-9.166-8.528L74.24,99.78l18.506-2.146,7.541,17.81,17.519-33.589a42.105,42.105,0,0,1-11.776-3.6Zm-5.627-11.6a33.879,33.879,0,1,1,38.4,0l11.022-6.381,2.03,3.945a40.764,40.764,0,0,0,8.876-25.467,41.13,41.13,0,1,0-82.26-.058A40.764,40.764,0,0,0,91.585,66.6l2.03-3.945Z" transform="translate(0)" fill="#0ec9ac"/>
  </g>
</svg>
