<svg xmlns="http://www.w3.org/2000/svg" width="91.149" height="91.15" viewBox="0 0 91.149 91.15">
  <g id="Group_52" data-name="Group 52" transform="translate(-2329.84 -4347.84)">
    <path id="Path_257" data-name="Path 257" d="M37.326-2.648C29.93-.28,22.206,8.054,19.9,17.331,16.436,31.246,3.148,35.165-10.819,30.216-5.8,39.481,13.362,41.051,19.9,41.051s23.464-9.1,21.524-26.4C39.738,9.615,40.288,2.174,37.326-2.648Z" transform="translate(2356.025 4375.385)" fill="#fff"/>
    <path id="Path_258" data-name="Path 258" d="M64.621,58.2,89.828,83.448a4.512,4.512,0,0,1-6.38,6.38l-25.2-25.243A36.088,36.088,0,1,1,64.621,58.2ZM36.091,63.16A27.069,27.069,0,1,0,9.023,36.091,27.069,27.069,0,0,0,36.091,63.16Z" transform="translate(2329.84 4347.84)" fill="#0ec9ac"/>
  </g>
</svg>
