<?xml version="1.0" encoding="UTF-8"?>
<svg id="Layer_2" xmlns="http://www.w3.org/2000/svg" xmlns:xlink="http://www.w3.org/1999/xlink" viewBox="0 0 327.38 94.43">
  <defs>
    <style>
      .cls-1 {
        fill: url(#linear-gradient);
      }

      .cls-2 {
        fill: #04034f;
      }
    </style>
    <linearGradient id="linear-gradient" x1="70.16" y1="-6.11" x2="3.83" y2="82.23" gradientUnits="userSpaceOnUse">
      <stop offset="0" stop-color="#00fffe"/>
      <stop offset=".13" stop-color="#00fafd"/>
      <stop offset=".27" stop-color="#02ecfd"/>
      <stop offset=".43" stop-color="#05d6fc"/>
      <stop offset=".58" stop-color="#0ab6fb"/>
      <stop offset=".75" stop-color="#0f8df9"/>
      <stop offset=".91" stop-color="#165cf7"/>
      <stop offset=".99" stop-color="#1a43f7"/>
    </linearGradient>
  </defs>
  <g id="Layer_1-2" data-name="Layer_1">
    <g>
      <g>
        <path class="cls-2" d="M102.86,70.42c-2.5-1.14-4.48-2.7-5.94-4.66-1.46-1.97-2.23-4.16-2.33-6.59h8.6c.15,1.7.96,3.12,2.44,4.26,1.48,1.14,3.34,1.71,5.57,1.71s4.14-.45,5.43-1.35c1.29-.9,1.93-2.05,1.93-3.46,0-1.5-.72-2.62-2.15-3.35-1.43-.73-3.7-1.53-6.81-2.4-3.01-.83-5.46-1.63-7.36-2.4-1.89-.78-3.53-1.97-4.92-3.57-1.38-1.6-2.08-3.71-2.08-6.34,0-2.14.63-4.09,1.89-5.86,1.26-1.77,3.07-3.17,5.43-4.19,2.35-1.02,5.06-1.53,8.12-1.53,4.56,0,8.24,1.15,11.03,3.46,2.79,2.31,4.29,5.45,4.48,9.43h-8.3c-.15-1.8-.87-3.23-2.19-4.3-1.31-1.07-3.08-1.6-5.32-1.6s-3.86.41-5.03,1.24c-1.17.83-1.75,1.92-1.75,3.28,0,1.07.39,1.97,1.17,2.69.78.73,1.72,1.3,2.84,1.71,1.12.41,2.77.94,4.95,1.57,2.91.78,5.3,1.57,7.17,2.37,1.87.8,3.48,1.98,4.84,3.53,1.36,1.56,2.06,3.62,2.11,6.19,0,2.28-.63,4.32-1.89,6.12-1.26,1.8-3.05,3.2-5.35,4.22-2.31,1.02-5.01,1.53-8.12,1.53s-5.99-.57-8.49-1.71Z"/>
        <path class="cls-2" d="M170.71,54.5h-30.66c.24,3.2,1.43,5.78,3.57,7.72,2.13,1.94,4.76,2.91,7.87,2.91,4.47,0,7.62-1.87,9.47-5.61h8.96c-1.22,3.69-3.41,6.71-6.59,9.07-3.18,2.36-7.13,3.53-11.84,3.53-3.84,0-7.27-.86-10.31-2.59-3.04-1.72-5.42-4.15-7.14-7.28-1.72-3.13-2.59-6.76-2.59-10.89s.84-7.76,2.51-10.89c1.68-3.13,4.03-5.55,7.06-7.25,3.03-1.7,6.52-2.55,10.45-2.55s7.16.83,10.12,2.48c2.96,1.65,5.27,3.97,6.92,6.96,1.65,2.99,2.48,6.42,2.48,10.31,0,1.51-.1,2.87-.29,4.08ZM162.33,47.8c-.05-3.06-1.14-5.51-3.28-7.36-2.14-1.85-4.79-2.77-7.94-2.77-2.87,0-5.32.91-7.36,2.73-2.04,1.82-3.25,4.29-3.64,7.39h22.22Z"/>
        <path class="cls-2" d="M193.58,51.44l18.5,20.03h-11.22l-14.86-17.26v17.26h-8.3V17.57h8.3v31.32l14.57-17.55h11.51l-18.5,20.1Z"/>
        <path class="cls-2" d="M252.94,31.34v40.13h-8.3v-4.73c-1.31,1.65-3.02,2.95-5.14,3.9-2.11.95-4.36,1.42-6.74,1.42-3.16,0-5.99-.66-8.49-1.97-2.5-1.31-4.47-3.25-5.9-5.83-1.43-2.57-2.15-5.68-2.15-9.32v-23.6h8.23v22.36c0,3.59.9,6.35,2.7,8.27,1.8,1.92,4.25,2.88,7.36,2.88s5.57-.96,7.39-2.88c1.82-1.92,2.73-4.67,2.73-8.27v-22.36h8.3Z"/>
        <path class="cls-2" d="M275.56,32.4c2.01-1.14,4.41-1.71,7.17-1.71v8.59h-2.11c-3.25,0-5.72.83-7.39,2.48-1.68,1.65-2.51,4.52-2.51,8.59v21.12h-8.3V31.34h8.3v5.83c1.21-2.04,2.83-3.63,4.84-4.77Z"/>
        <path class="cls-2" d="M288.67,40.52c1.68-3.11,3.96-5.52,6.85-7.25,2.89-1.72,6.11-2.59,9.65-2.59,2.62,0,5.21.57,7.76,1.71,2.55,1.14,4.58,2.66,6.08,4.55v-19.37h8.38v53.9h-8.38v-6.05c-1.36,1.94-3.24,3.55-5.65,4.81-2.4,1.26-5.16,1.89-8.27,1.89-3.5,0-6.69-.89-9.58-2.66-2.89-1.77-5.17-4.25-6.85-7.43-1.68-3.18-2.51-6.79-2.51-10.82s.84-7.6,2.51-10.71ZM317.29,44.16c-1.14-2.04-2.63-3.59-4.48-4.66-1.85-1.07-3.84-1.6-5.97-1.6s-4.13.52-5.97,1.57c-1.85,1.04-3.34,2.57-4.48,4.59-1.14,2.02-1.71,4.41-1.71,7.17s.57,5.2,1.71,7.28c1.14,2.09,2.65,3.68,4.52,4.77,1.87,1.09,3.85,1.64,5.94,1.64s4.13-.53,5.97-1.6c1.84-1.07,3.34-2.63,4.48-4.7,1.14-2.06,1.71-4.48,1.71-7.25s-.57-5.17-1.71-7.21Z"/>
      </g>
      <path class="cls-1" d="M77.6,12.37v27.12c0,.81-.02,1.63-.06,2.45l-6.83-3.2-19.73-9.25c.02-.18.02-.37.02-.54,0-6.74-5.46-12.19-12.19-12.19h-.03c-3.15.02-6.02,1.21-8.18,3.18-2.39,2.17-3.91,5.28-3.98,8.75v.29c0,6.72,5.44,12.16,12.16,12.16h.03c3.06,0,5.84-1.13,7.99-2.99h0l13.76,6.45,15.69,7.35c-4.3,19.78-18.66,35.82-37.45,42.48-.02,0-.03,0-.03-.01C20.41,87.9,6.29,72.43,1.65,53.26l24.99,11.71c-.02.12-.02.25-.02.36,0,6.72,5.44,12.18,12.16,12.19h.03c3.1,0,5.93-1.15,8.07-3.06,2.42-2.14,3.98-5.23,4.1-8.7,0-.01,0-.02,0-.03.8-6.74-4.73-12.58-11.52-12.58h-.69c-3.11.01-5.95,1.16-8.09,3.1L.05,41.89c-.03-.8-.05-1.6-.05-2.4V12.37h.04c4.78-2.73,10.38-5.54,16.79-8.11.08-.03.16-.06.24-.1,13.94-5.55,29.53-5.55,43.48,0,.08.03.16.06.24.1,6.41,2.57,12.01,5.38,16.79,8.11h.02ZM38.81,68.13c1.54,0,2.8-1.25,2.8-2.8s-1.26-2.79-2.8-2.79h-.03c-1.53,0-2.77,1.26-2.77,2.79s1.24,2.79,2.77,2.8h.03ZM38.78,26.15c-1.53.01-2.77,1.27-2.77,2.8s1.24,2.78,2.77,2.8h.03c1.54,0,2.8-1.26,2.8-2.8s-1.26-2.8-2.8-2.8h-.03Z"/>
    </g>
  </g>
</svg>