<svg id="logo-negative" xmlns="http://www.w3.org/2000/svg" width="267.461" height="41.602" viewBox="0 0 267.461 41.602">
  <path id="Path_210" data-name="Path 210" d="M27.055,37.323,51.615,9.051,41.538.3,8.227,38.65a13.387,13.387,0,0,0,18.828-1.327Z" transform="translate(7.692 -0.3)" fill="#fff"/>
  <path id="Path_211" data-name="Path 211" d="M12.329,26.349,22.662,14.458A16.624,16.624,0,0,0,10.954,10.2,15.346,15.346,0,0,0,0,15.566Z" transform="translate(0 8.945)" fill="#fff"/>
  <path id="Path_212" data-name="Path 212" d="M50.136,6.9V32.8h6.816V6.9Z" transform="translate(46.876 5.875)" fill="#fff"/>
  <path id="Path_213" data-name="Path 213" d="M63.339,14.329c0-1.448,1.619-2.58,4.077-2.58a11.477,11.477,0,0,1,6.657,2.142l3.4-4.053a16.552,16.552,0,0,0-10.1-3.25c-6.816,0-10.613,3.809-10.613,8.154,0,10.187,15.384,6.694,15.384,10.954,0,1.606-1.387,2.787-4.345,2.787a15,15,0,0,1-7.534-2.422l-3.651,4.26a17.916,17.916,0,0,0,10.868,3.42c7.181,0,11.209-3.651,11.209-8.313C78.686,14.974,63.339,18.187,63.339,14.329Z" transform="translate(52.927 5.578)" fill="#fff"/>
  <path id="Path_214" data-name="Path 214" d="M86.246,6.9V32.8h6.816V6.9Z" transform="translate(80.637 5.875)" fill="#fff"/>
  <path id="Path_215" data-name="Path 215" d="M135.072,20.837c0-8.52-5.257-14.264-12.974-14.264a13.18,13.18,0,0,0-13.388,13.57c0,8.313,5.952,13.619,13.839,13.619a16.187,16.187,0,0,0,10.637-3.554L129,26.7a11.708,11.708,0,0,1-5.695,1.643c-4.394,0-7.036-2.738-7.461-6h19.253Zm-19.363-3.1a6.243,6.243,0,0,1,6.389-5.745,6,6,0,0,1,6.378,5.745Z" transform="translate(101.634 5.563)" fill="#fff"/>
  <path id="Path_216" data-name="Path 216" d="M109.484,6.9h-6.815V32.8h6.815Z" transform="translate(95.992 5.875)" fill="#fff"/>
  <path id="Path_217" data-name="Path 217" d="M106.471,1.482V7.433s-3.9-.268-5.064.5a3.3,3.3,0,0,0-1.1,2.909v1.132h6.171v5.964h-6.171V37.872H93.435V10.841c0-5.428,3.408-9.116,8.215-9.359Z" transform="translate(87.359 0.805)" fill="#fff"/>
  <path id="Path_218" data-name="Path 218" d="M88.267,35.828,80.746,25.763l-3.189,3.359v6.706H70.742V3.673h6.816v17.66L87.294,9.917h8.434L85.6,21.552,96.264,35.828Z" transform="translate(66.141 2.854)" fill="#fff"/>
  <path id="Path_219" data-name="Path 219" d="M50.136,6.9V32.8h6.816V6.9Z" transform="translate(46.876 5.875)" fill="#fff"/>
  <path id="Path_220" data-name="Path 220" d="M63.339,14.329c0-1.448,1.619-2.58,4.077-2.58a11.477,11.477,0,0,1,6.657,2.142l3.4-4.053a16.552,16.552,0,0,0-10.1-3.25c-6.816,0-10.613,3.809-10.613,8.154,0,10.187,15.384,6.694,15.384,10.954,0,1.606-1.387,2.787-4.345,2.787a15,15,0,0,1-7.534-2.422l-3.651,4.26a17.916,17.916,0,0,0,10.868,3.42c7.181,0,11.209-3.651,11.209-8.313C78.686,14.974,63.339,18.187,63.339,14.329Z" transform="translate(52.927 5.578)" fill="#fff"/>
  <path id="Path_221" data-name="Path 221" d="M86.246,6.9V32.8h6.816V6.9Z" transform="translate(80.637 5.875)" fill="#fff"/>
  <path id="Path_222" data-name="Path 222" d="M135.072,20.837c0-8.52-5.257-14.264-12.974-14.264a13.18,13.18,0,0,0-13.388,13.57c0,8.313,5.952,13.619,13.839,13.619a16.187,16.187,0,0,0,10.637-3.554L129,26.7a11.708,11.708,0,0,1-5.695,1.643c-4.394,0-7.036-2.738-7.461-6h19.253Zm-19.363-3.1a6.243,6.243,0,0,1,6.389-5.745,6,6,0,0,1,6.378,5.745Z" transform="translate(101.634 5.563)" fill="#fff"/>
  <path id="Path_223" data-name="Path 223" d="M109.484,6.9h-6.815V32.8h6.815Z" transform="translate(95.992 5.875)" fill="#fff"/>
  <path id="Path_224" data-name="Path 224" d="M106.471,1.482V7.433s-3.9-.268-5.064.5a3.3,3.3,0,0,0-1.1,2.909v1.132h6.171v5.964h-6.171V37.872H93.435V10.841c0-5.428,3.408-9.116,8.215-9.359Z" transform="translate(87.359 0.805)" fill="#fff"/>
  <path id="Path_225" data-name="Path 225" d="M88.267,35.828,80.746,25.763l-3.189,3.359v6.706H70.742V3.673h6.816v17.66L87.294,9.917h8.434L85.6,21.552,96.264,35.828Z" transform="translate(66.141 2.854)" fill="#fff"/>
  <path id="Path_226" data-name="Path 226" d="M151.358,24.941V1.476a6.813,6.813,0,0,0-6.815,6.816L144.4,13.16a13.387,13.387,0,0,0-6.633-1.789,13.584,13.584,0,1,0,13.57,14.106v-.536Zm-13.6,7.388a7.381,7.381,0,1,1,2.829-.559A7.388,7.388,0,0,1,137.763,32.328Z" transform="translate(116.102 0.799)" fill="#fff"/>
  <path id="Path_227" data-name="Path 227" d="M38.582,13.714v19.12H45.4V6.9a6.815,6.815,0,0,0-6.816,6.815Z" transform="translate(36.073 5.87)" fill="#fff"/>
  <path id="Path_228" data-name="Path 228" d="M43.356,6.9v8.045a8.519,8.519,0,0,0,5.9-2.288A7.85,7.85,0,0,0,51.693,6.9Z" transform="translate(40.536 5.87)" fill="#fff"/>
</svg>
