<svg id="vengreso" xmlns="http://www.w3.org/2000/svg" width="230.995" height="69.429" viewBox="0 0 230.995 69.429">
  <g id="Group_30" data-name="Group 30">
    <path id="Path_229" data-name="Path 229" d="M0,14.5v.439L33.942,67.594h.079L68.133,14.782H55.944l-3.515,5.25h5.757L34.089,57.6,9.778,19.975H27.724l6.647,9.733,3.3-4.529L30.518,14.5Z" transform="translate(0 1.835)" fill="#fff"/>
    <path id="Path_230" data-name="Path 230" d="M58.164,0,32.1,40.071,22.431,25.482H16.28L31.815,49.568,61.15,5.768Z" transform="translate(2.06)" fill="#fff"/>
  </g>
  <g id="Group_33" data-name="Group 33" transform="translate(72.098 35.711)">
    <g id="Group_31" data-name="Group 31" transform="translate(155.574)">
      <path id="Path_231" data-name="Path 231" d="M205.423,33.322a1.628,1.628,0,0,1-1.656,1.645,1.634,1.634,0,1,1,0-3.267A1.616,1.616,0,0,1,205.423,33.322Zm-2.906,0a1.251,1.251,0,1,0,1.262-1.3A1.253,1.253,0,0,0,202.517,33.322Zm.991.845h-.372V32.545a3.026,3.026,0,0,1,.62-.045.941.941,0,0,1,.563.124.438.438,0,0,1,.158.36.4.4,0,0,1-.338.372v.023a.467.467,0,0,1,.293.394.972.972,0,0,0,.124.406h-.406a1.337,1.337,0,0,1-.124-.394c-.034-.18-.124-.259-.338-.259h-.18v.642Zm.011-.912h.18c.2,0,.372-.068.372-.237,0-.146-.113-.248-.349-.248a.7.7,0,0,0-.2.023v.462Z" transform="translate(-202.1 -31.7)" fill="#fff"/>
    </g>
    <g id="Group_32" data-name="Group 32" transform="translate(0 0.079)">
      <path id="Path_232" data-name="Path 232" d="M82.734,32.26,76.358,50.014H70.32L64,32.26h5.813l3.639,11.75,3.594-11.75h5.689Z" transform="translate(-64 -31.708)" fill="#fff"/>
      <path id="Path_233" data-name="Path 233" d="M91.777,50.549q-5.036,0-7.705-2.4A8.707,8.707,0,0,1,81.39,41.3a9.57,9.57,0,0,1,2.5-6.939,9.273,9.273,0,0,1,6.984-2.591q4.072,0,6.14,2.2a8.851,8.851,0,0,1,2.05,6.3v1.994H86.933a5.129,5.129,0,0,0,.518,2.062,3.594,3.594,0,0,0,1.172,1.318,4.57,4.57,0,0,0,1.656.7,9.154,9.154,0,0,0,2.073.214,8.2,8.2,0,0,0,1.893-.214,9.249,9.249,0,0,0,1.712-.563,12.04,12.04,0,0,0,1.262-.653c.383-.237.7-.439.935-.62h.586v4.574c-.451.18-.867.349-1.239.5a10.561,10.561,0,0,1-1.543.462A15.957,15.957,0,0,1,94.1,50.4,15.057,15.057,0,0,1,91.777,50.549ZM93.6,38.912a4.279,4.279,0,0,0-.811-2.67,2.887,2.887,0,0,0-2.343-.912,3.318,3.318,0,0,0-2.523.969,3.981,3.981,0,0,0-1,2.625H93.6Z" transform="translate(-61.8 -31.77)" fill="#fff"/>
      <path id="Path_234" data-name="Path 234" d="M117.529,50.07h-5.565V41.26c0-.721-.034-1.431-.09-2.14a4.858,4.858,0,0,0-.327-1.577,1.7,1.7,0,0,0-.822-.856,3.4,3.4,0,0,0-1.442-.259,4.27,4.27,0,0,0-1.374.248,6.562,6.562,0,0,0-1.487.811V50.07H100.89V32.316h5.531v1.96a13.471,13.471,0,0,1,2.647-1.8,6.312,6.312,0,0,1,2.85-.653,5.131,5.131,0,0,1,4.157,1.712,7.572,7.572,0,0,1,1.442,4.968V50.07Z" transform="translate(-59.332 -31.764)" fill="#fff"/>
      <path id="Path_235" data-name="Path 235" d="M136.675,48.028a11.01,11.01,0,0,1-.71,4.191,6.443,6.443,0,0,1-1.949,2.692,7.826,7.826,0,0,1-2.951,1.419,15.489,15.489,0,0,1-3.83.439,24.45,24.45,0,0,1-3.357-.225,26.934,26.934,0,0,1-2.76-.529V51.577h.653c.27.1.6.225.969.349s.755.237,1.127.349c.451.113.89.214,1.329.282a7.386,7.386,0,0,0,1.329.113,8.087,8.087,0,0,0,2.343-.293,2.994,2.994,0,0,0,1.419-.834,3.131,3.131,0,0,0,.665-1.307,7.962,7.962,0,0,0,.191-1.893v-.327a7.232,7.232,0,0,1-2.163,1.318,6.757,6.757,0,0,1-2.523.5,6.53,6.53,0,0,1-5.317-2.242q-1.876-2.247-1.87-6.827a11.5,11.5,0,0,1,.575-3.751,8.53,8.53,0,0,1,1.6-2.828,6.657,6.657,0,0,1,2.377-1.735,7.139,7.139,0,0,1,2.9-.608,7.738,7.738,0,0,1,2.433.349,7.875,7.875,0,0,1,1.96.935l.2-.789h5.362V48.028Zm-5.531-3.56V36.425a4.5,4.5,0,0,0-1.014-.315,6.254,6.254,0,0,0-1.205-.124,3.563,3.563,0,0,0-3,1.284,5.752,5.752,0,0,0-1,3.594,10.655,10.655,0,0,0,.146,1.949,3.755,3.755,0,0,0,.563,1.419,2.536,2.536,0,0,0,1.036.912,3.809,3.809,0,0,0,1.633.3,4.4,4.4,0,0,0,1.464-.248A5.219,5.219,0,0,0,131.144,44.468Z" transform="translate(-57.007 -31.761)" fill="#fff"/>
      <path id="Path_236" data-name="Path 236" d="M150.639,37.493h-.462a4.276,4.276,0,0,0-.912-.169c-.406-.034-.845-.056-1.329-.056a7.161,7.161,0,0,0-1.825.248,18.863,18.863,0,0,0-1.859.6V50H138.72V32.266h5.531v2.546c.248-.237.608-.529,1.048-.879a10.1,10.1,0,0,1,1.228-.845,6.957,6.957,0,0,1,1.4-.62,5,5,0,0,1,1.51-.259c.18,0,.383,0,.6.011s.417.023.6.045v5.227Z" transform="translate(-54.546 -31.714)" fill="#fff"/>
      <path id="Path_237" data-name="Path 237" d="M161.847,50.549q-5.036,0-7.706-2.4A8.707,8.707,0,0,1,151.46,41.3a9.57,9.57,0,0,1,2.5-6.939,9.273,9.273,0,0,1,6.984-2.591q4.072,0,6.14,2.2a8.851,8.851,0,0,1,2.05,6.3v1.994H157.014a5.129,5.129,0,0,0,.518,2.062,3.594,3.594,0,0,0,1.172,1.318,4.57,4.57,0,0,0,1.656.7,9.154,9.154,0,0,0,2.073.214,8.2,8.2,0,0,0,1.893-.214,9.249,9.249,0,0,0,1.712-.563,12.039,12.039,0,0,0,1.262-.653c.383-.237.7-.439.935-.62h.586v4.574c-.451.18-.867.349-1.239.5a10.562,10.562,0,0,1-1.543.462,15.957,15.957,0,0,1-1.859.372A16.921,16.921,0,0,1,161.847,50.549Zm1.836-11.637a4.279,4.279,0,0,0-.811-2.67,2.887,2.887,0,0,0-2.343-.912,3.318,3.318,0,0,0-2.523.969,3.981,3.981,0,0,0-1,2.625h6.68Z" transform="translate(-52.934 -31.77)" fill="#fff"/>
      <path id="Path_238" data-name="Path 238" d="M176.81,50.554a15.693,15.693,0,0,1-3.706-.428,14.214,14.214,0,0,1-2.884-.991V44.46h.462c.259.2.563.417.9.665a7.5,7.5,0,0,0,1.408.755,9.893,9.893,0,0,0,1.746.62,8.365,8.365,0,0,0,2.107.259,5.565,5.565,0,0,0,2.062-.36,1.218,1.218,0,0,0,.89-1.149,1.1,1.1,0,0,0-.417-.935,4.411,4.411,0,0,0-1.6-.6c-.417-.1-.958-.214-1.6-.338a15.306,15.306,0,0,1-1.712-.417,6.411,6.411,0,0,1-3.143-1.926,5.083,5.083,0,0,1-1.048-3.346,4.874,4.874,0,0,1,.541-2.242,5.68,5.68,0,0,1,1.6-1.87,8.208,8.208,0,0,1,2.614-1.284,12.062,12.062,0,0,1,3.515-.473,14.942,14.942,0,0,1,3.436.372,12.6,12.6,0,0,1,2.636.89v4.495h-.439a9.484,9.484,0,0,0-.9-.6,11.443,11.443,0,0,0-1.205-.642,8.115,8.115,0,0,0-1.555-.518,7.673,7.673,0,0,0-1.769-.2,4.581,4.581,0,0,0-2.028.406,1.241,1.241,0,0,0-.834,1.093,1.139,1.139,0,0,0,.417.946,4.634,4.634,0,0,0,1.791.676c.473.113,1.025.225,1.633.338a12.858,12.858,0,0,1,1.78.451,6.056,6.056,0,0,1,2.906,1.814,4.838,4.838,0,0,1,.991,3.166,5.048,5.048,0,0,1-.586,2.377,5.47,5.47,0,0,1-1.656,1.9,8.479,8.479,0,0,1-2.681,1.3A12.926,12.926,0,0,1,176.81,50.554Z" transform="translate(-50.56 -31.764)" fill="#fff"/>
      <path id="Path_239" data-name="Path 239" d="M204.55,41.2a9.63,9.63,0,0,1-2.4,6.906,10.329,10.329,0,0,1-13.53,0A9.55,9.55,0,0,1,186.21,41.2a9.552,9.552,0,0,1,2.411-6.928,10.364,10.364,0,0,1,13.53.023A9.593,9.593,0,0,1,204.55,41.2Zm-5.678.034a11.494,11.494,0,0,0-.259-2.636,4.736,4.736,0,0,0-.721-1.679,2.717,2.717,0,0,0-1.1-.924,3.65,3.65,0,0,0-1.408-.259,3.844,3.844,0,0,0-1.341.225,2.655,2.655,0,0,0-1.1.879,4.623,4.623,0,0,0-.755,1.69,10.759,10.759,0,0,0-.282,2.7,10.522,10.522,0,0,0,.27,2.636,4.807,4.807,0,0,0,.7,1.6,2.668,2.668,0,0,0,1.1.9,3.668,3.668,0,0,0,1.476.282,3.506,3.506,0,0,0,1.352-.282,2.533,2.533,0,0,0,1.1-.856,4.953,4.953,0,0,0,.744-1.633A12.326,12.326,0,0,0,198.872,41.233Z" transform="translate(-48.537 -31.77)" fill="#fff"/>
    </g>
  </g>
</svg>
