<svg id="deribit" xmlns="http://www.w3.org/2000/svg" width="189.823" height="54.135" viewBox="0 0 189.823 54.135">
  <g id="Group_37" data-name="Group 37" transform="translate(0 0)">
    <g id="Group_36" data-name="Group 36" transform="translate(0)">
      <g id="Group_34" data-name="Group 34" transform="translate(0)">
        <path id="Path_240" data-name="Path 240" d="M9.022,45.113H0V36.09H9.022V18.046H0V9.022H9.022V0h9.024V9.022h9.022V0H36.09V9.022a18.046,18.046,0,1,1,0,36.091v9.022H27.068V45.113H18.046v9.022H9.022Zm9.024-9.024H36.09a9.022,9.022,0,1,0,0-18.044H18.046Z" transform="translate(0)" fill="#fff"/>
      </g>
      <g id="Group_35" data-name="Group 35" transform="translate(63.157 10.225)">
        <path id="Path_241" data-name="Path 241" d="M373.9,62.795a11.94,11.94,0,0,1,5.013,4.761,14.136,14.136,0,0,1,1.78,7.168,13.881,13.881,0,0,1-1.78,7.119,11.977,11.977,0,0,1-5.013,4.711,16.289,16.289,0,0,1-7.518,1.68H356.9V61.14h9.474A16.284,16.284,0,0,1,373.9,62.795Zm-1.1,18.5a8.87,8.87,0,0,0,2.329-6.567,9.026,9.026,0,0,0-2.329-6.615,8.752,8.752,0,0,0-6.593-2.382h-3.833V83.647H366.2A9.051,9.051,0,0,0,372.794,81.291Zm31.828-2.181H388.884a5.371,5.371,0,0,0,1.629,3.659,5.033,5.033,0,0,0,3.534,1.328,4.442,4.442,0,0,0,4.31-2.605h5.864a9.705,9.705,0,0,1-3.583,5.111,10.475,10.475,0,0,1-6.491,2.006,11.042,11.042,0,0,1-5.564-1.379,9.6,9.6,0,0,1-3.835-3.91,11.906,11.906,0,0,1-1.379-5.84,12.214,12.214,0,0,1,1.353-5.865,9.482,9.482,0,0,1,3.81-3.884,11.454,11.454,0,0,1,5.64-1.353,11.263,11.263,0,0,1,5.488,1.328,9.06,9.06,0,0,1,3.759,3.759,11.272,11.272,0,0,1,1.33,5.566A10.915,10.915,0,0,1,404.622,79.11Zm-5.488-3.659a4.323,4.323,0,0,0-1.5-3.358,5.279,5.279,0,0,0-3.609-1.254,4.913,4.913,0,0,0-3.409,1.228,5.348,5.348,0,0,0-1.68,3.409ZM416.9,67.38a7.56,7.56,0,0,1,3.86-.976v5.713h-1.43a5.48,5.48,0,0,0-3.859,1.2c-.878.8-1.3,2.206-1.3,4.187V88.232h-5.441V66.73h5.439v3.333a7.778,7.778,0,0,1,2.73-2.683Zm7.894-4.135a3.025,3.025,0,0,1-.952-2.28,3.105,3.105,0,0,1,.952-2.28,3.59,3.59,0,0,1,4.762,0,3.065,3.065,0,0,1,.953,2.28,3.1,3.1,0,0,1-.953,2.28,3.595,3.595,0,0,1-4.762,0Zm5.063,3.485V88.257h-5.439V66.728h5.439Zm13.71.626a8.852,8.852,0,0,1,4.211-.978,9.432,9.432,0,0,1,4.987,1.353,9.773,9.773,0,0,1,3.534,3.861,13.681,13.681,0,0,1,0,11.653,9.82,9.82,0,0,1-3.534,3.935,9.244,9.244,0,0,1-4.987,1.4,9,9,0,0,1-4.211-.952,7.939,7.939,0,0,1-2.883-2.456v3.059h-5.439V59.486h5.439V69.861A7.272,7.272,0,0,1,443.571,67.356Zm7.669,6.691a5.447,5.447,0,0,0-2.1-2.155,5.646,5.646,0,0,0-5.59.025,5.426,5.426,0,0,0-2.1,2.206,7.539,7.539,0,0,0,0,6.767,5.758,5.758,0,0,0,2.1,2.206,5.524,5.524,0,0,0,2.783.751,5.258,5.258,0,0,0,2.807-.778,5.73,5.73,0,0,0,2.1-2.2,6.992,6.992,0,0,0,.8-3.409A6.6,6.6,0,0,0,451.239,74.047Zm10.7-10.8a3.025,3.025,0,0,1-.952-2.28,3.105,3.105,0,0,1,.952-2.28,3.59,3.59,0,0,1,4.762,0,3.058,3.058,0,0,1,.952,2.28,3.1,3.1,0,0,1-.952,2.28,3.595,3.595,0,0,1-4.762,0ZM467,66.73V88.257h-5.439V66.728H467Zm11.7,4.459v10.4a2.073,2.073,0,0,0,.526,1.58,2.576,2.576,0,0,0,1.78.475h2.533v4.586h-3.409c-4.586,0-6.867-2.23-6.867-6.691V71.189h-2.558V66.728h2.558V61.389h5.488V66.7h4.811v4.461h-4.862Z" transform="translate(-356.904 -57.781)" fill="#fff"/>
      </g>
    </g>
  </g>
</svg>
