<svg id="Layer_2" data-name="Layer 2" xmlns="http://www.w3.org/2000/svg" width="203.153" height="57.769" viewBox="0 0 203.153 57.769">
  <g id="Layer_1" data-name="Layer 1" transform="translate(0 0)">
    <path id="Path_203" data-name="Path 203" d="M64.654,22.9A10.984,10.984,0,0,0,55.9,19.061c-3.549,0-6.759,1.588-8.145,4.033l-.169.3V19.647H41.83V55.358h5.914V42.166l.169.237c1.127,1.7,3.785,3.515,7.773,3.515,7.1,0,12.054-5.543,12.054-13.518a14.544,14.544,0,0,0-3.087-9.53M54.729,40.544c-4.022,0-6.951-3.177-6.951-8.111s2.929-8.01,6.951-8.01,6.951,3.188,6.951,8.01-2.861,8.111-6.951,8.111" transform="translate(5.298 2.411)" fill="#fff"/>
    <path id="Path_204" data-name="Path 204" d="M121.63,34.067a11,11,0,0,0,.18-1.87c0-8.224-4.8-13.327-12.527-13.327-6.14,0-12.482,5.047-12.482,13.518a13.744,13.744,0,0,0,3.954,10.139,12.978,12.978,0,0,0,9.159,3.616,11.536,11.536,0,0,0,11.558-8.021l-5.024-1.588a6.365,6.365,0,0,1-6.534,4.506,7.041,7.041,0,0,1-7.142-6.827v-.09ZM109.238,23.928c4.236,0,6.252,2.7,6.354,5.734H102.974a6.207,6.207,0,0,1,6.32-5.734" transform="translate(12.253 2.388)" fill="#fff"/>
    <path id="Path_205" data-name="Path 205" d="M153.635,8.86a3.059,3.059,0,1,0,.056,0" transform="translate(19.079 1.121)" fill="#fff"/>
    <rect id="Rectangle_36" data-name="Rectangle 36" width="5.914" height="25.64" transform="translate(169.785 22.553)" fill="#fff"/>
    <path id="Path_206" data-name="Path 206" d="M92.125,22.9a10.984,10.984,0,0,0-8.764-3.841c-3.537,0-6.759,1.588-8.134,4.033l-.169.3V19.647H69.29V55.358h5.926V42.166l.169.237c1.127,1.7,3.785,3.515,7.773,3.515,7.1,0,12.054-5.543,12.054-13.518a14.544,14.544,0,0,0-3.087-9.53M82.2,40.544c-4.033,0-6.951-3.177-6.951-8.111s2.918-8.01,6.951-8.01,6.939,3.188,6.939,8.01-2.85,8.111-6.939,8.111" transform="translate(8.773 2.411)" fill="#fff"/>
    <path id="Path_207" data-name="Path 207" d="M149.081,8.86h-5.847V24.789l-.169-.36c-.417-.856-2.185-3.661-7.5-3.661-6.962,0-12.212,5.779-12.212,13.428a14.42,14.42,0,0,0,3.38,9.677,11.626,11.626,0,0,0,8.922,3.864,8.381,8.381,0,0,0,7.582-3.965l.068-.124v3.38h5.914V8.86ZM136.4,42.386c-4.191,0-6.951-3.289-6.951-8.224s2.963-8.066,7-8.066,6.759,3.087,6.759,8.01-2.816,8.28-6.838,8.28" transform="translate(15.612 1.121)" fill="#fff"/>
    <path id="Path_208" data-name="Path 208" d="M182.856,28.469c-.1-3.042-1.476-9.159-10.882-9.159-6.759,0-10.6,4.27-11.063,8.269l5.441,1.228a5.036,5.036,0,0,1,5.385-4.641c3.109,0,4.968,1.5,4.968,4.01,0,1.127-.653,1.757-1.994,1.949l-6.624,1c-4.833.7-7.717,3.582-7.717,7.717,0,4.991,4.506,7.694,8.652,7.694a8.9,8.9,0,0,0,7.886-4.044v3.244h5.914V28.469Zm-6.241,6.658c0,5.036-2.974,6.68-6.421,6.68a3.38,3.38,0,0,1-3.763-3.38c0-2.118,1.532-3.177,3.447-3.492l6.759-1.014Z" transform="translate(20.297 2.443)" fill="#fff"/>
    <path id="Path_209" data-name="Path 209" d="M34.563,48.058a7.48,7.48,0,0,1-7.525-7.108l-1.51-10.995A6.556,6.556,0,0,0,21.2,24.378c-4.923,17.551-4.923,17.551-4.979,17.7a8.043,8.043,0,0,1-5.745,5.238,8.4,8.4,0,0,1-7.807-2.14,9.193,9.193,0,0,1-1.363-1.667,8.843,8.843,0,0,1-.969-7.075v-.113l2.749-8.787C5.464,19.838,12.1,17.856,16.9,17.856h.056l2.2-7.818c.484-1.724.811-2.884.822-2.94A9.463,9.463,0,0,1,29.065,0c3.6,0,8.224,2.422,9.136,9.249l3.864,31.014v.293a7.514,7.514,0,0,1-7.5,7.5M31.352,29.29,32.9,40.555a1.69,1.69,0,0,0,1.667,1.622,1.667,1.667,0,0,0,1.656-1.6L32.4,9.992c-.5-3.74-2.49-4.146-3.38-4.146a3.56,3.56,0,0,0-3.458,2.9l-2.805,9.992a12.516,12.516,0,0,1,8.6,10.556M15.321,23.8A7.537,7.537,0,0,0,8.7,29.29L5.96,38.043a2.94,2.94,0,0,0,.293,2.343,3.086,3.086,0,0,0,.451.563,2.636,2.636,0,0,0,2.411.631,2.253,2.253,0,0,0,1.6-1.386c.124-.417.867-3.075,4.608-16.391" transform="translate(0.005 0)" fill="#fff"/>
  </g>
</svg>
