<svg id="flatfile" xmlns="http://www.w3.org/2000/svg" width="244.802" height="56.646" viewBox="0 0 244.802 56.646">
  <path id="Path_242" data-name="Path 242" d="M13.943,30.969a3.621,3.621,0,0,1-2.565,1.062H2.714A2.721,2.721,0,0,1,0,29.307V2.714A2.72,2.72,0,0,1,2.714,0H18.6a2.72,2.72,0,0,1,2.714,2.714V22.1a3.624,3.624,0,0,1-1.059,2.558l-3.158,3.155Z" transform="translate(0)" fill="#fff"/>
  <path id="Path_243" data-name="Path 243" d="M14.815,13.943a3.621,3.621,0,0,1-1.059-2.565V2.714A2.72,2.72,0,0,1,16.47,0H43.088A2.713,2.713,0,0,1,45.8,2.714V18.6a2.714,2.714,0,0,1-2.714,2.714h-19.4a3.619,3.619,0,0,1-2.562-1.059L17.969,17.1Z" transform="translate(10.7)" fill="#fff"/>
  <path id="Path_244" data-name="Path 244" d="M27.155,14.907a3.621,3.621,0,0,1,2.558-1.062H38.4a2.72,2.72,0,0,1,2.717,2.714v26.6A2.72,2.72,0,0,1,38.4,45.877H22.5a2.721,2.721,0,0,1-2.717-2.717V23.772a3.621,3.621,0,0,1,1.062-2.558L24,18.059Z" transform="translate(15.389 10.769)" fill="#fff"/>
  <path id="Path_245" data-name="Path 245" d="M30.969,27.243A3.62,3.62,0,0,1,32.031,29.8v8.672a2.721,2.721,0,0,1-2.724,2.714H2.714A2.72,2.72,0,0,1,0,38.473V22.588a2.713,2.713,0,0,1,2.714-2.714H22.1a3.608,3.608,0,0,1,2.558,1.059l3.155,3.155Z" transform="translate(0 15.459)" fill="#fff"/>
  <path id="Path_246" data-name="Path 246" d="M92.84,33.1h-.017c-.366.265-.69.479-.921.638a6.932,6.932,0,0,1-.61.345,1.381,1.381,0,0,1-.455.148,3.925,3.925,0,0,1-.507.028,1.5,1.5,0,0,1-1.514-.983,11.194,11.194,0,0,1-.407-3.7V21.218a19.824,19.824,0,0,0-.231-3.448,6.851,6.851,0,0,0-.852-2.234c-1.379-2.179-4.065-3.282-8.016-3.282a13.859,13.859,0,0,0-6.9,1.462,4.533,4.533,0,0,0-2.551,4.034,2.978,2.978,0,0,0,.8,2.162,2.721,2.721,0,0,0,2.038.824,3,3,0,0,0,2.162-.8,2.724,2.724,0,0,0,.824-2.038A2.393,2.393,0,0,0,75,16.139a7.3,7.3,0,0,1-.534-.558.3.3,0,0,1-.072-.193.754.754,0,0,1,.324-.569,3.349,3.349,0,0,1,.862-.51,5.914,5.914,0,0,1,1.224-.345,7.614,7.614,0,0,1,1.4-.128c2.331,0,3.907.69,4.682,2.086a5.344,5.344,0,0,1,.41.917,7.358,7.358,0,0,1,.255,1.093c.066.424.117.941.152,1.586s.069,1.441.1,2.307l-4.786.865L77.08,23c-.976.176-1.779.345-2.455.486a11.872,11.872,0,0,0-1.793.538,9.073,9.073,0,0,0-1.358.665,10.659,10.659,0,0,0-1.155.821,6.113,6.113,0,0,0-1.848,4.724,6.914,6.914,0,0,0,1.876,5.1,6.963,6.963,0,0,0,5.12,1.872,9.157,9.157,0,0,0,4.341-1.034,15.333,15.333,0,0,0,4-3.348,13.655,13.655,0,0,0,.452,1.624,4.88,4.88,0,0,0,.569,1.034,3.664,3.664,0,0,0,1.314,1.134,3.549,3.549,0,0,0,1.627.41,5.539,5.539,0,0,0,2.7-.721,14.655,14.655,0,0,0,3-2.355l-.624-.835Zm-8.965-9.654V27.41a8.11,8.11,0,0,1-.814,4.031,5.646,5.646,0,0,1-2.2,2.127,6.151,6.151,0,0,1-3.007.79,4.482,4.482,0,0,1-3.334-1.272,4.685,4.685,0,0,1-1.248-3.41,4.472,4.472,0,0,1,3.055-4.534,18.211,18.211,0,0,1,2.81-.807c1.176-.255,2.758-.555,4.72-.89Z" transform="translate(53.259 9.531)" fill="#fff"/>
  <path id="Path_247" data-name="Path 247" d="M99.832,36.981h-.021a20.946,20.946,0,0,1-2.12.714,5.949,5.949,0,0,1-1.5.207,3.538,3.538,0,0,1-2.858-1.134,5.231,5.231,0,0,1-.955-3.41V18.914h7.11V17.235h-7.11v-9.5h-1.1L87.94,11.063v6.172H82.155v1.679h5.779V35.119a6.073,6.073,0,0,0,1.283,4.207,4.987,4.987,0,0,0,3.851,1.4,10.749,10.749,0,0,0,3.383-.562,21.245,21.245,0,0,0,3.944-1.9h.017l-.572-1.248Z" transform="translate(63.903 6.015)" fill="#fff"/>
  <path id="Path_248" data-name="Path 248" d="M110.447,13.487a3,3,0,0,0,2.213-.876,3.041,3.041,0,0,0-2.162-5.2,2.989,2.989,0,0,0-2.139.876,2.859,2.859,0,0,0-.917,2.114,3.056,3.056,0,0,0,.876,2.189,2.852,2.852,0,0,0,2.128.9Z" transform="translate(83.572 5.763)" fill="#fff"/>
  <path id="Path_249" data-name="Path 249" d="M145.907,30.917a21.53,21.53,0,0,1-1.989,1.865,9.351,9.351,0,0,1-1.838,1.172,7.65,7.65,0,0,1-1.913.614,13.124,13.124,0,0,1-2.274.176,7.569,7.569,0,0,1-6.475-2.889,8.1,8.1,0,0,1-1.3-2.92,20.608,20.608,0,0,1-.382-4.482h18.143v-.024a26.114,26.114,0,0,0-.459-4.272,10.534,10.534,0,0,0-1.127-3,8.99,8.99,0,0,0-3.9-3.638,12.939,12.939,0,0,0-5.84-1.283,13.455,13.455,0,0,0-4.969.872,10.515,10.515,0,0,0-3.741,2.458,10.926,10.926,0,0,0-2.379,3.92,14.832,14.832,0,0,0-.859,5.13,15.209,15.209,0,0,0,.859,5.189,11.4,11.4,0,0,0,2.382,3.972,10.513,10.513,0,0,0,3.741,2.534,12.975,12.975,0,0,0,4.917.9,15.065,15.065,0,0,0,3.024-.286,10.832,10.832,0,0,0,2.637-.917,13.385,13.385,0,0,0,2.459-1.607,19.2,19.2,0,0,0,2.43-2.414v-.017l-1.141-1.034ZM136.394,13.84a5.413,5.413,0,0,1,4.688,2.048c.983,1.358,1.6,3.682,1.835,6.9H129.769c.238-3.227.873-5.551,1.886-6.9A5.583,5.583,0,0,1,136.394,13.84Z" transform="translate(96.924 9.517)" fill="#fff"/>
  <path id="Path_250" data-name="Path 250" d="M69.267,39.764a1.819,1.819,0,0,1-1.01-.755,3.477,3.477,0,0,1-.431-1.448,23.474,23.474,0,0,1-.1-2.5V5.578L58.8,7.729h-.017V9.391H58.8A10.64,10.64,0,0,1,61,9.67a2.62,2.62,0,0,1,1.345.783A3.242,3.242,0,0,1,63,12.025a15.387,15.387,0,0,1,.179,2.6v20.45c0,1.01-.024,1.841-.076,2.475a3.1,3.1,0,0,1-.431,1.469,1.955,1.955,0,0,1-1.034.759,13.8,13.8,0,0,1-1.862.435l-1.248.1v1.548H72.394V40.291l-1.245-.107A13.968,13.968,0,0,1,69.267,39.764Z" transform="translate(45.524 4.339)" fill="#fff"/>
  <path id="Path_251" data-name="Path 251" d="M116.455,34.86a1.829,1.829,0,0,1-1.01-.755,3.521,3.521,0,0,1-.432-1.448,23.472,23.472,0,0,1-.1-2.5V11.883l-8.923,2.131h-.018v1.662h.021a10.466,10.466,0,0,1,2.192.276,2.63,2.63,0,0,1,1.346.786,3.236,3.236,0,0,1,.651,1.569,15.333,15.333,0,0,1,.18,2.6v9.251c0,1.01-.023,1.845-.076,2.476a3.081,3.081,0,0,1-.43,1.469,1.94,1.94,0,0,1-1.035.759,13.818,13.818,0,0,1-1.861.435l-1.228.1h-.03v1.565h13.855V35.387l-1.246-.107A13.95,13.95,0,0,1,116.455,34.86Z" transform="translate(82.215 9.243)" fill="#fff"/>
  <path id="Path_252" data-name="Path 252" d="M126.192,39.764a1.82,1.82,0,0,1-1.01-.755,3.463,3.463,0,0,1-.434-1.448,24.456,24.456,0,0,1-.1-2.5V5.578l-8.923,2.152V9.391h.021a10.677,10.677,0,0,1,2.192.279,2.6,2.6,0,0,1,1.342.783,3.257,3.257,0,0,1,.661,1.572,15.71,15.71,0,0,1,.18,2.6v20.45c0,1.01-.028,1.845-.08,2.475a3.038,3.038,0,0,1-.43,1.469,1.941,1.941,0,0,1-1.035.759,14.066,14.066,0,0,1-1.861.435l-1.229.1h-.02v1.552h13.849V40.291l-1.244-.107A13.976,13.976,0,0,1,126.192,39.764Z" transform="translate(89.813 4.339)" fill="#fff"/>
  <path id="Path_253" data-name="Path 253" d="M111,7.2a6.781,6.781,0,0,0-4-1.1,7.591,7.591,0,0,0-5.862,2.369,9.235,9.235,0,0,0-2.172,6.451c0,.272,0,1.617.024,2.117s.059.983.124,1.493H94.4v1.665h4.651V34.67c0,1.034-.024,1.852-.076,2.479a3.1,3.1,0,0,1-.431,1.472,1.941,1.941,0,0,1-1.034.758,13.846,13.846,0,0,1-1.859.434l-1.227.1H94.4v1.548h14.219V39.887l-1.6-.1a13.927,13.927,0,0,1-1.861-.434,1.939,1.939,0,0,1-1.035-.759,3.077,3.077,0,0,1-.431-1.472c-.052-.624-.076-1.459-.076-2.479V20.189H110V18.51h-6.41a22.6,22.6,0,0,1-1.117-4.482,9.723,9.723,0,0,1,.072-3.482,3.369,3.369,0,0,1,1.8-2.414l.1-.041.053-.017.052-.021.034-.017L104.7,8a3.651,3.651,0,0,1,1.276-.228,3.237,3.237,0,0,1,1.3.255c.382.165.576.345.576.493,0,.093-.1.245-.3.441a2.706,2.706,0,0,0-.825,1.962,2.494,2.494,0,0,0,.777,1.92,2.755,2.755,0,0,0,1.957.724,2.853,2.853,0,0,0,2.213-.979,3.57,3.57,0,0,0,.876-2.472A3.447,3.447,0,0,0,111,7.2Z" transform="translate(73.428 4.74)" fill="#fff"/>
  <path id="Path_254" data-name="Path 254" d="M42.4,6.788V8.467l1.862.207a4.1,4.1,0,0,1,2.8,1.065,3.807,3.807,0,0,1,.345.483,1.867,1.867,0,0,1,.176.655c.034.286.059.648.076,1.072s.024,1,.024,1.724V34.061c0,.714,0,1.29-.024,1.724s-.041.786-.076,1.072a2.068,2.068,0,0,1-.179.69,1.754,1.754,0,0,1-.328.455,4.093,4.093,0,0,1-2.8,1.065l-1.845.207h-.017v1.648H58.666V39.243l-2.376-.207a3.909,3.909,0,0,1-2.8-1.065,1.316,1.316,0,0,1-.3-.455,3.384,3.384,0,0,1-.179-.69,8.682,8.682,0,0,1-.1-1.069c-.017-.407-.024-.969-.024-1.724V26.151h4.444a7.648,7.648,0,0,1,1.3.134,2.9,2.9,0,0,1,1.221.559,3.665,3.665,0,0,1,.886,1.093,8.621,8.621,0,0,1,.69,1.724l.414,1.427h2.027V18.966H61.841l-.327,1.379a14.8,14.8,0,0,1-.707,1.879,3.735,3.735,0,0,1-.841,1.169,2.774,2.774,0,0,1-1.114.61,5.038,5.038,0,0,1-.938.145H52.877V8.919h5.586a24.5,24.5,0,0,1,4.089.283,5.093,5.093,0,0,1,2.479,1.034,4.139,4.139,0,0,1,1.234,2.117A16.6,16.6,0,0,1,66.7,15.8v.021h1.982V6.788Z" transform="translate(32.976 5.28)" fill="#fff"/>
</svg>
