<svg id="security-secure-protection-8-svgrepo-com" xmlns="http://www.w3.org/2000/svg" width="76.715" height="76.714" viewBox="0 0 76.715 76.714">
  <path id="Line_4" data-name="Line 4" d="M64.756,2.653H.827A1.827,1.827,0,1,1,.827-1H64.756a1.827,1.827,0,1,1,0,3.653Z" transform="translate(10.133 43.01)" fill="#fff"/>
  <path id="Path_61" data-name="Path 61" d="M48.745,64.571H26.827a1.827,1.827,0,0,1-1.8-2.127l3.653-21.918A1.826,1.826,0,0,1,30.48,39H45.092a1.827,1.827,0,0,1,1.8,1.526l3.653,21.918a1.827,1.827,0,0,1-1.8,2.127ZM28.983,60.918H46.589L43.545,42.653H32.027Z" transform="translate(0.572 12.143)" fill="#fff"/>
  <g id="Group_20" data-name="Group 20" transform="translate(0 0)">
    <path id="Path_62" data-name="Path 62" d="M80.409,65.8H65.066a1.827,1.827,0,1,1,0-3.653H80.409a3.573,3.573,0,0,0,3.653-3.653V18.306a3.657,3.657,0,0,0-3.653-3.653h-62.1a3.8,3.8,0,0,0-3.653,3.653V58.49a3.657,3.657,0,0,0,3.653,3.653H56.664a1.827,1.827,0,1,1,0,3.653H18.306A7.314,7.314,0,0,1,11,58.49V18.306A7.443,7.443,0,0,1,18.306,11h62.1a7.314,7.314,0,0,1,7.306,7.306V58.49A7.228,7.228,0,0,1,80.409,65.8Z" transform="translate(-11 -11)" fill="#0ec9ac"/>
  </g>
  <path id="Line_5" data-name="Line 5" d="M51.97,2.653H.827A1.827,1.827,0,1,1,.827-1H51.97a1.827,1.827,0,1,1,0,3.653Z" transform="translate(11.959 74.061)" fill="#0ec9ac"/>
  <path id="Rectangle_31" data-name="Rectangle 31" d="M.827-1H19.092A1.827,1.827,0,0,1,20.919.827V15.439a1.827,1.827,0,0,1-1.827,1.827H.827A1.827,1.827,0,0,1-1,15.439V.827A1.827,1.827,0,0,1,.827-1ZM17.265,2.653H2.653V13.612H17.265Z" transform="translate(28.398 19.265)" fill="#fff"/>
  <path id="Path_63" data-name="Path 63" d="M40.786,28.786H29.827A1.827,1.827,0,0,1,28,26.959V23.306a7.306,7.306,0,0,1,14.612,0v3.653A1.827,1.827,0,0,1,40.786,28.786Zm-9.133-3.653h7.306V23.306a3.653,3.653,0,0,0-7.306,0Z" transform="translate(3.051 -6.867)" fill="#fff"/>
  <path id="Line_6" data-name="Line 6" transform="translate(38.357 27.398)" fill="#00b1e4"/>
</svg>
