<svg id="security-secure-protection-27-svgrepo-com" xmlns="http://www.w3.org/2000/svg" width="61.007" height="76.714" viewBox="0 0 61.007 76.714">
  <path id="Path_57" data-name="Path 57" d="M39.935,45.887a17.269,17.269,0,0,1-10.762-3.7,17.854,17.854,0,0,1-6.158-9.327,15.793,15.793,0,0,1-.615-4.325,17.535,17.535,0,1,1,35.07,0,14.7,14.7,0,0,1-.625,4.362,17.855,17.855,0,0,1-6.148,9.29A17.269,17.269,0,0,1,39.935,45.887Zm0-31.234A13.9,13.9,0,0,0,26.053,28.535a12.144,12.144,0,0,0,.478,3.334l.007.025a13.849,13.849,0,0,0,26.794,0l.03-.1a11.186,11.186,0,0,0,.454-3.258A13.734,13.734,0,0,0,39.935,14.653Z" transform="translate(-9.432 -11)" fill="#0ec9ac"/>
  <path id="Path_59" data-name="Path 59" d="M74.48,68.787H65.9a1.827,1.827,0,1,1,0-3.653h6.758V64.4a26.85,26.85,0,0,0-53.7,0v.731h6.758a1.827,1.827,0,0,1,0,3.653H17.127A1.827,1.827,0,0,1,15.3,66.96V64.4a30.5,30.5,0,1,1,61.007,0V66.96A1.827,1.827,0,0,1,74.48,68.787Z" transform="translate(-15.3 7.928)" fill="#0ec9ac"/>
  <path id="Rectangle_30" data-name="Rectangle 30" d="M.827-1H19.092A1.827,1.827,0,0,1,20.919.827V15.439a1.827,1.827,0,0,1-1.827,1.827H.827A1.827,1.827,0,0,1-1,15.439V.827A1.827,1.827,0,0,1,.827-1ZM17.265,2.653H2.653V13.612H17.265Z" transform="translate(20.544 59.449)" fill="#fff"/>
  <path id="Path_60" data-name="Path 60" d="M40.786,50.786H29.827A1.827,1.827,0,0,1,28,48.959V45.306a7.306,7.306,0,0,1,14.612,0v3.653A1.827,1.827,0,0,1,40.786,50.786Zm-9.133-3.653h7.306V45.306a3.653,3.653,0,0,0-7.306,0Z" transform="translate(-4.803 11.316)" fill="#fff"/>
  <path id="Line_3" data-name="Line 3" transform="translate(30.503 67.582)" fill="#0ec9ac"/>
</svg>
