<svg id="security-secure-protection-14-svgrepo-com" xmlns="http://www.w3.org/2000/svg" width="79.263" height="67.939" viewBox="0 0 79.263 67.939">
  <g id="Group_19" data-name="Group 19" transform="translate(0 0)">
    <path id="Path_55" data-name="Path 55" d="M61.955,73.616H18.549A7.469,7.469,0,0,1,11,66.067V24.549A7.469,7.469,0,0,1,18.549,17H82.714a7.469,7.469,0,0,1,7.549,7.549V52.857a1.887,1.887,0,0,1-3.774,0V24.549a3.692,3.692,0,0,0-3.774-3.774H18.549a3.692,3.692,0,0,0-3.774,3.774V66.067a3.692,3.692,0,0,0,3.774,3.774H61.955a1.887,1.887,0,0,1,0,3.774Z" transform="translate(-11 -17)" fill="#0ec9ac"/>
  </g>
  <path id="Line_1" data-name="Line 1" d="M68.827,2.774H.887A1.887,1.887,0,1,1,.887-1h67.94a1.887,1.887,0,0,1,0,3.774Z" transform="translate(8.549 19.872)" fill="#0ec9ac"/>
  <path id="Ellipse_83" data-name="Ellipse 83" d="M2.774-1A3.774,3.774,0,1,1-1,2.774,3.779,3.779,0,0,1,2.774-1Z" transform="translate(10.436 8.549)" fill="#fff"/>
  <path id="Ellipse_84" data-name="Ellipse 84" d="M2.774-1A3.774,3.774,0,1,1-1,2.774,3.779,3.779,0,0,1,2.774-1Z" transform="translate(23.647 8.549)" fill="#fff"/>
  <path id="Ellipse_85" data-name="Ellipse 85" d="M2.774-1A3.774,3.774,0,1,1-1,2.774,3.779,3.779,0,0,1,2.774-1Z" transform="translate(36.857 8.549)" fill="#fff"/>
  <path id="Ellipse_86" data-name="Ellipse 86" d="M2.774-1A3.774,3.774,0,1,1-1,2.774,3.779,3.779,0,0,1,2.774-1Z" transform="translate(50.068 8.549)" fill="#fff"/>
  <path id="Ellipse_87" data-name="Ellipse 87" d="M2.774-1A3.774,3.774,0,1,1-1,2.774,3.779,3.779,0,0,1,2.774-1Z" transform="translate(63.278 8.549)" fill="#fff"/>
  <path id="Rectangle_29" data-name="Rectangle 29" d="M.887-1H19.759A1.887,1.887,0,0,1,21.647.887v15.1a1.887,1.887,0,0,1-1.887,1.887H.887A1.887,1.887,0,0,1-1,15.985V.887A1.887,1.887,0,0,1,.887-1ZM17.872,2.774H2.774V14.1h15.1Z" transform="translate(57.617 50.067)" fill="#fff"/>
  <path id="Path_56" data-name="Path 56" d="M56.211,51.21H44.887A1.887,1.887,0,0,1,43,49.323V45.549a7.549,7.549,0,0,1,15.1,0v3.774A1.887,1.887,0,0,1,56.211,51.21Zm-9.436-3.774h7.549V45.549a3.774,3.774,0,0,0-7.549,0Z" transform="translate(17.391 1.631)" fill="#fff"/>
  <path id="Line_2" data-name="Line 2" transform="translate(67.94 58.503)" fill="#0ec9ac"/>
</svg>
