<svg xmlns="http://www.w3.org/2000/svg" width="86.753" height="76.714" viewBox="0 0 86.753 76.714">
  <g id="teamwork-svgrepo-com" transform="translate(0 -28.35)">
    <g id="Group_21" data-name="Group 21" transform="translate(0 28.35)">
      <path id="Path_55" data-name="Path 55" d="M186.172,242.1a5.6,5.6,0,0,0,3.736-1.434l6.462,3.736a1.757,1.757,0,0,0,1.753-3.045l-6.444-3.718a6.191,6.191,0,0,0,.124-1.151,5.622,5.622,0,0,0-3.86-5.329V223.7a1.753,1.753,0,1,0-3.506,0v7.454a5.586,5.586,0,0,0-3.9,5.311,4.983,4.983,0,0,0,.124,1.151l-6.445,3.718a1.758,1.758,0,0,0,.885,3.275,1.677,1.677,0,0,0,.868-.23l6.462-3.736A5.531,5.531,0,0,0,186.172,242.1Zm0-7.737a2.107,2.107,0,1,1-2.107,2.107A2.1,2.1,0,0,1,186.172,234.361Z" transform="translate(-142.654 -187.674)" fill="#fff"/>
      <path id="Path_56" data-name="Path 56" d="M180.641,65.1a1.745,1.745,0,0,0,1.753-1.753V59.015a4.764,4.764,0,0,0-1.753-3.718,51.347,51.347,0,0,0-8.534-5.577V45.329a4.59,4.59,0,0,0,1.275-3.187V35.8a7.465,7.465,0,0,0-7.454-7.454h-1.363a7.465,7.465,0,0,0-7.454,7.454v6.338a4.59,4.59,0,0,0,1.275,3.187V49.7a52.093,52.093,0,0,0-8.534,5.577A4.79,4.79,0,0,0,148.1,59v4.338a1.753,1.753,0,1,0,3.506,0V59a1.312,1.312,0,0,1,.478-1.009,48.469,48.469,0,0,1,8.658-5.559,2,2,0,0,0,1.133-1.824V44.5a1.757,1.757,0,0,0-.779-1.452,1.134,1.134,0,0,1-.5-.921V35.8a3.952,3.952,0,0,1,3.948-3.948h1.363a3.952,3.952,0,0,1,3.948,3.948v6.321a1.09,1.09,0,0,1-.5.921,1.714,1.714,0,0,0-.779,1.452V50.6a2.027,2.027,0,0,0,1.133,1.824,48.911,48.911,0,0,1,8.658,5.559A1.312,1.312,0,0,1,178.853,59v4.338A1.814,1.814,0,0,0,180.641,65.1Z" transform="translate(-121.879 -28.35)" fill="#0ec9ac"/>
      <path id="Path_57" data-name="Path 57" d="M330.594,289.034V284.7a4.764,4.764,0,0,0-1.753-3.718,50.626,50.626,0,0,0-8.534-5.577v-4.391a4.59,4.59,0,0,0,1.275-3.187V261.5a7.465,7.465,0,0,0-7.454-7.454h-1.363a7.465,7.465,0,0,0-7.454,7.454v6.338a4.59,4.59,0,0,0,1.275,3.187v4.391A52.094,52.094,0,0,0,298.053,281a4.79,4.79,0,0,0-1.753,3.718v4.338a1.753,1.753,0,1,0,3.506,0v-4.338a1.312,1.312,0,0,1,.478-1.009,48.47,48.47,0,0,1,8.658-5.559,2.064,2.064,0,0,0,1.151-1.824v-6.108a1.757,1.757,0,0,0-.779-1.452,1.134,1.134,0,0,1-.5-.921V261.5a3.952,3.952,0,0,1,3.948-3.948h1.363a3.952,3.952,0,0,1,3.948,3.948v6.321a1.09,1.09,0,0,1-.5.921,1.714,1.714,0,0,0-.779,1.452V276.3a2.027,2.027,0,0,0,1.133,1.824,48.913,48.913,0,0,1,8.658,5.559,1.312,1.312,0,0,1,.478,1.009v4.338a1.762,1.762,0,0,0,3.523,0Z" transform="translate(-243.841 -214.09)" fill="#0ec9ac"/>
      <path id="Path_58" data-name="Path 58" d="M32.524,290.787a1.745,1.745,0,0,0,1.753-1.753V284.7a4.764,4.764,0,0,0-1.753-3.718A50.627,50.627,0,0,0,23.99,275.4v-4.391a4.59,4.59,0,0,0,1.275-3.187V261.5a7.465,7.465,0,0,0-7.454-7.454H16.465A7.465,7.465,0,0,0,9.012,261.5v6.338a4.59,4.59,0,0,0,1.275,3.187v4.391A52.1,52.1,0,0,0,1.753,281,4.79,4.79,0,0,0,0,284.715v4.338a1.753,1.753,0,1,0,3.506,0v-4.338a1.312,1.312,0,0,1,.478-1.009,48.914,48.914,0,0,1,8.658-5.559,2.064,2.064,0,0,0,1.151-1.824v-6.108a1.757,1.757,0,0,0-.779-1.452,1.134,1.134,0,0,1-.5-.921V261.5a3.952,3.952,0,0,1,3.948-3.948h1.363a3.952,3.952,0,0,1,3.948,3.948v6.321a1.09,1.09,0,0,1-.5.921A1.714,1.714,0,0,0,20.5,270.2V276.3a2.027,2.027,0,0,0,1.133,1.824,48.913,48.913,0,0,1,8.658,5.559,1.312,1.312,0,0,1,.478,1.009v4.338A1.757,1.757,0,0,0,32.524,290.787Z" transform="translate(0 -214.09)" fill="#0ec9ac"/>
    </g>
  </g>
</svg>
