<svg xmlns="http://www.w3.org/2000/svg" width="42" height="42" viewBox="0 0 42 42">
  <g id="SVGRepo_iconCarrier" transform="translate(-0.097 -0.31)">
    <path id="Path_267" data-name="Path 267" d="M11,11v8.518a6.614,6.614,0,0,0,3.768,5.953L17.585,26.8,20.4,25.471a6.614,6.614,0,0,0,3.768-5.952V11Zm10.536,8.518a3.967,3.967,0,0,1-2.261,3.57l-1.69.8-1.69-.8a3.967,3.967,0,0,1-2.261-3.57V13.634h7.9Z" transform="translate(3.465 3.517)" fill="#8bc90e"/>
    <path id="Path_268" data-name="Path 268" d="M39.739,22.618a2.633,2.633,0,0,0,0-3.725l-7.621-7.621,3.82-3.77a2.636,2.636,0,1,0-1.9-1.827L30.255,9.409,22.618,1.772a2.633,2.633,0,0,0-3.725,0L11.272,9.393,7.5,5.572a2.637,2.637,0,1,0-1.826,1.9l3.734,3.784L1.772,18.893a2.633,2.633,0,0,0,0,3.725l7.637,7.637L5.675,34.039a2.631,2.631,0,1,0,1.827,1.9l3.77-3.821,7.621,7.621a2.633,2.633,0,0,0,3.725,0L30.255,32.1l3.784,3.734a2.631,2.631,0,1,0,1.9-1.827l-3.82-3.77ZM20.755,37.877,3.634,20.755,20.755,3.634,37.877,20.755Z" transform="translate(0.295 0.346)" fill="#8bc90e"/>
    <rect id="_Transparent_Rectangle_" data-name="&lt;Transparent Rectangle&gt;" width="42" height="42" transform="translate(0.097 0.31)" fill="none"/>
  </g>
</svg>
