<svg xmlns="http://www.w3.org/2000/svg" width="43" height="47.056" viewBox="0 0 43 47.056">
  <g id="Application" transform="translate(1.191 0.43)">
    <g id="SVGRepo_tracerCarrier" transform="translate(-0.306 0.121)">
      <path id="Ellipse_97" data-name="Ellipse 97" d="M20.5-1A21.807,21.807,0,0,1,28.861.647a21.463,21.463,0,0,1,6.833,4.495,20.909,20.909,0,0,1,4.612,6.675,20.615,20.615,0,0,1,0,16.365,20.909,20.909,0,0,1-4.612,6.675,21.463,21.463,0,0,1-6.833,4.495,22.042,22.042,0,0,1-16.722,0,21.463,21.463,0,0,1-6.833-4.495A20.909,20.909,0,0,1,.694,28.183a20.615,20.615,0,0,1,0-16.365A20.909,20.909,0,0,1,5.306,5.142,21.463,21.463,0,0,1,12.139.647,21.807,21.807,0,0,1,20.5-1Zm0,40A19.277,19.277,0,0,0,40,20,19.277,19.277,0,0,0,20.5,1,19.277,19.277,0,0,0,1,20,19.277,19.277,0,0,0,20.5,39Z" transform="translate(0.115 0.449)" fill="#f4bb40"/>
      <path id="Line_17" data-name="Line 17" d="M0,6.056A1.056,1.056,0,0,1-1.056,5V0A1.056,1.056,0,0,1,0-1.056,1.056,1.056,0,0,1,1.056,0V5A1.056,1.056,0,0,1,0,6.056Z" transform="translate(20.115 40.449)" fill="#f4bb40"/>
      <path id="Path_264" data-name="Path 264" d="M36.857,14.015h0a3.1,3.1,0,0,1,2.2,5.292l-.007.007L37.839,20.5a13.774,13.774,0,0,1,2.137,7.379v2.642a1,1,0,0,1-1,1H13.244a1,1,0,0,1-1-1V27.885A13.774,13.774,0,0,1,14.368,20.5l-1.215-1.192-.007-.007a3.093,3.093,0,0,1,2.176-5.282h.027a3.194,3.194,0,0,1,2.194.925l0,0,1.2,1.205a13.809,13.809,0,0,1,14.71,0l1.184-1.206.015-.015A3.081,3.081,0,0,1,36.857,14.015Zm.784,3.877a1.1,1.1,0,0,0-1.557-1.56l0,0-1.775,1.808a1,1,0,0,1-1.3.111,11.806,11.806,0,0,0-13.8,0,1,1,0,0,1-1.292-.1l-1.784-1.785a1.2,1.2,0,0,0-.816-.347,1.066,1.066,0,0,0-.757.316,1.1,1.1,0,0,0,0,1.551l1.8,1.77a1,1,0,0,1,.112,1.3,11.8,11.8,0,0,0-2.23,6.932v1.642H37.976V27.885a11.8,11.8,0,0,0-2.242-6.925,1,1,0,0,1,.109-1.3ZM31.527,22.2a3.032,3.032,0,0,1,0,6.063h0a3.032,3.032,0,0,1,0-6.063Zm0,4.063A1.032,1.032,0,1,0,30.5,25.23a1.033,1.033,0,0,0,1.032,1.031ZM20.692,22.2h0a3.035,3.035,0,0,1,3.032,3.031h0A3.032,3.032,0,1,1,20.692,22.2Zm1.032,3.02a1.043,1.043,0,1,0,0,.011S21.724,25.223,21.724,25.219Z" transform="translate(-5.54 -2.534)" fill="#f4bb40"/>
    </g>
    <g id="SVGRepo_iconCarrier" transform="translate(-0.306 0.121)">
      <path id="Ellipse_98" data-name="Ellipse 98" d="M20.5-.5a21.31,21.31,0,0,1,8.17,1.61A20.965,20.965,0,0,1,35.345,5.5a20.411,20.411,0,0,1,4.5,6.516,20.115,20.115,0,0,1,0,15.968,20.411,20.411,0,0,1-4.5,6.516,20.965,20.965,0,0,1-6.675,4.39,21.542,21.542,0,0,1-16.34,0A20.965,20.965,0,0,1,5.655,34.5a20.411,20.411,0,0,1-4.5-6.516,20.115,20.115,0,0,1,0-15.968A20.411,20.411,0,0,1,5.655,5.5,20.965,20.965,0,0,1,12.33,1.11,21.31,21.31,0,0,1,20.5-.5Zm0,40A19.777,19.777,0,0,0,40.5,20,19.777,19.777,0,0,0,20.5.5,19.777,19.777,0,0,0,.5,20,19.777,19.777,0,0,0,20.5,39.5Z" transform="translate(0.115 0.449)" fill="#f4bb40"/>
      <path id="Line_18" data-name="Line 18" d="M0,5.5A.5.5,0,0,1-.5,5V0A.5.5,0,0,1,0-.5.5.5,0,0,1,.5,0V5A.5.5,0,0,1,0,5.5Z" transform="translate(20.115 40.449)" fill="#f4bb40"/>
      <path id="Path_265" data-name="Path 265" d="M36.857,14.515h0A2.6,2.6,0,0,1,38.7,18.954l-1.5,1.481a13.282,13.282,0,0,1,2.28,7.449v2.642a.5.5,0,0,1-.5.5H13.244a.5.5,0,0,1-.5-.5V27.885A13.281,13.281,0,0,1,15.01,20.43L13.5,18.951l0,0a2.593,2.593,0,0,1,1.822-4.429h.017a2.7,2.7,0,0,1,1.852.781l1.494,1.494a13.306,13.306,0,0,1,14.846,0L35,15.29l.009-.01A2.585,2.585,0,0,1,36.857,14.515Zm1.619,15.511V27.885a12.294,12.294,0,0,0-2.337-7.217.5.5,0,0,1,.055-.649L38,18.245a1.6,1.6,0,0,0-2.268-2.264l0,0-1.775,1.808a.5.5,0,0,1-.649.056,12.306,12.306,0,0,0-14.381,0,.5.5,0,0,1-.646-.052l-1.788-1.788a1.7,1.7,0,0,0-1.162-.49h0a1.582,1.582,0,0,0-1.114.463,1.6,1.6,0,0,0,0,2.258l1.806,1.772a.5.5,0,0,1,.056.649,12.293,12.293,0,0,0-2.323,7.224v2.141ZM31.527,22.7a2.532,2.532,0,0,1,0,5.063h0a2.532,2.532,0,0,1,0-5.063Zm0,4.063A1.532,1.532,0,1,0,30,25.23a1.533,1.533,0,0,0,1.532,1.531ZM20.692,22.7h0a2.534,2.534,0,0,1,2.532,2.531s0,0,0,0h0A2.532,2.532,0,1,1,20.692,22.7Zm1.532,2.522a1.551,1.551,0,1,0,0,.009S22.224,25.224,22.224,25.221Z" transform="translate(-5.54 -2.534)" fill="#f4bb40"/>
    </g>
  </g>
</svg>
