<svg xmlns="http://www.w3.org/2000/svg" width="49.83" height="37.042" viewBox="0 0 49.83 37.042">
  <path id="Path_269" data-name="Path 269" d="M15.956,1.5a5.518,5.518,0,0,1,3.891,9.432,5.523,5.523,0,0,1-7.8-7.817A5.485,5.485,0,0,1,15.956,1.5Zm0,10.039a4.519,4.519,0,1,0-4.519-4.519A4.547,4.547,0,0,0,15.956,11.539ZM41.012,7.561a10.264,10.264,0,0,1,4.123.853,10.1,10.1,0,0,1,3.032,2.035,2.211,2.211,0,0,1,2.4,3.67,9.571,9.571,0,0,1,.592,3.34,10.147,10.147,0,0,1-20.288,0A10.035,10.035,0,0,1,41.012,7.561Zm6.178,3.776a9,9,0,0,0-11.276-.875,1.839,1.839,0,0,1,.867.275,8.2,8.2,0,0,1,4.232-1.167,8.1,8.1,0,0,1,5.776,2.379q.068.068.135.138A2.2,2.2,0,0,1,47.19,11.337ZM41.012,24.015a6.673,6.673,0,0,0,6.755-6.572,6.673,6.673,0,0,0-6.755-6.572,6.862,6.862,0,0,0-3.421.911A1.852,1.852,0,0,1,37.523,13,5.647,5.647,0,0,1,41,11.8a5.732,5.732,0,0,1,5.7,5.662v.006a5.674,5.674,0,0,1-.555,2.431,1.518,1.518,0,0,1,.19.728,1.5,1.5,0,0,1-1.973,1.423A5.608,5.608,0,0,1,41,23.15,5.673,5.673,0,0,1,36.519,14a1.839,1.839,0,0,1-.706.14,1.923,1.923,0,0,1-.578-.085,6.391,6.391,0,0,0-.978,3.387A6.673,6.673,0,0,0,41.012,24.015Zm8.689-10.5,0,0a1.241,1.241,0,0,0,.625-1.06,1.219,1.219,0,0,0-1.951-.969l-.107.078-.059.064a1.213,1.213,0,0,0,.894,2.035,1.082,1.082,0,0,0,.377-.065ZM36.5,11.806,36.4,11.7a.828.828,0,0,0-.6-.242.85.85,0,0,0-.849.849.867.867,0,0,0,.229.578l.01.011.16.112a.784.784,0,0,0,.466.131.85.85,0,0,0,.849-.849.773.773,0,0,0-.12-.425Zm-2.306,1.421a1.845,1.845,0,0,1-.247-.9,8.385,8.385,0,0,0-1.754,5.13,8.826,8.826,0,0,0,17.645,0,8.219,8.219,0,0,0-.491-2.815,2.147,2.147,0,0,1-.239.013,2.21,2.21,0,0,1-.58-.077,7.709,7.709,0,0,1,.548,2.88,8.075,8.075,0,0,1-16.145,0A7.73,7.73,0,0,1,34.195,13.227ZM45.018,19.14a4.047,4.047,0,0,0,.319-1.647v-.01a4.35,4.35,0,1,0-4.35,4.35A4.283,4.283,0,0,0,43.4,21.1a1.485,1.485,0,0,1-.076-.47,1.5,1.5,0,0,1,1.5-1.5A1.407,1.407,0,0,1,45.018,19.14Zm.163,1.114-.124-.062a.491.491,0,0,0-.737.434.525.525,0,0,0,.112.316l.029.038.1.065a.5.5,0,0,0,.272.081.5.5,0,0,0,.5-.5.559.559,0,0,0-.147-.362ZM9.945,12.739H22.152a7.872,7.872,0,0,1,7.863,7.67v7.638h8.607a2.826,2.826,0,1,1,0,5.651H26.98a2.65,2.65,0,0,1-1.8-.749,3,3,0,0,1-.795-2.2l-.015-9.257h-.551V38.542H7.7V21.49H7.15V35.522a2.826,2.826,0,0,1-2.821,3.019H4.324a2.82,2.82,0,0,1-1.983-.816,3.028,3.028,0,0,1-.841-2.2V20.6a7.649,7.649,0,0,1,2.522-5.414A8.708,8.708,0,0,1,9.945,12.739ZM38.623,32.7a1.826,1.826,0,1,0,0-3.651H29.015V20.408a6.859,6.859,0,0,0-6.863-6.67H9.945a7.7,7.7,0,0,0-5.233,2.173A6.65,6.65,0,0,0,2.5,20.6V35.522a2.054,2.054,0,0,0,.55,1.5,1.813,1.813,0,0,0,1.276.522A1.84,1.84,0,0,0,6.15,35.522V20.49H8.7V37.542H22.815V20.49h2.549l.016,10.259c-.011,1.746,1.23,1.933,1.625,1.948ZM41,14.117a3.365,3.365,0,1,1-3.365,3.365A3.369,3.369,0,0,1,41,14.117Zm0,5.731a2.365,2.365,0,1,0-2.365-2.365A2.368,2.368,0,0,0,41,19.848Z" transform="translate(-1.5 -1.5)" fill="#f14178"/>
</svg>
