<svg xmlns="http://www.w3.org/2000/svg" width="41.769" height="41.769" viewBox="0 0 41.769 41.769">
  <g id="SVGRepo_iconCarrier" transform="translate(0 0)">
    <g id="Group_54" data-name="Group 54">
      <path id="Path_262" data-name="Path 262" d="M0,0H41.769V41.769H0ZM0,41.769H41.769V0H0Z" fill="#fff"/>
      <path id="Path_263" data-name="Path 263" d="M18.663,1l14.3,3.178a1.741,1.741,0,0,1,1.363,1.7V23.257a10.441,10.441,0,0,1-4.65,8.688L18.663,39.288,7.65,31.945A10.438,10.438,0,0,1,3,23.259V5.876a1.741,1.741,0,0,1,1.363-1.7Zm0,3.566L6.481,7.272V23.257a6.961,6.961,0,0,0,3.1,5.792l9.083,6.056,9.083-6.056a6.958,6.958,0,0,0,3.1-5.79V7.272l-12.183-2.7Zm7.748,9,2.463,2.461L17.8,27.105l-7.384-7.384,2.461-2.461L17.8,22.182l8.615-8.615Z" transform="translate(2.221 0.74)" fill="#3359f3" stroke="#fff" stroke-width="0"/>
      <path id="Path_263_-_Outline" data-name="Path 263 - Outline" d="M18.663,1h0l14.3,3.178a1.731,1.731,0,0,1,1.363,1.7V23.257a10.418,10.418,0,0,1-4.65,8.688L18.663,39.288,7.65,31.945A10.418,10.418,0,0,1,3,23.259V5.876a1.731,1.731,0,0,1,1.363-1.7Zm0,38.288,11.013-7.343a10.418,10.418,0,0,0,4.65-8.688V5.876a1.731,1.731,0,0,0-1.363-1.7L18.663,1,4.363,4.178A1.731,1.731,0,0,0,3,5.876V23.259a10.418,10.418,0,0,0,4.65,8.686Zm0-34.722L30.846,7.272V23.259a6.946,6.946,0,0,1-3.1,5.79l-9.083,6.056h0L9.58,29.049a6.947,6.947,0,0,1-3.1-5.792V7.272Zm0,30.54,9.083-6.056a6.945,6.945,0,0,0,3.1-5.79V7.272l-12.182-2.7L6.481,7.272V23.257a6.947,6.947,0,0,0,3.1,5.792l9.083,6.056Zm7.748-21.539v0l2.463,2.461L17.8,27.105l-7.384-7.384,2.461-2.461L17.8,22.182ZM17.8,27.105,28.874,16.03l-2.463-2.461v0L17.8,22.182,12.875,17.26l-2.461,2.461Z" transform="translate(2.221 0.74)" fill="#fff"/>
    </g>
  </g>
</svg>
