<svg xmlns="http://www.w3.org/2000/svg" width="15" height="18" viewBox="0 0 15 18">
  <path id="location-1-svgrepo-com" d="M12.285,18.993c-.128.094-.247.179-.357.256-.116-.077-.245-.166-.385-.266a18.008,18.008,0,0,1-2.359-2.03C7.454,15.179,6,12.915,6,10.5a6,6,0,0,1,12,0c0,2.389-1.518,4.647-3.311,6.439A21.041,21.041,0,0,1,12.285,18.993ZM19.5,10.5C19.5,16.5,12,21,12,21c-.375,0-7.5-4.5-7.5-10.5a7.5,7.5,0,0,1,15,0Zm-6,0A1.5,1.5,0,1,1,12,9,1.5,1.5,0,0,1,13.5,10.5Zm1.5,0a3,3,0,1,1-3-3A3,3,0,0,1,15,10.5Z" transform="translate(-4.5 -3)" fill="#0ec9ac" fill-rule="evenodd"/>
</svg>
