<svg xmlns="http://www.w3.org/2000/svg" xmlns:xlink="http://www.w3.org/1999/xlink" width="173" height="65" viewBox="0 0 173 65">
  <defs>
    <linearGradient id="linear-gradient" x1="0.5" x2="0.5" y2="0.703" gradientUnits="objectBoundingBox">
      <stop offset="0" stop-color="#00142c" stop-opacity="0"/>
      <stop offset="1" stop-color="#00142c"/>
    </linearGradient>
    <clipPath id="clip-path">
      <rect id="Rectangle_34" data-name="Rectangle 34" width="173" height="65" transform="translate(0.147 2392.976)" fill="url(#linear-gradient)"/>
    </clipPath>
  </defs>
  <g id="Mask_Group_18" data-name="Mask Group 18" transform="translate(-0.147 -2392.976)" clip-path="url(#clip-path)">
    <g id="niftikit" transform="translate(0.058 2399.857)">
      <rect id="Rectangle_123" data-name="Rectangle 123" width="50.713" height="50.713" rx="25.356" fill="#011936"/>
      <path id="Path_295" data-name="Path 295" d="M98.191,201.453h5.071v5.071H98.191Zm0-5.071h10.143v5.071H98.191Z" transform="translate(-89.316 -178.633)" fill="#0ec8ac"/>
      <path id="Path_296" data-name="Path 296" d="M98.191,196.382h5.071V211.6H98.191Zm17.116,0h5.071v5.071h-5.071Zm0,5.071h5.071v5.071h-5.071Z" transform="translate(-89.316 -178.633)" fill="#0ec8ac"/>
      <path id="Path_297" data-name="Path 297" d="M287.56,201.453H297.7v5.071H287.56Zm10.143-5.071h5.071v5.071H297.7Zm0,10.143h5.071V211.6H297.7Z" transform="translate(-261.569 -178.633)" fill="#0ec8ac"/>
      <path id="Path_298" data-name="Path 298" d="M217.382,196.382h5.071V211.6h-5.071Zm-6.973,5.071h5.071V211.6h-5.071Z" transform="translate(-191.392 -178.633)" fill="#0ec8ac"/>
      <path id="Path_299" data-name="Path 299" d="M108.334,308.6H113.4v5.071h-5.071Zm-10.143,0h5.071v5.071H98.191Z" transform="translate(-89.316 -280.709)" fill="#0ec8ac"/>
      <path id="Path_300" data-name="Path 300" d="M668.148,172.28v-21.3h3.895l10.011,15v-15h3.895v21.3h-3.895l-10.011-14.97v14.97Zm24.546-17.435a2.517,2.517,0,0,1-1.765-.639,2.135,2.135,0,0,1-.669-1.613,2.039,2.039,0,0,1,.669-1.582,2.517,2.517,0,0,1,1.765-.639,2.408,2.408,0,0,1,1.734.639,2,2,0,0,1,.7,1.582,2.09,2.09,0,0,1-.7,1.613A2.408,2.408,0,0,1,692.694,154.845Zm-1.947,17.435V157.188h3.895V172.28Zm9.268,0V160.444h-2.069v-3.256h2.069v-1.765a4.851,4.851,0,0,1,1.369-3.895,5.743,5.743,0,0,1,3.773-1.156h1.674v3.317h-1.065a2.078,2.078,0,0,0-1.43.4,1.766,1.766,0,0,0-.426,1.339v1.765h3.256v3.256H703.91V172.28Zm17.568,0a5.869,5.869,0,0,1-3.8-1.156q-1.43-1.156-1.43-4.108v-6.572h-2.586v-3.256h2.586l.456-4.047h3.438v4.047h4.077v3.256h-4.077v6.6a2.035,2.035,0,0,0,.456,1.521,2.638,2.638,0,0,0,1.643.4h1.886v3.317Zm8.577,6.694,3.5-7.7h-.913l-5.873-14.088H727.1l4.23,10.619,4.412-10.619h4.138L730.3,178.974Zm16.968-6.694v-21.3h3.895v8.611l7.881-8.611h4.808l-7.85,8.459,8.063,12.84h-4.777l-6.086-9.859-2.039,2.221v7.637Zm22.08-17.435a2.517,2.517,0,0,1-1.765-.639,2.135,2.135,0,0,1-.669-1.613,2.039,2.039,0,0,1,.669-1.582,2.517,2.517,0,0,1,1.765-.639,2.408,2.408,0,0,1,1.734.639,2,2,0,0,1,.7,1.582,2.09,2.09,0,0,1-.7,1.613A2.408,2.408,0,0,1,765.209,154.845Zm-1.947,17.435V157.188h3.895V172.28Zm15.293,0a5.869,5.869,0,0,1-3.8-1.156q-1.43-1.156-1.43-4.108v-6.572h-2.586v-3.256h2.586l.456-4.047h3.438v4.047h4.077v3.256h-4.077v6.6a2.035,2.035,0,0,0,.456,1.521,2.638,2.638,0,0,0,1.643.4H781.2v3.317Z" transform="translate(-618.669 -136.782)" fill="#fff"/>
    </g>
  </g>
</svg>
