<svg xmlns="http://www.w3.org/2000/svg" xmlns:xlink="http://www.w3.org/1999/xlink" viewBox="0 0 406 114" width="406" height="114"><path fill="#faf9f7" d="M64.76 112.41H47.97V41.94h16.35v9.41c4.63-8.1 13.02-11.43 20.84-11.43 17.22 0 25.47 12.44 25.47 27.93v44.56H93.84V70.74c0-8.68-3.91-15.63-14.47-15.63-9.55 0-14.62 7.38-14.62 16.64v40.66h.01zm97.1 0h-16.78l-28.65-70.47h18.52l18.67 50.35 18.23-50.35h17.65l-27.64 70.47zm94.29-35.59c0 14.02 9.02 21.89 19.47 21.89 10.88 0 15.89-7.58 17.47-12.87l14.6 5.29c-3.29 10.87-13.74 22.74-32.07 22.74-20.47 0-36.08-15.88-36.08-37.05 0-21.46 15.61-36.91 35.65-36.91 18.76 0 29.06 11.73 31.93 22.89l-14.89 5.44c-1.58-6.15-6.3-13.02-16.89-13.02-10.17 0-19.19 7.58-19.19 21.6zm88.05-34.88h14.61v14.9H344.2v33.3c0 6.22 2.75 8.82 8.97 8.82 2.32 0 5.06-.43 5.79-.58v13.89c-1.01.43-4.2 1.59-10.27 1.59-13.02 0-21.12-7.81-21.12-20.98V56.84h-13.02v-14.9h3.62c7.52 0 10.85-4.77 10.85-10.99V20.38h15.19v21.56h-.01zm-325.53 0v48.2c0 6.22 2.75 8.82 8.97 8.82 2.32 0 5.06-.43 5.79-.58v13.89c-1.01.43-4.2 1.59-10.27 1.59-13.02 0-21.12-7.81-21.12-20.98V41.94h16.63zM0 10.41c0 5.76 4.66 10.27 10.27 10.27 5.75 0 10.41-4.52 10.41-10.27C20.69 4.66 16.03 0 10.27 0 4.66 0 0 4.66 0 10.41zm217.53 31.53v48.2c0 6.22 2.75 8.82 8.97 8.82 2.32 0 5.06-.43 5.79-.58v13.89c-1.01.43-4.2 1.59-10.27 1.59-13.02 0-21.12-7.81-21.12-20.98V41.94h16.63zm-18.67-31.53c0 5.76 4.66 10.27 10.27 10.27 5.75 0 10.41-4.52 10.41-10.27A10.41 10.41 0 0 0 209.13 0c-5.61 0-10.27 4.66-10.27 10.41zm192.38 31.53v48.2c0 6.22 2.75 8.82 8.97 8.82 2.32 0 5.06-.43 5.79-.58v13.89c-1.01.43-4.2 1.59-10.27 1.59-13.02 0-21.12-7.81-21.12-20.98V41.94h16.63zm-18.67-31.53c0 5.76 4.66 10.27 10.27 10.27 5.75 0 10.41-4.52 10.41-10.27C393.26 4.66 388.6 0 382.85 0c-5.62 0-10.28 4.66-10.28 10.41z"/></svg>