<svg class="logo-svg" width="170" height="20" viewBox="0 0 170 20" fill="none" xmlns="http://www.w3.org/2000/svg">
<style>
    .logo-svg path {
      transition: fill 0.2s ease;
      fill: #fff
    }
    .logo-svg:hover path {
      fill: #fff;
    }
  </style>
<path d="M64.5384 2.20629V9.61416L71.5372 0.774241C71.6233 0.65939 71.7238 0.558896 71.8386 0.472758C71.9463 0.379442 72.0647 0.300482 72.194 0.235878C72.3232 0.171274 72.456 0.121027 72.5923 0.0851364C72.7287 0.0492456 72.8687 0.0313001 73.0123 0.0313001H76.9746L69.2653 9.77567L77.0608 19.983H72.8185C72.6677 19.9759 72.5206 19.9543 72.377 19.9184C72.2334 19.8825 72.0935 19.8287 71.9571 19.7569C71.8279 19.6923 71.7058 19.6098 71.591 19.5093C71.4833 19.4088 71.3864 19.2975 71.3003 19.1755L64.5384 10.0449V19.9723H62.4711C61.3836 19.9723 60.5115 18.9924 60.5115 17.7865V0.00976562H62.5788C63.6663 0.00976562 64.5384 0.989586 64.5384 2.19552V2.20629Z" fill="var(--nav--primary)"></path>
<path d="M42.4388 3.49218H49.4699C49.4699 3.49218 51.0634 3.43835 51.9571 3.86904C52.6677 4.20282 53.0661 4.91346 53.0661 6.09786C53.0661 7.03461 52.84 7.66988 52.3663 8.01443C52.4955 8.1221 52.6175 8.23337 52.7323 8.34822C52.8472 8.47024 52.9585 8.59227 53.0661 8.7143C53.1738 8.83633 53.2779 8.96195 53.3784 9.09116C53.4717 9.22036 53.565 9.35316 53.6583 9.48954C53.8629 9.78026 54.1536 10.2863 54.5412 10.997C54.5735 11.04 54.6058 11.0723 54.6274 11.1154C54.7925 11.0293 54.9504 10.9324 55.1011 10.8247C55.2519 10.7242 55.3954 10.6093 55.5318 10.4801C55.6682 10.3581 55.7974 10.2253 55.9195 10.0817C56.0415 9.94536 56.1527 9.79821 56.2532 9.64029C56.4112 9.37469 56.5511 9.09475 56.6732 8.80044C56.7952 8.51331 56.8957 8.21542 56.9746 7.90676C57.0536 7.60527 57.111 7.29661 57.1469 6.98077C57.1756 6.67211 57.1828 6.35986 57.1685 6.04402C57.1685 5.91481 57.05 4.09515 56.7055 3.26607C56.6409 3.10815 56.5727 2.95382 56.5009 2.80308C56.4219 2.65233 56.3358 2.50518 56.2425 2.36162C56.1492 2.21806 56.0522 2.08167 55.9518 1.95246C55.8441 1.81608 55.7328 1.68687 55.618 1.56484C55.4888 1.43563 55.3524 1.31002 55.2088 1.18799C55.0653 1.07314 54.9145 0.969054 54.7566 0.875737C54.5987 0.775243 54.4336 0.689105 54.2613 0.617323C54.0962 0.545541 53.9239 0.484527 53.7445 0.43428C53.4717 0.35532 53.1989 0.287127 52.9262 0.229702C52.6534 0.172276 52.3806 0.125618 52.1078 0.0897272C51.8279 0.0538363 51.5515 0.0287127 51.2788 0.0143563C50.9988 1.60445e-09 50.7189 -0.00358909 50.4389 0.00358909H40.4577V1.40333C40.4469 1.67251 40.4792 1.9417 40.5761 2.18934C40.673 2.44776 40.813 2.67387 40.996 2.86768C41.1791 3.06149 41.4052 3.223 41.6528 3.33067C41.8897 3.43834 42.1589 3.49218 42.4281 3.49218H42.4388Z" fill="var(--nav--primary)"></path>
<path d="M52.4763 10.4237C51.4857 8.91633 50.4844 8.59331 49.8706 8.55024C49.2569 8.50717 44.5193 8.55024 44.5193 8.55024V7.19357C44.5193 5.98763 43.6256 5.00781 42.5489 5.00781H40.4816V17.7885C40.4816 18.9945 41.3645 19.9743 42.452 19.9743H44.5193V12.0496H49.2892L53.23 19.4359C53.2731 19.5149 53.3233 19.5867 53.3807 19.6513C53.4382 19.7159 53.5064 19.7733 53.5853 19.8236C53.6571 19.8666 53.7361 19.9025 53.8222 19.9312C53.9012 19.9599 53.9873 19.9743 54.0806 19.9743H58.0753L53.3484 11.9096C53.3377 11.8666 52.6593 10.6929 52.4763 10.4237Z" fill="var(--nav--primary)"></path>
<path d="M154.33 5.05565C154.438 4.73264 154.567 4.42039 154.718 4.1189C154.869 3.81742 155.037 3.5267 155.224 3.24675C155.418 2.95963 155.626 2.69045 155.848 2.43921C156.078 2.18797 156.322 1.95468 156.581 1.73934C156.789 1.55988 157.004 1.39838 157.227 1.25481C157.449 1.10407 157.682 0.967685 157.926 0.845656C158.163 0.730805 158.411 0.626721 158.669 0.533405C158.921 0.447267 159.179 0.375485 159.445 0.31806C159.703 0.267813 159.961 0.224744 160.22 0.188853C160.485 0.152962 160.747 0.12066 161.006 0.0919473C161.271 0.0704128 161.537 0.0524673 161.803 0.038111C162.061 0.0309328 162.323 0.0273438 162.589 0.0273438H167.455C168.543 0.0273438 169.426 1.00716 169.426 2.2131V3.51594H162.772C162.772 3.51594 161.372 3.51594 160.64 3.58054C160.64 3.58054 158.454 3.76358 156.85 4.63573C155.299 5.47558 154.513 6.17545 153.673 7.35985C153.673 7.34908 154.072 5.8309 154.33 5.05565Z" fill="var(--nav--primary)"></path>
<path d="M145.674 19.9683C142.756 19.9683 140.57 19.1823 139.116 17.7071C137.964 16.5227 137.211 14.8323 136.855 12.625C136.888 12.6788 136.941 12.7865 136.984 12.8403C138.276 14.7031 140.742 16.1674 144.382 16.4366C144.931 16.4797 147.02 16.4904 147.45 16.4904H150.422C151.509 16.4904 152.392 17.4703 152.392 18.6762V19.9683H145.674Z" fill="var(--nav--primary)"></path>
<path d="M26.4458 8.71652L22.9249 18.6116C22.8603 18.8054 22.7742 18.9885 22.6558 19.15C22.5373 19.3115 22.3973 19.4622 22.2358 19.5807C22.0743 19.6991 21.8913 19.796 21.6975 19.8714C21.5144 19.936 21.3098 19.9683 21.1053 19.9791H18.4135L25.7567 0.0273438H30.602C30.0098 0.576474 29.2022 1.36248 27.6841 5.26023C27.3287 6.22929 27.0488 6.96146 26.4458 8.71652Z" fill="var(--nav--primary)"></path>
<path d="M37.5081 16.8884L31.1878 1.50195C30.9652 1.85368 30.7499 2.21259 30.5417 2.57868C30.3336 2.94477 30.1397 3.31444 29.9603 3.68771C29.7737 4.06097 29.6014 4.44142 29.4435 4.82904C29.2784 5.20948 29.1276 5.5971 28.9912 5.9919L31.1447 11.6339H28.3129C28.0868 11.6447 27.8714 11.6878 27.6669 11.7632C27.4623 11.8493 27.2685 11.957 27.0962 12.0969C26.9347 12.2369 26.784 12.4092 26.6655 12.5922C26.5578 12.7753 26.4717 12.9799 26.4286 13.1952L25.7288 15.2194H32.4906L34.2672 19.9786H35.7208C37.1528 19.9786 38.1111 18.3312 37.5081 16.8884Z" fill="var(--nav--primary)"></path>
<path d="M84.2047 5.05088V19.9743H86.4228C87.4995 19.9743 88.3824 18.9945 88.3824 17.7885V5.00781H84.2047V5.05088Z" fill="var(--nav--primary)"></path>
<path d="M79.9895 0.0449219C78.902 0.0449219 78.019 1.02474 78.019 2.23068V3.50121H92.6733C93.75 3.50121 94.6329 2.54293 94.6329 1.32623V0.0449219H79.9895Z" fill="var(--nav--primary)"></path>
<path d="M4.02696 3.50517C4.02696 3.50517 8.52767 3.50517 8.73225 3.50517C8.93683 3.50517 9.73361 3.55901 10.1535 3.61284C15.2895 4.20504 17.023 6.4877 17.766 7.59673C17.4214 5.271 16.5816 3.4944 15.408 2.2777C13.9508 0.798997 11.7507 0.0488783 8.80762 0.0273438H0V3.50517H4.02696Z" fill="var(--nav--primary)"></path>
<path d="M124.349 8.71652L120.839 18.6116C120.775 18.8054 120.689 18.9885 120.57 19.15C120.452 19.3115 120.301 19.4622 120.139 19.5807C119.978 19.6991 119.806 19.796 119.612 19.8714C119.418 19.936 119.214 19.9683 119.02 19.9791H116.328L123.66 0.0273438H128.506C127.913 0.576474 127.117 1.36248 125.588 5.26023C125.243 6.22929 124.909 7.05837 124.349 8.71652Z" fill="var(--nav--primary)"></path>
<path d="M135.417 16.8884L129.107 1.50195C128.878 1.85368 128.662 2.21259 128.461 2.57868C128.253 2.94477 128.056 3.31444 127.869 3.68771C127.69 4.06097 127.517 4.44142 127.352 4.82904C127.194 5.20948 127.047 5.5971 126.911 5.9919L129.064 11.6339H126.276C126.049 11.6447 125.834 11.6878 125.63 11.7632C125.425 11.8493 125.231 11.957 125.07 12.0969C124.897 12.2369 124.747 12.4092 124.639 12.5922C124.52 12.7753 124.434 12.9799 124.391 13.1952L123.853 15.2194H130.41L132.187 19.9786H133.63C135.062 19.9786 136.02 18.3312 135.417 16.8884Z" fill="var(--nav--primary)"></path>
<path d="M98.9475 3.49218H105.989C105.989 3.49218 107.583 3.43835 108.477 3.85827C109.187 4.19205 109.586 4.90269 109.586 6.08709C109.596 7.03461 109.359 7.65911 108.896 8.00367C109.018 8.11134 109.137 8.22619 109.252 8.34822C109.367 8.46307 109.478 8.58151 109.586 8.70354C109.693 8.82557 109.797 8.95119 109.898 9.08039C109.991 9.2096 110.084 9.3424 110.178 9.47878C110.382 9.79103 110.673 10.2863 111.061 10.9862C111.082 11.0293 111.125 11.0616 111.147 11.1046C111.312 11.0185 111.47 10.9252 111.621 10.8247C111.771 10.717 111.915 10.5986 112.051 10.4694C112.188 10.3473 112.317 10.2181 112.439 10.0817C112.554 9.93818 112.661 9.78744 112.762 9.62952C112.927 9.36393 113.067 9.08398 113.182 8.78968C113.304 8.50255 113.404 8.20824 113.483 7.90676C113.555 7.5981 113.609 7.28944 113.645 6.98078C113.674 6.66494 113.681 6.3491 113.666 6.03326C113.666 5.90405 113.548 4.08438 113.203 3.2553C113.139 3.09738 113.071 2.94305 112.999 2.79231C112.92 2.64157 112.834 2.49442 112.74 2.35085C112.654 2.21447 112.557 2.07808 112.45 1.9417C112.342 1.81249 112.231 1.68687 112.116 1.56484C111.987 1.42846 111.85 1.30284 111.707 1.18799C111.563 1.07314 111.412 0.965465 111.254 0.86497C111.104 0.771654 110.942 0.685516 110.77 0.606556C110.598 0.534774 110.425 0.47376 110.253 0.423512C109.98 0.344552 109.708 0.27636 109.435 0.218934C109.162 0.161509 108.889 0.11844 108.616 0.0897272C108.337 0.0538363 108.06 0.0287127 107.787 0.0143564C107.507 1.60445e-09 107.228 -0.00358909 106.948 0.00358909H96.9771V1.39257C96.9663 1.66175 97.0094 1.93093 97.0955 2.17858C97.1924 2.43699 97.3324 2.6631 97.5155 2.85691C97.7093 3.05072 97.9246 3.21223 98.1723 3.31991C98.4199 3.42758 98.6783 3.48142 98.9475 3.49218Z" fill="var(--nav--primary)"></path>
<path d="M108.987 10.414C107.996 8.90656 106.995 8.58354 106.381 8.54048C105.757 8.49741 101.03 8.54048 101.03 8.54048V7.1838C101.03 5.97787 100.147 4.99805 99.0594 4.99805H96.9921V17.7788C96.9921 18.9847 97.8857 19.9645 98.9625 19.9645H101.03V12.0506H105.8L109.751 19.4369C109.787 19.5159 109.834 19.5877 109.891 19.6523C109.956 19.7169 110.024 19.7743 110.096 19.8246C110.168 19.8676 110.247 19.9035 110.333 19.9322C110.419 19.9538 110.505 19.9681 110.591 19.9753H114.586L109.87 11.9106C109.848 11.8568 109.17 10.6832 108.987 10.414Z" fill="var(--nav--primary)"></path>
<path d="M15.7525 7.46275C15.8171 7.53453 15.8817 7.60631 15.9463 7.67809C16.0109 7.75705 16.0719 7.83242 16.1294 7.90421C16.1868 7.98317 16.2442 8.06212 16.3016 8.14108C16.3591 8.22004 16.4129 8.29901 16.4631 8.37796C16.6713 8.68663 16.8544 9.00605 17.0123 9.33625C17.1702 9.65927 17.303 9.99664 17.4107 10.3484C17.5183 10.7001 17.5973 11.0554 17.6475 11.4143C17.705 11.7804 17.7337 12.1429 17.7337 12.5018C17.7337 13.4816 17.5399 14.4507 17.163 15.3551C16.7862 16.2488 16.237 17.0671 15.5479 17.767C14.8588 18.4561 14.0297 19.0052 13.1361 19.3713C12.2316 19.7482 11.2626 19.942 10.2827 19.942L8.92606 19.9743H1.97041C0.882915 19.9743 0 18.9945 0 17.7885V5.00781H4.04849V16.4965H8.74302C8.90811 16.4965 9.07321 16.4965 9.23831 16.4965C9.40341 16.4893 9.56851 16.4821 9.7336 16.4749C9.8987 16.4606 10.0602 16.4426 10.2181 16.4211C10.3832 16.3996 10.5483 16.3744 10.7134 16.3457C10.857 16.3098 10.997 16.2632 11.1333 16.2058C11.2697 16.1483 11.4025 16.0801 11.5317 16.0012C11.6538 15.9222 11.7722 15.8325 11.8871 15.732C11.9947 15.6315 12.0952 15.5238 12.1885 15.409C12.2962 15.2798 12.3931 15.147 12.4793 15.0106C12.5726 14.8742 12.6551 14.7306 12.7269 14.5799C12.7987 14.4363 12.8669 14.2856 12.9315 14.1277C12.9889 13.9769 13.0356 13.819 13.0715 13.6539C13.1145 13.496 13.154 13.3345 13.1899 13.1694C13.2186 13.0043 13.2473 12.8392 13.276 12.6741C13.3047 12.509 13.3299 12.3439 13.3514 12.1788C13.3729 12.0137 13.3909 11.8486 13.4052 11.6835C13.4196 11.4753 13.4304 11.2636 13.4375 11.0482C13.4447 10.8401 13.4519 10.6283 13.4591 10.413C13.4591 10.1976 13.4591 9.98588 13.4591 9.77771C13.4519 9.56236 13.4447 9.35061 13.4375 9.14244C13.4304 8.90556 13.416 8.66868 13.3945 8.4318C13.3729 8.19492 13.3478 7.95804 13.3191 7.72116C13.2904 7.48428 13.2545 7.25099 13.2114 7.02129C13.1684 6.78441 13.1217 6.55112 13.0715 6.32142C13.0571 6.27117 13.0427 6.22092 13.0284 6.17068C13.014 6.12043 12.9997 6.07018 12.9853 6.01994C12.9638 5.96969 12.9458 5.92303 12.9315 5.87996C12.9099 5.82971 12.8884 5.77947 12.8669 5.72922C13.1325 5.81536 13.3909 5.91226 13.6421 6.01994C13.8934 6.13479 14.1374 6.26399 14.3743 6.40756C14.6112 6.54394 14.8409 6.69827 15.0634 6.87055C15.2859 7.03565 15.4941 7.21151 15.6879 7.39814L15.7525 7.46275Z" fill="var(--nav--primary)"></path>
<path d="M144.351 3.59526L144.642 3.55219C144.714 3.54502 144.786 3.53784 144.857 3.53066C144.929 3.52348 145.001 3.51989 145.073 3.51989C145.152 3.51271 145.227 3.50913 145.299 3.50913C145.371 3.50913 145.442 3.50913 145.514 3.50913L152.405 3.48759V2.19552C152.405 0.989586 151.522 0.00976562 150.435 0.00976562H145.568C145.331 0.00976562 145.098 0.0169438 144.868 0.0313002C144.631 0.0384783 144.398 0.0528347 144.168 0.0743692C143.931 0.0887255 143.698 0.113849 143.468 0.14974C143.232 0.178453 142.998 0.210755 142.769 0.246645H142.725C141.875 0.38662 141.067 0.677336 140.314 1.09726C139.571 1.52795 138.903 2.07708 138.343 2.72312C137.783 3.37992 137.353 4.12286 137.051 4.9304C136.75 5.72718 136.599 6.5778 136.599 7.43918C136.599 7.79808 136.624 8.15699 136.674 8.5159C136.732 8.87481 136.814 9.22654 136.922 9.57109C137.03 9.92282 137.162 10.2602 137.32 10.5832C137.478 10.9134 137.661 11.2257 137.869 11.52C139.205 13.4473 140.626 14.061 142.036 14.5133V14.4917C141.9 14.2261 141.778 13.9534 141.67 13.6734C141.555 13.3935 141.459 13.1099 141.38 12.8228C141.293 12.5357 141.218 12.245 141.153 11.9507C141.096 11.6564 141.053 11.3585 141.024 11.057C140.561 7.2669 142.047 3.92905 144.351 3.59526Z" fill="var(--nav--primary)"></path>
<path d="M169.432 10.7858C169.432 9.57984 168.549 8.60002 167.473 8.60002H157.901C157.936 8.32725 157.983 8.05807 158.041 7.79248C158.098 7.52688 158.17 7.26488 158.256 7.00646C158.335 6.74805 158.425 6.49323 158.525 6.24199C158.626 5.98358 158.737 5.73234 158.859 5.48828L158.74 5.53135C158.661 5.55288 158.586 5.57442 158.514 5.59595C158.442 5.62467 158.371 5.64979 158.299 5.67132C158.227 5.70004 158.159 5.72875 158.094 5.75746C158.023 5.78618 157.951 5.81489 157.879 5.8436C157.556 5.97999 157.247 6.13432 156.953 6.30659C156.652 6.48605 156.364 6.68704 156.092 6.90956C155.826 7.13208 155.578 7.37255 155.349 7.63097C155.112 7.89656 154.9 8.17292 154.713 8.46005C154.505 8.76153 154.322 9.07378 154.164 9.3968C154.006 9.72699 153.874 10.0644 153.766 10.4089C153.658 10.7535 153.576 11.1052 153.518 11.4641C153.461 11.823 153.432 12.1855 153.432 12.5516C153.443 13.2622 153.54 13.9621 153.755 14.6405C153.96 15.3188 154.261 15.9648 154.66 16.557C155.047 17.1492 155.521 17.6768 156.07 18.129C156.619 18.5813 157.233 18.9581 157.879 19.2273C157.994 19.2847 158.105 19.335 158.213 19.378C158.328 19.4211 158.442 19.4642 158.557 19.5073C158.672 19.5431 158.787 19.579 158.902 19.6149C159.024 19.6436 159.142 19.6688 159.257 19.6903C159.516 19.7405 159.778 19.7872 160.043 19.8303C160.302 19.8662 160.564 19.8949 160.829 19.9164C161.088 19.9451 161.35 19.9631 161.615 19.9702C161.881 19.9846 162.146 19.9918 162.412 19.9918H167.257C168.28 19.9918 169.131 19.1089 169.217 18.0106C169.217 17.9316 169.217 17.8563 169.217 17.7845V16.5032L162.337 16.4924C162.265 16.4924 162.193 16.4924 162.121 16.4924C162.042 16.4852 161.967 16.4817 161.895 16.4817C161.823 16.4745 161.748 16.4673 161.669 16.4601C161.597 16.4601 161.526 16.4529 161.454 16.4386L161.163 16.3955C159.537 16.1586 158.31 14.4251 157.911 12.0778H169.422L169.432 10.7858Z" fill="var(--nav--primary)"></path>
<path d="M64.5492 2.2131V9.61021L71.5479 0.781052C71.6341 0.666201 71.731 0.562118 71.8386 0.468801C71.9463 0.375485 72.0647 0.296525 72.194 0.231922C72.3232 0.174496 72.456 0.127838 72.5923 0.0919473C72.7359 0.0560564 72.8795 0.038111 73.023 0.038111H76.9746L69.2653 9.78248L77.0608 19.9791H72.8185C72.6677 19.9791 72.5206 19.9611 72.377 19.9252C72.2334 19.8894 72.0935 19.8355 71.9571 19.7637C71.8279 19.692 71.7058 19.6094 71.591 19.5161C71.4833 19.4156 71.3864 19.3043 71.3003 19.1823L64.5492 10.0517V19.9791H62.4819C61.3944 19.9791 60.5115 18.9993 60.5115 17.7933V0.0273438H62.5788C63.6555 0.0273438 64.5384 1.00716 64.5384 2.2131H64.5492Z" fill="var(--nav--primary)"></path>
<path d="M42.4388 3.50195H49.4699C49.4699 3.50195 51.0634 3.44811 51.9571 3.86804C52.6677 4.20182 53.0661 4.92323 53.0661 6.10763C53.0661 7.04438 52.84 7.66888 52.377 8.0242C52.4991 8.13187 52.6175 8.24313 52.7323 8.35798C52.8472 8.47283 52.9585 8.59127 53.0661 8.7133C53.1738 8.83533 53.2779 8.96095 53.3784 9.09016C53.4789 9.22654 53.5722 9.36293 53.6583 9.49931C53.8629 9.79003 54.1536 10.2961 54.5412 10.996C54.5484 11.0103 54.5556 11.0211 54.5628 11.0283C54.57 11.0426 54.5771 11.0534 54.5843 11.0606C54.5915 11.0677 54.5987 11.0785 54.6058 11.0929C54.613 11.1 54.6202 11.1108 54.6274 11.1252C54.7925 11.039 54.9504 10.9421 55.1011 10.8345C55.2519 10.7268 55.3954 10.6119 55.5318 10.4899C55.6682 10.3679 55.7974 10.2351 55.9195 10.0915C56.0343 9.94795 56.142 9.8008 56.2425 9.65005C56.4076 9.37729 56.5511 9.09734 56.6732 8.81021C56.7952 8.5159 56.8957 8.21801 56.9746 7.91653C57.0536 7.61504 57.1074 7.30638 57.1362 6.99054C57.172 6.6747 57.1828 6.36245 57.1685 6.05379C57.1685 5.92458 57.05 4.09415 56.6947 3.26507C56.6373 3.10715 56.5691 2.95282 56.4901 2.80208C56.4183 2.65133 56.3358 2.50418 56.2425 2.36062C56.1492 2.22423 56.0522 2.08785 55.9518 1.95146C55.8441 1.82225 55.7328 1.69664 55.618 1.57461C55.4888 1.43822 55.3524 1.3126 55.2088 1.19775C55.0653 1.0829 54.9145 0.97523 54.7566 0.874736C54.5987 0.78142 54.4336 0.69887 54.2613 0.627089C54.0962 0.548129 53.9239 0.483525 53.7445 0.433278C53.4717 0.354318 53.1989 0.289714 52.9262 0.239467C52.6534 0.182042 52.3806 0.135384 52.1078 0.0994928C51.8279 0.0636019 51.5479 0.0384783 51.268 0.024122C50.9952 0.00976563 50.7189 0.00617654 50.4389 0.0133547H40.4577V1.4131C40.4469 1.68228 40.4792 1.94069 40.5761 2.19911C40.673 2.44676 40.813 2.67287 40.996 2.87745C41.1791 3.07126 41.4052 3.222 41.6528 3.32967C41.8897 3.43734 42.1589 3.50195 42.4281 3.50195H42.4388Z" fill="var(--nav--primary)"></path>
<path d="M52.4763 10.4394C51.4857 8.93195 50.4844 8.59817 49.8706 8.5551C49.2461 8.51203 44.5193 8.5551 44.5193 8.5551V7.20919C44.5193 6.00326 43.6364 5.02344 42.5489 5.02344H40.4816V17.7934C40.4816 18.9993 41.3645 19.9792 42.452 19.9792H44.5193V12.0545H49.2892L53.2408 19.4408C53.2767 19.5198 53.3233 19.5915 53.3807 19.6561C53.4382 19.7207 53.5064 19.7782 53.5853 19.8284C53.6571 19.8715 53.7361 19.9074 53.8222 19.9361C53.9083 19.9576 53.9945 19.972 54.0806 19.9792H58.0753L53.3592 11.9145C53.3377 11.8822 52.6593 10.6978 52.4763 10.4394Z" fill="var(--nav--primary)"></path>
<path d="M154.33 5.06642C154.438 4.7434 154.567 4.43115 154.718 4.12967C154.869 3.82101 155.037 3.5267 155.224 3.24675C155.418 2.96681 155.626 2.70121 155.848 2.44998C156.078 2.19874 156.322 1.96186 156.581 1.73934C156.789 1.56706 157.004 1.40555 157.227 1.25481C157.449 1.11125 157.682 0.978452 157.926 0.856423C158.163 0.734394 158.411 0.63031 158.669 0.544172C158.921 0.458034 159.179 0.386252 159.445 0.328827C159.703 0.27858 159.961 0.231922 160.22 0.188853C160.485 0.152962 160.747 0.124249 161.006 0.102715C161.271 0.0740019 161.533 0.0560564 161.792 0.0488783C162.057 0.0345219 162.323 0.0273438 162.589 0.0273438H167.455C168.543 0.0273438 169.426 1.00716 169.426 2.2131V3.51594H162.782C162.782 3.51594 161.372 3.51594 160.64 3.58054C160.64 3.58054 158.454 3.75282 156.85 4.62496C155.299 5.47558 154.513 6.17545 153.673 7.35985C153.673 7.37062 154.083 5.8309 154.33 5.06642Z" fill="var(--nav--primary)"></path>
<path d="M145.674 19.9683C142.766 19.9683 140.57 19.193 139.116 17.7071C137.964 16.5335 137.221 14.8431 136.855 12.625C136.888 12.6788 136.952 12.7973 136.984 12.8403C138.276 14.7031 140.742 16.1782 144.382 16.4366C144.931 16.4904 147.02 16.4904 147.45 16.5012H150.422C151.509 16.5012 152.392 17.481 152.392 18.687V19.9683H145.674Z" fill="var(--nav--primary)"></path>
<path d="M26.4458 8.72729L22.9357 18.6224C22.8711 18.8162 22.7742 18.9885 22.6558 19.1608C22.5373 19.3223 22.3973 19.4622 22.2358 19.5915C22.0743 19.7099 21.8913 19.8068 21.6975 19.8714C21.5144 19.936 21.3098 19.9791 21.1053 19.9791H18.4135L25.7567 0.0273438H30.602C30.0098 0.587241 29.2022 1.36248 27.6841 5.26023C27.3287 6.24005 27.0488 6.97223 26.4458 8.72729Z" fill="var(--nav--primary)"></path>
<path d="M37.5099 16.8854L31.2003 1.50977C30.9706 1.8615 30.7517 2.2204 30.5435 2.58649C30.3425 2.9454 30.1487 3.31149 29.9621 3.68475C29.7755 4.0652 29.6032 4.44564 29.4453 4.82608C29.2873 5.2137 29.1366 5.60491 28.993 5.99971L31.1465 11.6418H28.3147C28.0994 11.6418 27.8732 11.6956 27.6687 11.771C27.4641 11.8463 27.2703 11.954 27.1088 12.1048C26.9365 12.2447 26.7858 12.4062 26.6781 12.6C26.5596 12.7831 26.4735 12.9877 26.4304 13.203L25.7413 15.2165H32.4924L34.2798 19.9756H35.7226C37.1546 19.9756 38.1129 18.3282 37.5099 16.8854Z" fill="var(--nav--primary)"></path>
<path d="M84.2047 5.0616V19.9743H86.4228C87.5103 19.9743 88.3824 18.9944 88.3824 17.7885V5.0293H84.2047V5.0616Z" fill="var(--nav--primary)"></path>
<path d="M79.9895 0.0449219C78.902 0.0449219 78.019 1.02474 78.019 2.23068V3.51198H92.6733C93.75 3.51198 94.6329 2.54293 94.6329 1.33699V0.0449219H79.9895Z" fill="var(--nav--primary)"></path>
<path d="M4.02696 3.51594C4.02696 3.51594 8.52767 3.51594 8.73225 3.51594C8.93683 3.51594 9.73361 3.56977 10.1535 3.61284C15.2895 4.20504 17.023 6.49847 17.766 7.6075C17.4214 5.28177 16.5816 3.48363 15.408 2.2777C13.9508 0.798997 11.7507 0.0488783 8.80762 0.0273438H0V3.50517L4.02696 3.51594Z" fill="var(--nav--primary)"></path>
<path d="M124.36 8.72729L120.839 18.6224C120.775 18.8162 120.689 18.9885 120.57 19.1608C120.452 19.3223 120.301 19.4622 120.139 19.5915C119.978 19.7099 119.806 19.8068 119.612 19.8714C119.418 19.936 119.214 19.9791 119.02 19.9791H116.328L123.66 0.0273438H128.516C127.924 0.587241 127.117 1.36248 125.588 5.26023C125.243 6.24005 124.909 7.06913 124.36 8.72729Z" fill="var(--nav--primary)"></path>
<path d="M135.428 16.8854L129.107 1.50977C128.885 1.8615 128.669 2.2204 128.461 2.58649C128.253 2.9454 128.059 3.31149 127.88 3.68475C127.693 4.0652 127.521 4.44564 127.363 4.82608C127.198 5.2137 127.047 5.60491 126.911 5.99971L129.064 11.6418H126.276C126.06 11.6418 125.845 11.6956 125.63 11.771C125.425 11.8463 125.242 11.954 125.07 12.1048C124.897 12.2447 124.757 12.4062 124.639 12.6C124.52 12.7831 124.434 12.9877 124.391 13.203L123.853 15.2165H130.41L132.198 19.9756H133.63C135.062 19.9756 136.02 18.3282 135.428 16.8854Z" fill="var(--nav--primary)"></path>
<path d="M98.9583 3.49218H105.989C105.989 3.49218 107.583 3.43834 108.477 3.85827C109.187 4.20282 109.586 4.91346 109.586 6.09786C109.596 7.03461 109.359 7.65911 108.896 8.01443C109.018 8.1221 109.137 8.23337 109.252 8.34822C109.367 8.46307 109.478 8.58151 109.586 8.70354C109.693 8.83274 109.797 8.96195 109.898 9.09116C109.998 9.22036 110.092 9.35316 110.178 9.48954C110.382 9.78026 110.673 10.2863 111.061 10.9862C111.093 11.0293 111.125 11.0723 111.158 11.1154C111.315 11.0293 111.473 10.9324 111.631 10.8247C111.782 10.717 111.926 10.6022 112.062 10.4801C112.198 10.3581 112.324 10.2253 112.439 10.0817C112.561 9.94536 112.672 9.79821 112.773 9.64029C112.931 9.36752 113.071 9.08757 113.193 8.80044C113.307 8.50613 113.404 8.20824 113.483 7.90676C113.555 7.60527 113.609 7.29661 113.645 6.98077C113.674 6.67211 113.681 6.35986 113.666 6.04402C113.666 5.91481 113.548 4.09515 113.203 3.26607C113.139 3.10815 113.071 2.95382 112.999 2.80308C112.92 2.65233 112.834 2.50518 112.74 2.36162C112.654 2.21806 112.557 2.08167 112.45 1.95246C112.342 1.81608 112.231 1.68687 112.116 1.56484C111.987 1.43563 111.85 1.31002 111.707 1.18799C111.563 1.07314 111.412 0.969054 111.254 0.875737C111.097 0.775243 110.935 0.689105 110.77 0.617323C110.598 0.545541 110.425 0.480938 110.253 0.423512C109.988 0.35173 109.718 0.287127 109.446 0.229702C109.173 0.172276 108.896 0.125618 108.616 0.0897272C108.344 0.0538363 108.067 0.0287127 107.787 0.0143563C107.507 1.60445e-09 107.228 -0.00358909 106.948 0.00358909H96.9771V1.40333C96.9663 1.67251 97.0094 1.9417 97.0955 2.18934C97.1924 2.43699 97.3324 2.67387 97.5155 2.86768C97.7093 3.06149 97.9246 3.21223 98.1723 3.31991C98.4199 3.42758 98.6783 3.49218 98.9583 3.49218Z" fill="var(--nav--primary)"></path>
<path d="M108.998 10.413C107.996 8.91633 106.995 8.58254 106.381 8.53947C105.767 8.4964 101.03 8.53947 101.03 8.53947V7.19357C101.03 5.98763 100.147 5.00781 99.0594 5.00781H96.9921V17.7778C96.9921 18.9837 97.8857 19.9635 98.9625 19.9635H101.03V12.0496H105.8L109.751 19.4359C109.787 19.5149 109.834 19.5867 109.891 19.6513C109.956 19.7159 110.024 19.7733 110.096 19.8236C110.168 19.8666 110.247 19.9025 110.333 19.9312C110.419 19.9528 110.505 19.9671 110.591 19.9743H114.597L109.87 11.9096C109.848 11.8666 109.17 10.6822 108.998 10.413Z" fill="var(--nav--primary)"></path>
<path d="M15.6987 7.55965C15.7704 7.63143 15.8422 7.71039 15.914 7.79653C15.9786 7.87549 16.0468 7.95445 16.1186 8.03341C16.1832 8.11955 16.2442 8.2021 16.3016 8.28106C16.3662 8.3672 16.4273 8.45334 16.4847 8.53947C16.6928 8.83378 16.8759 9.13885 17.0338 9.45469C17.1845 9.77053 17.3138 10.0971 17.4214 10.4345C17.5291 10.7791 17.6081 11.1236 17.6583 11.4682C17.7086 11.8199 17.7337 12.1752 17.7337 12.5341C17.7337 13.5032 17.5399 14.4722 17.163 15.3659C16.7862 16.2704 16.237 17.0887 15.5479 17.7778C14.8481 18.4669 14.0297 19.0052 13.1253 19.3821C12.2316 19.759 11.2626 19.9528 10.2827 19.9528L8.92606 19.9743H1.97041C0.882915 19.9743 0 18.9945 0 17.7885V5.00781H4.04849V16.4965H8.74302C8.90811 16.4965 9.07321 16.4965 9.23831 16.4965C9.40341 16.4893 9.56851 16.4821 9.7336 16.4749C9.8987 16.4606 10.0602 16.4426 10.2181 16.4211C10.3832 16.3996 10.5483 16.3744 10.7134 16.3457C10.857 16.3098 10.997 16.2632 11.1333 16.2058C11.2697 16.1483 11.4025 16.0801 11.5317 16.0012C11.6538 15.9222 11.7722 15.8325 11.8871 15.732C11.9947 15.6315 12.0952 15.5238 12.1885 15.409C12.2962 15.2798 12.3931 15.147 12.4793 15.0106C12.5726 14.867 12.6551 14.7235 12.7269 14.5799C12.8059 14.4292 12.8741 14.2748 12.9315 14.1169C12.9889 13.959 13.0356 13.8011 13.0715 13.6432C13.1145 13.4781 13.154 13.3165 13.1899 13.1586C13.2186 12.9935 13.2473 12.8284 13.276 12.6633C13.3047 12.4982 13.3299 12.3331 13.3514 12.168C13.3729 12.0029 13.3909 11.8378 13.4052 11.6727C13.4196 11.4574 13.4304 11.2456 13.4375 11.0375C13.4519 10.8221 13.4591 10.6104 13.4591 10.4022C13.4591 10.1869 13.4591 9.97152 13.4591 9.75617C13.4519 9.54801 13.4447 9.33625 13.4375 9.12091C13.4304 8.88403 13.416 8.64715 13.3945 8.41027C13.3729 8.17339 13.3478 7.9401 13.3191 7.71039C13.2904 7.47351 13.2545 7.23664 13.2114 6.99976C13.1755 6.77005 13.1325 6.53676 13.0822 6.29988C13.0679 6.25681 13.0499 6.21016 13.0284 6.15991C13.014 6.10966 12.9997 6.05941 12.9853 6.00917C12.9638 5.9661 12.9458 5.91944 12.9315 5.86919C12.9099 5.82612 12.8884 5.77947 12.8669 5.72922C13.1325 5.82254 13.3873 5.93021 13.6314 6.05224C13.8826 6.16709 14.1231 6.29988 14.3528 6.45063C14.5896 6.60137 14.8158 6.76288 15.0311 6.93515C15.2464 7.11461 15.451 7.30124 15.6448 7.49505L15.6987 7.55965Z" fill="var(--nav--primary)"></path>
<path d="M144.351 3.60308L144.642 3.56001C144.714 3.54565 144.786 3.53847 144.857 3.53847C144.929 3.53129 145.001 3.52412 145.073 3.51694C145.152 3.51694 145.227 3.51694 145.299 3.51694C145.371 3.50976 145.442 3.50617 145.514 3.50617L152.405 3.4954V2.20333C152.405 0.997399 151.522 0.0175781 150.435 0.0175781H145.568C145.331 0.0175781 145.098 0.0211672 144.868 0.0283454C144.631 0.0355236 144.394 0.0498799 144.158 0.0714144C143.928 0.092949 143.695 0.118073 143.458 0.146785C143.228 0.175498 142.998 0.211389 142.769 0.254458H142.725C141.875 0.394432 141.067 0.685148 140.314 1.10507C139.571 1.52499 138.903 2.07413 138.343 2.73093C137.783 3.37696 137.353 4.1199 137.051 4.92745C136.75 5.73499 136.599 6.58561 136.599 7.43622C136.599 7.80231 136.624 8.16481 136.674 8.52372C136.732 8.88262 136.814 9.23435 136.922 9.57891C137.03 9.92346 137.162 10.2608 137.32 10.591C137.478 10.914 137.661 11.2263 137.869 11.5278C139.194 13.4551 140.626 14.0581 142.026 14.5103C141.896 14.2447 141.778 13.972 141.67 13.692C141.555 13.4121 141.455 13.1285 141.369 12.8414C141.29 12.5471 141.218 12.2528 141.153 11.9585C141.096 11.6642 141.053 11.3699 141.024 11.0756C140.561 7.28548 142.047 3.93686 144.341 3.61384" fill="var(--nav--primary)"></path>
<path d="M169.431 10.7945C169.431 9.5886 168.548 8.60878 167.471 8.60878H157.899C157.935 8.34319 157.982 8.0776 158.039 7.81201C158.104 7.54641 158.176 7.28441 158.255 7.026C158.334 6.7604 158.423 6.50199 158.524 6.25075C158.624 5.99952 158.736 5.75187 158.858 5.50781L158.728 5.55088C158.657 5.57242 158.585 5.59395 158.513 5.61549C158.441 5.63702 158.369 5.66214 158.298 5.69086C158.226 5.71239 158.158 5.73751 158.093 5.76623C158.021 5.79494 157.95 5.82724 157.878 5.86313C157.555 5.99234 157.246 6.14667 156.952 6.32612C156.65 6.50558 156.367 6.70657 156.101 6.92909C155.828 7.15161 155.577 7.39208 155.347 7.6505C155.111 7.90891 154.899 8.18527 154.712 8.47958C154.504 8.77388 154.321 9.08613 154.163 9.41633C154.005 9.73935 153.872 10.0767 153.765 10.4285C153.657 10.773 153.574 11.1247 153.517 11.4836C153.467 11.8426 153.442 12.2015 153.442 12.5604C153.442 13.271 153.549 13.9816 153.754 14.66C153.958 15.3383 154.26 15.9844 154.658 16.5658C155.046 17.158 155.531 17.6964 156.069 18.1486C156.618 18.6008 157.232 18.9669 157.878 19.2468C157.993 19.2971 158.104 19.3473 158.212 19.3976C158.326 19.4406 158.441 19.4801 158.556 19.516C158.671 19.5591 158.786 19.595 158.901 19.6237C159.023 19.6596 159.141 19.6883 159.256 19.7098C159.514 19.7601 159.776 19.8031 160.042 19.839C160.3 19.8749 160.562 19.9072 160.828 19.9359C161.086 19.9575 161.348 19.9754 161.614 19.9898C161.88 19.997 162.145 20.0005 162.411 20.0005H167.256C168.279 20.0005 169.13 19.1176 169.216 18.0194C169.216 18.005 169.216 17.9871 169.216 17.9655C169.216 17.944 169.216 17.9261 169.216 17.9117C169.216 17.8902 169.216 17.8686 169.216 17.8471C169.216 17.8327 169.216 17.8148 169.216 17.7933V16.5227L162.335 16.5012C162.264 16.5012 162.192 16.5012 162.12 16.5012C162.041 16.494 161.966 16.4904 161.894 16.4904C161.822 16.4832 161.747 16.4761 161.668 16.4689C161.596 16.4689 161.524 16.4617 161.452 16.4473L161.162 16.4043C159.536 16.1674 158.308 14.4339 157.91 12.0866H169.42L169.431 10.7945Z" fill="var(--nav--primary)"></path>
</svg>