<svg xmlns="http://www.w3.org/2000/svg" width="238.304" height="59.25" viewBox="0 0 238.304 59.25">
  <g id="fta-tripwire-light" transform="translate(119.152 29.625)">
    <g id="fta-tripwire-light-2" data-name="fta-tripwire-light" transform="translate(-119.152 -29.625)">
      <g id="integrity-management">
        <path id="Path_3013" data-name="Path 3013" d="M0,39.618H2.834V54.525H0Z" fill="#8fe5f2"/>
        <path id="Path_3014" data-name="Path 3014" d="M8.588,54.525H5.922V43.9H8.588v1.785a4.044,4.044,0,0,1,3.527-2.016,4.341,4.341,0,0,1,4.431,4.662v6.193H13.837V48.856a2.529,2.529,0,0,0-2.582-2.792,2.592,2.592,0,0,0-2.667,2.792Z" fill="#8fe5f2"/>
        <path id="Path_3015" data-name="Path 3015" d="M27.214,54.525h-2.94c-2.5,0-3.673-1.2-3.673-3.464V46.189H17.682V43.9H20.6V39.618h2.687V43.9h3.926v2.288H23.288v4.053c0,1.322.441,1.89,1.89,1.89h2.036Z" fill="#8fe5f2"/>
        <path id="Path_3016" data-name="Path 3016" d="M39.52,49.36v.294H31.079a3.017,3.017,0,0,0,3.087,2.918,2.88,2.88,0,0,0,2.582-1.154h2.646c-.168,1.092-1.617,3.381-5.228,3.381a5.455,5.455,0,0,1-5.774-5.586,5.34,5.34,0,0,1,5.564-5.584A5.346,5.346,0,0,1,39.52,49.36Zm-8.357-1.553h5.543a2.879,2.879,0,0,0-5.543,0Z" fill="#8fe5f2"/>
        <path id="Path_3017" data-name="Path 3017" d="M45.842,54.715c-2.772,0-5.061-2.079-5.061-5.523,0-3.463,2.289-5.522,5.061-5.522a4.105,4.105,0,0,1,3.632,1.848V43.9h2.687V54.295c0,2.918-1.868,4.955-5.711,4.955-4.094,0-5.417-2.541-5.585-3.318h3.087a2.789,2.789,0,0,0,2.5,1.091c1.932,0,3.045-1.007,3.045-2.771V52.783A4.075,4.075,0,0,1,45.842,54.715Zm.692-8.694a3.177,3.177,0,1,0,2.982,3.171A2.962,2.962,0,0,0,46.534,46.021Z" fill="#8fe5f2"/>
        <path id="Path_3018" data-name="Path 3018" d="M57.56,54.525H54.894V43.9H57.56v1.785c.273-.609,1.091-1.848,3.443-1.848H63.48v2.667H60.646c-2.267,0-3.086.756-3.086,2.435Z" fill="#8fe5f2"/>
        <path id="Path_3019" data-name="Path 3019" d="M65.1,39.01h2.792V42.2H65.1Zm.062,4.891H67.85V54.525H65.162Z" fill="#8fe5f2"/>
        <path id="Path_3020" data-name="Path 3020" d="M78.979,54.525h-2.94c-2.5,0-3.674-1.2-3.674-3.464V46.189H69.446V43.9h2.919V39.618h2.688V43.9h3.926v2.288H75.053v4.053c0,1.322.44,1.89,1.889,1.89h2.037Z" fill="#8fe5f2"/>
        <path id="Path_3021" data-name="Path 3021" d="M84.964,59H82.276l2.016-4.662L79.5,43.9h3.023l3.129,7.223L88.785,43.9h2.73Z" fill="#8fe5f2"/>
        <path id="Path_3022" data-name="Path 3022" d="M106.488,50.473l4.472-10.855h4.052V54.525h-2.729V42.306l-5,12.282h-1.91L100.42,42.41V54.525h-2.6V39.618h4.221Z" fill="#8fe5f2"/>
        <path id="Path_3023" data-name="Path 3023" d="M122.386,54.756c-2.73,0-5-2.057-5-5.543,0-3.443,2.267-5.543,5.017-5.543a3.971,3.971,0,0,1,3.549,1.827V43.9h2.688V54.525h-2.666V52.846A3.916,3.916,0,0,1,122.386,54.756Zm.714-8.735a3.2,3.2,0,0,0,0,6.383,2.94,2.94,0,0,0,2.9-3.191A2.942,2.942,0,0,0,123.1,46.021Z" fill="#8fe5f2"/>
        <path id="Path_3024" data-name="Path 3024" d="M134.041,54.525h-2.666V43.9h2.666v1.785a4.043,4.043,0,0,1,3.527-2.016A4.341,4.341,0,0,1,142,48.332v6.193H139.29V48.856a2.529,2.529,0,0,0-2.583-2.792,2.591,2.591,0,0,0-2.666,2.792Z" fill="#8fe5f2"/>
        <path id="Path_3025" data-name="Path 3025" d="M148.909,54.756c-2.729,0-5-2.057-5-5.543,0-3.443,2.268-5.543,5.018-5.543a3.972,3.972,0,0,1,3.549,1.827V43.9h2.687V54.525H152.5V52.846A3.916,3.916,0,0,1,148.909,54.756Zm.714-8.735a3.206,3.206,0,1,0,2.9,3.192A2.97,2.97,0,0,0,149.623,46.021Z" fill="#8fe5f2"/>
        <path id="Path_3026" data-name="Path 3026" d="M162.266,54.715c-2.772,0-5.061-2.079-5.061-5.523,0-3.463,2.289-5.522,5.061-5.522a4.1,4.1,0,0,1,3.631,1.848V43.9h2.688V54.295c0,2.918-1.868,4.955-5.711,4.955-4.095,0-5.417-2.541-5.585-3.318h3.086a2.79,2.79,0,0,0,2.5,1.091c1.932,0,3.044-1.007,3.044-2.771V52.783A4.072,4.072,0,0,1,162.266,54.715Zm.692-8.694a3.177,3.177,0,1,0,2.981,3.171A2.961,2.961,0,0,0,162.958,46.021Z" fill="#8fe5f2"/>
        <path id="Path_3027" data-name="Path 3027" d="M181.73,49.36v.294h-8.439a3.016,3.016,0,0,0,3.086,2.918,2.878,2.878,0,0,0,2.582-1.154H181.6c-.167,1.092-1.617,3.381-5.228,3.381a5.454,5.454,0,0,1-5.773-5.586,5.564,5.564,0,1,1,11.126.147Zm-8.355-1.553h5.543a2.879,2.879,0,0,0-5.543,0Z" fill="#8fe5f2"/>
        <path id="Path_3028" data-name="Path 3028" d="M186.352,54.525h-2.666V43.9h2.666v1.785a3.95,3.95,0,0,1,3.485-2.016,4.087,4.087,0,0,1,3.863,2.373,4.233,4.233,0,0,1,3.9-2.373,4.314,4.314,0,0,1,4.41,4.662v6.193h-2.688V48.856a2.494,2.494,0,0,0-2.519-2.792,2.57,2.57,0,0,0-2.624,2.792v5.669H191.5V48.856a2.5,2.5,0,0,0-2.519-2.792,2.571,2.571,0,0,0-2.625,2.792Z" fill="#8fe5f2"/>
        <path id="Path_3029" data-name="Path 3029" d="M215.057,49.36v.294h-8.44a3.016,3.016,0,0,0,3.086,2.918,2.878,2.878,0,0,0,2.582-1.154h2.647c-.168,1.092-1.618,3.381-5.229,3.381a5.454,5.454,0,0,1-5.773-5.586,5.565,5.565,0,1,1,11.127.147ZM206.7,47.807h5.543a2.879,2.879,0,0,0-5.543,0Z" fill="#8fe5f2"/>
        <path id="Path_3030" data-name="Path 3030" d="M219.679,54.525h-2.667V43.9h2.667v1.785a4.043,4.043,0,0,1,3.527-2.016,4.341,4.341,0,0,1,4.431,4.662v6.193h-2.709V48.856a2.529,2.529,0,0,0-2.582-2.792,2.592,2.592,0,0,0-2.667,2.792Z" fill="#8fe5f2"/>
        <path id="Path_3031" data-name="Path 3031" d="M238.3,54.525h-2.94c-2.5,0-3.675-1.2-3.675-3.464V46.189h-2.918V43.9h2.918V39.618h2.688V43.9H238.3v2.288h-3.927v4.053c0,1.322.441,1.89,1.891,1.89H238.3Z" fill="#8fe5f2"/>
      </g>
      <g id="tripwire">
        <path id="Path_3032" data-name="Path 3032" d="M0,.968H23.293V4.973h-9.41V24.661H9.411V4.973H0Z" fill="#fff"/>
        <path id="Path_3033" data-name="Path 3033" d="M29.6,24.661H25.365V7.775H29.6v2.837c.433-.967,1.735-2.936,5.472-2.936h3.938v4.237H34.509c-3.6,0-4.9,1.2-4.9,3.871Z" fill="#fff"/>
        <path id="Path_3034" data-name="Path 3034" d="M42.486,0h4.439V5.072H42.486Zm.1,7.775h4.271V24.661H42.587Z" fill="#fff"/>
        <path id="Path_3035" data-name="Path 3035" d="M56.337,31.735H52.132V7.775H56.37v2.67a6.578,6.578,0,0,1,5.807-3.037c4.4,0,8.009,3.3,8.009,8.811,0,5.539-3.6,8.809-8.009,8.809a6.623,6.623,0,0,1-5.84-2.936Zm4.738-10.444a4.734,4.734,0,0,0,4.806-5.072c0-2.9-1.869-5.073-4.806-5.073-2.9,0-4.771,2.169-4.771,5.073C56.3,19.088,58.172,21.291,61.075,21.291Z" fill="#fff"/>
        <path id="Path_3036" data-name="Path 3036" d="M86.34,13.048,82.068,24.8H78.331L72.023,7.775h4.639l3.9,11.346L84.738,7.642h3.771l4.138,11.379L96.519,7.775h4.137L94.482,24.8H90.645Z" fill="#fff"/>
        <path id="Path_3037" data-name="Path 3037" d="M103.7,0h4.439V5.072H103.7Zm.1,7.775h4.271V24.661H103.8Z" fill="#fff"/>
        <path id="Path_3038" data-name="Path 3038" d="M117.58,24.661h-4.238V7.775h4.238v2.837c.434-.967,1.735-2.936,5.473-2.936h3.938v4.237h-4.506c-3.6,0-4.9,1.2-4.9,3.871Z" fill="#fff"/>
        <path id="Path_3039" data-name="Path 3039" d="M146.916,16.452v.467H133.5a4.8,4.8,0,0,0,4.906,4.639c2.7,0,3.8-1.369,4.1-1.835h4.2c-.267,1.735-2.569,5.372-8.309,5.372-5.507,0-9.177-3.8-9.177-8.876a8.488,8.488,0,0,1,8.843-8.877C143.278,7.342,146.916,10.912,146.916,16.452Zm-13.282-2.47h8.809a4.576,4.576,0,0,0-8.809,0Z" fill="#fff"/>
      </g>
      <path id="Path_3040" data-name="Path 3040" d="M148.916,4.292a3.323,3.323,0,1,1,6.645,0,3.323,3.323,0,0,1-6.645,0Zm6.156,0a2.834,2.834,0,1,0-5.667,0,2.834,2.834,0,1,0,5.667,0Zm-4.09-1.662h1.592c.782,0,1.158.377,1.158.992a.873.873,0,0,1-.74.935l.768,1.354h-.516L152.462,4.6h-1.005V5.911h-.475Zm.475.461V4.152h1.117c.461,0,.67-.181.67-.53s-.209-.531-.67-.531Z" fill="#fff"/>
    </g>
  </g>
</svg>
