<svg xmlns="http://www.w3.org/2000/svg" width="15.5" height="15.5" viewBox="0 0 15.5 15.5">
  <path id="phone-rounded-svgrepo-com_2_" data-name="phone-rounded-svgrepo-com (2)" d="M7.271,3.25A3,3,0,0,1,9.938,4.786L10.506,5.8A3.228,3.228,0,0,1,9.9,9.61c-.14.192-.153.785.776,1.714.736.736,1.219.846,1.442.846a.479.479,0,0,0,.272-.07,3.377,3.377,0,0,1,2.344-.979,3,3,0,0,1,1.461.375l1.018.568a2.987,2.987,0,0,1,1.505,2.221,3.467,3.467,0,0,1-1.009,2.9,4.7,4.7,0,0,1-3.123,1.559c-.11,0-.222.006-.333.006a10.6,10.6,0,0,1-7.575-3.429,11.881,11.881,0,0,1-2.868-4.394,9.383,9.383,0,0,1-.554-3.514A4.7,4.7,0,0,1,4.815,4.29,3.462,3.462,0,0,1,7.271,3.25Zm4.848,10.419a3.67,3.67,0,0,1-2.5-1.285c-2.275-2.275-.859-3.752-.8-3.813A1.729,1.729,0,0,0,9.2,6.535L8.628,5.517A1.5,1.5,0,0,0,7.271,4.75a1.973,1.973,0,0,0-1.395.6A3.421,3.421,0,0,0,4.755,7.47,9.006,9.006,0,0,0,7.74,14.26a9.133,9.133,0,0,0,6.515,2.99c.092,0,.185,0,.276-.005a3.421,3.421,0,0,0,2.12-1.121,1.961,1.961,0,0,0,.584-1.635,1.48,1.48,0,0,0-.751-1.118L15.465,12.8a1.5,1.5,0,0,0-.73-.185,1.869,1.869,0,0,0-1.3.561A1.877,1.877,0,0,1,12.119,13.669Z" transform="translate(-3.25 -3.25)" fill="#0ec9ac"/>
</svg>
