<svg xmlns="http://www.w3.org/2000/svg" width="346.107" height="261.581" viewBox="0 0 346.107 261.581">
  <g id="security-secure-protection-28-svgrepo-com" transform="translate(-8 -13)">
    <path id="Path_259" data-name="Path 259" d="M350.107,186.054a83.706,83.706,0,0,1-84.527,84.527H96.527a84.528,84.528,0,1,1,0-169.054,84.528,84.528,0,1,1,169.054,0A84.775,84.775,0,0,1,350.107,186.054Z" transform="translate(0 0)" fill="none" stroke="#0ec9ac" stroke-linecap="round" stroke-linejoin="round" stroke-miterlimit="10" stroke-width="8"/>
    <g id="Group_53" data-name="Group 53" transform="translate(139.636 101.527)">
      <path id="Path_260" data-name="Path 260" d="M108.246,98.876H29.636A2.241,2.241,0,0,1,27.1,96.34v-61.7A2.241,2.241,0,0,1,29.636,32.1h78.61a2.241,2.241,0,0,1,2.536,2.536v61.7A2.241,2.241,0,0,1,108.246,98.876Z" transform="translate(-27.1 11.009)" fill="none" stroke="#fff" stroke-linejoin="round" stroke-miterlimit="10" stroke-width="8"/>
      <path id="Path_261" data-name="Path 261" d="M81.952,69.263H31.236A2.241,2.241,0,0,1,28.7,66.728V54.894A28.141,28.141,0,0,1,56.594,27h0A28.141,28.141,0,0,1,84.488,54.894V66.728A2.241,2.241,0,0,1,81.952,69.263Z" transform="translate(-15.176 -27)" fill="none" stroke="#fff" stroke-linejoin="round" stroke-miterlimit="10" stroke-width="8"/>
      <line id="Line_16" data-name="Line 16" transform="translate(41.289 77.474)" fill="none" stroke="#fff" stroke-linecap="round" stroke-linejoin="round" stroke-miterlimit="10" stroke-width="8"/>
    </g>
  </g>
</svg>
